<?xml version="1.0" encoding="utf-8"?>
<!-- Generator: Adobe Illustrator 25.4.1, SVG Export Plug-In . SVG Version: 6.00 Build 0)  -->
<svg version="1.1" id="Layer_1" xmlns="http://www.w3.org/2000/svg" xmlns:xlink="http://www.w3.org/1999/xlink" x="0px" y="0px"
	 viewBox="0 0 22.7 22.5" style="enable-background:new 0 0 22.7 22.5;" xml:space="preserve">
<style type="text/css">
	.st0{fill:#FFFFFF;}
	.st1{fill:none;stroke:#74B72C;stroke-width:0.7994;stroke-linecap:round;stroke-linejoin:round;}
</style>
<path class="st0" d="M21.6,16.6H5.4c-0.9,0-1.6-0.7-1.6-1.6c0-0.9,0.7-1.6,1.6-1.6h11.8c1.4,0,2.6-0.9,2.9-2.2l2-7.8
	c0.1-0.3-0.1-0.6-0.4-0.6c0,0-0.1,0-0.1,0H5.3l0-0.1c-0.3-1.2-1.4-2-2.6-2H1.1c-0.3,0-0.5,0.2-0.5,0.5c0,0.3,0.2,0.5,0.5,0.5h1.6
	c0.7,0,1.4,0.5,1.6,1.2l2.4,9.5H5.4c-1.5,0-2.7,1.2-2.7,2.7c0,1.5,1.2,2.7,2.7,2.7h1.1c-0.4,0.5-0.6,1-0.6,1.6
	c0,1.5,1.2,2.7,2.7,2.7c1.5,0,2.7-1.2,2.7-2.7c0-0.6-0.2-1.1-0.6-1.6h4.3c-0.4,0.5-0.6,1-0.6,1.6c0,1.5,1.2,2.7,2.7,2.7
	c1.5,0,2.7-1.2,2.7-2.7c0-0.6-0.2-1.1-0.6-1.6h2.2c0.3,0,0.5-0.2,0.5-0.5C22.2,16.8,21.9,16.6,21.6,16.6z M8.7,20.9
	c-0.9,0-1.6-0.7-1.6-1.6c0-0.9,0.7-1.6,1.6-1.6c0.9,0,1.6,0.7,1.6,1.6C10.3,20.1,9.6,20.9,8.7,20.9z M17.3,20.9
	c-0.9,0-1.6-0.7-1.6-1.6c0-0.9,0.7-1.6,1.6-1.6c0.9,0,1.6,0.7,1.6,1.6C18.9,20.1,18.2,20.9,17.3,20.9z"/>
<path class="st1" d="M21.6,16.6H5.4c-0.9,0-1.6-0.7-1.6-1.6c0-0.9,0.7-1.6,1.6-1.6h11.8c1.4,0,2.6-0.9,2.9-2.2l2-7.8
	c0.1-0.3-0.1-0.6-0.4-0.6c0,0-0.1,0-0.1,0H5.3l0-0.1c-0.3-1.2-1.4-2-2.6-2H1.1c-0.3,0-0.5,0.2-0.5,0.5c0,0.3,0.2,0.5,0.5,0.5h1.6
	c0.7,0,1.4,0.5,1.6,1.2l2.4,9.5H5.4c-1.5,0-2.7,1.2-2.7,2.7c0,1.5,1.2,2.7,2.7,2.7h1.1c-0.4,0.5-0.6,1-0.6,1.6
	c0,1.5,1.2,2.7,2.7,2.7c1.5,0,2.7-1.2,2.7-2.7c0-0.6-0.2-1.1-0.6-1.6h4.3c-0.4,0.5-0.6,1-0.6,1.6c0,1.5,1.2,2.7,2.7,2.7
	c1.5,0,2.7-1.2,2.7-2.7c0-0.6-0.2-1.1-0.6-1.6h2.2c0.3,0,0.5-0.2,0.5-0.5C22.2,16.8,21.9,16.6,21.6,16.6z M8.7,20.9
	c-0.9,0-1.6-0.7-1.6-1.6c0-0.9,0.7-1.6,1.6-1.6c0.9,0,1.6,0.7,1.6,1.6C10.3,20.1,9.6,20.9,8.7,20.9z M17.3,20.9
	c-0.9,0-1.6-0.7-1.6-1.6c0-0.9,0.7-1.6,1.6-1.6c0.9,0,1.6,0.7,1.6,1.6C18.9,20.1,18.2,20.9,17.3,20.9z"/>
</svg>
