<?xml version="1.0" encoding="utf-8"?>
<!-- Generator: Adobe Illustrator 25.4.1, SVG Export Plug-In . SVG Version: 6.00 Build 0)  -->
<svg version="1.1" id="Layer_1" xmlns="http://www.w3.org/2000/svg" xmlns:xlink="http://www.w3.org/1999/xlink" x="0px" y="0px"
	 viewBox="0 0 120 120" style="enable-background:new 0 0 120 120;" xml:space="preserve">
<g id="Layer_2_00000129918788184614395080000015442681552516889245_">
	<path d="M60,67c-11,0-20.4-7.7-22.6-18.5c-0.3-2.1,1.1-4.1,3.2-4.4c0.2,0,0.4,0,0.6,0c1.9,0,3.5,1.3,3.8,3.2
		c1.7,8.3,9.9,13.6,18.2,11.9c6-1.3,10.6-5.9,11.9-11.9c0.3-1.9,1.9-3.2,3.8-3.2c2.1,0,3.9,1.7,3.9,3.8c0,0.2,0,0.4,0,0.6
		C80.6,59.3,71.1,67.1,60,67z"/>
	<path d="M94.2,117.6H25.8c-6.4,0-11.5-5.1-11.5-11.5c0-0.2,0-0.4,0-0.6l3.1-66.2c0.3-6.2,5.3-11,11.5-11h62.1
		c6.2,0,11.2,4.9,11.5,11l3.1,66.2c0.3,6.4-4.6,11.8-10.9,12.1C94.6,117.6,94.4,117.6,94.2,117.6z M29,36c-2.1,0-3.8,1.7-3.8,3.8
		l-3.1,66c-0.1,2.1,1.5,3.9,3.6,4c0.1,0,0.1,0,0.2,0h68.3c2.1,0,3.8-1.7,3.8-3.8c0-0.1,0-0.1,0-0.2l-3.1-66.2c0-2.1-1.7-3.8-3.8-3.8
		L29,36z"/>
	<path d="M83,32.2h-7.7v-6.7c0-8.5-6.9-15.4-15.4-15.4S44.6,17,44.6,25.5v6.7H37v-6.7c0-12.7,10.3-23,23-23s23,10.3,23,23V32.2z"/>
</g>
</svg>
