<?xml version="1.0" encoding="utf-8"?>
<!-- Generator: Adobe Illustrator 25.4.1, SVG Export Plug-In . SVG Version: 6.00 Build 0)  -->
<svg version="1.1" id="Layer_1" xmlns="http://www.w3.org/2000/svg" xmlns:xlink="http://www.w3.org/1999/xlink" x="0px" y="0px"
	 viewBox="0 0 120 120" style="enable-background:new 0 0 120 120;" xml:space="preserve">
<path d="M73,60l39.4-39.4c3.6-3.6,3.6-9.4,0-13s-9.4-3.6-13,0L60,47L20.6,7.7c-3.6-3.6-9.4-3.6-13,0s-3.6,9.4,0,13L47,60L7.7,99.4
	c-3.6,3.6-3.6,9.4,0,13c1.8,1.8,4.1,2.7,6.5,2.7s4.7-0.9,6.5-2.7L60,73l39.4,39.4c1.8,1.8,4.1,2.7,6.5,2.7s4.7-0.9,6.5-2.7
	c3.6-3.6,3.6-9.4,0-13L73,60z"/>
</svg>
