<?xml version="1.0" encoding="utf-8"?>
<!-- Generator: Adobe Illustrator 25.4.1, SVG Export Plug-In . SVG Version: 6.00 Build 0)  -->
<svg version="1.1" id="Layer_1" xmlns="http://www.w3.org/2000/svg" xmlns:xlink="http://www.w3.org/1999/xlink" x="0px" y="0px"
	 viewBox="0 0 22.7 22.5" style="enable-background:new 0 0 22.7 22.5;" xml:space="preserve">
<style type="text/css">
	.st0{fill-rule:evenodd;clip-rule:evenodd;fill:#FFFFFF;}
	.st1{fill:none;stroke:#74B72C;stroke-width:0.7498;stroke-miterlimit:22.9256;}
</style>
<path class="st0" d="M11.5,1.1c3.2,0,5.8,2.4,5.8,5.4c0,3-2.6,5.4-5.8,5.4c-3.2,0-5.8-2.4-5.8-5.4C5.7,3.5,8.3,1.1,11.5,1.1z"/>
<path class="st1" d="M11.5,1.1c3.2,0,5.8,2.4,5.8,5.4c0,3-2.6,5.4-5.8,5.4c-3.2,0-5.8-2.4-5.8-5.4C5.7,3.5,8.3,1.1,11.5,1.1z"/>
<path class="st0" d="M1.8,21.5C0.2,10.4,22.6,10.9,21,21.7L1.8,21.5z"/>
<path class="st1" d="M1.8,21.5C0.2,10.4,22.6,10.9,21,21.7L1.8,21.5z"/>
</svg>
