<?xml version="1.0" encoding="utf-8"?>
<!-- Generator: Adobe Illustrator 25.4.1, SVG Export Plug-In . SVG Version: 6.00 Build 0)  -->
<svg version="1.1" id="Layer_1" xmlns="http://www.w3.org/2000/svg" xmlns:xlink="http://www.w3.org/1999/xlink" x="0px" y="0px"
	 viewBox="0 0 12.4 12.4" style="enable-background:new 0 0 12.4 12.4;" xml:space="preserve">
<style type="text/css">
	.st0{fill-rule:evenodd;clip-rule:evenodd;fill:#FFFFFF;}
</style>
<g>
	<path class="st0" d="M0.6,4.7v0.4c0,0.1,0,0.2,0,0.3C0.7,6.3,1,7,1.5,7.7L1.7,8C2,8.3,2.2,8.4,2.6,8.7c1,0.6,2.2,0.9,3.4,0.6
		c0.4-0.1,0.7-0.2,1-0.4C7.1,9,7.2,9.1,7.4,9.1c0.1,0,0.2,0,0.3,0C7.7,9.1,7.8,9,7.9,9c0,0,0.3,0.3,0.3,0.4c0,0,0,0,0,0l0.5,0.6
		c0,0,0,0,0,0c0,0,0.1,0.1,0.1,0.1l0.3,0.3c0,0,0,0,0,0l0.1,0.1c0.1,0.1,0.1,0.1,0.2,0.2c0,0,0,0,0,0l0.7,0.9c0,0,0.1,0.1,0.1,0.1
		c0,0,0,0,0.1,0l0.1,0h0.2c0,0,0.2-0.1,0.3-0.1c0.2-0.1,0.3-0.1,0.4-0.2c0,0,0.1-0.1,0.1-0.1c0,0,0-0.1,0.1-0.1
		c0.2-0.2,0.3-0.4,0.4-0.6c0-0.1,0-0.2,0.1-0.3v-0.2c-0.1-0.1,0-0.1-0.1-0.2c0,0-0.1,0-0.1-0.1L9.5,8.2C9.4,8.1,9.1,7.9,9.1,7.8
		c0-0.1,0.1-0.1,0.1-0.2c0-0.2,0-0.3-0.1-0.5C9.1,7,9,7,9,6.9c0-0.1,0.1-0.2,0.1-0.2c0.1-0.3,0.2-0.5,0.3-0.8c0.3-1.2,0-2.4-0.6-3.4
		C8.6,2.4,8.5,2.2,8.3,2L8,1.7c0,0-0.1-0.1-0.1-0.1C7.7,1.4,7.5,1.3,7.3,1.2C7,1,6.7,0.8,6.4,0.7C5.8,0.5,5.2,0.5,5.2,0.5H4.8
		c-0.2,0.1-0.7,0-1.7,0.4C2.8,1.1,2.2,1.4,2,1.7c0,0-0.1,0.1-0.1,0.1L1.5,2.2C1.3,2.5,1.1,2.7,1,3C0.8,3.4,0.7,3.8,0.6,4.2
		C0.6,4.3,0.6,4.7,0.6,4.7 M4.7,1.1c0.6,0,1.2,0,1.7,0.2C7,1.6,7.6,2,8,2.6c0.4,0.6,0.7,1.3,0.8,2.1c0.2,2.2-1.5,4-3.5,4.1
		C4.4,8.8,3.7,8.6,3,8.2C2.7,8.1,2.3,7.7,2.1,7.5C1.9,7.1,1.8,7.1,1.6,6.7C0.9,5.4,1.1,3.7,2,2.5c0.1-0.2,0.2-0.2,0.3-0.3L2.5,2
		C3,1.5,3.9,1.2,4.7,1.1z"/>
	<path class="st0" d="M1.9,3.9C1.9,3.8,1.9,3.8,1.9,3.9L2,3.7c0,0,0,0,0.1-0.1c0,0,0,0,0.1-0.1c0.1-0.1,0.1-0.1,0.1-0.1
		C2.5,3.2,3,2.9,3.2,2.8C4.4,2.2,6,2.3,7.2,3c0.1,0,0.1,0.1,0.2,0.1l0.2,0.2c0,0,0,0,0.1,0.1c0.1,0,0.1,0.1,0.1,0.1c0,0,0,0,0.1,0.1
		l0.2,0.2c0-0.1-0.2-0.4-0.2-0.5C7.8,3.3,7.7,3.1,7.6,3C7,2.2,6.1,1.7,5,1.7C4.2,1.7,3.5,2,3,2.3L2.8,2.5C2.8,2.5,2.7,2.6,2.7,2.6
		L2.4,3C2.2,3.2,2,3.6,1.9,3.9"/>
</g>
</svg>
