<?xml version="1.0" encoding="utf-8"?>
<!-- Generator: Adobe Illustrator 25.4.1, SVG Export Plug-In . SVG Version: 6.00 Build 0)  -->
<svg version="1.1" id="Layer_1" xmlns="http://www.w3.org/2000/svg" xmlns:xlink="http://www.w3.org/1999/xlink" x="0px" y="0px"
	 viewBox="0 0 1600 118.1" style="enable-background:new 0 0 1600 118.1;" xml:space="preserve">
<style type="text/css">
	.st0{fill:#043B37;}
	.st1{fill:#E6C86E;}
	.st2{fill:#669966;}
</style>
<g id="top">
	<g>
		<path class="st0" d="M526.7,72.6c-9.5,5.9-18.8,12-37.8,12c-36.9,0-36.9-22.8-73.8-22.8c-36.9,0-36.9,22.8-73.8,22.8
			c-36.9,0-36.9-22.8-73.8-22.8c-36.9,0-36.9,22.8-73.8,22.8c-36.9,0-36.9-22.8-73.8-22.8C83,61.8,83,84.5,46.1,84.5
			c-36.9,0-36.9-22.8-73.8-22.8c-34.7,0-36.8,20.2-67.7,22.5V23.4c30.9-2.4,33-22.5,67.7-22.5c36.9,0,36.9,22.8,73.8,22.8
			C83,23.7,83,0.9,119.9,0.9c36.9,0,36.9,22.8,73.8,22.8c36.9,0,36.9-22.8,73.8-22.8c36.9,0,36.9,22.8,73.8,22.8
			c36.9,0,36.9-22.8,73.8-22.8c36.9,0,36.9,22.8,73.8,22.8c19.1,0,28.3-6.1,37.8-12V72.6z"/>
		<path class="st1" d="M526.7,73l-0.7,0.5c-9.3,5.7-18.5,11.4-37.1,11.4c-18.6,0-27.8-5.7-37.1-11.4c-9.2-5.7-18.4-11.3-36.7-11.3
			c-18.3,0-27.5,5.7-36.7,11.3c-9.3,5.7-18.5,11.4-37.1,11.4c-18.6,0-27.8-5.7-37.1-11.4c-9.2-5.7-18.4-11.3-36.7-11.3
			c-18.3,0-27.5,5.7-36.7,11.3c-9.3,5.7-18.5,11.4-37.1,11.4c-18.6,0-27.8-5.7-37.1-11.4c-9.2-5.7-18.4-11.3-36.7-11.3
			c-18.3,0-27.5,5.7-36.7,11.3c-9.3,5.7-18.5,11.4-37.1,11.4c-18.6,0-27.8-5.7-37.1-11.4c-9.2-5.7-18.4-11.3-36.7-11.3
			c-18.3,0-27.5,5.7-36.7,11.3c-8.2,5.1-16.4,10.1-31,11.2l-0.4,0V23.1l0.3,0C-81,22-72.9,17-64.8,12c9.3-5.7,18.5-11.4,37.1-11.4
			C-9.1,0.5,0.1,6.3,9.4,12c9.2,5.7,18.4,11.3,36.7,11.3c18.3,0,27.5-5.7,36.7-11.3c9.3-5.7,18.5-11.4,37.1-11.4
			c18.6,0,27.8,5.7,37.1,11.4c9.2,5.7,18.4,11.3,36.7,11.3s27.5-5.7,36.7-11.3c9.3-5.7,18.5-11.4,37.1-11.4
			c18.6,0,27.8,5.7,37.1,11.4c9.2,5.7,18.4,11.3,36.7,11.3c18.3,0,27.5-5.7,36.7-11.3c9.3-5.7,18.5-11.4,37.1-11.4
			c18.6,0,27.8,5.7,37.1,11.4c9.2,5.7,18.4,11.3,36.7,11.3c18.3,0,27.5-5.7,36.7-11.3l1.1-0.7v0.9l-0.7,0.5
			c-9.3,5.7-18.5,11.4-37.1,11.4c-18.6,0-27.8-5.7-37.1-11.4c-9.2-5.7-18.4-11.3-36.7-11.3c-18.3,0-27.5,5.7-36.7,11.3
			c-9.3,5.7-18.5,11.4-37.1,11.4c-18.6,0-27.8-5.7-37.1-11.4C295,6.9,285.8,1.3,267.5,1.3c-18.3,0-27.5,5.7-36.7,11.3
			c-9.3,5.7-18.5,11.4-37.1,11.4c-18.6,0-27.8-5.7-37.1-11.4c-9.2-5.7-18.4-11.3-36.7-11.3c-18.3,0-27.5,5.7-36.7,11.3
			c-9.3,5.7-18.5,11.4-37.1,11.4c-18.6,0-27.8-5.7-37.1-11.4C-0.2,6.9-9.3,1.3-27.7,1.3s-27.5,5.7-36.7,11.3
			c-8.1,5-16.2,10-30.6,11.2v60.1c14.2-1.2,22.2-6.1,30.2-11.1c9.3-5.7,18.5-11.4,37.1-11.4c18.6,0,27.8,5.7,37.1,11.4
			c9.2,5.7,18.4,11.3,36.7,11.3c18.3,0,27.5-5.7,36.7-11.3c9.3-5.7,18.5-11.4,37.1-11.4c18.6,0,27.8,5.7,37.1,11.4
			c9.2,5.7,18.4,11.3,36.7,11.3c18.3,0,27.5-5.7,36.7-11.3c9.3-5.7,18.5-11.4,37.1-11.4c18.6,0,27.8,5.7,37.1,11.4
			c9.2,5.7,18.4,11.3,36.7,11.3c18.3,0,27.5-5.7,36.7-11.3c9.3-5.7,18.5-11.4,37.1-11.4c18.6,0,27.8,5.7,37.1,11.4
			c9.2,5.7,18.4,11.3,36.7,11.3c18.3,0,27.5-5.7,36.7-11.3l1.1-0.7V73z"/>
		<path class="st1" d="M-95.3,23.9c-0.3,0-0.5-0.2-0.5-0.4c0-0.3,0.2-0.5,0.4-0.5c14.4-1.1,22.5-6.1,30.6-11.1
			c9.3-5.7,18.6-11.5,37.2-11.5c18.6,0,27.9,5.7,37.1,11.5c9.2,5.7,18.3,11.3,36.6,11.3c18.3,0,27.5-5.7,36.6-11.3
			C92,6.2,101.3,0.4,119.9,0.4c18.6,0,27.9,5.7,37.1,11.5c9.2,5.7,18.3,11.3,36.6,11.3s27.5-5.7,36.6-11.3
			c9.3-5.7,18.6-11.5,37.1-11.5c18.6,0,27.9,5.7,37.1,11.5c9.2,5.7,18.3,11.3,36.6,11.3c18.3,0,27.5-5.7,36.6-11.3
			c9.3-5.7,18.6-11.5,37.1-11.5c18.6,0,27.9,5.7,37.2,11.5c9.2,5.7,18.3,11.3,36.6,11.3c18.3,0,27.5-5.7,36.7-11.3l1.2-0.7v1.1
			l-0.7,0.4c-9.3,5.7-18.6,11.5-37.2,11.5c-18.6,0-27.9-5.7-37.2-11.5C442.6,7,433.4,1.4,415.1,1.4c-18.3,0-27.5,5.7-36.6,11.3
			c-9.3,5.7-18.6,11.5-37.1,11.5c-18.6,0-27.9-5.7-37.1-11.5C295,7,285.8,1.4,267.5,1.4c-18.3,0-27.5,5.7-36.6,11.3
			c-9.3,5.7-18.6,11.5-37.1,11.5c-18.6,0-27.9-5.7-37.1-11.5C147.4,7,138.2,1.4,119.9,1.4c-18.3,0-27.5,5.7-36.6,11.3
			C74,18.4,64.7,24.2,46.1,24.2c-18.6,0-27.9-5.7-37.1-11.5C-0.2,7-9.4,1.4-27.7,1.4S-55.2,7-64.3,12.7
			C-72.5,17.8-80.7,22.8-95.3,23.9"/>
		<path class="st1" d="M-95.3,34.1c-0.3,0-0.5-0.2-0.5-0.4c0-0.3,0.2-0.5,0.4-0.5C-81,32-72.9,27-64.8,22
			c9.3-5.7,18.6-11.5,37.2-11.5c18.6,0,27.9,5.7,37.1,11.5c9.2,5.7,18.3,11.3,36.6,11.3c18.3,0,27.5-5.7,36.6-11.3
			c9.3-5.7,18.6-11.5,37.1-11.5s27.9,5.7,37.1,11.5c9.2,5.7,18.3,11.3,36.6,11.3c18.3,0,27.5-5.7,36.6-11.3
			c9.3-5.7,18.6-11.5,37.1-11.5c18.6,0,27.9,5.7,37.1,11.5c9.2,5.7,18.3,11.3,36.6,11.3c18.3,0,27.5-5.7,36.6-11.3
			c9.3-5.7,18.6-11.5,37.1-11.5c18.6,0,27.9,5.7,37.2,11.5c9.2,5.7,18.3,11.3,36.6,11.3c18.3,0,27.5-5.7,36.7-11.3l1.2-0.7v1.1
			l-0.7,0.4c-9.3,5.7-18.6,11.5-37.2,11.5c-18.6,0-27.9-5.7-37.2-11.5c-9.2-5.7-18.3-11.3-36.6-11.3c-18.3,0-27.5,5.7-36.6,11.3
			c-9.3,5.7-18.6,11.5-37.1,11.5c-18.6,0-27.9-5.7-37.1-11.5c-9.2-5.7-18.3-11.3-36.6-11.3c-18.3,0-27.5,5.7-36.6,11.3
			c-9.3,5.7-18.6,11.5-37.1,11.5c-18.6,0-27.9-5.7-37.1-11.5c-9.2-5.7-18.3-11.3-36.6-11.3s-27.5,5.7-36.6,11.3
			C74,28.6,64.7,34.3,46.1,34.3c-18.6,0-27.9-5.7-37.1-11.5c-9.2-5.7-18.3-11.3-36.6-11.3c-18.3,0-27.5,5.7-36.6,11.3
			C-72.5,27.9-80.7,33-95.3,34.1"/>
		<path class="st1" d="M-95.3,44.2c-0.3,0-0.5-0.2-0.5-0.4c0-0.3,0.2-0.5,0.4-0.5c14.4-1.1,22.5-6.1,30.6-11.1
			c9.3-5.7,18.6-11.5,37.2-11.5c18.6,0,27.9,5.7,37.1,11.5c9.2,5.7,18.3,11.3,36.6,11.3c18.3,0,27.5-5.7,36.6-11.3
			c9.3-5.7,18.6-11.5,37.1-11.5s27.9,5.7,37.1,11.5c9.2,5.7,18.3,11.3,36.6,11.3c18.3,0,27.5-5.7,36.6-11.3
			c9.3-5.7,18.6-11.5,37.1-11.5c18.6,0,27.9,5.7,37.1,11.5c9.2,5.7,18.3,11.3,36.6,11.3c18.3,0,27.5-5.7,36.6-11.3
			c9.3-5.7,18.6-11.5,37.1-11.5c18.6,0,27.9,5.7,37.2,11.5c9.2,5.7,18.3,11.3,36.6,11.3c18.3,0,27.5-5.7,36.7-11.3l1.2-0.7v1.1
			L526,33c-9.3,5.7-18.6,11.5-37.2,11.5c-18.6,0-27.9-5.7-37.2-11.5c-9.2-5.7-18.3-11.3-36.6-11.3c-18.3,0-27.5,5.7-36.6,11.3
			c-9.3,5.7-18.6,11.5-37.1,11.5c-18.6,0-27.9-5.7-37.1-11.5c-9.2-5.7-18.3-11.3-36.6-11.3c-18.3,0-27.5,5.7-36.6,11.3
			c-9.3,5.7-18.6,11.5-37.1,11.5c-18.6,0-27.9-5.7-37.1-11.5c-9.2-5.7-18.3-11.3-36.6-11.3S92.4,27.3,83.3,33
			C74,38.7,64.7,44.4,46.1,44.4C27.5,44.4,18.3,38.7,9,33c-9.2-5.7-18.3-11.3-36.6-11.3c-18.3,0-27.5,5.7-36.6,11.3
			C-72.5,38-80.7,43.1-95.3,44.2"/>
		<path class="st1" d="M-95.3,54.4c-0.3,0-0.5-0.2-0.5-0.4c0-0.3,0.2-0.5,0.4-0.5c14.4-1.1,22.5-6.1,30.6-11.1
			c9.3-5.7,18.6-11.5,37.2-11.5c18.6,0,27.9,5.7,37.1,11.5c9.2,5.7,18.3,11.3,36.6,11.3c18.3,0,27.5-5.7,36.6-11.3
			c9.3-5.7,18.6-11.5,37.1-11.5c18.6,0,27.9,5.7,37.1,11.5c9.2,5.7,18.3,11.3,36.6,11.3c18.3,0,27.5-5.7,36.6-11.3
			c9.3-5.7,18.6-11.5,37.1-11.5c18.6,0,27.9,5.7,37.1,11.5c9.2,5.7,18.3,11.3,36.6,11.3c18.3,0,27.5-5.7,36.6-11.3
			c9.3-5.7,18.6-11.5,37.1-11.5c18.6,0,27.9,5.7,37.2,11.5c9.2,5.7,18.3,11.3,36.6,11.3c18.3,0,27.5-5.7,36.7-11.3l1.2-0.7v1.1
			l-0.7,0.4c-9.3,5.7-18.6,11.5-37.2,11.5c-18.6,0-27.9-5.7-37.2-11.5c-9.2-5.7-18.3-11.3-36.6-11.3c-18.3,0-27.5,5.7-36.6,11.3
			c-9.3,5.7-18.6,11.5-37.1,11.5c-18.6,0-27.9-5.7-37.1-11.5c-9.2-5.7-18.3-11.3-36.6-11.3c-18.3,0-27.5,5.7-36.6,11.3
			c-9.3,5.7-18.6,11.5-37.1,11.5c-18.6,0-27.9-5.7-37.1-11.5c-9.2-5.7-18.3-11.3-36.6-11.3c-18.3,0-27.5,5.7-36.6,11.3
			C74,48.9,64.7,54.6,46.1,54.6c-18.6,0-27.9-5.7-37.1-11.5c-9.2-5.7-18.3-11.3-36.6-11.3c-18.3,0-27.5,5.7-36.6,11.3
			C-72.5,48.2-80.7,53.2-95.3,54.4"/>
		<path class="st1" d="M-95.3,64.5c-0.3,0-0.5-0.2-0.5-0.4c0-0.3,0.2-0.5,0.4-0.5c14.4-1.1,22.5-6.1,30.6-11.1
			C-55.5,46.7-46.3,41-27.7,41c18.6,0,27.9,5.7,37.1,11.5c9.2,5.7,18.3,11.3,36.6,11.3c18.3,0,27.5-5.7,36.6-11.3
			C92,46.7,101.3,41,119.9,41c18.6,0,27.9,5.7,37.1,11.5c9.2,5.7,18.3,11.3,36.6,11.3s27.5-5.7,36.6-11.3
			c9.3-5.7,18.6-11.5,37.1-11.5c18.6,0,27.9,5.7,37.1,11.5c9.2,5.7,18.3,11.3,36.6,11.3c18.3,0,27.5-5.7,36.6-11.3
			c9.3-5.7,18.6-11.5,37.1-11.5c18.6,0,27.9,5.7,37.2,11.5c9.2,5.7,18.3,11.3,36.6,11.3c18.3,0,27.5-5.7,36.7-11.3l1.2-0.7v1.1
			l-0.7,0.4c-9.3,5.7-18.6,11.5-37.2,11.5c-18.6,0-27.9-5.7-37.2-11.5c-9.2-5.7-18.3-11.3-36.6-11.3c-18.3,0-27.5,5.7-36.6,11.3
			c-9.3,5.7-18.6,11.5-37.1,11.5c-18.6,0-27.9-5.7-37.1-11.5C295,47.6,285.8,42,267.5,42c-18.3,0-27.5,5.7-36.6,11.3
			c-9.3,5.7-18.6,11.5-37.1,11.5c-18.6,0-27.9-5.7-37.1-11.5c-9.2-5.7-18.3-11.3-36.6-11.3c-18.3,0-27.5,5.7-36.6,11.3
			C74,59,64.7,64.7,46.1,64.7C27.5,64.7,18.3,59,9,53.3C-0.2,47.6-9.4,42-27.7,42s-27.5,5.7-36.6,11.3
			C-72.5,58.3-80.7,63.4-95.3,64.5"/>
		<path class="st1" d="M-95.3,74.6c-0.3,0-0.5-0.2-0.5-0.4c0-0.3,0.2-0.5,0.4-0.5c14.4-1.1,22.5-6.1,30.6-11.1
			c9.3-5.7,18.6-11.5,37.2-11.5c18.6,0,27.9,5.7,37.1,11.5c9.2,5.7,18.3,11.3,36.6,11.3c18.3,0,27.5-5.7,36.6-11.3
			c9.3-5.7,18.6-11.5,37.1-11.5s27.9,5.7,37.1,11.5c9.2,5.7,18.3,11.3,36.6,11.3c18.3,0,27.5-5.7,36.6-11.3
			c9.3-5.7,18.6-11.5,37.1-11.5c18.6,0,27.9,5.7,37.1,11.5c9.2,5.7,18.3,11.3,36.6,11.3c18.3,0,27.5-5.7,36.6-11.3
			c9.3-5.7,18.6-11.5,37.1-11.5c18.6,0,27.9,5.7,37.2,11.5c9.2,5.7,18.3,11.3,36.6,11.3c18.3,0,27.5-5.7,36.7-11.3l1.2-0.7V63
			l-0.7,0.4c-9.3,5.7-18.6,11.5-37.2,11.5c-18.6,0-27.9-5.7-37.2-11.5c-9.2-5.7-18.3-11.3-36.6-11.3c-18.3,0-27.5,5.7-36.6,11.3
			c-9.3,5.7-18.6,11.5-37.1,11.5c-18.6,0-27.9-5.7-37.1-11.5c-9.2-5.7-18.3-11.3-36.6-11.3c-18.3,0-27.5,5.7-36.6,11.3
			c-9.3,5.7-18.6,11.5-37.1,11.5c-18.6,0-27.9-5.7-37.1-11.5c-9.2-5.7-18.3-11.3-36.6-11.3s-27.5,5.7-36.6,11.3
			C74,69.2,64.7,74.9,46.1,74.9c-18.6,0-27.9-5.7-37.1-11.5c-9.2-5.7-18.3-11.3-36.6-11.3c-18.3,0-27.5,5.7-36.6,11.3
			C-72.5,68.5-80.7,73.5-95.3,74.6"/>
		<path class="st1" d="M-95.3,84.8c-0.3,0-0.5-0.2-0.5-0.4c0-0.3,0.2-0.5,0.4-0.5c14.4-1.1,22.5-6.1,30.6-11.1
			c9.3-5.7,18.6-11.5,37.2-11.5c18.6,0,27.9,5.7,37.1,11.5c9.2,5.7,18.3,11.3,36.6,11.3c18.3,0,27.5-5.7,36.6-11.3
			c9.3-5.7,18.6-11.5,37.1-11.5s27.9,5.7,37.1,11.5c9.2,5.7,18.3,11.3,36.6,11.3c18.3,0,27.5-5.7,36.6-11.3
			c9.3-5.7,18.6-11.5,37.1-11.5c18.6,0,27.9,5.7,37.1,11.5c9.2,5.7,18.3,11.3,36.6,11.3c18.3,0,27.5-5.7,36.6-11.3
			c9.3-5.7,18.6-11.5,37.1-11.5c18.6,0,27.9,5.7,37.2,11.5c9.2,5.7,18.3,11.3,36.6,11.3c18.3,0,27.5-5.7,36.7-11.3l1.2-0.7v1.1
			l-0.7,0.4c-9.3,5.7-18.6,11.5-37.2,11.5c-18.6,0-27.9-5.7-37.2-11.5c-9.2-5.7-18.3-11.3-36.6-11.3c-18.3,0-27.5,5.7-36.6,11.3
			c-9.3,5.7-18.6,11.5-37.1,11.5c-18.6,0-27.9-5.7-37.1-11.5c-9.2-5.7-18.3-11.3-36.6-11.3c-18.3,0-27.5,5.7-36.6,11.3
			c-9.3,5.7-18.6,11.5-37.1,11.5c-18.6,0-27.9-5.7-37.1-11.5c-9.2-5.7-18.3-11.3-36.6-11.3s-27.5,5.7-36.6,11.3
			C74,79.3,64.7,85,46.1,85C27.5,85,18.3,79.3,9,73.6c-9.2-5.7-18.3-11.3-36.6-11.3c-18.3,0-27.5,5.7-36.6,11.3
			C-72.5,78.6-80.7,83.7-95.3,84.8"/>
	</g>
	<g>
		<path class="st0" d="M968.9,72.7c-9.5,5.9-18.8,12-37.8,12c-36.9,0-36.9-22.8-73.8-22.8c-36.9,0-36.9,22.8-73.8,22.8
			c-36.9,0-36.9-22.8-73.8-22.8c-36.9,0-36.9,22.8-73.8,22.8c-36.9,0-36.9-22.8-73.8-22.8c-36.9,0-36.9,22.8-73.8,22.8
			c-36.9,0-36.9-22.8-73.8-22.8c-34.7,0-36.8,20.2-67.7,22.5V23.6c30.9-2.4,33-22.5,67.7-22.5c36.9,0,36.9,22.8,73.8,22.8
			c36.9,0,36.9-22.8,73.8-22.8c36.9,0,36.9,22.8,73.8,22.8c36.9,0,36.9-22.8,73.8-22.8c36.9,0,36.9,22.8,73.8,22.8
			c36.9,0,36.9-22.8,73.8-22.8c36.9,0,36.9,22.8,73.8,22.8c19.1,0,28.3-6.1,37.8-12V72.7z"/>
		<path class="st1" d="M346.8,24.1c-0.3,0-0.5-0.2-0.5-0.4c0-0.3,0.2-0.5,0.4-0.5C361.1,22,369.2,17,377.3,12
			c9.3-5.7,18.6-11.5,37.2-11.5c18.6,0,27.9,5.7,37.1,11.5c9.2,5.7,18.3,11.3,36.6,11.3c18.3,0,27.5-5.7,36.6-11.3
			c9.3-5.7,18.6-11.5,37.1-11.5c18.6,0,27.9,5.7,37.1,11.5c9.2,5.7,18.3,11.3,36.6,11.3s27.5-5.7,36.6-11.3
			c9.3-5.7,18.6-11.5,37.1-11.5c18.6,0,27.9,5.7,37.1,11.5c9.2,5.7,18.3,11.3,36.6,11.3c18.3,0,27.5-5.7,36.6-11.3
			c9.3-5.7,18.6-11.5,37.1-11.5c18.6,0,27.9,5.7,37.2,11.5c9.2,5.7,18.3,11.3,36.6,11.3c18.3,0,27.5-5.7,36.7-11.3l1.2-0.7v1.1
			l-0.7,0.4c-9.3,5.7-18.6,11.5-37.2,11.5c-18.6,0-27.9-5.7-37.2-11.5c-9.2-5.7-18.3-11.3-36.6-11.3c-18.3,0-27.5,5.7-36.6,11.3
			c-9.3,5.7-18.6,11.5-37.1,11.5c-18.6,0-27.9-5.7-37.1-11.5C737.1,7.2,728,1.5,709.6,1.5c-18.3,0-27.5,5.7-36.6,11.3
			c-9.3,5.7-18.6,11.5-37.1,11.5c-18.6,0-27.9-5.7-37.1-11.5c-9.2-5.7-18.3-11.3-36.6-11.3c-18.3,0-27.5,5.7-36.6,11.3
			c-9.3,5.7-18.6,11.5-37.1,11.5c-18.6,0-27.9-5.7-37.1-11.5c-9.2-5.7-18.3-11.3-36.6-11.3S387,7.2,377.8,12.8
			C369.6,17.9,361.4,23,346.8,24.1"/>
		<path class="st1" d="M346.8,34.2c-0.3,0-0.5-0.2-0.5-0.4c0-0.3,0.2-0.5,0.4-0.5c14.4-1.1,22.5-6.1,30.6-11.1
			c9.3-5.7,18.6-11.5,37.2-11.5c18.6,0,27.9,5.7,37.1,11.5c9.2,5.7,18.3,11.3,36.6,11.3c18.3,0,27.5-5.7,36.6-11.3
			c9.3-5.7,18.6-11.5,37.1-11.5s27.9,5.7,37.1,11.5c9.2,5.7,18.3,11.3,36.6,11.3c18.3,0,27.5-5.7,36.6-11.3
			c9.3-5.7,18.6-11.5,37.1-11.5c18.6,0,27.9,5.7,37.1,11.5c9.2,5.7,18.3,11.3,36.6,11.3c18.3,0,27.5-5.7,36.6-11.3
			c9.3-5.7,18.6-11.5,37.1-11.5c18.6,0,27.9,5.7,37.2,11.5c9.2,5.7,18.3,11.3,36.6,11.3c18.3,0,27.5-5.7,36.7-11.3l1.2-0.7v1.1
			l-0.7,0.4c-9.3,5.7-18.6,11.5-37.2,11.5c-18.6,0-27.9-5.7-37.2-11.5c-9.2-5.7-18.3-11.3-36.6-11.3c-18.3,0-27.5,5.7-36.6,11.3
			c-9.3,5.7-18.6,11.5-37.1,11.5c-18.6,0-27.9-5.7-37.1-11.5c-9.2-5.7-18.3-11.3-36.6-11.3c-18.3,0-27.5,5.7-36.6,11.3
			c-9.3,5.7-18.6,11.5-37.1,11.5c-18.6,0-27.9-5.7-37.1-11.5c-9.2-5.7-18.3-11.3-36.6-11.3s-27.5,5.7-36.6,11.3
			c-9.3,5.7-18.6,11.5-37.1,11.5c-18.6,0-27.9-5.7-37.1-11.5c-9.2-5.7-18.3-11.3-36.6-11.3c-18.3,0-27.5,5.7-36.6,11.3
			C369.6,28,361.4,33.1,346.8,34.2"/>
		<path class="st1" d="M346.8,44.4c-0.3,0-0.5-0.2-0.5-0.4c0-0.3,0.2-0.5,0.4-0.5c14.4-1.1,22.5-6.1,30.6-11.1
			c9.3-5.7,18.6-11.5,37.2-11.5c18.6,0,27.9,5.7,37.1,11.5c9.2,5.7,18.3,11.3,36.6,11.3c18.3,0,27.5-5.7,36.6-11.3
			c9.3-5.7,18.6-11.5,37.1-11.5s27.9,5.7,37.1,11.5c9.2,5.7,18.3,11.3,36.6,11.3c18.3,0,27.5-5.7,36.6-11.3
			c9.3-5.7,18.6-11.5,37.1-11.5c18.6,0,27.9,5.7,37.1,11.5c9.2,5.7,18.3,11.3,36.6,11.3c18.3,0,27.5-5.7,36.6-11.3
			c9.3-5.7,18.6-11.5,37.1-11.5c18.6,0,27.9,5.7,37.2,11.5c9.2,5.7,18.3,11.3,36.6,11.3c18.3,0,27.5-5.7,36.7-11.3l1.2-0.7v1.1
			l-0.7,0.4c-9.3,5.7-18.6,11.5-37.2,11.5c-18.6,0-27.9-5.7-37.2-11.5c-9.2-5.7-18.3-11.3-36.6-11.3c-18.3,0-27.5,5.7-36.6,11.3
			c-9.3,5.7-18.6,11.5-37.1,11.5c-18.6,0-27.9-5.7-37.1-11.5c-9.2-5.7-18.3-11.3-36.6-11.3c-18.3,0-27.5,5.7-36.6,11.3
			c-9.3,5.7-18.6,11.5-37.1,11.5c-18.6,0-27.9-5.7-37.1-11.5c-9.2-5.7-18.3-11.3-36.6-11.3s-27.5,5.7-36.6,11.3
			c-9.3,5.7-18.6,11.5-37.1,11.5c-18.6,0-27.9-5.7-37.1-11.5c-9.2-5.7-18.3-11.3-36.6-11.3c-18.3,0-27.5,5.7-36.6,11.3
			C369.6,38.2,361.4,43.2,346.8,44.4"/>
		<path class="st1" d="M346.8,54.5c-0.3,0-0.5-0.2-0.5-0.4c0-0.3,0.2-0.5,0.4-0.5c14.4-1.1,22.5-6.1,30.6-11.1
			c9.3-5.7,18.6-11.5,37.2-11.5c18.6,0,27.9,5.7,37.1,11.5c9.2,5.7,18.3,11.3,36.6,11.3c18.3,0,27.5-5.7,36.6-11.3
			c9.3-5.7,18.6-11.5,37.1-11.5c18.6,0,27.9,5.7,37.1,11.5c9.2,5.7,18.3,11.3,36.6,11.3c18.3,0,27.5-5.7,36.6-11.3
			c9.3-5.7,18.6-11.5,37.1-11.5c18.6,0,27.9,5.7,37.1,11.5c9.2,5.7,18.3,11.3,36.6,11.3c18.3,0,27.5-5.7,36.6-11.3
			c9.3-5.7,18.6-11.5,37.1-11.5c18.6,0,27.9,5.7,37.2,11.5c9.2,5.7,18.3,11.3,36.6,11.3c18.3,0,27.5-5.7,36.7-11.3l1.2-0.7v1.1
			l-0.7,0.4c-9.3,5.7-18.6,11.5-37.2,11.5c-18.6,0-27.9-5.7-37.2-11.5c-9.2-5.7-18.3-11.3-36.6-11.3c-18.3,0-27.5,5.7-36.6,11.3
			c-9.3,5.7-18.6,11.5-37.1,11.5c-18.6,0-27.9-5.7-37.1-11.5C737.1,37.6,728,32,709.6,32c-18.3,0-27.5,5.7-36.6,11.3
			c-9.3,5.7-18.6,11.5-37.1,11.5c-18.6,0-27.9-5.7-37.1-11.5c-9.2-5.7-18.3-11.3-36.6-11.3c-18.3,0-27.5,5.7-36.6,11.3
			c-9.3,5.7-18.6,11.5-37.1,11.5c-18.6,0-27.9-5.7-37.1-11.5c-9.2-5.7-18.3-11.3-36.6-11.3c-18.3,0-27.5,5.7-36.6,11.3
			C369.6,48.3,361.4,53.4,346.8,54.5"/>
		<path class="st1" d="M346.8,64.6c-0.3,0-0.5-0.2-0.5-0.4c0-0.3,0.2-0.5,0.4-0.5c14.4-1.1,22.5-6.1,30.6-11.1
			c9.3-5.7,18.6-11.5,37.2-11.5c18.6,0,27.9,5.7,37.1,11.5c9.2,5.7,18.3,11.3,36.6,11.3c18.3,0,27.5-5.7,36.6-11.3
			c9.3-5.7,18.6-11.5,37.1-11.5c18.6,0,27.9,5.7,37.1,11.5c9.2,5.7,18.3,11.3,36.6,11.3s27.5-5.7,36.6-11.3
			c9.3-5.7,18.6-11.5,37.1-11.5c18.6,0,27.9,5.7,37.1,11.5c9.2,5.7,18.3,11.3,36.6,11.3c18.3,0,27.5-5.7,36.6-11.3
			c9.3-5.7,18.6-11.5,37.1-11.5c18.6,0,27.9,5.7,37.2,11.5c9.2,5.7,18.3,11.3,36.6,11.3c18.3,0,27.5-5.7,36.7-11.3l1.2-0.7V53
			l-0.7,0.4c-9.3,5.7-18.6,11.5-37.2,11.5c-18.6,0-27.9-5.7-37.2-11.5c-9.2-5.7-18.3-11.3-36.6-11.3c-18.3,0-27.5,5.7-36.6,11.3
			c-9.3,5.7-18.6,11.5-37.1,11.5c-18.6,0-27.9-5.7-37.1-11.5c-9.2-5.7-18.3-11.3-36.6-11.3c-18.3,0-27.5,5.7-36.6,11.3
			c-9.3,5.7-18.6,11.5-37.1,11.5c-18.6,0-27.9-5.7-37.1-11.5c-9.2-5.7-18.3-11.3-36.6-11.3c-18.3,0-27.5,5.7-36.6,11.3
			c-9.3,5.7-18.6,11.5-37.1,11.5c-18.6,0-27.9-5.7-37.1-11.5c-9.2-5.7-18.3-11.3-36.6-11.3s-27.5,5.7-36.6,11.3
			C369.6,58.5,361.4,63.5,346.8,64.6"/>
		<path class="st1" d="M346.8,74.8c-0.3,0-0.5-0.2-0.5-0.4c0-0.3,0.2-0.5,0.4-0.5c14.4-1.1,22.5-6.1,30.6-11.1
			c9.3-5.7,18.6-11.5,37.2-11.5c18.6,0,27.9,5.7,37.1,11.5c9.2,5.7,18.3,11.3,36.6,11.3c18.3,0,27.5-5.7,36.6-11.3
			c9.3-5.7,18.6-11.5,37.1-11.5s27.9,5.7,37.1,11.5c9.2,5.7,18.3,11.3,36.6,11.3c18.3,0,27.5-5.7,36.6-11.3
			c9.3-5.7,18.6-11.5,37.1-11.5c18.6,0,27.9,5.7,37.1,11.5c9.2,5.7,18.3,11.3,36.6,11.3c18.3,0,27.5-5.7,36.6-11.3
			c9.3-5.7,18.6-11.5,37.1-11.5c18.6,0,27.9,5.7,37.2,11.5c9.2,5.7,18.3,11.3,36.6,11.3c18.3,0,27.5-5.7,36.7-11.3l1.2-0.7v1.1
			l-0.7,0.4C958.9,69.3,949.6,75,931,75c-18.6,0-27.9-5.7-37.2-11.5c-9.2-5.7-18.3-11.3-36.6-11.3c-18.3,0-27.5,5.7-36.6,11.3
			C811.3,69.3,802,75,783.4,75c-18.6,0-27.9-5.7-37.1-11.5c-9.2-5.7-18.3-11.3-36.6-11.3c-18.3,0-27.5,5.7-36.6,11.3
			c-9.3,5.7-18.6,11.5-37.1,11.5c-18.6,0-27.9-5.7-37.1-11.5c-9.2-5.7-18.3-11.3-36.6-11.3s-27.5,5.7-36.6,11.3
			c-9.3,5.7-18.6,11.5-37.1,11.5c-18.6,0-27.9-5.7-37.1-11.5c-9.2-5.7-18.3-11.3-36.6-11.3c-18.3,0-27.5,5.7-36.6,11.3
			C369.6,68.6,361.4,73.7,346.8,74.8"/>
		<path class="st1" d="M346.8,84.9c-0.3,0-0.5-0.2-0.5-0.4c0-0.3,0.2-0.5,0.4-0.5c14.4-1.1,22.5-6.1,30.6-11.1
			c9.3-5.7,18.6-11.5,37.2-11.5c18.6,0,27.9,5.7,37.1,11.5c9.2,5.7,18.3,11.3,36.6,11.3c18.3,0,27.5-5.7,36.6-11.3
			c9.3-5.7,18.6-11.5,37.1-11.5s27.9,5.7,37.1,11.5c9.2,5.7,18.3,11.3,36.6,11.3c18.3,0,27.5-5.7,36.6-11.3
			c9.3-5.7,18.6-11.5,37.1-11.5c18.6,0,27.9,5.7,37.1,11.5c9.2,5.7,18.3,11.3,36.6,11.3c18.3,0,27.5-5.7,36.6-11.3
			c9.3-5.7,18.6-11.5,37.1-11.5c18.6,0,27.9,5.7,37.2,11.5c9.2,5.7,18.3,11.3,36.6,11.3c18.3,0,27.5-5.7,36.7-11.3l1.2-0.7v1.1
			l-0.7,0.4c-9.3,5.7-18.6,11.5-37.2,11.5c-18.6,0-27.9-5.7-37.2-11.5c-9.2-5.7-18.3-11.3-36.6-11.3c-18.3,0-27.5,5.7-36.6,11.3
			c-9.3,5.7-18.6,11.5-37.1,11.5c-18.6,0-27.9-5.7-37.1-11.5c-9.2-5.7-18.3-11.3-36.6-11.3c-18.3,0-27.5,5.7-36.6,11.3
			c-9.3,5.7-18.6,11.5-37.1,11.5c-18.6,0-27.9-5.7-37.1-11.5c-9.2-5.7-18.3-11.3-36.6-11.3s-27.5,5.7-36.6,11.3
			c-9.3,5.7-18.6,11.5-37.1,11.5c-18.6,0-27.9-5.7-37.1-11.5c-9.2-5.7-18.3-11.3-36.6-11.3c-18.3,0-27.5,5.7-36.6,11.3
			C369.6,78.8,361.4,83.8,346.8,84.9"/>
	</g>
	<g>
		<path class="st0" d="M1411.9,72.8c-9.5,5.9-18.8,12-37.8,12c-36.9,0-36.9-22.8-73.8-22.8c-36.9,0-36.9,22.8-73.8,22.8
			c-36.9,0-36.9-22.8-73.8-22.8c-36.9,0-36.9,22.8-73.8,22.8c-36.9,0-36.9-22.8-73.8-22.8c-36.9,0-36.9,22.8-73.8,22.8
			c-36.9,0-36.9-22.8-73.8-22.8c-34.7,0-36.8,20.2-67.7,22.5V23.6c30.9-2.4,33-22.5,67.7-22.5c36.9,0,36.9,22.8,73.8,22.8
			c36.9,0,36.9-22.8,73.8-22.8c36.9,0,36.9,22.8,73.8,22.8c36.9,0,36.9-22.8,73.8-22.8c36.9,0,36.9,22.8,73.8,22.8
			c36.9,0,36.9-22.8,73.8-22.8c36.9,0,36.9,22.8,73.8,22.8c19.1,0,28.3-6.1,37.8-12V72.8z"/>
		<path class="st1" d="M789.8,24.1c-0.3,0-0.5-0.2-0.5-0.4s0.2-0.5,0.4-0.5c14.4-1.1,22.5-6.1,30.6-11.1
			c9.3-5.7,18.6-11.5,37.2-11.5c18.6,0,27.9,5.7,37.1,11.5c9.2,5.7,18.3,11.3,36.6,11.3c18.3,0,27.5-5.7,36.6-11.3
			c9.3-5.7,18.6-11.5,37.1-11.5c18.6,0,27.9,5.7,37.1,11.5c9.2,5.7,18.3,11.3,36.6,11.3c18.3,0,27.5-5.7,36.6-11.3
			c9.3-5.7,18.6-11.5,37.1-11.5c18.6,0,27.9,5.7,37.1,11.5c9.2,5.7,18.3,11.3,36.6,11.3c18.3,0,27.5-5.7,36.6-11.3
			c9.3-5.7,18.6-11.5,37.1-11.5s27.9,5.7,37.2,11.5c9.2,5.7,18.3,11.3,36.6,11.3c18.3,0,27.5-5.7,36.7-11.3l1.2-0.7v1.1l-0.7,0.4
			c-9.3,5.7-18.6,11.5-37.2,11.5c-18.6,0-27.9-5.7-37.2-11.5c-9.2-5.7-18.3-11.3-36.6-11.3c-18.3,0-27.5,5.7-36.6,11.3
			c-9.3,5.7-18.6,11.5-37.1,11.5c-18.6,0-27.9-5.7-37.1-11.5c-9.2-5.7-18.3-11.3-36.6-11.3c-18.3,0-27.5,5.7-36.6,11.3
			c-9.3,5.7-18.6,11.5-37.1,11.5c-18.6,0-27.9-5.7-37.1-11.5c-9.2-5.7-18.3-11.3-36.6-11.3c-18.3,0-27.5,5.7-36.6,11.3
			c-9.3,5.7-18.6,11.5-37.1,11.5c-18.6,0-27.9-5.7-37.1-11.5c-9.2-5.7-18.3-11.3-36.6-11.3S830,7.2,820.8,12.9
			C812.6,18,804.4,23,789.8,24.1"/>
		<path class="st1" d="M789.8,34.3c-0.3,0-0.5-0.2-0.5-0.4c0-0.3,0.2-0.5,0.4-0.5c14.4-1.1,22.5-6.1,30.6-11.1
			c9.3-5.7,18.6-11.5,37.2-11.5c18.6,0,27.9,5.7,37.1,11.5c9.2,5.7,18.3,11.3,36.6,11.3c18.3,0,27.5-5.7,36.6-11.3
			c9.3-5.7,18.6-11.5,37.1-11.5s27.9,5.7,37.1,11.5c9.2,5.7,18.3,11.3,36.6,11.3c18.3,0,27.5-5.7,36.6-11.3
			c9.3-5.7,18.6-11.5,37.1-11.5c18.6,0,27.9,5.7,37.1,11.5c9.2,5.7,18.3,11.3,36.6,11.3c18.3,0,27.5-5.7,36.6-11.3
			c9.3-5.7,18.6-11.5,37.1-11.5c18.6,0,27.9,5.7,37.2,11.5c9.2,5.7,18.3,11.3,36.6,11.3c18.3,0,27.5-5.7,36.7-11.3l1.2-0.7v1.1
			l-0.7,0.4c-9.3,5.7-18.6,11.5-37.2,11.5c-18.6,0-27.9-5.7-37.2-11.5c-9.2-5.7-18.3-11.3-36.6-11.3s-27.5,5.7-36.6,11.3
			c-9.3,5.7-18.6,11.5-37.1,11.5c-18.6,0-27.9-5.7-37.1-11.5c-9.2-5.7-18.3-11.3-36.6-11.3c-18.3,0-27.5,5.7-36.6,11.3
			c-9.3,5.7-18.6,11.5-37.1,11.5c-18.6,0-27.9-5.7-37.1-11.5c-9.2-5.7-18.3-11.3-36.6-11.3s-27.5,5.7-36.6,11.3
			c-9.3,5.7-18.6,11.5-37.1,11.5c-18.6,0-27.9-5.7-37.1-11.5c-9.2-5.7-18.3-11.3-36.6-11.3c-18.3,0-27.5,5.7-36.6,11.3
			C812.6,28.1,804.4,33.2,789.8,34.3"/>
		<path class="st1" d="M789.8,44.4c-0.3,0-0.5-0.2-0.5-0.4s0.2-0.5,0.4-0.5c14.4-1.1,22.5-6.1,30.6-11.1
			c9.3-5.7,18.6-11.5,37.2-11.5c18.6,0,27.9,5.7,37.1,11.5c9.2,5.7,18.3,11.3,36.6,11.3c18.3,0,27.5-5.7,36.6-11.3
			c9.3-5.7,18.6-11.5,37.1-11.5s27.9,5.7,37.1,11.5c9.2,5.7,18.3,11.3,36.6,11.3c18.3,0,27.5-5.7,36.6-11.3
			c9.3-5.7,18.6-11.5,37.1-11.5c18.6,0,27.9,5.7,37.1,11.5c9.2,5.7,18.3,11.3,36.6,11.3c18.3,0,27.5-5.7,36.6-11.3
			c9.3-5.7,18.6-11.5,37.1-11.5c18.6,0,27.9,5.7,37.2,11.5c9.2,5.7,18.3,11.3,36.6,11.3c18.3,0,27.5-5.7,36.7-11.3l1.2-0.7v1.1
			l-0.7,0.4c-9.3,5.7-18.6,11.5-37.2,11.5c-18.6,0-27.9-5.7-37.2-11.5c-9.2-5.7-18.3-11.3-36.6-11.3s-27.5,5.7-36.6,11.3
			c-9.3,5.7-18.6,11.5-37.1,11.5c-18.6,0-27.9-5.7-37.1-11.5c-9.2-5.7-18.3-11.3-36.6-11.3c-18.3,0-27.5,5.7-36.6,11.3
			c-9.3,5.7-18.6,11.5-37.1,11.5c-18.6,0-27.9-5.7-37.1-11.5c-9.2-5.7-18.3-11.3-36.6-11.3s-27.5,5.7-36.6,11.3
			c-9.3,5.7-18.6,11.5-37.1,11.5c-18.6,0-27.9-5.7-37.1-11.5c-9.2-5.7-18.3-11.3-36.6-11.3c-18.3,0-27.5,5.7-36.6,11.3
			C812.6,38.2,804.4,43.3,789.8,44.4"/>
		<path class="st1" d="M789.8,54.6c-0.3,0-0.5-0.2-0.5-0.4s0.2-0.5,0.4-0.5c14.4-1.1,22.5-6.1,30.6-11.1
			c9.3-5.7,18.6-11.5,37.2-11.5c18.6,0,27.9,5.7,37.1,11.5c9.2,5.7,18.3,11.3,36.6,11.3c18.3,0,27.5-5.7,36.6-11.3
			c9.3-5.7,18.6-11.5,37.1-11.5c18.6,0,27.9,5.7,37.1,11.5c9.2,5.7,18.3,11.3,36.6,11.3c18.3,0,27.5-5.7,36.6-11.3
			c9.3-5.7,18.6-11.5,37.1-11.5c18.6,0,27.9,5.7,37.1,11.5c9.2,5.7,18.3,11.3,36.6,11.3c18.3,0,27.5-5.7,36.6-11.3
			c9.3-5.7,18.6-11.5,37.1-11.5s27.9,5.7,37.2,11.5c9.2,5.7,18.3,11.3,36.6,11.3c18.3,0,27.5-5.7,36.7-11.3l1.2-0.7v1.1l-0.7,0.4
			c-9.3,5.7-18.6,11.5-37.2,11.5c-18.6,0-27.9-5.7-37.2-11.5c-9.2-5.7-18.3-11.3-36.6-11.3c-18.3,0-27.5,5.7-36.6,11.3
			c-9.3,5.7-18.6,11.5-37.1,11.5c-18.6,0-27.9-5.7-37.1-11.5c-9.2-5.7-18.3-11.3-36.6-11.3c-18.3,0-27.5,5.7-36.6,11.3
			c-9.3,5.7-18.6,11.5-37.1,11.5c-18.6,0-27.9-5.7-37.1-11.5c-9.2-5.7-18.3-11.3-36.6-11.3c-18.3,0-27.5,5.7-36.6,11.3
			c-9.3,5.7-18.6,11.5-37.1,11.5c-18.6,0-27.9-5.7-37.1-11.5c-9.2-5.7-18.3-11.3-36.6-11.3c-18.3,0-27.5,5.7-36.6,11.3
			C812.6,48.4,804.4,53.4,789.8,54.6"/>
		<path class="st1" d="M789.8,64.7c-0.3,0-0.5-0.2-0.5-0.4s0.2-0.5,0.4-0.5c14.4-1.1,22.5-6.1,30.6-11.1
			c9.3-5.7,18.6-11.5,37.2-11.5c18.6,0,27.9,5.7,37.1,11.5c9.2,5.7,18.3,11.3,36.6,11.3c18.3,0,27.5-5.7,36.6-11.3
			c9.3-5.7,18.6-11.5,37.1-11.5c18.6,0,27.9,5.7,37.1,11.5c9.2,5.7,18.3,11.3,36.6,11.3c18.3,0,27.5-5.7,36.6-11.3
			c9.3-5.7,18.6-11.5,37.1-11.5c18.6,0,27.9,5.7,37.1,11.5c9.2,5.7,18.3,11.3,36.6,11.3c18.3,0,27.5-5.7,36.6-11.3
			c9.3-5.7,18.6-11.5,37.1-11.5s27.9,5.7,37.2,11.5c9.2,5.7,18.3,11.3,36.6,11.3c18.3,0,27.5-5.7,36.7-11.3l1.2-0.7v1.1l-0.7,0.4
			c-9.3,5.7-18.6,11.5-37.2,11.5c-18.6,0-27.9-5.7-37.2-11.5c-9.2-5.7-18.3-11.3-36.6-11.3c-18.3,0-27.5,5.7-36.6,11.3
			c-9.3,5.7-18.6,11.5-37.1,11.5c-18.6,0-27.9-5.7-37.1-11.5c-9.2-5.7-18.3-11.3-36.6-11.3c-18.3,0-27.5,5.7-36.6,11.3
			c-9.3,5.7-18.6,11.5-37.1,11.5c-18.6,0-27.9-5.7-37.1-11.5c-9.2-5.7-18.3-11.3-36.6-11.3c-18.3,0-27.5,5.7-36.6,11.3
			c-9.3,5.7-18.6,11.5-37.1,11.5c-18.6,0-27.9-5.7-37.1-11.5c-9.2-5.7-18.3-11.3-36.6-11.3s-27.5,5.7-36.6,11.3
			C812.6,58.5,804.4,63.6,789.8,64.7"/>
		<path class="st1" d="M789.8,74.8c-0.3,0-0.5-0.2-0.5-0.4s0.2-0.5,0.4-0.5c14.4-1.1,22.5-6.1,30.6-11.1
			c9.3-5.7,18.6-11.5,37.2-11.5c18.6,0,27.9,5.7,37.1,11.5c9.2,5.7,18.3,11.3,36.6,11.3c18.3,0,27.5-5.7,36.6-11.3
			c9.3-5.7,18.6-11.5,37.1-11.5s27.9,5.7,37.1,11.5c9.2,5.7,18.3,11.3,36.6,11.3c18.3,0,27.5-5.7,36.6-11.3
			c9.3-5.7,18.6-11.5,37.1-11.5c18.6,0,27.9,5.7,37.1,11.5c9.2,5.7,18.3,11.3,36.6,11.3c18.3,0,27.5-5.7,36.6-11.3
			c9.3-5.7,18.6-11.5,37.1-11.5c18.6,0,27.9,5.7,37.2,11.5c9.2,5.7,18.3,11.3,36.6,11.3c18.3,0,27.5-5.7,36.7-11.3l1.2-0.7v1.1
			l-0.7,0.4c-9.3,5.7-18.6,11.5-37.2,11.5c-18.6,0-27.9-5.7-37.2-11.5c-9.2-5.7-18.3-11.3-36.6-11.3s-27.5,5.7-36.6,11.3
			c-9.3,5.7-18.6,11.5-37.1,11.5c-18.6,0-27.9-5.7-37.1-11.5c-9.2-5.7-18.3-11.3-36.6-11.3c-18.3,0-27.5,5.7-36.6,11.3
			c-9.3,5.7-18.6,11.5-37.1,11.5c-18.6,0-27.9-5.7-37.1-11.5c-9.2-5.7-18.3-11.3-36.6-11.3s-27.5,5.7-36.6,11.3
			c-9.3,5.7-18.6,11.5-37.1,11.5c-18.6,0-27.9-5.7-37.1-11.5c-9.2-5.7-18.3-11.3-36.6-11.3c-18.3,0-27.5,5.7-36.6,11.3
			C812.6,68.7,804.4,73.7,789.8,74.8"/>
		<path class="st1" d="M789.8,85c-0.3,0-0.5-0.2-0.5-0.4s0.2-0.5,0.4-0.5c14.4-1.1,22.5-6.1,30.6-11.1c9.3-5.7,18.6-11.5,37.2-11.5
			c18.6,0,27.9,5.7,37.1,11.5c9.2,5.7,18.3,11.3,36.6,11.3c18.3,0,27.5-5.7,36.6-11.3c9.3-5.7,18.6-11.5,37.1-11.5
			s27.9,5.7,37.1,11.5c9.2,5.7,18.3,11.3,36.6,11.3c18.3,0,27.5-5.7,36.6-11.3c9.3-5.7,18.6-11.5,37.1-11.5
			c18.6,0,27.9,5.7,37.1,11.5c9.2,5.7,18.3,11.3,36.6,11.3c18.3,0,27.5-5.7,36.6-11.3c9.3-5.7,18.6-11.5,37.1-11.5
			c18.6,0,27.9,5.7,37.2,11.5c9.2,5.7,18.3,11.3,36.6,11.3c18.3,0,27.5-5.7,36.7-11.3l1.2-0.7v1.1l-0.7,0.4
			c-9.3,5.7-18.6,11.5-37.2,11.5c-18.6,0-27.9-5.7-37.2-11.5c-9.2-5.7-18.3-11.3-36.6-11.3s-27.5,5.7-36.6,11.3
			c-9.3,5.7-18.6,11.5-37.1,11.5c-18.6,0-27.9-5.7-37.1-11.5c-9.2-5.7-18.3-11.3-36.6-11.3c-18.3,0-27.5,5.7-36.6,11.3
			c-9.3,5.7-18.6,11.5-37.1,11.5c-18.6,0-27.9-5.7-37.1-11.5c-9.2-5.7-18.3-11.3-36.6-11.3s-27.5,5.7-36.6,11.3
			c-9.3,5.7-18.6,11.5-37.1,11.5c-18.6,0-27.9-5.7-37.1-11.5c-9.2-5.7-18.3-11.3-36.6-11.3c-18.3,0-27.5,5.7-36.6,11.3
			C812.6,78.8,804.4,83.9,789.8,85"/>
	</g>
	<g>
		<path class="st0" d="M1854.8,72.7c-9.5,5.9-18.8,12-37.8,12c-36.9,0-36.9-22.8-73.8-22.8c-36.9,0-36.9,22.8-73.8,22.8
			c-36.9,0-36.9-22.8-73.8-22.8c-36.9,0-36.9,22.8-73.8,22.8c-36.9,0-36.9-22.8-73.8-22.8c-36.9,0-36.9,22.8-73.8,22.8
			c-36.9,0-36.9-22.8-73.8-22.8c-34.7,0-36.8,20.2-67.7,22.5V23.6c30.9-2.4,33-22.5,67.7-22.5c36.9,0,36.9,22.8,73.8,22.8
			c36.9,0,36.9-22.8,73.8-22.8c36.9,0,36.9,22.8,73.8,22.8c36.9,0,36.9-22.8,73.8-22.8c36.9,0,36.9,22.8,73.8,22.8
			c36.9,0,36.9-22.8,73.8-22.8c36.9,0,36.9,22.8,73.8,22.8c19.1,0,28.3-6.1,37.8-12V72.7z"/>
		<path class="st1" d="M1232.8,24.1c-0.3,0-0.5-0.2-0.5-0.4c0-0.3,0.2-0.5,0.4-0.5c14.4-1.1,22.5-6.1,30.6-11.1
			c9.3-5.7,18.6-11.5,37.2-11.5c18.6,0,27.9,5.7,37.1,11.5c9.2,5.7,18.3,11.3,36.6,11.3c18.3,0,27.5-5.7,36.6-11.3
			c9.3-5.7,18.6-11.5,37.1-11.5c18.6,0,27.9,5.7,37.1,11.5c9.2,5.7,18.3,11.3,36.6,11.3c18.3,0,27.5-5.7,36.6-11.3
			c9.3-5.7,18.6-11.5,37.1-11.5c18.6,0,27.9,5.7,37.1,11.5c9.2,5.7,18.3,11.3,36.6,11.3c18.3,0,27.5-5.7,36.6-11.3
			c9.3-5.7,18.6-11.5,37.1-11.5c18.6,0,27.9,5.7,37.2,11.5c9.2,5.7,18.3,11.3,36.6,11.3c18.3,0,27.5-5.7,36.7-11.3l1.2-0.7v1.1
			l-0.7,0.4c-9.3,5.7-18.6,11.5-37.2,11.5c-18.6,0-27.9-5.7-37.2-11.5c-9.2-5.7-18.3-11.3-36.6-11.3c-18.3,0-27.5,5.7-36.6,11.3
			c-9.3,5.7-18.6,11.5-37.1,11.5c-18.6,0-27.9-5.7-37.1-11.5c-9.2-5.7-18.3-11.3-36.6-11.3c-18.3,0-27.5,5.7-36.6,11.3
			c-9.3,5.7-18.6,11.5-37.1,11.5c-18.6,0-27.9-5.7-37.1-11.5c-9.2-5.7-18.3-11.3-36.6-11.3c-18.3,0-27.5,5.7-36.6,11.3
			c-9.3,5.7-18.6,11.5-37.1,11.5c-18.6,0-27.9-5.7-37.1-11.5c-9.2-5.7-18.3-11.3-36.6-11.3s-27.5,5.7-36.6,11.3
			C1255.6,17.9,1247.4,22.9,1232.8,24.1"/>
		<path class="st1" d="M1232.8,34.2c-0.3,0-0.5-0.2-0.5-0.4c0-0.3,0.2-0.5,0.4-0.5c14.4-1.1,22.5-6.1,30.6-11.1
			c9.3-5.7,18.6-11.5,37.2-11.5c18.6,0,27.9,5.7,37.1,11.5c9.2,5.7,18.3,11.3,36.6,11.3c18.3,0,27.5-5.7,36.6-11.3
			c9.3-5.7,18.6-11.5,37.1-11.5s27.9,5.7,37.1,11.5c9.2,5.7,18.3,11.3,36.6,11.3c18.3,0,27.5-5.7,36.6-11.3
			c9.3-5.7,18.6-11.5,37.1-11.5c18.6,0,27.9,5.7,37.1,11.5c9.2,5.7,18.3,11.3,36.6,11.3c18.3,0,27.5-5.7,36.6-11.3
			c9.3-5.7,18.6-11.5,37.1-11.5c18.6,0,27.9,5.7,37.2,11.5c9.2,5.7,18.3,11.3,36.6,11.3c18.3,0,27.5-5.7,36.7-11.3l1.2-0.7v1.1
			l-0.7,0.4c-9.3,5.7-18.6,11.5-37.2,11.5c-18.6,0-27.9-5.7-37.2-11.5c-9.2-5.7-18.3-11.3-36.6-11.3c-18.3,0-27.5,5.7-36.6,11.3
			c-9.3,5.7-18.6,11.5-37.1,11.5c-18.6,0-27.9-5.7-37.1-11.5c-9.2-5.7-18.3-11.3-36.6-11.3c-18.3,0-27.5,5.7-36.6,11.3
			c-9.3,5.7-18.6,11.5-37.1,11.5c-18.6,0-27.9-5.7-37.1-11.5c-9.2-5.7-18.3-11.3-36.6-11.3s-27.5,5.7-36.6,11.3
			c-9.3,5.7-18.6,11.5-37.1,11.5c-18.6,0-27.9-5.7-37.1-11.5c-9.2-5.7-18.3-11.3-36.6-11.3c-18.3,0-27.5,5.7-36.6,11.3
			C1255.6,28,1247.4,33.1,1232.8,34.2"/>
		<path class="st1" d="M1232.8,44.3c-0.3,0-0.5-0.2-0.5-0.4c0-0.3,0.2-0.5,0.4-0.5c14.4-1.1,22.5-6.1,30.6-11.1
			c9.3-5.7,18.6-11.5,37.2-11.5c18.6,0,27.9,5.7,37.1,11.5c9.2,5.7,18.3,11.3,36.6,11.3c18.3,0,27.5-5.7,36.6-11.3
			c9.3-5.7,18.6-11.5,37.1-11.5s27.9,5.7,37.1,11.5c9.2,5.7,18.3,11.3,36.6,11.3c18.3,0,27.5-5.7,36.6-11.3
			c9.3-5.7,18.6-11.5,37.1-11.5c18.6,0,27.9,5.7,37.1,11.5c9.2,5.7,18.3,11.3,36.6,11.3c18.3,0,27.5-5.7,36.6-11.3
			c9.3-5.7,18.6-11.5,37.1-11.5c18.6,0,27.9,5.7,37.2,11.5c9.2,5.7,18.3,11.3,36.6,11.3c18.3,0,27.5-5.7,36.7-11.3l1.2-0.7v1.1
			l-0.7,0.4c-9.3,5.7-18.6,11.5-37.2,11.5c-18.6,0-27.9-5.7-37.2-11.5c-9.2-5.7-18.3-11.3-36.6-11.3c-18.3,0-27.5,5.7-36.6,11.3
			c-9.3,5.7-18.6,11.5-37.1,11.5c-18.6,0-27.9-5.7-37.1-11.5c-9.2-5.7-18.3-11.3-36.6-11.3c-18.3,0-27.5,5.7-36.6,11.3
			c-9.3,5.7-18.6,11.5-37.1,11.5c-18.6,0-27.9-5.7-37.1-11.5c-9.2-5.7-18.3-11.3-36.6-11.3s-27.5,5.7-36.6,11.3
			c-9.3,5.7-18.6,11.5-37.1,11.5c-18.6,0-27.9-5.7-37.1-11.5c-9.2-5.7-18.3-11.3-36.6-11.3c-18.3,0-27.5,5.7-36.6,11.3
			C1255.6,38.2,1247.4,43.2,1232.8,44.3"/>
		<path class="st1" d="M1232.8,54.5c-0.3,0-0.5-0.2-0.5-0.4c0-0.3,0.2-0.5,0.4-0.5c14.4-1.1,22.5-6.1,30.6-11.1
			c9.3-5.7,18.6-11.5,37.2-11.5c18.6,0,27.9,5.7,37.1,11.5c9.2,5.7,18.3,11.3,36.6,11.3c18.3,0,27.5-5.7,36.6-11.3
			c9.3-5.7,18.6-11.5,37.1-11.5c18.6,0,27.9,5.7,37.1,11.5c9.2,5.7,18.3,11.3,36.6,11.3c18.3,0,27.5-5.7,36.6-11.3
			c9.3-5.7,18.6-11.5,37.1-11.5c18.6,0,27.9,5.7,37.1,11.5c9.2,5.7,18.3,11.3,36.6,11.3c18.3,0,27.5-5.7,36.6-11.3
			c9.3-5.7,18.6-11.5,37.1-11.5c18.6,0,27.9,5.7,37.2,11.5c9.2,5.7,18.3,11.3,36.6,11.3c18.3,0,27.5-5.7,36.7-11.3l1.2-0.7v1.1
			l-0.7,0.4c-9.3,5.7-18.6,11.5-37.2,11.5c-18.6,0-27.9-5.7-37.2-11.5c-9.2-5.7-18.3-11.3-36.6-11.3c-18.3,0-27.5,5.7-36.6,11.3
			c-9.3,5.7-18.6,11.5-37.1,11.5c-18.6,0-27.9-5.7-37.1-11.5c-9.2-5.7-18.3-11.3-36.6-11.3c-18.3,0-27.5,5.7-36.6,11.3
			c-9.3,5.7-18.6,11.5-37.1,11.5c-18.6,0-27.9-5.7-37.1-11.5c-9.2-5.7-18.3-11.3-36.6-11.3c-18.3,0-27.5,5.7-36.6,11.3
			c-9.3,5.7-18.6,11.5-37.1,11.5c-18.6,0-27.9-5.7-37.1-11.5c-9.2-5.7-18.3-11.3-36.6-11.3c-18.3,0-27.5,5.7-36.6,11.3
			C1255.6,48.3,1247.4,53.4,1232.8,54.5"/>
		<path class="st1" d="M1232.8,64.6c-0.3,0-0.5-0.2-0.5-0.4c0-0.3,0.2-0.5,0.4-0.5c14.4-1.1,22.5-6.1,30.6-11.1
			c9.3-5.7,18.6-11.5,37.2-11.5c18.6,0,27.9,5.7,37.1,11.5c9.2,5.7,18.3,11.3,36.6,11.3c18.3,0,27.5-5.7,36.6-11.3
			c9.3-5.7,18.6-11.5,37.1-11.5c18.6,0,27.9,5.7,37.1,11.5c9.2,5.7,18.3,11.3,36.6,11.3c18.3,0,27.5-5.7,36.6-11.3
			c9.3-5.7,18.6-11.5,37.1-11.5c18.6,0,27.9,5.7,37.1,11.5c9.2,5.7,18.3,11.3,36.6,11.3c18.3,0,27.5-5.7,36.6-11.3
			c9.3-5.7,18.6-11.5,37.1-11.5c18.6,0,27.9,5.7,37.2,11.5c9.2,5.7,18.3,11.3,36.6,11.3c18.3,0,27.5-5.7,36.7-11.3l1.2-0.7V53
			l-0.7,0.4c-9.3,5.7-18.6,11.5-37.2,11.5c-18.6,0-27.9-5.7-37.2-11.5c-9.2-5.7-18.3-11.3-36.6-11.3c-18.3,0-27.5,5.7-36.6,11.3
			c-9.3,5.7-18.6,11.5-37.1,11.5c-18.6,0-27.9-5.7-37.1-11.5c-9.2-5.7-18.3-11.3-36.6-11.3c-18.3,0-27.5,5.7-36.6,11.3
			c-9.3,5.7-18.6,11.5-37.1,11.5c-18.6,0-27.9-5.7-37.1-11.5c-9.2-5.7-18.3-11.3-36.6-11.3c-18.3,0-27.5,5.7-36.6,11.3
			c-9.3,5.7-18.6,11.5-37.1,11.5c-18.6,0-27.9-5.7-37.1-11.5c-9.2-5.7-18.3-11.3-36.6-11.3s-27.5,5.7-36.6,11.3
			C1255.6,58.5,1247.4,63.5,1232.8,64.6"/>
		<path class="st1" d="M1232.8,74.8c-0.3,0-0.5-0.2-0.5-0.4c0-0.3,0.2-0.5,0.4-0.5c14.4-1.1,22.5-6.1,30.6-11.1
			c9.3-5.7,18.6-11.5,37.2-11.5c18.6,0,27.9,5.7,37.1,11.5c9.2,5.7,18.3,11.3,36.6,11.3c18.3,0,27.5-5.7,36.6-11.3
			c9.3-5.7,18.6-11.5,37.1-11.5s27.9,5.7,37.1,11.5c9.2,5.7,18.3,11.3,36.6,11.3c18.3,0,27.5-5.7,36.6-11.3
			c9.3-5.7,18.6-11.5,37.1-11.5c18.6,0,27.9,5.7,37.1,11.5c9.2,5.7,18.3,11.3,36.6,11.3c18.3,0,27.5-5.7,36.6-11.3
			c9.3-5.7,18.6-11.5,37.1-11.5c18.6,0,27.9,5.7,37.2,11.5c9.2,5.7,18.3,11.3,36.6,11.3c18.3,0,27.5-5.7,36.7-11.3l1.2-0.7v1.1
			l-0.7,0.4c-9.3,5.7-18.6,11.5-37.2,11.5c-18.6,0-27.9-5.7-37.2-11.5c-9.2-5.7-18.3-11.3-36.6-11.3c-18.3,0-27.5,5.7-36.6,11.3
			c-9.3,5.7-18.6,11.5-37.1,11.5c-18.6,0-27.9-5.7-37.1-11.5c-9.2-5.7-18.3-11.3-36.6-11.3c-18.3,0-27.5,5.7-36.6,11.3
			c-9.3,5.7-18.6,11.5-37.1,11.5c-18.6,0-27.9-5.7-37.1-11.5c-9.2-5.7-18.3-11.3-36.6-11.3s-27.5,5.7-36.6,11.3
			c-9.3,5.7-18.6,11.5-37.1,11.5c-18.6,0-27.9-5.7-37.1-11.5c-9.2-5.7-18.3-11.3-36.6-11.3c-18.3,0-27.5,5.7-36.6,11.3
			C1255.6,68.6,1247.4,73.7,1232.8,74.8"/>
		<path class="st1" d="M1232.8,84.9c-0.3,0-0.5-0.2-0.5-0.4c0-0.3,0.2-0.5,0.4-0.5c14.4-1.1,22.5-6.1,30.6-11.1
			c9.3-5.7,18.6-11.5,37.2-11.5c18.6,0,27.9,5.7,37.1,11.5c9.2,5.7,18.3,11.3,36.6,11.3c18.3,0,27.5-5.7,36.6-11.3
			c9.3-5.7,18.6-11.5,37.1-11.5s27.9,5.7,37.1,11.5c9.2,5.7,18.3,11.3,36.6,11.3c18.3,0,27.5-5.7,36.6-11.3
			c9.3-5.7,18.6-11.5,37.1-11.5c18.6,0,27.9,5.7,37.1,11.5c9.2,5.7,18.3,11.3,36.6,11.3c18.3,0,27.5-5.7,36.6-11.3
			c9.3-5.7,18.6-11.5,37.1-11.5c18.6,0,27.9,5.7,37.2,11.5c9.2,5.7,18.3,11.3,36.6,11.3c18.3,0,27.5-5.7,36.7-11.3l1.2-0.7v1.1
			l-0.7,0.4c-9.3,5.7-18.6,11.5-37.2,11.5c-18.6,0-27.9-5.7-37.2-11.5c-9.2-5.7-18.3-11.3-36.6-11.3c-18.3,0-27.5,5.7-36.6,11.3
			c-9.3,5.7-18.6,11.5-37.1,11.5c-18.6,0-27.9-5.7-37.1-11.5c-9.2-5.7-18.3-11.3-36.6-11.3c-18.3,0-27.5,5.7-36.6,11.3
			c-9.3,5.7-18.6,11.5-37.1,11.5c-18.6,0-27.9-5.7-37.1-11.5c-9.2-5.7-18.3-11.3-36.6-11.3s-27.5,5.7-36.6,11.3
			c-9.3,5.7-18.6,11.5-37.1,11.5c-18.6,0-27.9-5.7-37.1-11.5c-9.2-5.7-18.3-11.3-36.6-11.3c-18.3,0-27.5,5.7-36.6,11.3
			C1255.6,78.7,1247.4,83.8,1232.8,84.9"/>
	</g>
</g>
<g id="bottom">
	<g>
		<path class="st2" d="M614.9,97.1c-19.6,5.9-25.7,20.2-54.9,20.2c-36.9,0-36.9-22.8-73.8-22.8c-36.9,0-36.9,22.8-73.8,22.8
			c-36.9,0-36.9-22.8-73.8-22.8c-36.9,0-36.9,22.8-73.8,22.8c-36.9,0-36.9-22.8-73.8-22.8s-36.9,22.8-73.8,22.8
			c-36.9,0-36.9-22.8-73.8-22.8c-22.7,0-31.4,8.6-43.4,15.3V49c12-6.6,20.7-15.3,43.4-15.3c36.9,0,36.9,22.8,73.8,22.8
			c36.9,0,36.9-22.8,73.8-22.8s36.9,22.8,73.8,22.8c36.9,0,36.9-22.8,73.8-22.8c36.9,0,36.9,22.8,73.8,22.8
			c36.9,0,36.9-22.8,73.8-22.8c36.9,0,36.9,22.8,73.8,22.8c29.2,0,35.3-14.3,54.9-20.2V97.1z"/>
		<path class="st1" d="M0,48.4c2.2-1.2,4.2-2.5,6.3-3.7c9.3-5.7,18.6-11.5,37.2-11.5c18.6,0,27.9,5.7,37.1,11.5
			C89.7,50.3,98.9,56,117.2,56c18.3,0,27.5-5.7,36.6-11.3c9.3-5.7,18.6-11.5,37.1-11.5c18.6,0,27.9,5.7,37.1,11.5
			c9.2,5.7,18.3,11.3,36.6,11.3c18.3,0,27.5-5.7,36.6-11.3c9.3-5.7,18.6-11.5,37.1-11.5c18.6,0,27.9,5.7,37.1,11.5
			c9.2,5.7,18.3,11.3,36.6,11.3c18.3,0,27.5-5.7,36.6-11.3c9.3-5.7,18.6-11.5,37.1-11.5c18.6,0,27.9,5.7,37.1,11.5
			C532.5,50.3,541.6,56,560,56c18.3,0,27.5-5.7,36.7-11.3c5.4-3.3,10.8-6.7,18.1-8.9c0.3-0.1,0.5,0.1,0.6,0.3
			c0.1,0.3-0.1,0.5-0.3,0.6c-7.2,2.2-12.5,5.5-17.9,8.8C587.8,51.2,578.5,57,560,57c-18.6,0-27.9-5.7-37.2-11.5
			c-9.2-5.7-18.3-11.3-36.6-11.3c-18.3,0-27.5,5.7-36.6,11.3c-9.3,5.7-18.6,11.5-37.1,11.5c-18.6,0-27.9-5.7-37.1-11.5
			c-9.2-5.7-18.3-11.3-36.6-11.3c-18.3,0-27.5,5.7-36.6,11.3c-9.3,5.7-18.6,11.5-37.1,11.5c-18.6,0-27.9-5.7-37.1-11.5
			c-9.2-5.7-18.3-11.3-36.6-11.3c-18.3,0-27.5,5.7-36.6,11.3c-9.3,5.7-18.6,11.5-37.1,11.5c-18.6,0-27.9-5.7-37.1-11.5
			c-9.2-5.7-18.3-11.3-36.6-11.3c-18.3,0-27.5,5.7-36.6,11.3c-2.2,1.4-4.4,2.7-6.8,4V48.4z"/>
		<path class="st1" d="M0,58.6c2.2-1.2,4.2-2.5,6.3-3.7c9.3-5.7,18.6-11.5,37.2-11.5c18.6,0,27.9,5.7,37.1,11.5
			c9.2,5.7,18.3,11.3,36.6,11.3c18.3,0,27.5-5.7,36.6-11.3c9.3-5.7,18.6-11.5,37.1-11.5s27.9,5.7,37.1,11.5
			c9.2,5.7,18.3,11.3,36.6,11.3c18.3,0,27.5-5.7,36.6-11.3c9.3-5.7,18.6-11.5,37.1-11.5c18.6,0,27.9,5.7,37.1,11.5
			c9.2,5.7,18.3,11.3,36.6,11.3c18.3,0,27.5-5.7,36.6-11.3c9.3-5.7,18.6-11.5,37.1-11.5c18.6,0,27.9,5.7,37.1,11.5
			c9.2,5.7,18.3,11.3,36.6,11.3c18.3,0,27.5-5.7,36.7-11.3c5.4-3.3,10.8-6.7,18.1-8.9c0.3-0.1,0.5,0.1,0.6,0.3
			c0.1,0.3-0.1,0.5-0.3,0.6c-7.2,2.2-12.5,5.5-17.9,8.8c-9.3,5.7-18.6,11.5-37.2,11.5c-18.6,0-27.9-5.7-37.2-11.5
			c-9.2-5.7-18.3-11.3-36.6-11.3c-18.3,0-27.5,5.7-36.6,11.3c-9.3,5.7-18.6,11.5-37.1,11.5c-18.6,0-27.9-5.7-37.1-11.5
			c-9.2-5.7-18.3-11.3-36.6-11.3c-18.3,0-27.5,5.7-36.6,11.3c-9.3,5.7-18.6,11.5-37.1,11.5c-18.6,0-27.9-5.7-37.1-11.5
			c-9.2-5.7-18.3-11.3-36.6-11.3s-27.5,5.7-36.6,11.3c-9.3,5.7-18.6,11.5-37.1,11.5c-18.6,0-27.9-5.7-37.1-11.5
			C70.9,50,61.7,44.3,43.4,44.3c-18.3,0-27.5,5.7-36.6,11.3c-2.2,1.4-4.4,2.7-6.8,4V58.6z"/>
		<path class="st1" d="M0,68.7c2.2-1.2,4.2-2.5,6.3-3.7c9.3-5.7,18.6-11.5,37.2-11.5c18.6,0,27.9,5.7,37.1,11.5
			c9.2,5.7,18.3,11.3,36.6,11.3c18.3,0,27.5-5.7,36.6-11.3c9.3-5.7,18.6-11.5,37.1-11.5s27.9,5.7,37.1,11.5
			c9.2,5.7,18.3,11.3,36.6,11.3c18.3,0,27.5-5.7,36.6-11.3c9.3-5.7,18.6-11.5,37.1-11.5c18.6,0,27.9,5.7,37.1,11.5
			c9.2,5.7,18.3,11.3,36.6,11.3c18.3,0,27.5-5.7,36.6-11.3c9.3-5.7,18.6-11.5,37.1-11.5c18.6,0,27.9,5.7,37.1,11.5
			c9.2,5.7,18.3,11.3,36.6,11.3c18.3,0,27.5-5.7,36.7-11.3c5.4-3.3,10.8-6.7,18.1-8.9c0.3-0.1,0.5,0.1,0.6,0.3
			c0.1,0.3-0.1,0.5-0.3,0.6c-7.2,2.2-12.5,5.5-17.9,8.8c-9.3,5.7-18.6,11.5-37.2,11.5c-18.6,0-27.9-5.7-37.2-11.5
			c-9.2-5.7-18.3-11.3-36.6-11.3c-18.3,0-27.5,5.7-36.6,11.3c-9.3,5.7-18.6,11.5-37.1,11.5c-18.6,0-27.9-5.7-37.1-11.5
			c-9.2-5.7-18.3-11.3-36.6-11.3c-18.3,0-27.5,5.7-36.6,11.3c-9.3,5.7-18.6,11.5-37.1,11.5c-18.6,0-27.9-5.7-37.1-11.5
			c-9.2-5.7-18.3-11.3-36.6-11.3s-27.5,5.7-36.6,11.3c-9.3,5.7-18.6,11.5-37.1,11.5c-18.6,0-27.9-5.7-37.1-11.5
			c-9.2-5.7-18.3-11.3-36.6-11.3c-18.3,0-27.5,5.7-36.6,11.3c-2.2,1.4-4.4,2.7-6.8,4V68.7z"/>
		<path class="st1" d="M0,78.8c2.2-1.2,4.2-2.5,6.3-3.7c9.3-5.7,18.6-11.5,37.2-11.5c18.6,0,27.9,5.7,37.1,11.5
			c9.2,5.7,18.3,11.3,36.6,11.3c18.3,0,27.5-5.7,36.6-11.3c9.3-5.7,18.6-11.5,37.1-11.5c18.6,0,27.9,5.7,37.1,11.5
			c9.2,5.7,18.3,11.3,36.6,11.3c18.3,0,27.5-5.7,36.6-11.3c9.3-5.7,18.6-11.5,37.1-11.5c18.6,0,27.9,5.7,37.1,11.5
			c9.2,5.7,18.3,11.3,36.6,11.3c18.3,0,27.5-5.7,36.6-11.3c9.3-5.7,18.6-11.5,37.1-11.5c18.6,0,27.9,5.7,37.1,11.5
			c9.2,5.7,18.3,11.3,36.6,11.3c18.3,0,27.5-5.7,36.7-11.3c5.4-3.3,10.8-6.7,18.1-8.9c0.3-0.1,0.5,0.1,0.6,0.3
			c0.1,0.3-0.1,0.5-0.3,0.6c-7.2,2.2-12.5,5.5-17.9,8.8c-9.3,5.7-18.6,11.5-37.2,11.5c-18.6,0-27.9-5.7-37.2-11.5
			c-9.2-5.7-18.3-11.3-36.6-11.3c-18.3,0-27.5,5.7-36.6,11.3c-9.3,5.7-18.6,11.5-37.1,11.5c-18.6,0-27.9-5.7-37.1-11.5
			c-9.2-5.7-18.3-11.3-36.6-11.3c-18.3,0-27.5,5.7-36.6,11.3c-9.3,5.7-18.6,11.5-37.1,11.5c-18.6,0-27.9-5.7-37.1-11.5
			c-9.2-5.7-18.3-11.3-36.6-11.3c-18.3,0-27.5,5.7-36.6,11.3c-9.3,5.7-18.6,11.5-37.1,11.5c-18.6,0-27.9-5.7-37.1-11.5
			c-9.2-5.7-18.3-11.3-36.6-11.3c-18.3,0-27.5,5.7-36.6,11.3c-2.2,1.4-4.4,2.7-6.8,4V78.8z"/>
		<path class="st1" d="M0,89c2.2-1.2,4.2-2.5,6.3-3.7c9.3-5.7,18.6-11.5,37.2-11.5c18.6,0,27.9,5.7,37.1,11.5
			c9.2,5.7,18.3,11.3,36.6,11.3c18.3,0,27.5-5.7,36.6-11.3c9.3-5.7,18.6-11.5,37.1-11.5c18.6,0,27.9,5.7,37.1,11.5
			c9.2,5.7,18.3,11.3,36.6,11.3c18.3,0,27.5-5.7,36.6-11.3c9.3-5.7,18.6-11.5,37.1-11.5c18.6,0,27.9,5.7,37.1,11.5
			c9.2,5.7,18.3,11.3,36.6,11.3c18.3,0,27.5-5.7,36.6-11.3c9.3-5.7,18.6-11.5,37.1-11.5c18.6,0,27.9,5.7,37.1,11.5
			c9.2,5.7,18.3,11.3,36.6,11.3c18.3,0,27.5-5.7,36.7-11.3c5.4-3.3,10.8-6.7,18.1-8.9c0.3-0.1,0.5,0.1,0.6,0.3
			c0.1,0.3-0.1,0.5-0.3,0.6c-7.2,2.2-12.5,5.5-17.9,8.8c-9.3,5.7-18.6,11.5-37.2,11.5c-18.6,0-27.9-5.7-37.2-11.5
			c-9.2-5.7-18.3-11.3-36.6-11.3c-18.3,0-27.5,5.7-36.6,11.3c-9.3,5.7-18.6,11.5-37.1,11.5c-18.6,0-27.9-5.7-37.1-11.5
			c-9.2-5.7-18.3-11.3-36.6-11.3c-18.3,0-27.5,5.7-36.6,11.3c-9.3,5.7-18.6,11.5-37.1,11.5c-18.6,0-27.9-5.7-37.1-11.5
			c-9.2-5.7-18.3-11.3-36.6-11.3c-18.3,0-27.5,5.7-36.6,11.3c-9.3,5.7-18.6,11.5-37.1,11.5c-18.6,0-27.9-5.7-37.1-11.5
			c-9.2-5.7-18.3-11.3-36.6-11.3c-18.3,0-27.5,5.7-36.6,11.3c-2.2,1.4-4.4,2.7-6.8,4V89z"/>
		<path class="st1" d="M0,99.1c2.2-1.2,4.2-2.5,6.3-3.7c9.3-5.7,18.6-11.5,37.2-11.5c18.6,0,27.9,5.7,37.1,11.5
			c9.2,5.7,18.3,11.3,36.6,11.3c18.3,0,27.5-5.7,36.6-11.3c9.3-5.7,18.6-11.5,37.1-11.5s27.9,5.7,37.1,11.5
			c9.2,5.7,18.3,11.3,36.6,11.3c18.3,0,27.5-5.7,36.6-11.3c9.3-5.7,18.6-11.5,37.1-11.5c18.6,0,27.9,5.7,37.1,11.5
			c9.2,5.7,18.3,11.3,36.6,11.3c18.3,0,27.5-5.7,36.6-11.3c9.3-5.7,18.6-11.5,37.1-11.5c18.6,0,27.9,5.7,37.1,11.5
			c9.2,5.7,18.3,11.3,36.6,11.3c18.3,0,27.5-5.7,36.7-11.3c5.4-3.3,10.8-6.7,18.1-8.9c0.3-0.1,0.5,0.1,0.6,0.3
			c0.1,0.3-0.1,0.5-0.3,0.6c-7.2,2.2-12.5,5.5-17.9,8.8c-9.3,5.7-18.6,11.5-37.2,11.5c-18.6,0-27.9-5.7-37.2-11.5
			c-9.2-5.7-18.3-11.3-36.6-11.3c-18.3,0-27.5,5.7-36.6,11.3c-9.3,5.7-18.6,11.5-37.1,11.5c-18.6,0-27.9-5.7-37.1-11.5
			c-9.2-5.7-18.3-11.3-36.6-11.3c-18.3,0-27.5,5.7-36.6,11.3c-9.3,5.7-18.6,11.5-37.1,11.5c-18.6,0-27.9-5.7-37.1-11.5
			c-9.2-5.7-18.3-11.3-36.6-11.3s-27.5,5.7-36.6,11.3c-9.3,5.7-18.6,11.5-37.1,11.5c-18.6,0-27.9-5.7-37.1-11.5
			c-9.2-5.7-18.3-11.3-36.6-11.3c-18.3,0-27.5,5.7-36.6,11.3c-2.2,1.4-4.4,2.7-6.8,4V99.1z"/>
		<path class="st1" d="M0,109.3c2.2-1.2,4.2-2.5,6.3-3.7c9.3-5.7,18.6-11.5,37.2-11.5c18.6,0,27.9,5.7,37.1,11.5
			c9.2,5.7,18.3,11.3,36.6,11.3c18.3,0,27.5-5.7,36.6-11.3c9.3-5.7,18.6-11.5,37.1-11.5s27.9,5.7,37.1,11.5
			c9.2,5.7,18.3,11.3,36.6,11.3c18.3,0,27.5-5.7,36.6-11.3c9.3-5.7,18.6-11.5,37.1-11.5c18.6,0,27.9,5.7,37.1,11.5
			c9.2,5.7,18.3,11.3,36.6,11.3c18.3,0,27.5-5.7,36.6-11.3c9.3-5.7,18.6-11.5,37.1-11.5c18.6,0,27.9,5.7,37.1,11.5
			c9.2,5.7,18.3,11.3,36.6,11.3c18.3,0,27.5-5.7,36.7-11.3c5.4-3.3,10.8-6.7,18.1-8.9c0.3-0.1,0.5,0.1,0.6,0.3
			c0.1,0.3-0.1,0.5-0.3,0.6c-7.2,2.2-12.5,5.5-17.9,8.8c-9.3,5.7-18.6,11.5-37.2,11.5c-18.6,0-27.9-5.7-37.2-11.5
			c-9.2-5.7-18.3-11.3-36.6-11.3c-18.3,0-27.5,5.7-36.6,11.3c-9.3,5.7-18.6,11.5-37.1,11.5c-18.6,0-27.9-5.7-37.1-11.5
			c-9.2-5.7-18.3-11.3-36.6-11.3c-18.3,0-27.5,5.7-36.6,11.3c-9.3,5.7-18.6,11.5-37.1,11.5c-18.6,0-27.9-5.7-37.1-11.5
			c-9.2-5.7-18.3-11.3-36.6-11.3s-27.5,5.7-36.6,11.3c-9.3,5.7-18.6,11.5-37.1,11.5c-18.6,0-27.9-5.7-37.1-11.5
			c-9.2-5.7-18.3-11.3-36.6-11.3c-18.3,0-27.5,5.7-36.6,11.3c-2.2,1.4-4.4,2.7-6.8,4V109.3z"/>
	</g>
	<g>
		<path class="st2" d="M1057.1,97.4c-19.6,5.9-25.7,20.2-54.9,20.2c-36.9,0-36.9-22.8-73.8-22.8c-36.9,0-36.9,22.8-73.8,22.8
			c-36.9,0-36.9-22.8-73.8-22.8c-36.9,0-36.9,22.8-73.8,22.8c-36.9,0-36.9-22.8-73.8-22.8s-36.9,22.8-73.8,22.8
			c-36.9,0-36.9-22.8-73.8-22.8c-22.7,0-31.4,8.6-43.4,15.3V49.2c12-6.6,20.7-15.3,43.4-15.3c36.9,0,36.9,22.8,73.8,22.8
			c36.9,0,36.9-22.8,73.8-22.8s36.9,22.8,73.8,22.8c36.9,0,36.9-22.8,73.8-22.8c36.9,0,36.9,22.8,73.8,22.8
			c36.9,0,36.9-22.8,73.8-22.8c36.9,0,36.9,22.8,73.8,22.8c29.2,0,35.3-14.3,54.9-20.2V97.4z"/>
		<path class="st1" d="M442.2,48.7c2.2-1.2,4.2-2.5,6.3-3.7c9.3-5.7,18.6-11.5,37.1-11.5c18.6,0,27.9,5.7,37.1,11.5
			c9.2,5.7,18.3,11.3,36.6,11.3c18.3,0,27.5-5.7,36.6-11.3c9.3-5.7,18.6-11.5,37.1-11.5c18.6,0,27.9,5.7,37.1,11.5
			c9.2,5.7,18.3,11.3,36.6,11.3c18.3,0,27.5-5.7,36.6-11.3c9.3-5.7,18.6-11.5,37.1-11.5c18.6,0,27.9,5.7,37.1,11.5
			c9.2,5.7,18.3,11.3,36.6,11.3c18.3,0,27.5-5.7,36.6-11.3c9.3-5.7,18.6-11.5,37.1-11.5c18.6,0,27.9,5.7,37.2,11.5
			c9.2,5.7,18.3,11.3,36.6,11.3c18.3,0,27.5-5.7,36.7-11.3c5.4-3.3,10.8-6.7,18.1-8.9c0.3-0.1,0.5,0.1,0.6,0.3
			c0.1,0.3-0.1,0.5-0.3,0.6c-7.2,2.2-12.5,5.5-17.9,8.8c-9.3,5.7-18.6,11.5-37.2,11.5c-18.6,0-27.9-5.7-37.2-11.5
			c-9.2-5.7-18.3-11.3-36.6-11.3c-18.3,0-27.5,5.7-36.6,11.3c-9.3,5.7-18.6,11.5-37.1,11.5c-18.6,0-27.9-5.7-37.1-11.5
			c-9.2-5.7-18.3-11.3-36.6-11.3c-18.3,0-27.5,5.7-36.6,11.3c-9.3,5.7-18.6,11.5-37.1,11.5c-18.6,0-27.9-5.7-37.1-11.5
			c-9.2-5.7-18.3-11.3-36.6-11.3c-18.3,0-27.5,5.7-36.6,11.3c-9.3,5.7-18.6,11.5-37.1,11.5c-18.6,0-27.9-5.7-37.1-11.5
			c-9.2-5.7-18.3-11.3-36.6-11.3c-18.3,0-27.5,5.7-36.6,11.3c-2.2,1.4-4.4,2.7-6.8,4V48.7z"/>
		<path class="st1" d="M442.2,58.8c2.2-1.2,4.2-2.5,6.3-3.7c9.3-5.7,18.6-11.5,37.1-11.5c18.6,0,27.9,5.7,37.1,11.5
			c9.2,5.7,18.3,11.3,36.6,11.3c18.3,0,27.5-5.7,36.6-11.3c9.3-5.7,18.6-11.5,37.1-11.5s27.9,5.7,37.1,11.5
			c9.2,5.7,18.3,11.3,36.6,11.3c18.3,0,27.5-5.7,36.6-11.3c9.3-5.7,18.6-11.5,37.1-11.5c18.6,0,27.9,5.7,37.1,11.5
			c9.2,5.7,18.3,11.3,36.6,11.3c18.3,0,27.5-5.7,36.6-11.3c9.3-5.7,18.6-11.5,37.1-11.5c18.6,0,27.9,5.7,37.2,11.5
			c9.2,5.7,18.3,11.3,36.6,11.3c18.3,0,27.5-5.7,36.7-11.3c5.4-3.3,10.8-6.7,18.1-8.9c0.3-0.1,0.5,0.1,0.6,0.3
			c0.1,0.3-0.1,0.5-0.3,0.6c-7.2,2.2-12.5,5.5-17.9,8.8c-9.3,5.7-18.6,11.5-37.2,11.5c-18.6,0-27.9-5.7-37.2-11.5
			c-9.2-5.7-18.3-11.3-36.6-11.3c-18.3,0-27.5,5.7-36.6,11.3c-9.3,5.7-18.6,11.5-37.1,11.5c-18.6,0-27.9-5.7-37.1-11.5
			c-9.2-5.7-18.3-11.3-36.6-11.3c-18.3,0-27.5,5.7-36.6,11.3c-9.3,5.7-18.6,11.5-37.1,11.5c-18.6,0-27.9-5.7-37.1-11.5
			c-9.2-5.7-18.3-11.3-36.6-11.3s-27.5,5.7-36.6,11.3c-9.3,5.7-18.6,11.5-37.1,11.5c-18.6,0-27.9-5.7-37.1-11.5
			c-9.2-5.7-18.3-11.3-36.6-11.3c-18.3,0-27.5,5.7-36.6,11.3c-2.2,1.4-4.4,2.7-6.8,4V58.8z"/>
		<path class="st1" d="M442.2,68.9c2.2-1.2,4.2-2.5,6.3-3.7c9.3-5.7,18.6-11.5,37.1-11.5c18.6,0,27.9,5.7,37.1,11.5
			c9.2,5.7,18.3,11.3,36.6,11.3c18.3,0,27.5-5.7,36.6-11.3c9.3-5.7,18.6-11.5,37.1-11.5s27.9,5.7,37.1,11.5
			c9.2,5.7,18.3,11.3,36.6,11.3c18.3,0,27.5-5.7,36.6-11.3c9.3-5.7,18.6-11.5,37.1-11.5c18.6,0,27.9,5.7,37.1,11.5
			c9.2,5.7,18.3,11.3,36.6,11.3c18.3,0,27.5-5.7,36.6-11.3c9.3-5.7,18.6-11.5,37.1-11.5c18.6,0,27.9,5.7,37.2,11.5
			c9.2,5.7,18.3,11.3,36.6,11.3c18.3,0,27.5-5.7,36.7-11.3c5.4-3.3,10.8-6.7,18.1-8.9c0.3-0.1,0.5,0.1,0.6,0.3s-0.1,0.5-0.3,0.6
			c-7.2,2.2-12.5,5.5-17.9,8.8c-9.3,5.7-18.6,11.5-37.2,11.5c-18.6,0-27.9-5.7-37.2-11.5c-9.2-5.7-18.3-11.3-36.6-11.3
			c-18.3,0-27.5,5.7-36.6,11.3c-9.3,5.7-18.6,11.5-37.1,11.5c-18.6,0-27.9-5.7-37.1-11.5c-9.2-5.7-18.3-11.3-36.6-11.3
			c-18.3,0-27.5,5.7-36.6,11.3c-9.3,5.7-18.6,11.5-37.1,11.5c-18.6,0-27.9-5.7-37.1-11.5c-9.2-5.7-18.3-11.3-36.6-11.3
			s-27.5,5.7-36.6,11.3c-9.3,5.7-18.6,11.5-37.1,11.5c-18.6,0-27.9-5.7-37.1-11.5c-9.2-5.7-18.3-11.3-36.6-11.3
			c-18.3,0-27.5,5.7-36.6,11.3c-2.2,1.4-4.4,2.7-6.8,4V68.9z"/>
		<path class="st1" d="M442.2,79.1c2.2-1.2,4.2-2.5,6.3-3.7c9.3-5.7,18.6-11.5,37.1-11.5c18.6,0,27.9,5.7,37.1,11.5
			c9.2,5.7,18.3,11.3,36.6,11.3c18.3,0,27.5-5.7,36.6-11.3c9.3-5.7,18.6-11.5,37.1-11.5c18.6,0,27.9,5.7,37.1,11.5
			c9.2,5.7,18.3,11.3,36.6,11.3c18.3,0,27.5-5.7,36.6-11.3c9.3-5.7,18.6-11.5,37.1-11.5c18.6,0,27.9,5.7,37.1,11.5
			c9.2,5.7,18.3,11.3,36.6,11.3c18.3,0,27.5-5.7,36.6-11.3c9.3-5.7,18.6-11.5,37.1-11.5c18.6,0,27.9,5.7,37.2,11.5
			c9.2,5.7,18.3,11.3,36.6,11.3c18.3,0,27.5-5.7,36.7-11.3c5.4-3.3,10.8-6.7,18.1-8.9c0.3-0.1,0.5,0.1,0.6,0.3
			c0.1,0.3-0.1,0.5-0.3,0.6c-7.2,2.2-12.5,5.5-17.9,8.8c-9.3,5.7-18.6,11.5-37.2,11.5c-18.6,0-27.9-5.7-37.2-11.5
			c-9.2-5.7-18.3-11.3-36.6-11.3c-18.3,0-27.5,5.7-36.6,11.3c-9.3,5.7-18.6,11.5-37.1,11.5c-18.6,0-27.9-5.7-37.1-11.5
			c-9.2-5.7-18.3-11.3-36.6-11.3c-18.3,0-27.5,5.7-36.6,11.3c-9.3,5.7-18.6,11.5-37.1,11.5c-18.6,0-27.9-5.7-37.1-11.5
			c-9.2-5.7-18.3-11.3-36.6-11.3c-18.3,0-27.5,5.7-36.6,11.3c-9.3,5.7-18.6,11.5-37.1,11.5c-18.6,0-27.9-5.7-37.1-11.5
			c-9.2-5.7-18.3-11.3-36.6-11.3c-18.3,0-27.5,5.7-36.6,11.3c-2.2,1.4-4.4,2.7-6.8,4V79.1z"/>
		<path class="st1" d="M442.2,89.2c2.2-1.2,4.2-2.5,6.3-3.7C457.8,79.8,467,74,485.6,74c18.6,0,27.9,5.7,37.1,11.5
			c9.2,5.7,18.3,11.3,36.6,11.3c18.3,0,27.5-5.7,36.6-11.3c9.3-5.7,18.6-11.5,37.1-11.5c18.6,0,27.9,5.7,37.1,11.5
			c9.2,5.7,18.3,11.3,36.6,11.3c18.3,0,27.5-5.7,36.6-11.3c9.3-5.7,18.6-11.5,37.1-11.5c18.6,0,27.9,5.7,37.1,11.5
			c9.2,5.7,18.3,11.3,36.6,11.3c18.3,0,27.5-5.7,36.6-11.3c9.3-5.7,18.6-11.5,37.1-11.5c18.6,0,27.9,5.7,37.2,11.5
			c9.2,5.7,18.3,11.3,36.6,11.3c18.3,0,27.5-5.7,36.7-11.3c5.4-3.3,10.8-6.7,18.1-8.9c0.3-0.1,0.5,0.1,0.6,0.3
			c0.1,0.3-0.1,0.5-0.3,0.6c-7.2,2.2-12.5,5.5-17.9,8.8c-9.3,5.7-18.6,11.5-37.2,11.5c-18.6,0-27.9-5.7-37.2-11.5
			c-9.2-5.7-18.3-11.3-36.6-11.3c-18.3,0-27.5,5.7-36.6,11.3c-9.3,5.7-18.6,11.5-37.1,11.5c-18.6,0-27.9-5.7-37.1-11.5
			c-9.2-5.7-18.3-11.3-36.6-11.3c-18.3,0-27.5,5.7-36.6,11.3c-9.3,5.7-18.6,11.5-37.1,11.5c-18.6,0-27.9-5.7-37.1-11.5
			c-9.2-5.7-18.3-11.3-36.6-11.3c-18.3,0-27.5,5.7-36.6,11.3c-9.3,5.7-18.6,11.5-37.1,11.5c-18.6,0-27.9-5.7-37.1-11.5
			c-9.2-5.7-18.3-11.3-36.6-11.3c-18.3,0-27.5,5.7-36.6,11.3c-2.2,1.4-4.4,2.7-6.8,4V89.2z"/>
		<path class="st1" d="M442.2,99.4c2.2-1.2,4.2-2.5,6.3-3.7c9.3-5.7,18.6-11.5,37.1-11.5c18.6,0,27.9,5.7,37.1,11.5
			c9.2,5.7,18.3,11.3,36.6,11.3c18.3,0,27.5-5.7,36.6-11.3c9.3-5.7,18.6-11.5,37.1-11.5s27.9,5.7,37.1,11.5
			c9.2,5.7,18.3,11.3,36.6,11.3c18.3,0,27.5-5.7,36.6-11.3c9.3-5.7,18.6-11.5,37.1-11.5c18.6,0,27.9,5.7,37.1,11.5
			c9.2,5.7,18.3,11.3,36.6,11.3c18.3,0,27.5-5.7,36.6-11.3c9.3-5.7,18.6-11.5,37.1-11.5c18.6,0,27.9,5.7,37.2,11.5
			c9.2,5.7,18.3,11.3,36.6,11.3c18.3,0,27.5-5.7,36.7-11.3c5.4-3.3,10.8-6.7,18.1-8.9c0.3-0.1,0.5,0.1,0.6,0.3
			c0.1,0.3-0.1,0.5-0.3,0.6c-7.2,2.2-12.5,5.5-17.9,8.8c-9.3,5.7-18.6,11.5-37.2,11.5c-18.6,0-27.9-5.7-37.2-11.5
			c-9.2-5.7-18.3-11.3-36.6-11.3c-18.3,0-27.5,5.7-36.6,11.3c-9.3,5.7-18.6,11.5-37.1,11.5c-18.6,0-27.9-5.7-37.1-11.5
			c-9.2-5.7-18.3-11.3-36.6-11.3c-18.3,0-27.5,5.7-36.6,11.3c-9.3,5.7-18.6,11.5-37.1,11.5c-18.6,0-27.9-5.7-37.1-11.5
			c-9.2-5.7-18.3-11.3-36.6-11.3s-27.5,5.7-36.6,11.3c-9.3,5.7-18.6,11.5-37.1,11.5c-18.6,0-27.9-5.7-37.1-11.5
			c-9.2-5.7-18.3-11.3-36.6-11.3c-18.3,0-27.5,5.7-36.6,11.3c-2.2,1.4-4.4,2.7-6.8,4V99.4z"/>
		<path class="st1" d="M442.2,109.5c2.2-1.2,4.2-2.5,6.3-3.7c9.3-5.7,18.6-11.5,37.1-11.5c18.6,0,27.9,5.7,37.1,11.5
			c9.2,5.7,18.3,11.3,36.6,11.3c18.3,0,27.5-5.7,36.6-11.3c9.3-5.7,18.6-11.5,37.1-11.5s27.9,5.7,37.1,11.5
			c9.2,5.7,18.3,11.3,36.6,11.3c18.3,0,27.5-5.7,36.6-11.3c9.3-5.7,18.6-11.5,37.1-11.5c18.6,0,27.9,5.7,37.1,11.5
			c9.2,5.7,18.3,11.3,36.6,11.3c18.3,0,27.5-5.7,36.6-11.3c9.3-5.7,18.6-11.5,37.1-11.5c18.6,0,27.9,5.7,37.2,11.5
			c9.2,5.7,18.3,11.3,36.6,11.3c18.3,0,27.5-5.7,36.7-11.3c5.4-3.3,10.8-6.7,18.1-8.9c0.3-0.1,0.5,0.1,0.6,0.3
			c0.1,0.3-0.1,0.5-0.3,0.6c-7.2,2.2-12.5,5.5-17.9,8.8c-9.3,5.7-18.6,11.5-37.2,11.5c-18.6,0-27.9-5.7-37.2-11.5
			c-9.2-5.7-18.3-11.3-36.6-11.3c-18.3,0-27.5,5.7-36.6,11.3c-9.3,5.7-18.6,11.5-37.1,11.5c-18.6,0-27.9-5.7-37.1-11.5
			c-9.2-5.7-18.3-11.3-36.6-11.3c-18.3,0-27.5,5.7-36.6,11.3c-9.3,5.7-18.6,11.5-37.1,11.5c-18.6,0-27.9-5.7-37.1-11.5
			c-9.2-5.7-18.3-11.3-36.6-11.3s-27.5,5.7-36.6,11.3c-9.3,5.7-18.6,11.5-37.1,11.5c-18.6,0-27.9-5.7-37.1-11.5
			c-9.2-5.7-18.3-11.3-36.6-11.3c-18.3,0-27.5,5.7-36.6,11.3c-2.2,1.4-4.4,2.7-6.8,4V109.5z"/>
	</g>
	<g>
		<path class="st2" d="M1646.8,97.7c-19.6,5.9-25.7,20.2-54.9,20.2c-36.9,0-36.9-22.8-73.8-22.8c-36.9,0-36.9,22.8-73.8,22.8
			c-36.9,0-36.9-22.8-73.8-22.8c-36.9,0-36.9,22.8-73.8,22.8c-36.9,0-36.9-22.8-73.8-22.8s-36.9,22.8-73.8,22.8
			c-36.9,0-36.9-22.8-73.8-22.8c-22.7,0-31.4,8.6-43.4,15.3V49.6c12-6.6,20.7-15.3,43.4-15.3c36.9,0,36.9,22.8,73.8,22.8
			c36.9,0,36.9-22.8,73.8-22.8s36.9,22.8,73.8,22.8c36.9,0,36.9-22.8,73.8-22.8c36.9,0,36.9,22.8,73.8,22.8
			c36.9,0,36.9-22.8,73.8-22.8c36.9,0,36.9,22.8,73.8,22.8c29.2,0,35.3-14.3,54.9-20.2V97.7z"/>
		<path class="st1" d="M1031.9,49c2.2-1.2,4.2-2.5,6.3-3.7c9.3-5.7,18.6-11.5,37.2-11.5c18.6,0,27.9,5.7,37.1,11.5
			c9.2,5.7,18.3,11.3,36.6,11.3c18.3,0,27.5-5.7,36.6-11.3c9.3-5.7,18.6-11.5,37.1-11.5c18.6,0,27.9,5.7,37.1,11.5
			c9.2,5.7,18.3,11.3,36.6,11.3c18.3,0,27.5-5.7,36.6-11.3c9.3-5.7,18.6-11.5,37.1-11.5c18.6,0,27.9,5.7,37.1,11.5
			c9.2,5.7,18.3,11.3,36.6,11.3c18.3,0,27.5-5.7,36.6-11.3c9.3-5.7,18.6-11.5,37.1-11.5c18.6,0,27.9,5.7,37.2,11.5
			c9.2,5.7,18.3,11.3,36.6,11.3c18.3,0,27.5-5.7,36.7-11.3c5.4-3.3,10.8-6.7,18.1-8.9c0.3-0.1,0.5,0.1,0.6,0.3
			c0.1,0.3-0.1,0.5-0.3,0.6c-7.2,2.2-12.5,5.5-17.9,8.8c-9.3,5.7-18.6,11.5-37.2,11.5c-18.6,0-27.9-5.7-37.2-11.5
			c-9.2-5.7-18.3-11.3-36.6-11.3c-18.3,0-27.5,5.7-36.6,11.3c-9.3,5.7-18.6,11.5-37.1,11.5c-18.6,0-27.9-5.7-37.1-11.5
			c-9.2-5.7-18.3-11.3-36.6-11.3c-18.3,0-27.5,5.7-36.6,11.3c-9.3,5.7-18.6,11.5-37.1,11.5c-18.6,0-27.9-5.7-37.1-11.5
			c-9.2-5.7-18.3-11.3-36.6-11.3c-18.3,0-27.5,5.7-36.6,11.3c-9.3,5.7-18.6,11.5-37.1,11.5c-18.6,0-27.9-5.7-37.1-11.5
			c-9.2-5.7-18.3-11.3-36.6-11.3c-18.3,0-27.5,5.7-36.6,11.3c-2.2,1.4-4.4,2.7-6.8,4V49z"/>
		<path class="st1" d="M1031.9,59.2c2.2-1.2,4.2-2.5,6.3-3.7c9.3-5.7,18.6-11.5,37.2-11.5c18.6,0,27.9,5.7,37.1,11.5
			c9.2,5.7,18.3,11.3,36.6,11.3c18.3,0,27.5-5.7,36.6-11.3c9.3-5.7,18.6-11.5,37.1-11.5s27.9,5.7,37.1,11.5
			c9.2,5.7,18.3,11.3,36.6,11.3c18.3,0,27.5-5.7,36.6-11.3c9.3-5.7,18.6-11.5,37.1-11.5c18.6,0,27.9,5.7,37.1,11.5
			c9.2,5.7,18.3,11.3,36.6,11.3c18.3,0,27.5-5.7,36.6-11.3c9.3-5.7,18.6-11.5,37.1-11.5c18.6,0,27.9,5.7,37.2,11.5
			c9.2,5.7,18.3,11.3,36.6,11.3c18.3,0,27.5-5.7,36.7-11.3c5.4-3.3,10.8-6.7,18.1-8.9c0.3-0.1,0.5,0.1,0.6,0.3
			c0.1,0.3-0.1,0.5-0.3,0.6c-7.2,2.2-12.5,5.5-17.9,8.8c-9.3,5.7-18.6,11.5-37.2,11.5c-18.6,0-27.9-5.7-37.2-11.5
			c-9.2-5.7-18.3-11.3-36.6-11.3c-18.3,0-27.5,5.7-36.6,11.3c-9.3,5.7-18.6,11.5-37.1,11.5c-18.6,0-27.9-5.7-37.1-11.5
			c-9.2-5.7-18.3-11.3-36.6-11.3c-18.3,0-27.5,5.7-36.6,11.3c-9.3,5.7-18.6,11.5-37.1,11.5c-18.6,0-27.9-5.7-37.1-11.5
			c-9.2-5.7-18.3-11.3-36.6-11.3s-27.5,5.7-36.6,11.3c-9.3,5.7-18.6,11.5-37.1,11.5c-18.6,0-27.9-5.7-37.1-11.5
			c-9.2-5.7-18.3-11.3-36.6-11.3c-18.3,0-27.5,5.7-36.6,11.3c-2.2,1.4-4.4,2.7-6.8,4V59.2z"/>
		<path class="st1" d="M1031.9,69.3c2.2-1.2,4.2-2.5,6.3-3.7c9.3-5.7,18.6-11.5,37.2-11.5c18.6,0,27.9,5.7,37.1,11.5
			c9.2,5.7,18.3,11.3,36.6,11.3c18.3,0,27.5-5.7,36.6-11.3c9.3-5.7,18.6-11.5,37.1-11.5s27.9,5.7,37.1,11.5
			c9.2,5.7,18.3,11.3,36.6,11.3c18.3,0,27.5-5.7,36.6-11.3c9.3-5.7,18.6-11.5,37.1-11.5c18.6,0,27.9,5.7,37.1,11.5
			c9.2,5.7,18.3,11.3,36.6,11.3c18.3,0,27.5-5.7,36.6-11.3c9.3-5.7,18.6-11.5,37.1-11.5c18.6,0,27.9,5.7,37.2,11.5
			c9.2,5.7,18.3,11.3,36.6,11.3c18.3,0,27.5-5.7,36.7-11.3c5.4-3.3,10.8-6.7,18.1-8.9c0.3-0.1,0.5,0.1,0.6,0.3
			c0.1,0.3-0.1,0.5-0.3,0.6c-7.2,2.2-12.5,5.5-17.9,8.8c-9.3,5.7-18.6,11.5-37.2,11.5c-18.6,0-27.9-5.7-37.2-11.5
			c-9.2-5.7-18.3-11.3-36.6-11.3c-18.3,0-27.5,5.7-36.6,11.3c-9.3,5.7-18.6,11.5-37.1,11.5c-18.6,0-27.9-5.7-37.1-11.5
			c-9.2-5.7-18.3-11.3-36.6-11.3c-18.3,0-27.5,5.7-36.6,11.3c-9.3,5.7-18.6,11.5-37.1,11.5c-18.6,0-27.9-5.7-37.1-11.5
			c-9.2-5.7-18.3-11.3-36.6-11.3s-27.5,5.7-36.6,11.3c-9.3,5.7-18.6,11.5-37.1,11.5c-18.6,0-27.9-5.7-37.1-11.5
			c-9.2-5.7-18.3-11.3-36.6-11.3c-18.3,0-27.5,5.7-36.6,11.3c-2.2,1.4-4.4,2.7-6.8,4V69.3z"/>
		<path class="st1" d="M1031.9,79.4c2.2-1.2,4.2-2.5,6.3-3.7c9.3-5.7,18.6-11.5,37.2-11.5c18.6,0,27.9,5.7,37.1,11.5
			c9.2,5.7,18.3,11.3,36.6,11.3c18.3,0,27.5-5.7,36.6-11.3c9.3-5.7,18.6-11.5,37.1-11.5c18.6,0,27.9,5.7,37.1,11.5
			c9.2,5.7,18.3,11.3,36.6,11.3c18.3,0,27.5-5.7,36.6-11.3c9.3-5.7,18.6-11.5,37.1-11.5s27.9,5.7,37.1,11.5
			c9.2,5.7,18.3,11.3,36.6,11.3c18.3,0,27.5-5.7,36.6-11.3c9.3-5.7,18.6-11.5,37.1-11.5c18.6,0,27.9,5.7,37.2,11.5
			c9.2,5.7,18.3,11.3,36.6,11.3c18.3,0,27.5-5.7,36.7-11.3c5.4-3.3,10.8-6.7,18.1-8.9c0.3-0.1,0.5,0.1,0.6,0.3
			c0.1,0.3-0.1,0.5-0.3,0.6c-7.2,2.2-12.5,5.5-17.9,8.8c-9.3,5.7-18.6,11.5-37.2,11.5c-18.6,0-27.9-5.7-37.2-11.5
			c-9.2-5.7-18.3-11.3-36.6-11.3c-18.3,0-27.5,5.7-36.6,11.3c-9.3,5.7-18.6,11.5-37.1,11.5c-18.6,0-27.9-5.7-37.1-11.5
			c-9.2-5.7-18.3-11.3-36.6-11.3c-18.3,0-27.5,5.7-36.6,11.3c-9.3,5.7-18.6,11.5-37.1,11.5c-18.6,0-27.9-5.7-37.1-11.5
			c-9.2-5.7-18.3-11.3-36.6-11.3s-27.5,5.7-36.6,11.3c-9.3,5.7-18.6,11.5-37.1,11.5c-18.6,0-27.9-5.7-37.1-11.5
			c-9.2-5.7-18.3-11.3-36.6-11.3c-18.3,0-27.5,5.7-36.6,11.3c-2.2,1.4-4.4,2.7-6.8,4V79.4z"/>
		<path class="st1" d="M1031.9,89.6c2.2-1.2,4.2-2.5,6.3-3.7c9.3-5.7,18.6-11.5,37.2-11.5c18.6,0,27.9,5.7,37.1,11.5
			c9.2,5.7,18.3,11.3,36.6,11.3c18.3,0,27.5-5.7,36.6-11.3c9.3-5.7,18.6-11.5,37.1-11.5c18.6,0,27.9,5.7,37.1,11.5
			c9.2,5.7,18.3,11.3,36.6,11.3c18.3,0,27.5-5.7,36.6-11.3c9.3-5.7,18.6-11.5,37.1-11.5c18.6,0,27.9,5.7,37.1,11.5
			c9.2,5.7,18.3,11.3,36.6,11.3c18.3,0,27.5-5.7,36.6-11.3c9.3-5.7,18.6-11.5,37.1-11.5c18.6,0,27.9,5.7,37.2,11.5
			c9.2,5.7,18.3,11.3,36.6,11.3c18.3,0,27.5-5.7,36.7-11.3c5.4-3.3,10.8-6.7,18.1-8.9c0.3-0.1,0.5,0.1,0.6,0.3
			c0.1,0.3-0.1,0.5-0.3,0.6c-7.2,2.2-12.5,5.5-17.9,8.8c-9.3,5.7-18.6,11.5-37.2,11.5c-18.6,0-27.9-5.7-37.2-11.5
			c-9.2-5.7-18.3-11.3-36.6-11.3c-18.3,0-27.5,5.7-36.6,11.3c-9.3,5.7-18.6,11.5-37.1,11.5c-18.6,0-27.9-5.7-37.1-11.5
			c-9.2-5.7-18.3-11.3-36.6-11.3c-18.3,0-27.5,5.7-36.6,11.3c-9.3,5.7-18.6,11.5-37.1,11.5c-18.6,0-27.9-5.7-37.1-11.5
			c-9.2-5.7-18.3-11.3-36.6-11.3c-18.3,0-27.5,5.7-36.6,11.3c-9.3,5.7-18.6,11.5-37.1,11.5c-18.6,0-27.9-5.7-37.1-11.5
			c-9.2-5.7-18.3-11.3-36.6-11.3c-18.3,0-27.5,5.7-36.6,11.3c-2.2,1.4-4.4,2.7-6.8,4V89.6z"/>
		<path class="st1" d="M1031.9,99.7c2.2-1.2,4.2-2.5,6.3-3.7c9.3-5.7,18.6-11.5,37.2-11.5c18.6,0,27.9,5.7,37.1,11.5
			c9.2,5.7,18.3,11.3,36.6,11.3c18.3,0,27.5-5.7,36.6-11.3c9.3-5.7,18.6-11.5,37.1-11.5s27.9,5.7,37.1,11.5
			c9.2,5.7,18.3,11.3,36.6,11.3c18.3,0,27.5-5.7,36.6-11.3c9.3-5.7,18.6-11.5,37.1-11.5c18.6,0,27.9,5.7,37.1,11.5
			c9.2,5.7,18.3,11.3,36.6,11.3c18.3,0,27.5-5.7,36.6-11.3c9.3-5.7,18.6-11.5,37.1-11.5c18.6,0,27.9,5.7,37.2,11.5
			c9.2,5.7,18.3,11.3,36.6,11.3c18.3,0,27.5-5.7,36.7-11.3c5.4-3.3,10.8-6.7,18.1-8.9c0.3-0.1,0.5,0.1,0.6,0.3
			c0.1,0.3-0.1,0.5-0.3,0.6c-7.2,2.2-12.5,5.5-17.9,8.8c-9.3,5.7-18.6,11.5-37.2,11.5c-18.6,0-27.9-5.7-37.2-11.5
			c-9.2-5.7-18.3-11.3-36.6-11.3c-18.3,0-27.5,5.7-36.6,11.3c-9.3,5.7-18.6,11.5-37.1,11.5c-18.6,0-27.9-5.7-37.1-11.5
			c-9.2-5.7-18.3-11.3-36.6-11.3c-18.3,0-27.5,5.7-36.6,11.3c-9.3,5.7-18.6,11.5-37.1,11.5c-18.6,0-27.9-5.7-37.1-11.5
			c-9.2-5.7-18.3-11.3-36.6-11.3s-27.5,5.7-36.6,11.3c-9.3,5.7-18.6,11.5-37.1,11.5c-18.6,0-27.9-5.7-37.1-11.5
			c-9.2-5.7-18.3-11.3-36.6-11.3c-18.3,0-27.5,5.7-36.6,11.3c-2.2,1.4-4.4,2.7-6.8,4V99.7z"/>
		<path class="st1" d="M1031.9,109.9c2.2-1.2,4.2-2.5,6.3-3.7c9.3-5.7,18.6-11.5,37.2-11.5c18.6,0,27.9,5.7,37.1,11.5
			c9.2,5.7,18.3,11.3,36.6,11.3c18.3,0,27.5-5.7,36.6-11.3c9.3-5.7,18.6-11.5,37.1-11.5s27.9,5.7,37.1,11.5
			c9.2,5.7,18.3,11.3,36.6,11.3c18.3,0,27.5-5.7,36.6-11.3c9.3-5.7,18.6-11.5,37.1-11.5c18.6,0,27.9,5.7,37.1,11.5
			c9.2,5.7,18.3,11.3,36.6,11.3c18.3,0,27.5-5.7,36.6-11.3c9.3-5.7,18.6-11.5,37.1-11.5c18.6,0,27.9,5.7,37.2,11.5
			c9.2,5.7,18.3,11.3,36.6,11.3c18.3,0,27.5-5.7,36.7-11.3c5.4-3.3,10.8-6.7,18.1-8.9c0.3-0.1,0.5,0.1,0.6,0.3
			c0.1,0.3-0.1,0.5-0.3,0.6c-7.2,2.2-12.5,5.5-17.9,8.8c-9.3,5.7-18.6,11.5-37.2,11.5c-18.6,0-27.9-5.7-37.2-11.5
			c-9.2-5.7-18.3-11.3-36.6-11.3c-18.3,0-27.5,5.7-36.6,11.3c-9.3,5.7-18.6,11.5-37.1,11.5c-18.6,0-27.9-5.7-37.1-11.5
			c-9.2-5.7-18.3-11.3-36.6-11.3c-18.3,0-27.5,5.7-36.6,11.3c-9.3,5.7-18.6,11.5-37.1,11.5c-18.6,0-27.9-5.7-37.1-11.5
			c-9.2-5.7-18.3-11.3-36.6-11.3s-27.5,5.7-36.6,11.3c-9.3,5.7-18.6,11.5-37.1,11.5c-18.6,0-27.9-5.7-37.1-11.5
			c-9.2-5.7-18.3-11.3-36.6-11.3c-18.3,0-27.5,5.7-36.6,11.3c-2.2,1.4-4.4,2.7-6.8,4V109.9z"/>
	</g>
</g>
</svg>
