<?xml version="1.0" encoding="utf-8"?>
<!-- Generator: Adobe Illustrator 25.4.1, SVG Export Plug-In . SVG Version: 6.00 Build 0)  -->
<svg version="1.1" id="Layer_1" xmlns="http://www.w3.org/2000/svg" xmlns:xlink="http://www.w3.org/1999/xlink" x="0px" y="0px"
	 viewBox="0 0 287.2 760.1" style="enable-background:new 0 0 287.2 760.1;" xml:space="preserve">
<style type="text/css">
	.st0{display:none;fill:#777705;}
	.st1{fill:#8D931B;}
	.st2{display:none;fill:#8B910D;}
	.st3{display:none;opacity:0.2;}
	.st4{fill:#D4DD68;}
	.st5{fill:#C3D638;}
	.st6{fill:#B0BA2A;}
	.st7{opacity:0.2;}
	.st8{fill:#9DAA1D;}
	.st9{fill:#C6A552;}
	.st10{fill:#E0C78D;}
	.st11{fill:#F4DDB0;}
</style>
<g>
	<path class="st0" d="M89.1,515.7c12.3-19.6,26.5-38.6,45.7-51.4c28.5-19,66.1-22.1,98.7-11.5c32.6,10.6,60.2,34,79.4,62.3
		c-35.8-23.6-76.3-48.2-118.5-40.7c-26.7,4.7-49.9,22.3-66.2,44c-16.3,21.7-26.3,47.5-34.4,73.4c-15.6,49.9-21.5,99.9-27.6,151.5
		C5.3,684.5,51.7,575.4,89.1,515.7z"/>
	<g>
		<path class="st1" d="M118.6,145.4c-5.6,15.4-8.7,32.1-12.1,48c-3.3,15.4-6.3,30.8-8.5,46.4c-4.5,31.4-6.4,64-0.2,95.4
			c0.1,0.5,1,0.5,0.9-0.1c-3-31.8-2.4-63.5,2-95.2c2.3-16.3,5.3-32.4,8.7-48.5c3.2-15.2,7.7-30.5,9.6-46
			C119.1,145.2,118.7,145.2,118.6,145.4z"/>
		<path class="st1" d="M130.1,261.7c0-52.4,15.6-104.2,44.8-147.7c8.4-12.6,18.1-23.9,28.3-35c0.4-0.4-0.2-1-0.6-0.6
			c-38.2,35.4-62.6,86.4-70.6,137.5c-2.4,15.3-3,30.5-2.3,45.9C129.7,261.9,130.1,262,130.1,261.7z"/>
		<path class="st1" d="M205.1,252.9c-19.2,12.1-36.1,28.1-50.5,45.6c-7.4,9-14.2,18.5-20.3,28.4c-3.1,5-5.9,10.1-8.6,15.3
			c-2.5,4.8-5.7,10.2-6.6,15.6c0,0.2,0.2,0.4,0.4,0.2c3.3-4.2,5.4-9.8,8-14.6c2.7-4.9,5.5-9.7,8.4-14.5c6.1-9.9,13-19.3,20.4-28.2
			c14.6-17.6,31.6-32.7,49.6-46.7C206.5,253.5,205.8,252.5,205.1,252.9z"/>
		<path class="st1" d="M269.6,182.4c-14.6,10.2-29.5,20-45.1,28.4c-15.7,8.5-32.2,15.1-48.7,21.7c-0.6,0.2-0.2,1.1,0.4,1
			c17.2-4.6,33.8-12.1,49.5-20.4c15.8-8.4,30.9-18.2,44.5-29.8C270.6,182.9,270.1,182,269.6,182.4z"/>
	</g>
	<path class="st2" d="M55.3,630.8c-4.9-44.6-6.1-89.6-10.8-134.3c-8.8-83.9-29.1-169.7-68.7-244.6c-10.2-19.2-21.4-37.7-34.1-55.4
		c-12.9-18-26.2-37.4-41.5-53.4c-0.2-0.2-0.7,0.1-0.5,0.4c10.9,16.8,22.4,32.3,31.3,50.3c8.8,17.8,16.9,36.1,24.3,54.5
		c14.7,36.5,27.1,74.5,37.4,112.4c11.4,41.8,19.9,84.2,29.2,126.4c9.3,42.5,18.3,85.3,25.9,128.2c8.9,50.4,8.2,102,18.8,152.2
		c0.9,4.2,7.8,3.7,7.6-0.8C71.9,720.8,60.2,676.3,55.3,630.8z"/>
	<path class="st3" d="M22.9,485.7c1.8-110.1-47.8-213.9-100.4-310.6c-3.6-6.7-7.3-13.4-11.5-19.7c-3.5-4.2-7.1-8.3-10.9-12.2
		c-0.2-0.2-0.7,0.1-0.5,0.4c10.9,16.8,22.4,32.3,31.3,50.3c8.8,17.8,16.9,36.1,24.3,54.5c14.7,36.5,27.1,74.5,37.4,112.4
		c11.4,41.8,19.9,84.2,29.2,126.4c0.2,1.1,0.5,2.1,0.7,3.2C22.8,489,22.9,487.5,22.9,485.7z"/>
	<g>
		<path class="st4" d="M215.9,283.6c-36.2,15.1-67.7,40.3-92.7,70.4c-12,14.4-22.5,30-31.2,46.6c-6.8,12.9-13.8,27.3-17.4,41.9
			c-2.3-34.2-4.2-68.3-2.6-102.7c2-43.2,7.2-86.9,16.6-129.1c0.1-0.4-0.6-0.7-0.7-0.2c-10.7,42-18.1,84-20.3,127.4
			c-2.1,41.4-1.7,83.9,6.1,124.7c-0.4,1-0.7,2.1-1,3.1c-0.2,0.5,0.5,0.8,0.8,0.4c0.2-0.3,0.4-0.6,0.6-0.9c0.1,0.5,0.2,1,0.3,1.5
			c0.2,0.9,1.7,0.8,1.7-0.2c-0.1-1.2-0.2-2.5-0.2-3.7c9.9-13.9,17.6-29.5,28.2-43.1c11.9-15.3,25.2-29.7,39.4-42.9
			c0.5-0.5-0.2-1.3-0.8-0.8c-15.1,11.9-28.8,25.4-40.6,40.6c-9.5,12.2-20.3,26.3-26.5,41.1c-0.2-2.6-0.3-5.2-0.5-7.8
			c7-15.6,12.2-31.9,20.3-47.2c9.1-17,20-33.1,32.5-47.9c24.7-29.1,55.2-51.9,88.7-69.9C217.6,284.5,216.9,283.2,215.9,283.6z"/>
		<path class="st4" d="M110.9,368.6c19.4-39.9,53.1-69,85-98.7c0.5-0.4-0.2-1.1-0.7-0.7c-34.7,26.6-69.5,56.9-85.1,99.1
			C109.9,368.7,110.6,369.1,110.9,368.6z"/>
		<path class="st4" d="M83.2,350.9c-0.8,15.3-2.1,31.8,0.7,47c0.2,1.1,1.8,0.8,1.9-0.2c1.7-17.1,0.3-34.6,1.5-51.8
			c1.2-18.2,3.5-36.4,6.9-54.4c5.7-30.1,14.6-59.7,26.7-87.9c14.9-22.5,32.5-43.3,52.4-61.4c24.1-21.8,51.3-37.2,79.7-52.5
			c0.9-0.5,0.4-2-0.6-1.7c-29.6,10.4-57,29.9-80.2,50.8c-17.4,15.6-32.6,32.9-45.5,52c0.1-0.1,0.1-0.3,0.2-0.4
			c27-56.9,67.1-104.5,117.6-142c0.5-0.4-0.1-1.2-0.6-0.9c-38.1,24.9-69.6,58-94.4,95.8c5-8.9,10.3-17.7,15.7-26.4
			c9.1-14.6,19.3-29.5,25.3-45.7c0.3-0.7-0.8-1.2-1.2-0.6c-9.2,16-18.3,31.9-28,47.6c-8.4,13.5-16.6,27-22.2,41.9
			c-9.8,16.9-18.4,34.5-25.7,52.6c-0.5,0.9-1,1.8-1.5,2.7c-0.2,0.3-0.1,0.6,0.1,0.8c-10.9,28-18.8,57.2-23.5,86.5
			C85.7,318.8,84,334.8,83.2,350.9z"/>
		<path class="st4" d="M265.1,174.4c-36.3,13-69.5,36.8-97.1,63.6c11.9-12.2,23.2-24.8,35.9-36.1c13.3-11.9,27.5-22.6,42-33
			c0.7-0.5-0.1-1.5-0.8-1.1c-30.4,17.1-60.4,42.1-80,71.1c-0.4,0.6,0.3,1.3,0.9,1.1c-28.1,27.7-51.6,60.6-66,97.4
			c-0.3,0.8,1,1.4,1.3,0.6c17.7-35.1,39.6-68,67.7-95.7c28.4-28,61.4-48.3,96.7-66.3C266.6,175.6,266,174,265.1,174.4z"/>
	</g>
	<path class="st5" d="M197.3,143.9c-49.8,67.3-86.5,141.7-108.5,222.5c-23.7,87.1-31.6,177.1-28.1,267.1c1,25.8,2.6,51.6,4.8,77.3
		c1.1,13,2.3,26,3.7,39c1.2,10.9,1.7,22.1,6,32.3c0.1,0.6,0.3,1.1,0.7,1.6c1,1.4,2.7,2.7,4.5,2c6.1-2.1,5.6-10.2,5.7-15.6
		c0.4-12.1-0.7-24.5-1.3-36.6c-1.2-23.3-2.6-46.6-3.8-69.8c-2.3-45.2-3.7-90.7-2.7-136c1.1-46.5,4.7-93.7,14.3-139.3
		c8.5-40.4,21.2-80.1,37.4-118.2c18.8-44.1,40.9-86.2,68.3-125.6C198.8,143.9,197.8,143.3,197.3,143.9z"/>
	<path class="st5" d="M251.5,90.8c-0.1,0-0.1,0.2,0,0.2C251.6,90.9,251.6,90.8,251.5,90.8z"/>
	<path class="st5" d="M292.4,52.7c-0.1,0-0.1,0.2,0,0.2C292.5,52.9,292.5,52.7,292.4,52.7z"/>
	<path class="st6" d="M77.5,751.8c-3.6-11.6-7.3-23.2-9.8-35.1c-5-24.1-11-47.8-14.8-72.1c-7.8-50-12.1-100.6-14.4-151.1
		c-2.3-52.1-1.6-104.1,0.5-156.2c2.2-51.8,5.6-104,11.9-155.5c3.5-28.3,7-56.7,11-84.9c4.3-30.6,11.9-60.7,19.8-90.6
		c0.2-0.8-1-1.2-1.3-0.4C50.4,108.4,23.8,211.6,15,318.4c-8.7,105.9-4.6,213.8,10.4,318.9c3.8,26.6,7.4,54.9,16.5,80.3
		c4.7,12.9,9.5,25.9,15.3,38.3c5.4,11.5,11.7,24.2,22.3,31.5c2.2,1.5,5.5-0.2,5.5-2.9C85.2,773.2,80.7,762.5,77.5,751.8z"/>
	<g>
		<path class="st7" d="M50.2,626.4c-4.3-30.6-7.3-61.4-9.4-92.2c-6.5,44-10.2,88.5-10.9,133c2.1,13,4.7,26.1,8.3,38.6
			C42.7,679.4,46.6,653,50.2,626.4z"/>
		<path class="st7" d="M18.8,583.7c1.3,12.1,2.7,24.1,4.3,36.2c5.4-30.7,11.2-61.3,17.3-91.8c-0.8-11.5-1.4-23.1-1.9-34.6
			c-2.2-49.4-1.7-98.8,0.2-148.2C29.5,424.5,22.9,504.1,18.8,583.7z"/>
	</g>
	<path class="st8" d="M190.5,370.4c-21.8,12.2-39,31.7-53.1,52.1c-15,21.7-28.1,44.5-37.5,69.2C78,549.3,73.6,612.9,73.9,673.9
		c0.1,18.6,0.7,37.2,1.4,55.7c0.4,9.9,0.6,19.9,1.5,29.8c0.8,8.3,1,16.8,7.1,23.1c2.2,2.2,6.2,2.7,8.5,0.3
		c9.7-10.1,7.6-28.1,7.5-41.1c-0.1-16.1-0.6-32.2-1-48.3c-0.7-32.1-2-64.3-0.7-96.4c2.1-53.5,11.7-110.7,37.7-158.2
		c14.2-25.9,34.6-46.3,55.9-66.4C192.7,371.4,191.7,369.8,190.5,370.4z"/>
	<g>
		<path class="st9" d="M166.2,146.4c4-1.6,6.1-7.2,8.1-10.8c2.5-4.4,4.7-8.6,6-13.5c0.3-1.1-0.9-2.1-1.9-1.6
			c-5,2.6-8.6,6.6-11.3,11.5c-2.2,3.9-5.1,9.3-3.2,13.7C164.3,146.6,165.4,146.7,166.2,146.4z"/>
		<path class="st9" d="M182.3,129c0.4,1.1,1.2,1.5,2.3,1.4c4-0.5,6.8-5.9,9.1-8.8c2.8-3.7,5.8-7.5,7.4-12c0.4-1.2-0.8-2.7-2.1-2.2
			c-4.6,1.7-8.1,5.2-11.1,8.9C185.4,119.4,180.7,124.8,182.3,129z"/>
		<path class="st9" d="M230.8,88.2c-7.5,1.3-13.9,7.5-18.8,13c-1.1,1.2-9.5,10.9-5,12.6c4.4,1.6,9.8-5.6,12.5-8.2
			c4.6-4.5,10.2-8.8,13.2-14.6C233.5,89.5,232.4,87.9,230.8,88.2z"/>
		<path class="st9" d="M150.3,165.9c6.4,3.4,14.7-0.8,19.1-5.5c0.6-0.7,0.3-2.1-0.8-2.1c-3.4,0.1-6.5,0.1-9.8,0.9
			c-3,0.7-6.4,1.2-8.9,3.2C148.9,163.2,149.1,165.2,150.3,165.9z"/>
		<path class="st9" d="M194.6,133.4c-4.3,0-8.3,1.5-12.2,3c-3.5,1.3-7.5,2.2-9.8,5.3c-0.8,1.1,0,2.6,1.1,3c3.7,1.4,8.2-0.5,11.7-1.8
			c3.9-1.4,7.6-3.2,10.4-6.4C196.6,135.3,196.3,133.4,194.6,133.4z"/>
		<path class="st9" d="M199.8,123.9c6.1,3.6,16.6,2.3,21.7-2.5c0.9-0.9,0.6-2.6-0.7-2.9c-3.4-0.9-7.2-0.7-10.7-0.4
			c-3.5,0.3-7,0.4-10.2,1.8C198.3,120.5,198.3,123,199.8,123.9z"/>
		<path class="st9" d="M248,99.7c-3.6-1.5-7.6-1.1-11.4-0.4c-3.1,0.5-7.7,1.1-9.4,4.1c-0.7,1.3-0.3,2.5,0.8,3.4
			c2.6,2.2,7.4,1,10.5,0.4c3.7-0.7,7.4-1.8,10.2-4.4C249.7,101.7,249.2,100.2,248,99.7z"/>
		<path class="st9" d="M267.9,81c-8.3-3.8-17.9,3.5-22.6,9.7c-0.6,0.8,0.3,2.3,1.4,1.9c3.9-1.4,7.8-2.5,11.7-3.9
			c3.5-1.3,7.4-2.2,10.1-4.8C269.6,82.9,269,81.5,267.9,81z"/>
		<path class="st9" d="M181.2,104.7c3-2.3,4.3-6.1,5.7-9.4c1.6-3.7,2.8-7.6,3.4-11.6c0.2-1.1-1.4-1.7-2.1-1
			c-4.7,4.9-10.4,14.4-8.6,21.5C179.8,104.9,180.6,105.1,181.2,104.7z"/>
		<path class="st9" d="M195.2,86.6c3.4-2.9,5.1-7.1,7.4-10.8c2.4-3.8,5.4-7.4,6.8-11.7c0.4-1-0.7-2.4-1.8-2
			c-8,3-16.1,15.7-13.3,24.2C194.5,86.7,194.9,86.8,195.2,86.6z"/>
		<path class="st9" d="M212.8,73c4.2,0.1,7.2-5,9.3-8.1c2.8-4.1,5.4-8.6,5.8-13.7c0.1-1.4-1.6-2.4-2.8-1.7
			c-4.4,2.4-7.5,6.7-10.1,10.9c-2,3.2-5.4,7.9-3.6,11.8C211.7,72.6,212.3,73,212.8,73z"/>
		<path class="st9" d="M227.5,74.6c-6.4,0-14.2,0.5-20.3,2.4c-3.1,0.9-4,6.1-0.2,6.9c7.4,1.6,16.3-1.3,21.4-6.8
			C229.2,76.3,228.8,74.6,227.5,74.6z"/>
		<path class="st9" d="M229.7,64c7.8,1.4,15.7-2.1,20.4-8.3c0.7-0.9-0.1-2.1-1.1-2.2c-6.7-0.2-14.2,1.3-19.8,5.3
			C227.6,60,227,63.5,229.7,64z"/>
		<path class="st9" d="M238.5,51.1c1.3-0.6,3.1-0.6,4.5-1c1.9-0.6,3.6-1.5,5.3-2.5c3.2-1.8,7.1-3.6,8.9-7c0.5-0.8,0.2-2.1-0.9-2.4
			c-4.1-0.9-8,1.2-11.2,3.4c-1.7,1.1-3.3,2.4-4.6,4c-1.2,1.5-1.5,3.4-2.5,4.9C237.9,50.9,238.2,51.2,238.5,51.1z"/>
		<path class="st9" d="M160.1,120.3c4-5.5,5-13.9,4.2-20.5c-0.2-1.3-2-1.4-2.6-0.4c-3.8,5.6-6.6,13.4-5.6,20.2
			C156.4,121.7,159.1,121.7,160.1,120.3z"/>
		<path class="st9" d="M169,105.6c3.7-2.4,4.3-7.7,5.3-11.7c1.2-4.9,2.7-9.9,1.9-15.1c-0.2-1.3-2.1-1.9-2.9-0.9
			c-3.6,4.1-4.9,9.5-5.9,14.8c-0.8,4.1-2.2,9.2,0.5,12.7C168.1,105.7,168.6,105.8,169,105.6z"/>
		<path class="st9" d="M138.8,164.5c2.8-2.9,2.7-7.5,3.2-11.3c0.7-5.5,1.6-11.1,1.5-16.7c0-1.3-1.6-1.8-2.4-0.7
			c-3,4.6-4.6,9.8-5.2,15.2c-0.5,4.3-1.4,10.2,2,13.5C138.1,164.7,138.6,164.8,138.8,164.5z"/>
		<path class="st9" d="M131.4,177.4c1.9-6.7,2.4-15.1-0.6-21.5c-0.6-1.2-2.5-1.3-3.2-0.1c-3.4,6.2-3.5,14.6-2.1,21.4
			C126.1,180.1,130.6,180.3,131.4,177.4z"/>
		<path class="st9" d="M118.3,211.7c3.1-2,5.8-4.7,8.7-7c2.9-2.3,5.9-3.6,6.9-7.5c0.2-0.7-0.2-1.4-0.9-1.6
			c-4.1-1.7-7.4,0.9-10.5,3.5c-3.1,2.6-6.1,6.1-7.2,10C114.9,210.8,116.7,212.7,118.3,211.7z"/>
		<path class="st9" d="M110.2,233.8c4.2-1,7.7-5,10.9-7.7c3.6-2.9,7.1-5.7,9.6-9.7c0.6-0.9-0.1-2.3-1.2-2.3
			c-5.1,0.1-9.5,2.5-13.4,5.6c-3.6,2.9-8.2,6.9-8.7,11.7C107.2,233,108.9,234.1,110.2,233.8z"/>
		<path class="st9" d="M104.9,256.6c4.3-0.9,7.7-5.2,11.1-7.8c3.8-2.9,7.4-5.9,11-9.1c1.2-1.1,0.5-3.7-1.3-3.5
			c-5.6,0.4-10.2,1.9-14.7,5.2c-4,2.9-9.3,6.9-9.7,12.2C101,255.6,103.1,257,104.9,256.6z"/>
		<path class="st9" d="M95.5,283.4c4.2,0.6,7.8-2.9,10.6-5.5c2.7-2.5,6.4-6.1,6.4-10c0-1.1-0.8-1.8-1.8-1.9c-4-0.3-7.8,3.1-10.6,5.5
			c-2.9,2.5-6.6,5.8-6.4,10C93.8,282.6,94.5,283.3,95.5,283.4z"/>
		<path class="st9" d="M93.5,304.5c3.3-0.4,6-4,8.2-6.2c2.1-2.2,5.4-5.1,5.1-8.4c-0.1-0.8-0.4-1.6-1.3-1.9c-3.6-0.9-6.9,2.1-9.3,4.4
			c-2.4,2.4-6.1,6-5.7,9.7C90.8,303.7,91.9,304.7,93.5,304.5z"/>
		<path class="st9" d="M78.3,252.8c0.3,0.2,0.8,0,0.9-0.3c1.9-4.9,0.8-10.6,0.9-15.7c0.1-5.5,1.1-10.9,0.2-16.3
			c-0.2-1.4-2.2-2-3.2-1C70.3,227.1,68.9,246.4,78.3,252.8z"/>
		<path class="st9" d="M73.7,277.4c0.4,0.1,0.7,0,0.9-0.3c0.3-0.4,0.5-0.9,0.7-1.3c0.5,1.2,1.7,1.7,3,1.2c3.4-1.4,5.8-5,8.2-7.7
			c2.4-2.6,5.1-5,5.6-8.7c0.2-1-0.8-1.7-1.7-1.8c-4.1-0.5-7.5,2.7-10.1,5.5c-1.8,2-3.9,4.5-4.8,7.2c-0.3-2.2-1-4.4-1.4-6.3
			c-1.1-5-2-10-4.4-14.6c-0.7-1.3-2.4-0.9-2.9,0.3c-2,5.1-1.5,10.8-0.1,16C67.9,270.7,69.3,276.4,73.7,277.4z"/>
		<path class="st9" d="M83.8,302.6c-4.1,2.6-7,6.7-9.5,10.8c-2.4,3.9-5.9,9-5.7,13.7c0.1,1.8,2,3.4,3.8,2.4
			c4.2-2.5,6.3-7.6,8.7-11.8c2.4-4.2,4.7-8.6,5.3-13.5C86.6,302.9,84.9,301.9,83.8,302.6z"/>
		<path class="st9" d="M82.9,287.5c-7.8,2.4-14.2,13.5-12.7,21.6c0.3,1.7,2.8,2.6,4.1,1.2c2.6-2.8,4-6.7,5.9-10
			c1.9-3.4,4-6.9,4.7-10.7C85,288.5,84.2,287.1,82.9,287.5z"/>
		<path class="st9" d="M67.5,353c1.3,0.3,2.2-0.4,2.4-1.7c0.6-3.9-1.1-6.8-2.8-10.1c-1.7-3.3-2.9-6.9-5.3-9.7
			c-1.2-1.3-3.6-0.8-4.1,0.9C55.8,339.2,59.9,351.5,67.5,353z"/>
		<path class="st9" d="M66,366.2c-1.6-2.3-2.5-5.7-4.6-7.5c-1.1-1-2.8-1-3.7,0.3c-2,3.4-0.3,8.6,1.5,11.8c1,1.7,2.4,3.7,4.1,4.7
			c1.5,0.8,3.5,0.7,5,0.3c0.6-0.1,1.2-0.8,1.2-1.4c0-0.6-0.1-1-0.3-1.4C69.5,370.2,67.6,368.4,66,366.2z"/>
		<path class="st9" d="M121.7,293.6c-0.6,2.2,1.2,3.8,3.3,3.6c3.7-0.4,7.1-3.3,10.1-5.4c3.1-2.1,5.6-4.5,7.8-7.6
			c0.8-1.1-0.1-2.6-1.4-2.6c-4.3-0.1-8,1-11.5,3.3C126.8,287,122.9,289.7,121.7,293.6z"/>
		<path class="st9" d="M164,266.7c0.5-0.8,0.3-2.1-0.6-2.6c-3.4-1.9-7.1-1.4-10.7-0.2c-3.8,1.2-8.3,2.8-11.1,5.8
			c-2,2.1-1.1,6.6,2.4,6.5c3.9-0.2,7.6-1.9,11.3-3.4C158.7,271.4,162.1,269.9,164,266.7z"/>
		<path class="st9" d="M166.8,247.8c-3.6,1.6-7.8,3.9-8.9,7.9c-0.3,1,0.4,1.8,1.3,1.9c3.7,0.4,7.3-1.8,10.6-3
			c3.6-1.4,7.2-2.5,10-5.3c1-0.9,0.5-2.4-0.6-2.8C175,244.8,170.7,246,166.8,247.8z"/>
		<path class="st9" d="M202.9,228.3c1.1-1,0.8-3.3-0.8-3.6c-5.3-1.2-10.6,0.1-15.7,1.5c-4.1,1.2-9.1,2-11.6,5.8
			c-0.7,1-0.6,2.3-0.1,3.3c0.3,0.7,0.8,1.2,1.5,1.4c3.4,1.2,9.1-1.2,12.3-2C193.6,233.5,199,232,202.9,228.3z"/>
		<path class="st9" d="M231,210.8c1.1-1,0.6-2.8-0.7-3.3c-4.8-1.8-9.5-1.1-14.5-0.3c-4.6,0.8-10.6,1-13.9,4.7
			c-1.2,1.4-1.5,3.9,0.5,4.9c4.5,2.3,9.8,0.7,14.6-0.3C222,215.5,227,214.4,231,210.8z"/>
		<path class="st9" d="M222.4,199.7c-0.2,0.6,0.2,1.3,0.8,1.5c3.4,1.2,7.1-0.1,10.5-0.7c3.7-0.7,7.8-0.8,11.1-2.8
			c0.9-0.5,1.4-2.1,0.5-2.9C239.5,190.1,224.8,191.8,222.4,199.7z"/>
		<path class="st9" d="M202.9,183.4c-10.5,4.1-13.6,16.9-14.4,27c-0.2,2.4,3.5,3,4.2,0.7c2.8-9.4,9.5-16.9,12.2-26.2
			C205.1,183.7,203.9,183,202.9,183.4z"/>
		<path class="st9" d="M207.4,195.9c3.8-1.8,6.2-6,8.7-9.2c2.7-3.4,4.8-6.9,6-11.1c0.3-1-0.6-2.1-1.7-1.8c-4.4,1.2-7.8,3.7-10.7,7.2
			c-2.8,3.4-6.4,7.6-6.5,12.3C203.1,195.5,205.5,196.8,207.4,195.9z"/>
		<path class="st9" d="M223.4,183.5c3.7,1,7.2-4.6,9.2-6.8c3.4-3.9,7.2-7.4,8.9-12.4c0.3-0.8-0.4-2.1-1.4-2c-6.2,0.6-10.5,5-14,9.8
			c-1.6,2.2-3.3,4.8-3.7,7.5C222.3,180.6,222.1,183.2,223.4,183.5z"/>
		<path class="st9" d="M262.9,157c-4.2-0.6-8.6,0.7-12.3,2.7c-3.4,1.9-7.8,4.6-8.9,8.5c-0.4,1.5,0.6,3.4,2.3,3.3
			c3.8-0.2,7.1-2.9,10.3-4.8c3.4-2,6.9-4.2,9.5-7.1C264.9,158.7,264.3,157.2,262.9,157z"/>
		<path class="st9" d="M130,262.1c0,0.4,0.3,0.9,0.8,0.9c5.4-0.3,9.8-6,13.3-9.6c4.4-4.6,8.9-9.3,11-15.4c0.6-1.6-1.2-2.7-2.6-2.1
			c-6.1,2.5-10.5,7.4-14.7,12.3C134.6,251.9,129.5,256.8,130,262.1z"/>
		<path class="st9" d="M143.4,234.8c-0.8,1.8,1.2,3,2.7,2.9c4.7-0.5,8.7-4.1,12.2-7c3.5-3,7.2-6.5,8.2-11.1c0.3-1.4-0.8-2.9-2.4-2.5
			c-4.6,1.1-8.1,4.5-11.6,7.5C149.2,227.6,145.2,230.5,143.4,234.8z"/>
		<path class="st9" d="M156.3,217.1c4.6-0.3,8.3-4.2,11.3-7.4c3-3.2,6-7.2,6.6-11.7c0.2-1.5-1.5-2.1-2.6-1.6c-3.8,1.6-6.9,5.1-9.8,8
			c-2.7,2.7-6.7,5.7-7.7,9.6C153.7,215.4,154.6,217.2,156.3,217.1z"/>
		<path class="st9" d="M166.6,188.2c-1.4,2.3,0.7,5.2,3.3,4.6c4.3-1,8.1-4,11.5-6.7c3.5-2.7,5.8-5.9,7.6-9.9c0.5-1.1-0.8-2.2-1.9-2
			c-4.2,0.9-7.6,2.6-11,5.1C172.7,181.9,168.8,184.5,166.6,188.2z"/>
		<path class="st9" d="M179.4,170.8c0,0.2,0.1,0.4,0.3,0.5c4.4,1.1,8.8-2.6,12.2-5c4.7-3.2,9-6.7,13-10.9c0.8-0.9,0.1-2.6-1.2-2.2
			c-5.7,1.7-10.8,4.2-15.7,7.5C184.6,163.2,179.6,166.2,179.4,170.8z"/>
		<path class="st9" d="M162.7,199.4c3.4-6.9,3.3-16.1,1.5-23.5c-0.3-1.2-2.1-1.6-2.8-0.5c-3.6,6.5-6.4,15.4-5,22.9
			C157,201.1,161.4,202,162.7,199.4z"/>
		<path class="st9" d="M148.5,224.6c3-5.4,5.1-14.4,2.9-20.4c-0.4-1.1-1.9-1.9-2.9-0.9c-4.6,5-6,13.9-5.2,20.4
			C143.6,226.1,147.4,226.6,148.5,224.6z"/>
		<path class="st9" d="M119.4,345.4c0.2,2,3.4,2.4,4.3,0.7c4.2-8.2,6.7-18.2,6.6-27.4c0-1.1-1.5-2.1-2.4-1.1
			C121.5,325.1,118.4,335.6,119.4,345.4z"/>
		<path class="st9" d="M146.8,296.8c-5.2,3.9-7.9,9.8-10.4,15.6c-1.8,4.3-5.3,11.1-2.3,15.4c0.1,0.1,0.2,0.2,0.4,0.2
			c4.7-1.2,6.6-7.4,8.5-11.3c2.9-6,6.3-11.9,6.8-18.6C149.8,296.5,147.9,296,146.8,296.8z"/>
		<path class="st9" d="M155.8,307.1c5.3-7.8,13.2-16.1,15.5-25.4c0.4-1.5-1.1-2.6-2.5-2c-9.6,4.2-14.5,16.1-17.3,25.5
			C150.7,307.7,154.3,309.3,155.8,307.1z"/>
		<path class="st9" d="M171,294.4c7.7,1.4,17.8-3,23.1-8.5c1-1,0.3-2.5-1-2.6c-4.5-0.6-8.1-0.1-12.5,1.4c-3.7,1.2-7.9,2.5-10.6,5.4
			C168.9,291.3,168.9,294,171,294.4z"/>
		<path class="st9" d="M211.1,262.4c0.2-0.9-0.4-2.2-1.5-2.2c-4.7,0.3-8.7,3.4-12.4,6.2c-3.2,2.4-7.7,5-8.3,9.2
			c0,0.3,0.2,0.6,0.5,0.7c4.1,1.7,9-1.5,12.4-3.6C205.6,270.3,209.9,267.1,211.1,262.4z"/>
		<path class="st9" d="M186.5,307.8c-3.6-0.4-7.4,0.4-10.9,1.2c-2.9,0.7-6,1.4-8.8,2.7c1.4-2.3,2.7-4.7,3.5-7.3
			c0.5-1.5-1.2-3-2.6-2.1c-4.4,2.7-7.8,6.6-10.9,10.6c-2.8,3.7-7.2,8.3-7,13.3c0.1,1.2,1.1,2.3,2.3,1.9c4.5-1.3,7.3-6.1,9.9-9.8
			c0.5-0.7,1-1.4,1.5-2c0.2,0.7,0.8,1.4,1.8,1.5c7.2,1.3,17.3-1.7,22.2-7.2C188.6,309.6,188,308,186.5,307.8z"/>
		<path class="st9" d="M146.1,342.9c3.3-1.6,6.1-3.6,7.6-7c0.4-0.8-0.3-2.1-1.2-2.3c-3.7-0.8-7,0.3-10.3,2.1c-3.3,1.8-7,3.7-9.3,6.8
			c-1.2,1.6,0.2,4,2.1,4C138.9,346.4,142.7,344.6,146.1,342.9z"/>
		<path class="st9" d="M206.9,295.6c-6.1-2.7-14.5-0.5-19.6,3.6c-1.6,1.3-1,4.5,1.1,4.9c6.7,1.4,15-0.5,19.4-6
			C208.6,297.1,207.8,296,206.9,295.6z"/>
		<path class="st9" d="M228.4,276.7c-4-1.2-8,0.3-11.7,2c-1.9,0.9-3.8,2-5.6,3.2c-2.2,1.5-3.3,3.2-5.2,5c-1.3,1.3-0.2,3.9,1.8,3.3
			c7-2.3,17.2-4,21.6-10.7C230,278.4,229.5,277,228.4,276.7z"/>
		<path class="st9" d="M119.3,415.7c-3.6,0-6.9,0.8-10.3,2c-2.8,1-5.7,1.9-8.4,3.1c0.3-1,0.6-2,0.9-3c1.2-4.3,2.4-8.8,2.2-13.3
			c-0.1-1.3-1.7-2.3-2.7-1.2c-5.3,5.5-10.1,17.1-8,24.7c0.4,1.5,2.5,2.5,3.7,1.1c0.4-0.5,0.8-1,1.2-1.6c0.5,0.4,1.1,0.7,1.8,0.8
			c7.7,0.8,17.2-3.4,20.8-10.5C120.9,416.9,120.5,415.7,119.3,415.7z"/>
		<path class="st9" d="M127.6,400.8c-2.7-0.5-5.5,0.7-7.9,1.9c-2.9,1.4-5.8,2.9-8.5,4.5c0,0,0,0,0,0c0.7-1.7,1.3-3.4,1.9-5.1
			c2.1-5.9,3.9-11.7,4.2-17.9c0.1-1.1-1.5-2-2.3-1.1c-4.1,4.6-6.6,9.9-8.5,15.7c-1.6,4.9-3.5,10.4-1.2,15.4c0.1,0.2,0.5,0.4,0.7,0.2
			c1.4-1,2.5-2.2,3.4-3.6c0,2.5,1.9,4.9,4.8,3.9c5.2-1.8,14.1-5.9,14.8-12.2C128.9,401.9,128.3,400.9,127.6,400.8z"/>
		<path class="st9" d="M119.8,397c4.7-0.8,6.8-6.7,8.6-10.4c2.7-5.5,4.8-10.9,5.9-17c0.2-1.3-1.2-2.5-2.3-1.4
			c-4.6,4.3-8,9.4-10.7,15.1c-1.8,3.8-4.9,9.4-2.3,13.4C119.2,396.9,119.5,397,119.8,397z"/>
		<path class="st9" d="M154.3,363.5c-4.8-0.4-9.6,3.4-13,6.4c-3.3,2.8-8.5,7.2-8.5,11.9c0,1.6,1.3,2.6,2.9,2.4
			c4.3-0.6,8.1-5.5,11.2-8.2c3.3-2.8,7.6-5.9,9.1-10.1C156.4,364.7,155.4,363.6,154.3,363.5z"/>
		<path class="st9" d="M108.9,429.5c-4.8,0.5-9.2,2-13.5,4.2c-3.1,1.7-7.6,3.5-9,7c-0.4,1,0.2,2.5,1.1,3c3.4,1.9,8-1.1,11-2.7
			c4.5-2.3,8.5-5.2,11.7-9.1C111.1,430.8,110.3,429.4,108.9,429.5z"/>
	</g>
	<g>
		<path class="st10" d="M195.5,164.9c-6.3,0.8-13.8,4.3-18.5,8.8c1.1-1.9,1.9-4,2.7-5.6c1.9-4,3.6-8.1,2.9-12.6
			c-0.2-1.2-1.9-2-2.9-1.3c-4.8,3.1-7,8.9-8.9,14c-0.8,2.1-3.6,9.9,1.4,9.4c1.5-0.1,2.7-1,3.7-2.2c-0.3,1.4,0.4,3,2.1,2.9
			c7.2-0.5,15.2-5,19.4-10.9C198.2,166.1,196.8,164.8,195.5,164.9z"/>
		<path class="st10" d="M217.4,137c0.4-0.9,0.3-2.5-1-2.7c-3.8-0.7-7.2,0.8-10.4,2.8c-3.3,2.1-7,4.4-8.9,8c-1.1,2,0.5,4.6,2.8,4
			c3.6-0.9,6.6-3.2,9.7-5.1C212.7,142.1,215.9,140.2,217.4,137z"/>
		<path class="st10" d="M239.9,135.9c-7.6,0.1-17.1,5.8-19.5,13.3c-0.9,2.8,2,4.6,4.4,3.7c3.4-1.4,6.3-4.2,9.1-6.5
			c2.7-2.2,5.4-4.8,7.4-7.6C242.2,137.6,241.2,135.9,239.9,135.9z"/>
		<path class="st10" d="M282,166.7c-9.2-2-18.6,0.9-27,4.5c-1.2,0.5-13.6,6.6-9.8,9.4c4.5,3.2,11.8-1.1,16.4-2.5
			c7-2.1,14.4-3.7,20.7-7.4C283.8,169.8,283.9,167.1,282,166.7z"/>
		<path class="st10" d="M272.6,189.7c-4.7-2.4-11.9-1.6-16.8,0c-2.1,0.7-3.3,4-0.9,5.3c5.4,2.8,14.5,2.8,18.3-2.8
			C273.7,191.5,273.5,190.1,272.6,189.7z"/>
		<path class="st10" d="M226.4,228c-2.8-0.4-5.9-0.2-8.6,0.5c-2.7,0.7-6.1,1.2-8.1,3.3c-1.5,1.6-1.2,3.6,0.5,4.9
			c2.7,2.1,7.1,1.4,10.2,0.5c3.1-1,6.2-3.2,7.6-6.2C228.6,229.5,227.9,228.2,226.4,228z"/>
		<path class="st10" d="M188.3,257.9c-6.2-1.3-14.9,2.8-19.1,7.3c-1.7,1.8-0.9,5.4,2,5.3c6.1-0.3,15.2-3.8,18.3-9.4
			C190.1,260,189.7,258.2,188.3,257.9z"/>
		<path class="st10" d="M121.3,234.3c4.3,1.1,8.6-2.6,11.7-5.1c3.3-2.6,6.6-6.1,6.7-10.5c0-0.8-0.7-1.7-1.5-1.6
			c-4,0.3-7.2,2.8-10.2,5.2c-2.7,2.2-7.7,5.1-8.4,8.8C119.4,232.4,119.9,233.9,121.3,234.3z"/>
		<path class="st10" d="M139.4,198.8c5.7-1,13-6.1,13.4-12.3c0.1-0.8-0.6-1.5-1.4-1.5c-2.8-0.2-5.5,1-7.8,2.4
			c-2.6,1.6-5.3,3.4-7.3,5.7C134.1,195.6,135.9,199.4,139.4,198.8z"/>
		<path class="st10" d="M113.8,175c-2.2,3.7-2.5,8.3-2.9,12.5c-0.4,4.3-0.4,8.5,1.6,12.4c0.8,1.5,2.7,1.4,3.6,0.1
			c2.6-3.6,3.2-7.9,3.4-12.2c0.2-4.3,0.4-8.6-1.2-12.7C117.6,173.3,114.8,173.4,113.8,175z"/>
		<path class="st10" d="M105.3,227.9c1.8-3.2,2.1-6.7,2-10.3c-0.1-3.9,0.1-7.9-0.7-11.8c-0.6-3.1-4.6-2.7-5.7-0.2
			c-2.7,6.5-3.5,16.8,1.1,22.6C102.7,229.3,104.6,229,105.3,227.9z"/>
		<path class="st10" d="M100.6,317.8c0-0.8-0.7-1.6-1.5-1.6c-6-0.3-12.4,8.6-12,14.1c0.1,1.6,1.8,3.3,3.5,2.2
			c2.6-1.7,4.2-4.4,6.1-6.9C98.3,323.3,100.4,320.7,100.6,317.8z"/>
		<path class="st10" d="M99,266c1.7-7.1,1.2-14.5-1-21.5c-0.8-2.4-4.3-2.8-5.1-0.2c-2.3,7.5-1.3,15.5,3.1,21.9
			C96.8,267.3,98.7,267.5,99,266z"/>
		<path class="st10" d="M73.6,297.6c1.1,0.3,2.2-0.5,2.3-1.6c0.3-4-1.6-7.5-3.2-10.9c-0.9-1.8-2.9-7.8-6.1-5.9
			c-3.3,2-1.6,7.1-0.6,10C67.2,292.9,69.6,296.5,73.6,297.6z"/>
		<path class="st10" d="M70.4,346.9c0.4,2,2.6,2.5,4.2,1.9c3.3-1.3,5.7-6.1,7.8-8.9c1.4-2,4.8-6.6,1.8-8.7c-3.2-2.2-7.3,2.6-9,4.7
			C72.8,338.8,69.7,342.8,70.4,346.9z"/>
		<path class="st10" d="M66.3,319.4c0.9,0,1.8-0.7,1.8-1.7c0-3.8-2.7-7-4.4-10.3c-0.8-1.6-2.4-7.5-5.1-6.7c0,0-0.1,0-0.1,0
			c-0.7,0.2-1.4,0.7-1.6,1.5C55.6,308.1,58.8,319.4,66.3,319.4z"/>
		<path class="st10" d="M149.8,353c0.4-0.9-0.2-1.9-0.9-2.4c-2.9-1.9-6-1.4-9.2-0.8c-3.5,0.6-7.2,0.9-10.4,2.5
			c-2.7,1.3-2,5.2,0.6,6.2C135.7,360.7,147.1,359.4,149.8,353z"/>
		<path class="st10" d="M155.5,338.4c6.2,3.6,16.5,0.2,19.1-6.5c0.3-0.8-0.3-1.8-1.1-2c-3.2-1.1-6.1-0.9-9.3-0.1
			c-3.2,0.8-6.6,1.3-9.2,3.5C153.4,334.6,153.7,337.4,155.5,338.4z"/>
		<path class="st10" d="M149,387c-5.9-1.1-12.9,1.1-17.8,4.4c-2.9,1.9-2.2,6.6,1.6,6.8c6.3,0.4,14.3-2.8,17.1-8.8
			C150.4,388.7,150.2,387.2,149,387z"/>
		<path class="st10" d="M112,361c-4.8,3.1-6.4,8.5-7.6,13.9c-0.4,1.9-2.1,9.9,2.3,9.2c3.8-0.6,5.1-5.7,6.3-8.8
			c1.7-4.2,3.1-8.5,1.8-13C114.5,361.2,113.1,360.3,112,361z"/>
		<path class="st10" d="M151.2,144.4c0.9,0.8,2.1,0.7,2.9-0.3c3.5-4.3,2.1-10.3,0.7-15.3c-1-3.8-2.2-9.5-6.2-11.2
			c-0.3-0.1-0.7,0.1-0.9,0.3c-2.6,3.3-1.1,9.2-0.8,13.1C147.4,135.9,147.4,141,151.2,144.4z"/>
		<path class="st10" d="M187.8,79.1c4,0.4,5.8-4.3,7.2-7.3c1.9-4,3.2-8.5,3.3-13c0-1.4-1.7-2.2-2.7-1.3c-2.4,2.2-4.7,5.1-6.3,7.9
			c-0.9,1.5-1.5,3.1-2.2,4.7c-0.3,0.7-1.2,3.9-1.1,3.8C184.3,76,185.1,78.9,187.8,79.1z"/>
		<path class="st10" d="M215.5,88.6c-6.3-2.6-12.8-2.6-19.2,0c-4,1.7-1.6,6.8,1.7,7.4c6.4,1,12.5-0.9,17.7-4.6
			C216.9,90.6,216.8,89.1,215.5,88.6z"/>
		<path class="st10" d="M229.2,76.3c3.3,1.5,7.4,1.2,11,1c3.4-0.2,6-1,8-3.9c0.5-0.8,0.4-1.9-0.2-2.5c-2.4-2.7-5.4-3.1-8.8-2.8
			c-3.5,0.2-7.4,0.4-10.5,2.2C226,71.8,226.7,75.2,229.2,76.3z"/>
		<path class="st10" d="M147,182.3c5.5-0.1,15-2.7,17-8.6c0.3-0.8-0.1-2-0.9-2.4c-2.6-1.3-5.6-1-8.4-0.2c-3.2,0.8-6.7,2-9.4,3.8
			C142.2,176.8,142.7,182.3,147,182.3z"/>
		<path class="st10" d="M218.3,153c0-1.4-1.4-2.2-2.6-1.6c-5.1,2.3-7.8,7-10.1,11.9c-1.9,4-4.2,9.1-1.7,13.3
			c0.1,0.2,0.4,0.3,0.6,0.3c4.4-1.2,6.6-5.7,8.7-9.4C215.6,162.9,218.3,158.4,218.3,153z"/>
		<path class="st10" d="M112.1,326.1c-4.9,7.7-7.4,17-8.5,26c-0.5,4.2,5.7,4.9,7.1,1.2c3.1-8.2,5.1-17.4,4.4-26.3
			C115,325.5,113,324.6,112.1,326.1z"/>
		<path class="st10" d="M84.2,359.1c-3.7,5.2-6,10.7-7.8,16.9c-1.1,3.7-2.8,8-0.3,11.4c0.7,1,2.6,0.8,3.1-0.3
			c4.5-8.6,7.7-17.2,7.9-27.1C87.2,358.3,85.1,357.8,84.2,359.1z"/>
		<path class="st10" d="M61.9,384.6c-0.9-0.1-2,0.5-2.5,1.3c-1.7,3.1-0.2,6.9,1.4,9.7c1.7,3,4.2,7.3,8.1,7.1c1.7-0.1,3.4-1,3.9-2.7
			c1-3.7-1.7-6.5-3.6-9.4C67.2,388,65.3,385.1,61.9,384.6z"/>
		<path class="st10" d="M112.9,414.7c-4.3-0.4-8.3,1.4-11.9,3.5c-3.5,2-7.9,4-9.4,8c-0.8,2.1,1,3.9,2.9,4.2
			c4.1,0.5,8.6-2.9,11.9-4.9c3.4-2.1,6.4-4.6,8.1-8.4C115,415.9,113.9,414.8,112.9,414.7z"/>
		<path class="st10" d="M123.7,396.3c-3.4-1.3-7.2,0.5-10,2.3c-3,1.9-6.7,3.8-7.2,7.6c-0.2,1.3,0.9,2.5,2.1,2.9
			c3.3,1.3,7.5-1.5,10.3-3.1c3-1.7,5.7-4.2,6.3-7.7C125.3,397.5,124.4,396.6,123.7,396.3z"/>
		<path class="st10" d="M147.9,247.2c-5.8,5.8-8.8,16-9.1,24c-0.1,3.2,4.9,5.3,6.5,2c3.5-7.2,6.5-17,5.6-25.1
			C150.6,246.8,148.7,246.4,147.9,247.2z"/>
		<path class="st10" d="M164.5,247.6c2-4.6,3.7-9.6,3.9-14.7c0.1-1.6-1.7-2.1-2.8-1.3c-3.9,3-6.8,7.5-8.8,12
			c-1.8,4-4.6,9.3-2.9,13.7c0.5,1.4,1.9,2.3,3.4,1.5C161.3,256.7,162.8,251.7,164.5,247.6z"/>
		<path class="st10" d="M191,203.1c-7.1,6.2-11.6,13.5-15.5,22.1c-0.7,1.5-6.3,12.7-1.4,13.3c5.3,0.7,8.4-8.3,10.4-12
			c3.8-7.2,7.1-13.9,9.1-21.8C193.9,203.2,192.2,202,191,203.1z"/>
		<path class="st10" d="M194.3,116.2c-3,1.6-1.8,5.9,1.4,6.2c8.4,0.7,19.5-1.8,26.2-7.1c1.2-0.9,0.6-3-0.8-3.4
			C212.9,109.9,201.6,112.2,194.3,116.2z"/>
		<path class="st10" d="M257,90.3c-7.7-3.5-19.9-0.2-25.9,5.6c-2.5,2.4-0.1,5.8,2.9,5.5c4.2-0.5,8.3-2.2,12.3-3.4
			c3.8-1.1,7.6-2.1,10.9-4.3C258.7,92.8,258.4,91,257,90.3z"/>
		<path class="st10" d="M206,77.7c4.2-0.5,6-6.2,7.6-9.5c2.2-4.7,4.3-9.7,4.1-14.9c-0.1-1.6-1.9-2.6-3.2-1.5
			c-4,3.5-6.3,8.7-8.2,13.5c-1.4,3.6-4,8.5-1.4,12C205.1,77.7,205.6,77.7,206,77.7z"/>
		<path class="st10" d="M235.5,56.2c6.1-4.4,11.6-11.5,13.2-19c0.3-1.4-1.1-2.9-2.5-2.1c-6.7,4.1-12,11.2-15.2,18.3
			C229.8,56.2,233.6,57.5,235.5,56.2z"/>
		<path class="st10" d="M130.2,142.1c2.7-4.1,4.8-8.6,6.3-13.2c1.4-4.2,3.4-8.7,2.6-13.2c-0.3-1.4-2.2-2.4-3.5-1.6
			c-7.8,5.2-9.9,18.9-8.6,27.5C127.2,143.1,129.4,143.2,130.2,142.1z"/>
		<path class="st10" d="M112.5,174.1c3-5.2,3.5-10.9,4.1-16.8c0.4-4.7,2-10.8-1.3-14.7c-0.4-0.5-1.2-0.6-1.8-0.3
			c-4.5,2.6-4.6,8.8-5.4,13.5c-1,6.2-1.4,12.2,1,18.1C109.8,175.3,111.9,175.3,112.5,174.1z"/>
		<path class="st10" d="M59.9,296.2c0.3-4.4-0.1-8.8-0.7-13.1c-0.5-4.2-0.7-8.8-2.7-12.6c-0.7-1.3-2.9-1.6-3.7-0.1
			c-4,7.7-1.1,19.9,3.7,26.6C57.6,298.4,59.8,298.1,59.9,296.2z"/>
		<path class="st10" d="M58.4,413.6c-1.1-1.6-4.2-0.9-4.6,1c-1.1,6.4,1.5,18,8.4,20.4c1,0.4,2.3-0.3,2.6-1.4c1-3.4-0.4-6.7-1.7-9.9
			C61.8,420.3,60.6,416.7,58.4,413.6z"/>
		<path class="st10" d="M165.6,361.5c-3.3,1.6-7.2,3.9-9.2,7.1c-1.5,2.4,0.8,4.7,3.2,4.4c3.6-0.4,18-6.1,14.7-11.5
			C172.4,358.6,167.8,360.4,165.6,361.5z"/>
		<path class="st10" d="M175.4,338.8c-7.1-0.8-16.5,3.3-20.5,9.2c-1.4,2.1,0.7,4.2,2.8,4c3.6-0.4,7-2.4,10.1-4
			c3.1-1.6,6.3-3.7,8.6-6.3C177.4,340.6,176.9,339,175.4,338.8z"/>
	</g>
	<g>
		<path class="st11" d="M176,166.5c-4.2,2.1-5.8,7.8-7.2,11.9c-1.8,5.1-3.4,10-2.4,15.5c0.2,1.4,2.3,2.1,3.2,1
			c3.3-3.9,4.7-8.4,6.2-13.2c1.3-4.3,3.9-9.8,2.3-14.2C177.8,166.5,176.9,166,176,166.5z"/>
		<path class="st11" d="M161.7,193.7c-0.4-0.5-1.1-1.1-1.8-0.8c-4.7,1.8-6,7.1-7.6,11.4c-2.3,6.3-3.4,11.8-3.1,18.6
			c0.1,1.7,2,2.2,3,0.9c4-4.9,6.4-9.7,8.3-15.8C161.8,203.7,164.4,197.8,161.7,193.7z"/>
		<path class="st11" d="M144.9,233.2c-0.2-1.8-0.8-8.3-4.2-7.4c-3.3,0.8-3.4,5.5-3.6,8.2c-0.2,3.9-0.2,8.3,2.6,11.3
			c0.7,0.7,2.1,0.9,2.8,0.1C145.6,241.9,145.4,237.4,144.9,233.2z"/>
		<path class="st11" d="M127.8,329.5c-2.4,2.6-3.9,5.9-5,9.2c-1.1,3.4-2.5,7.1-1.7,10.6c0.4,1.8,2.4,2,3.7,1.1
			c2.9-2.1,4.2-6.1,5.2-9.5c1-3.4,1.5-7.2,0.5-10.6C130.1,329.2,128.7,328.6,127.8,329.5z"/>
		<path class="st11" d="M148,305.4c-4.6,3.5-6.3,8.9-7.7,14.3c-1.2,4.5-3.2,10.6-0.4,14.8c0.5,0.8,1.6,1.3,2.5,0.8
			c4.3-2.6,5.4-8.3,6.8-12.8c1.6-5.3,3.5-10.5,2.2-16.1C151,304.8,149.1,304.5,148,305.4z"/>
		<path class="st11" d="M169.8,289.7c-4.6,1.5-7.4,5.6-9.3,9.8c-1.8,3.9-3.9,9-0.9,12.8c0.4,0.5,1.3,0.8,1.8,0.6
			c3.9-1.4,5.2-5.4,6.8-8.9c1.8-3.9,4-8,3.8-12.5C172,290.4,171,289.3,169.8,289.7z"/>
		<path class="st11" d="M202.1,287.4c-4,0.4-8.9,0.8-11.3,4.3c-0.7,1.1-0.2,2.5,0.7,3.2c3.4,2.5,8.7,1.3,12.6,1.2
			c4-0.1,7.7,0,10.4-3.4c0.6-0.8,0.3-1.8-0.2-2.4C211.5,286.3,206.4,287,202.1,287.4z"/>
		<path class="st11" d="M223.2,265.9c-7.4-0.9-15.4,5.6-19.1,11.4c-1.1,1.7,0.5,4.3,2.6,3.7c6.3-2,14.7-6.3,17.8-12.5
			C225.1,267.2,224.5,266,223.2,265.9z"/>
		<path class="st11" d="M86.2,210.6c-0.5-0.6-1.7-0.7-2.2-0.1c-3.1,3.6-2.8,8.9-2.5,13.4c0.3,5.1,0.9,9.8,4.2,13.8
			c1,1.3,3.1,0.6,3.5-0.8c1.5-4.6,0.8-9.1,0.3-13.8C88.9,218.9,89.1,214,86.2,210.6z"/>
		<path class="st11" d="M92.8,190c-3.1,2-4.5,5.3-5.2,8.8c-0.7,3.1-1.6,7.1,0.7,9.8c0.5,0.6,1.4,0.6,2,0.3c2.9-1.4,3.9-5.5,4.6-8.4
			c0.9-3.3,1.4-6.7,0-9.9C94.6,189.9,93.5,189.5,92.8,190z"/>
		<path class="st11" d="M150.1,108.7c4.7,0.6,5.9-7,6.4-9.9c0.7-4.5,2.5-11.6-1.5-14.9c-0.5-0.4-1.4-0.4-2-0.1
			c-4.3,2.2-4.5,10-5.4,14.3C146.9,100.8,145.3,108.1,150.1,108.7z"/>
		<path class="st11" d="M207.2,56.3c4.1-4.9,8.9-10.4,10.2-16.9c0.3-1.4-0.9-2.3-2.2-1.8c-4.2,1.6-7.1,5.1-9.4,8.9
			c-1.8,2.9-4,6.6-1.6,9.7C204.8,57,206.5,57.1,207.2,56.3z"/>
		<path class="st11" d="M274.4,27.1c-8-1.1-20,5-24.2,11.8c-1.1,1.7,0.5,3.7,2.4,3.3c4.3-0.8,8.2-3.4,12-5.3
			c3.8-1.9,7.9-3.8,10.9-6.9C276.6,29,275.9,27.3,274.4,27.1z"/>
		<path class="st11" d="M256.4,106.8c-3.3,0.8-8.3,2.6-9,6.4c-0.2,1.1,0.2,2,1.3,2.5c3,1.3,6.6-0.6,9.5-1.3c3.2-0.8,6.8-1.6,9.7-3.4
			c1-0.7,1.1-2,0.1-2.7C264.7,105.9,260.1,105.8,256.4,106.8z"/>
	</g>
	<path class="st7" d="M105.5,504.8c-5.7,18.5-9,37.7-11.6,56.9C83.8,635,83.2,709.6,92.1,783c0.1-0.1,0.2-0.1,0.2-0.2
		c9.7-10.1,7.6-28.1,7.5-41.1c-0.1-16.1-0.6-32.2-1-48.3c-0.7-32.1-2-64.3-0.7-96.4c1.9-49.4,10.3-102,32.1-147.1
		C119.9,467,111.5,485.4,105.5,504.8z"/>
</g>
</svg>
