<?xml version="1.0" encoding="utf-8"?>
<!-- Generator: Adobe Illustrator 25.4.1, SVG Export Plug-In . SVG Version: 6.00 Build 0)  -->
<svg version="1.1" id="Layer_1" xmlns="http://www.w3.org/2000/svg" xmlns:xlink="http://www.w3.org/1999/xlink" x="0px" y="0px"
	 viewBox="0 0 24.6 24.6" style="enable-background:new 0 0 24.6 24.6;" xml:space="preserve">
<style type="text/css">
	.st0{fill:#FFFFFF;}
</style>
<path class="st0" d="M23,18H5.8c-1,0-1.7-0.8-1.7-1.7s0.8-1.7,1.7-1.7h12.6c1.5,0,2.7-1,3.1-2.4L23.6,4c0.1-0.3-0.1-0.6-0.4-0.7
	c-0.1,0-0.1,0-0.1,0H5.6l0-0.1C5.3,1.9,4.1,1,2.8,1H1.2C0.8,1,0.6,1.2,0.6,1.5s0.3,0.6,0.6,0.6h1.7c0.8,0,1.5,0.5,1.7,1.3L7,13.5
	H5.8c-1.6,0-2.9,1.3-2.9,2.8c0,1.6,1.3,2.8,2.9,2.8h1.2c-0.4,0.5-0.6,1.1-0.6,1.7c0,1.6,1.3,2.8,2.9,2.8c1.6,0,2.9-1.3,2.9-2.8
	c0-0.6-0.2-1.2-0.6-1.7h4.6c-0.4,0.5-0.6,1.1-0.6,1.7c0,1.6,1.3,2.8,2.9,2.8c1.6,0,2.9-1.3,2.9-2.8c0-0.6-0.2-1.2-0.6-1.7H23
	c0.3,0,0.6-0.3,0.6-0.6C23.6,18.3,23.3,18,23,18 M9.2,22.6c-1,0-1.7-0.8-1.7-1.7s0.8-1.7,1.7-1.7c1,0,1.7,0.8,1.7,1.7
	S10.2,22.6,9.2,22.6z M18.4,22.6c-1,0-1.7-0.8-1.7-1.7s0.8-1.7,1.7-1.7c1,0,1.7,0.8,1.7,1.7S19.4,22.6,18.4,22.6z"/>
</svg>
