<?xml version="1.0" encoding="utf-8"?>
<!-- Generator: Adobe Illustrator 25.4.1, SVG Export Plug-In . SVG Version: 6.00 Build 0)  -->
<svg version="1.1" id="Layer_1" xmlns="http://www.w3.org/2000/svg" xmlns:xlink="http://www.w3.org/1999/xlink" x="0px" y="0px"
	 viewBox="0 0 528 70" style="enable-background:new 0 0 528 70;" xml:space="preserve">
<style type="text/css">
	.st0{fill:#8EC553;}
	.st1{fill:#2B2A29;}
</style>
<path class="st0" d="M264,18.8c-0.4,0-0.8-0.1-1-0.4c-0.2-0.2-4.4-4-4.4-9c0-5,4.2-8.8,4.4-9c0.3-0.3,0.7-0.4,1-0.4s0.8,0.1,1,0.4
	c0.2,0.2,4.4,4,4.4,9s-4.2,8.8-4.4,9C264.8,18.6,264.4,18.8,264,18.8z M264,3.9c-1.4,1.5-2.2,3.5-2.3,5.5c0.1,2,1,4,2.3,5.5
	c1.4-1.5,2.2-3.5,2.3-5.5C266.2,7.3,265.4,5.4,264,3.9z"/>
<path class="st0" d="M261.3,29c-3.3,0.1-6.5-1.1-9-3.2c-3.5-3.5-3.2-9.2-3.2-9.5c0-0.4,0.2-0.8,0.5-1c0.3-0.3,0.6-0.4,1-0.5
	c0.2,0,6-0.3,9.5,3.2s3.2,9.3,3.2,9.5c0,0.4-0.2,0.8-0.5,1c-0.3,0.3-0.6,0.4-1,0.5C261.8,29,261.6,29,261.3,29z M252.3,18
	c0.1,2,0.9,4,2.2,5.5c1.5,1.3,3.5,2.1,5.5,2.2c-0.1-2-0.9-4-2.2-5.5C256.3,18.9,254.4,18.1,252.3,18z"/>
<path class="st0" d="M261.3,43.1c-3.3,0.1-6.5-1.1-9-3.2c-3.5-3.5-3.2-9.3-3.2-9.5c0-0.4,0.2-0.8,0.5-1c0.3-0.3,0.6-0.4,1-0.5
	c0.2,0,6-0.3,9.5,3.2s3.2,9.3,3.2,9.5c0,0.4-0.2,0.8-0.5,1c-0.3,0.3-0.6,0.4-1,0.5C261.8,43.1,261.6,43.1,261.3,43.1z M254.5,37.6
	c1.5,1.3,3.5,2.1,5.5,2.2c-0.1-2-0.9-4-2.2-5.5c-1.5-1.3-3.5-2.1-5.5-2.2C252.4,34.1,253.2,36.1,254.5,37.6z"/>
<path class="st0" d="M261.3,57.2c-3.3,0.1-6.5-1.1-9-3.2c-3.5-3.5-3.2-9.3-3.2-9.5c0-0.4,0.2-0.8,0.5-1c0.3-0.3,0.6-0.4,1-0.5
	c0.2,0,6-0.3,9.5,3.2c3.5,3.5,3.2,9.3,3.2,9.5c0,0.4-0.2,0.8-0.5,1c-0.3,0.3-0.6,0.4-1,0.5C261.8,57.2,261.6,57.2,261.3,57.2z
	 M252.3,46.2c0.1,2,0.9,4,2.2,5.5c1.5,1.3,3.5,2.1,5.5,2.2c-0.1-2-0.9-4-2.2-5.5C256.3,47.1,254.4,46.3,252.3,46.2z"/>
<path class="st0" d="M266.7,29c-0.3,0-0.4,0-0.5,0c-0.4,0-0.8-0.2-1-0.5c-0.3-0.3-0.4-0.6-0.5-1c0-0.2-0.3-6,3.2-9.5
	c3.5-3.5,9.2-3.2,9.5-3.2c0.4,0,0.8,0.2,1,0.5c0.3,0.3,0.4,0.6,0.5,1c0,0.2,0.3,6-3.2,9.5C273.2,27.9,270,29.1,266.7,29z M275.7,18
	c-2,0.1-4,0.9-5.5,2.2c-1.3,1.6-2.1,3.5-2.2,5.5c2-0.1,4-0.9,5.5-2.2C274.8,22,275.6,20.1,275.7,18z"/>
<path class="st0" d="M266.7,43.1c-0.3,0-0.4,0-0.5,0c-0.4,0-0.8-0.2-1-0.5c-0.3-0.3-0.4-0.6-0.5-1c0-0.2-0.3-6,3.2-9.5
	c3.5-3.5,9.2-3.2,9.5-3.2c0.4,0,0.8,0.2,1,0.5c0.3,0.3,0.4,0.6,0.5,1c0,0.2,0.3,6-3.2,9.5C273.2,42,270,43.2,266.7,43.1z
	 M275.7,32.1c-2,0.1-4,0.9-5.5,2.2c-1.3,1.6-2.1,3.5-2.2,5.5c2-0.1,4-0.9,5.5-2.2C274.8,36.1,275.6,34.1,275.7,32.1z"/>
<path class="st0" d="M266.7,57.2c-0.3,0-0.4,0-0.5,0c-0.4,0-0.8-0.2-1-0.5c-0.3-0.3-0.4-0.6-0.5-1c0-0.2-0.3-6,3.2-9.5
	c3.5-3.5,9.2-3.2,9.5-3.2c0.4,0,0.8,0.2,1,0.5c0.3,0.3,0.4,0.6,0.5,1c0,0.2,0.3,6-3.2,9.5C273.2,56.1,270,57.2,266.7,57.2z
	 M275.7,46.2c-2,0.1-4,0.9-5.5,2.2c-1.3,1.5-2.1,3.5-2.2,5.5c2-0.1,4-0.9,5.5-2.3C274.8,50.1,275.6,48.2,275.7,46.2z"/>
<path class="st0" d="M264,70c-0.4,0-0.8-0.2-1.1-0.5c-0.3-0.3-0.5-0.7-0.5-1.1V59c0-0.4,0.2-0.8,0.5-1.1c0.3-0.3,0.7-0.5,1.1-0.5
	s0.8,0.2,1.1,0.5c0.3,0.3,0.5,0.7,0.5,1.1v9.4c0,0.4-0.2,0.8-0.5,1.1C264.8,69.8,264.4,70,264,70z"/>
<path class="st0" d="M233.9,26.4c-0.4,0-0.8-0.1-1-0.4c-0.2-0.1-3.8-3.5-3.8-7.8s3.7-7.7,3.8-7.8c0.3-0.3,0.7-0.4,1-0.4
	c0.4,0,0.8,0.1,1,0.4c0.2,0.1,3.8,3.5,3.8,7.8s-3.7,7.7-3.8,7.8C234.7,26.3,234.3,26.4,233.9,26.4z M233.9,13.9
	c-1,1.2-1.6,2.7-1.8,4.3c0.1,1.6,0.7,3.1,1.8,4.3c1-1.2,1.6-2.7,1.7-4.3C235.6,16.6,234.9,15.1,233.9,13.9z"/>
<path class="st0" d="M231.7,35.1c-2.9,0.1-5.7-0.9-7.9-2.8c-3.1-3.1-2.8-8-2.8-8.3c0-0.4,0.2-0.8,0.5-1c0.3-0.3,0.6-0.4,1-0.5
	c0.2,0,5.2-0.3,8.2,2.8c3.1,3.1,2.8,8.1,2.8,8.3c0,0.4-0.2,0.8-0.5,1c-0.3,0.3-0.6,0.4-1,0.5C232,35.1,231.9,35.1,231.7,35.1z
	 M224.2,25.8c0.1,1.6,0.8,3.1,1.8,4.3c1.2,1,2.7,1.7,4.3,1.8c-0.1-1.6-0.8-3.1-1.8-4.3C227.3,26.5,225.8,25.9,224.2,25.8z"/>
<path class="st0" d="M231.7,47.1c-2.9,0.1-5.7-0.9-7.9-2.8c-3.1-3.1-2.8-8.1-2.8-8.3c0-0.4,0.2-0.8,0.5-1c0.3-0.3,0.6-0.4,1-0.5
	c0.2,0,5.2-0.2,8.2,2.8c3.1,3.1,2.8,8.1,2.8,8.3c0,0.4-0.2,0.8-0.5,1c-0.3,0.3-0.6,0.4-1,0.5C232,47.1,231.9,47.1,231.7,47.1z
	 M224.2,37.8c0.1,1.6,0.8,3.1,1.8,4.3c1.2,1,2.7,1.7,4.3,1.8c-0.1-1.6-0.8-3.1-1.8-4.3C227.3,38.5,225.8,37.9,224.2,37.8z"/>
<path class="st0" d="M231.7,59.1c-2.9,0.1-5.7-0.9-7.9-2.8c-3.1-3.1-2.8-8-2.8-8.3c0-0.4,0.2-0.8,0.5-1c0.3-0.3,0.6-0.4,1-0.5
	c3-0.1,6,0.9,8.2,2.8c3.1,3.1,2.8,8,2.8,8.3c0,0.4-0.2,0.8-0.5,1c-0.3,0.3-0.6,0.4-1,0.5C232,59.1,231.9,59.1,231.7,59.1z M226,54
	c1.2,1,2.7,1.7,4.3,1.8c-0.1-1.6-0.8-3.1-1.8-4.3c-1.2-1-2.7-1.7-4.3-1.8C224.4,51.3,225,52.8,226,54L226,54z"/>
<path class="st0" d="M236.2,35.1c-0.2,0-0.4,0-0.4,0c-0.4,0-0.8-0.2-1-0.5c-0.3-0.3-0.4-0.6-0.5-1c0-0.2-0.2-5.2,2.8-8.3
	c3.1-3.1,8-2.8,8.2-2.8c0.4,0,0.8,0.2,1,0.5c0.3,0.3,0.4,0.6,0.5,1c0,0.2,0.2,5.2-2.8,8.3C241.8,34.2,239,35.2,236.2,35.1z
	 M243.6,25.8c-1.6,0.1-3.1,0.8-4.3,1.8c-1,1.2-1.7,2.7-1.8,4.3c1.6-0.1,3.1-0.8,4.3-1.8C242.8,28.9,243.5,27.4,243.6,25.8
	L243.6,25.8z"/>
<path class="st0" d="M236.2,47.1c-0.2,0-0.4,0-0.4,0c-0.4,0-0.8-0.2-1-0.5c-0.3-0.3-0.4-0.6-0.5-1c0-0.2-0.2-5.2,2.8-8.3
	c3.1-3.1,8-2.8,8.2-2.8c0.4,0,0.8,0.2,1,0.5c0.3,0.3,0.4,0.6,0.5,1c0,0.2,0.2,5.2-2.8,8.3C241.8,46.2,239,47.2,236.2,47.1z
	 M243.6,37.8c-1.6,0.1-3.1,0.8-4.3,1.8c-1,1.2-1.7,2.7-1.8,4.3c1.6-0.1,3.1-0.8,4.3-1.8C242.8,40.8,243.5,39.3,243.6,37.8
	L243.6,37.8z"/>
<path class="st0" d="M236.2,59.1c-0.2,0-0.4,0-0.4,0c-0.4,0-0.8-0.2-1-0.5c-0.3-0.3-0.4-0.6-0.5-1c0-0.2-0.2-5.2,2.8-8.3
	c2.3-2,5.2-3,8.2-2.8c0.4,0,0.8,0.2,1,0.5c0.3,0.3,0.4,0.6,0.5,1c0,0.2,0.2,5.2-2.8,8.3C241.8,58.1,239,59.1,236.2,59.1z
	 M243.6,49.7c-1.6,0.1-3.1,0.8-4.3,1.8c-1,1.2-1.7,2.7-1.8,4.3c1.6-0.1,3.1-0.8,4.3-1.8C242.8,52.8,243.5,51.3,243.6,49.7z"/>
<path class="st0" d="M233.9,70c-0.4,0-0.8-0.2-1.1-0.5c-0.3-0.3-0.5-0.7-0.5-1.1v-8c0-0.4,0.2-0.8,0.5-1.1c0.3-0.3,0.7-0.5,1.1-0.5
	c0.4,0,0.8,0.2,1.1,0.5c0.3,0.3,0.5,0.7,0.5,1.1v8c0,0.4-0.2,0.8-0.5,1.1C234.7,69.8,234.3,70,233.9,70z"/>
<path class="st0" d="M294.1,26.4c-0.4,0-0.8-0.1-1-0.4c-0.2-0.1-3.8-3.5-3.8-7.8s3.7-7.7,3.8-7.8c0.3-0.3,0.7-0.4,1-0.4
	c0.4,0,0.8,0.1,1,0.4c0.2,0.1,3.8,3.5,3.8,7.8c0,4.3-3.7,7.7-3.8,7.8C294.8,26.3,294.5,26.4,294.1,26.4z M294.1,13.9
	c-1,1.2-1.6,2.7-1.7,4.3c0.1,1.6,0.7,3.1,1.7,4.3c1-1.2,1.6-2.7,1.8-4.3C295.7,16.6,295.1,15.1,294.1,13.9z"/>
<path class="st0" d="M296.3,35.1c-0.2,0-0.4,0-0.4,0c-0.4,0-0.8-0.2-1-0.5c-0.3-0.3-0.4-0.6-0.5-1c0-0.2-0.2-5.2,2.8-8.3
	c3.1-3.1,8-2.8,8.2-2.8c0.4,0,0.8,0.2,1,0.5c0.3,0.3,0.4,0.6,0.5,1c0,0.2,0.2,5.2-2.8,8.3C302,34.2,299.2,35.2,296.3,35.1z
	 M303.8,25.8c-1.6,0.1-3.1,0.8-4.3,1.8c-1,1.2-1.7,2.7-1.8,4.3c1.6-0.1,3.1-0.8,4.3-1.8C303,28.9,303.6,27.4,303.8,25.8z"/>
<path class="st0" d="M296.3,47.1c-0.2,0-0.4,0-0.4,0c-0.4,0-0.8-0.2-1-0.5c-0.3-0.3-0.4-0.6-0.5-1c0-0.2-0.2-5.2,2.8-8.3
	c3.1-3.1,8-2.8,8.2-2.8c0.4,0,0.8,0.2,1,0.5c0.3,0.3,0.4,0.6,0.5,1c0,0.2,0.2,5.2-2.8,8.3C302,46.2,299.2,47.2,296.3,47.1z
	 M303.8,37.8c-1.6,0.1-3.1,0.8-4.3,1.8c-1,1.2-1.7,2.7-1.8,4.3c1.6-0.1,3.1-0.8,4.3-1.8C303,40.8,303.6,39.3,303.8,37.8z"/>
<path class="st0" d="M296.3,59.1c-0.2,0-0.4,0-0.4,0c-0.4,0-0.8-0.2-1-0.5c-0.3-0.3-0.4-0.6-0.5-1c0-0.2-0.2-5.2,2.8-8.3
	c2.3-1.9,5.2-3,8.2-2.8c0.4,0,0.8,0.2,1,0.5c0.3,0.3,0.4,0.6,0.5,1c0,0.2,0.2,5.2-2.8,8.3C302,58.1,299.2,59.1,296.3,59.1z
	 M303.8,49.7c-1.6,0-3.1,0.7-4.3,1.8c-1.1,1.1-1.8,2.7-1.8,4.3c1.6-0.1,3.1-0.8,4.3-1.8C303,52.8,303.6,51.3,303.8,49.7L303.8,49.7z
	"/>
<path class="st0" d="M291.8,35.1c-2.9,0.1-5.7-0.9-7.9-2.8c-3.1-3.1-2.8-8-2.8-8.3c0-0.4,0.2-0.8,0.5-1c0.3-0.3,0.6-0.4,1-0.5
	c0.2,0,5.2-0.3,8.2,2.8c3.1,3.1,2.8,8.1,2.8,8.3c0,0.4-0.2,0.8-0.5,1c-0.3,0.3-0.6,0.4-1,0.5C292.2,35.1,292.1,35.1,291.8,35.1z
	 M284.4,25.8c0.1,1.6,0.8,3.1,1.8,4.3c1.2,1,2.7,1.7,4.3,1.8c-0.1-1.6-0.8-3.1-1.8-4.3C287.5,26.5,286,25.9,284.4,25.8z"/>
<path class="st0" d="M291.8,47.1c-2.9,0.1-5.7-0.9-7.9-2.8c-3.1-3.1-2.8-8.1-2.8-8.3c0-0.4,0.2-0.8,0.5-1c0.3-0.3,0.6-0.4,1-0.5
	c0.2,0,5.2-0.2,8.2,2.8c3.1,3.1,2.8,8.1,2.8,8.3c0,0.4-0.2,0.8-0.5,1c-0.3,0.3-0.6,0.4-1,0.5C292.2,47.1,292.1,47.1,291.8,47.1z
	 M284.4,37.8c0.1,1.6,0.8,3.1,1.8,4.3c1.2,1,2.7,1.7,4.3,1.8c-0.1-1.6-0.8-3.1-1.8-4.3C287.5,38.5,286,37.9,284.4,37.8z"/>
<path class="st0" d="M291.8,59.1c-2.9,0.1-5.7-0.9-7.9-2.8c-3.1-3.1-2.8-8-2.8-8.3c0-0.4,0.2-0.8,0.5-1c0.3-0.3,0.6-0.4,1-0.5
	c3-0.1,6,0.9,8.2,2.8c3.1,3.1,2.8,8,2.8,8.3c0,0.4-0.2,0.8-0.5,1c-0.3,0.3-0.6,0.4-1,0.5C292.2,59.1,292.1,59.1,291.8,59.1z
	 M286.2,54c1.2,1,2.7,1.7,4.3,1.8c-0.1-1.6-0.8-3.1-1.8-4.3c-1.2-1-2.7-1.7-4.3-1.8C284.5,51.3,285.2,52.8,286.2,54z"/>
<path class="st0" d="M294.1,70c-0.4,0-0.8-0.2-1.1-0.5c-0.3-0.3-0.5-0.7-0.5-1.1v-8c0-0.4,0.2-0.8,0.5-1.1c0.3-0.3,0.7-0.5,1.1-0.5
	c0.4,0,0.8,0.2,1.1,0.5c0.3,0.3,0.5,0.7,0.5,1.1v8c0,0.4-0.2,0.8-0.5,1.1C294.9,69.8,294.5,70,294.1,70z"/>
<path class="st1" d="M0,35c0-1.1,0.9-2,2-2h197c1.1,0,2,0.9,2,2s-0.9,2-2,2H2C0.9,37,0,36.1,0,35z"/>
<path class="st1" d="M327,35c0-1.1,0.9-2,2-2h197c1.1,0,2,0.9,2,2s-0.9,2-2,2H329C327.9,37,327,36.1,327,35z"/>
</svg>
