<?xml version="1.0" encoding="utf-8"?>
<!-- Generator: Adobe Illustrator 25.4.1, SVG Export Plug-In . SVG Version: 6.00 Build 0)  -->
<svg version="1.1" id="Layer_1" xmlns="http://www.w3.org/2000/svg" xmlns:xlink="http://www.w3.org/1999/xlink" x="0px" y="0px"
	 viewBox="0 0 355.7 296.7" style="enable-background:new 0 0 355.7 296.7;" xml:space="preserve">
<style type="text/css">
	.st0{fill:#043B37;}
	
		.st1{clip-path:url(#SVGID_00000080191014408991571970000007267816680238737597_);fill:url(#SVGID_00000147941842642431121890000004689709410490841488_);}
	.st2{fill:#D9DADA;}
	
		.st3{clip-path:url(#SVGID_00000000929633170396641260000011233890370991303610_);fill:url(#SVGID_00000050643173951160054320000010521307345971472009_);}
	
		.st4{clip-path:url(#SVGID_00000008838585050344308930000012156430308225537929_);fill:url(#SVGID_00000048497373526264322130000005756500102657400719_);}
	
		.st5{clip-path:url(#SVGID_00000023979419635098525970000018420439050192951205_);fill:url(#SVGID_00000143602021702059697150000001230965652562812853_);}
	
		.st6{clip-path:url(#SVGID_00000101794330307492679990000000759074640187465865_);fill:url(#SVGID_00000023274306091644599640000000414277793331098023_);}
	
		.st7{clip-path:url(#SVGID_00000128445992837747822220000007497494390731280805_);fill:url(#SVGID_00000144313168618449324060000002491005918552733617_);}
	
		.st8{clip-path:url(#SVGID_00000178926254687375604410000013665527567176573863_);fill:url(#SVGID_00000026864103097171099710000011669631878975895697_);}
	
		.st9{clip-path:url(#SVGID_00000136406964881030081950000006166578739726863265_);fill:url(#SVGID_00000022554583349531633370000006271927219800198064_);}
	
		.st10{clip-path:url(#SVGID_00000045591796338849754940000011906723593781019290_);fill:url(#SVGID_00000116926517993549752510000015208813858956797326_);}
	
		.st11{clip-path:url(#SVGID_00000120535698183819555770000003265507490053597372_);fill:url(#SVGID_00000152967559753830562350000016719610603741987474_);}
	
		.st12{clip-path:url(#SVGID_00000010278506500826633290000000131492389457042845_);fill:url(#SVGID_00000183211907274896695070000004839700311507733942_);}
	
		.st13{clip-path:url(#SVGID_00000124158846509492011820000011661617011133993091_);fill:url(#SVGID_00000053512428139198935840000014755050073512296845_);}
	
		.st14{clip-path:url(#SVGID_00000129892185527798859510000017476566819408195986_);fill:url(#SVGID_00000137092302130096643300000003711392023981401744_);}
	
		.st15{clip-path:url(#SVGID_00000172411868086317898380000000850934221908754848_);fill:url(#SVGID_00000017487439998277215880000013068670308758667174_);}
	
		.st16{clip-path:url(#SVGID_00000103255690708920545380000000602550490457260424_);fill:url(#SVGID_00000037688547622598624280000007778552955401777836_);}
	
		.st17{clip-path:url(#SVGID_00000152942620533782010850000004133207129051721090_);fill:url(#SVGID_00000023960878134838587660000015686993117487375768_);}
	
		.st18{clip-path:url(#SVGID_00000044875032856625115970000016206847629826657959_);fill:url(#SVGID_00000164486749417409158590000016060255329289989291_);}
	
		.st19{clip-path:url(#SVGID_00000057111853425111309750000017063905369912688047_);fill:url(#SVGID_00000106845783496743785600000009979163790859391412_);}
	
		.st20{clip-path:url(#SVGID_00000032637194197675060900000007560605108450399402_);fill:url(#SVGID_00000044176288706275939490000004498093582908536219_);}
	
		.st21{clip-path:url(#SVGID_00000035516465225168931600000013517206268927699645_);fill:url(#SVGID_00000147189755818843014620000016956323039608699542_);}
	
		.st22{clip-path:url(#SVGID_00000150802871482964914370000010079757000559664804_);fill:url(#SVGID_00000022539590614396903620000013763913179206670723_);}
	
		.st23{clip-path:url(#SVGID_00000097460265524059957800000006189897629379840404_);fill:url(#SVGID_00000004526408031202444360000015114862434243172028_);}
	
		.st24{clip-path:url(#SVGID_00000030445619363380362110000016684910573857970081_);fill:url(#SVGID_00000025424254987798093850000017253099353789948850_);}
	
		.st25{clip-path:url(#SVGID_00000086650484939980660780000009217870610804769668_);fill:url(#SVGID_00000126286261874310315800000008953168308427744644_);}
	
		.st26{clip-path:url(#SVGID_00000147189405508038711930000008433745876581275828_);fill:url(#SVGID_00000092425774343520034280000011412842883106971838_);}
	.st27{fill-rule:evenodd;clip-rule:evenodd;fill:#D9DADA;}
</style>
<g>
	<g>
		<path class="st0" d="M113.7,98.9c-0.3,3.4-1.6,6.5-3.4,9.5c-1.9,3.1-3.7,6.2-4,9.9c-0.2,3.3,0.2,6.6,0.3,9.8
			c0,1.1,0.8,0.7,1.3,0.5c2.9-0.7,5.7-1.5,8.8-1.2c1.2,0.1,2,0.3,2.2,1.8c0.8,6.2,1.9,12.4,2.7,18.5c1.8,13.2,6.2,25.5,11.1,37.8
			c1.3,3.3,2.6,6.7,3.3,10.7c0.7-3.5,0.9-6.7,1.1-9.8c0.1-3.2,0.2-6.4,0.3-9.7c0.1-3.2,0-6.4,0-9.7c0-3.2,0-6.4,0.1-9.7
			c1.3,3.3,1.8,6.9,2.2,10.4c0.7,7.1,0.8,14.2,0.4,21.3c-0.5,8.1-2.5,15.9-4.3,23.8c-3.7,15.4-8.7,30.4-13.3,45.5
			c-1.4,4.6-2.1,9.2-1.5,14c0.4,3.5-0.8,6.6-3.2,9.2c-1.6,1.8-3.4,3.5-4.3,5.8c-0.3,0.7-0.6,1.5-0.8,2.3c-0.6,2.9-0.5,2.9-3.7,2.5
			c0.3-1.2,0.9-2.4,0.5-4.1c-1.1,1.4-2.2,2.8-3.4,4.3c0.1-4.7-0.2-8.9-4.3-12.4c1.5,4.3,1.9,8.2-0.2,12c-0.2-4.5-0.9-8.7-5.1-12.1
			c1.7,4.1,1.7,7.8,0.7,11.7c-1.2-4.4-3.6-7.4-8.7-7.9c3,2.1,5.4,4.3,5,8.6c-1.7-3.5-3.8-5.7-8.1-5.2c2.7,1.2,4.3,3,4.8,5.6
			c-1.6-2-3.7-2.9-6.5-3.6c1.4,1.1,2.7,1.7,3,3.6c-2.5,0-4.9-0.1-7.2,0c-5.1,0.3-10.1,0.6-15.2,1c-0.7,0-1.6,0.1-1.6,0.9
			c0,1,1,0.9,1.7,0.9c8.8,0.5,17.7,0.7,26.6,0.8c42.7,0.8,85.4,0.2,128.1,0.3c21.7,0.1,43.4,0,65.1-0.1c7.5,0,15-0.1,22.5-0.3
			c6.1-0.1,12.3-0.3,18.4-0.4c1.5,0,3.1-0.2,4.6-0.4c0.5-0.1,1.3-0.1,1.2-0.9c0-0.7-0.6-0.8-1.2-0.9c-3.2-0.3-6.4-0.6-9.6-0.8
			c-0.9-0.1-1.7,0-2.6-0.2c-1-0.2-2.4,0.4-3-0.4c-0.5-0.7,0-2,0-3.1c0.2-9.1-1.6-17.8-3.7-26.5c-2.3-9.8-4.6-19.7-6.2-29.7
			c-1.1-7.3-2.1-14.7-2.4-22.1c-0.1-2.7-0.3-5.4-0.4-8.6c-2.5,4.5-4.8,8.7-7.1,12.8c-4.6,8-9.5,15.8-13.8,24c-1,2-2,4.1-3.1,6.2
			c-0.6,1.1-0.5,1.9,0.4,2.9c5.8,6.9,9.4,14.8,10.8,23.7c0.5,3.2-0.5,6-2.6,8.4c-1.1,1.2-2.2,2.4-3.2,3.7c-1.6,2-2.4,4.3-2.5,6.9
			c0,0.7,0.3,1.5-1,1.6c-1.2,0-1.6-0.3-1.7-1.5c-0.1-1.6-0.9-3-2.2-4.5c0.4,2.1,0.5,3.9,0.2,6.2c-1.3-1.9-1-3.9-2-5.7
			c-1.2,1.6-1.2,3.4-1.3,5.3c-1.2-0.8-1-2.3-1.9-3.1c-0.5,0.5-0.3,1.1-0.3,1.6c0,0.9,0.1,1.7-1.3,1.6c-1.1-0.1-1.7-0.1-1.8-1.5
			c-0.3-4.7-1.5-9.3-1.5-14c0.1-10.7,3.2-20.7,7.3-30.5c4.3-10.3,10.2-19.7,15.8-29.2c5.2-8.8,10.5-17.6,15.1-26.7
			c1.8-3.6,3.4-7.3,4.7-11.1c0.3-0.9,0.6-1.7,1.1-3c1,2.3,1.2,4.4,1.4,6.4c0.8,7.3,0.8,14.6,1,21.9c0.3,8.6,0.6,17.3,3.1,25.7
			c1.6,5.6,3.7,11.1,8.3,15c0.6,0.5,0.6,1.2,0.6,1.8c-0.1,2,0.1,4,0.5,5.9c1,3.8,3.1,6.7,6.8,8.5c0.3-1-0.8-1.7-0.4-2.8
			c1.2,1.8,2.6,3.2,4.4,4.1c0.5-0.8-0.3-1.6,0-2.6c2.8,5.6,7.1,7.4,12.9,5.9c-5-1.4-6.2-5.3-6.8-9.7c-0.2-1.5-0.3-3-0.6-4.4
			c-1.3-5.9-5.3-9.7-11.3-9.9c-3.1-0.1-4.7-1.5-6.1-4c-2.8-5-4-10.5-4.6-16.1c-1.1-10.1-0.9-20.2-0.6-30.2
			c0.4-16.3-1.6-32.4-6.8-47.9c-5.4-15.9-13.4-30.2-25.7-41.8c-8.6-8.1-18.7-13.5-30.1-16.6c-7.7-2.1-15.5-3.1-23.4-3.7
			c-2.3-0.2-4.6-0.3-6.9-0.4c-1.2,0-1.8-0.4-1.8-1.8c0-1.4-0.2-2.8-0.2-4.3c0-1-0.4-1.2-1.2-0.9c-1.7,0.7-3.3,1.8-3.4,3.8
			c-0.2,5-2.8,7.5-7.6,8.5c-3.5,0.7-5.9,3.2-6.5,6.9c-0.8,5.2-4.2,7.6-9,8.5c-3.3,0.7-6.2,1.9-8.2,4.9c-1.1,1.8-1.2,3.9-1.6,5.8
			c-1,4.7-3.8,7.1-8.6,7.5c-2.6,0.2-4.6,1.3-6,3.6c-3,4.7-5.8,5.6-11,3.7c-1.4-0.5-2.8-1-4.3-0.6c-1.6,0.4-2.8,1.3-3.3,2.9
			c-0.4,1.2-0.9,2.4-1.6,3.6c-3.2,5.4-10.3,5.4-13.4-0.1c-0.7-1.2-1.2-1.6-2.5-1.2c-2.4,0.7-4.9,0.9-7.3-0.1c-4.6-2-5.9-6-6.3-10.5
			c-0.3-4,0.5-7.9,1.6-11.7c1.6-5.4,3-10.8,4.3-16.3c0.1-0.4,0.3-0.8,0.5-1.2c0.2,6.4-0.3,12.7-1.2,19.1c-0.4,3.2-1.1,6.3-0.9,9.6
			c0.1,1.7,0.5,3.2,1.4,4.6c1.6,2.5,5.6,3.4,8,1.7c0.5-0.3,0.3-0.8,0.3-1.2c-0.5-7.1-0.3-14.2-0.6-21.3c-0.3-8.2-0.5-16.5,0.4-24.7
			c0.1-1.3,0.2-2.7,0.3-4.1c0.8,0.2,0.5,0.8,0.6,1.2c0.8,6.7,1.4,13.4,1.8,20.1c0.4,6.2,0.8,12.3,1.2,18.5c0.2,3.7,0.4,7.4,0.7,11.1
			c0.1,1.8,0.8,3.4,2,4.7c1.7,1.7,3.4,1.6,4.8-0.4c1.6-2.3,1.7-5,1.6-7.7c-0.4-9.9-2.9-19.4-4.5-29.1c-1.1-6.5-1.8-13-1.9-19.6
			c1,3.4,1.8,6.7,2.7,10.1c2.2,8.3,4.4,16.7,5.8,25.3c0.6,3.9,0.9,7.9,1.6,11.8c0.2,1.1,0.2,1.5,1.3,0.9c1.8-1.1,3.8-0.7,5.9-0.9
			c-1.4-5.6-3.5-10.9-5.4-16.2c-3.8-10.4-7.2-20.8-7.5-32c0-1.3,0-2.6,0.2-4c3.2,9.7,6.3,19.4,9.5,29.1c0.2-2-0.1-3.9,0.4-5.8
			c1.3-5.3,6.5-7.9,11.2-5.6c2.4,1.2,3.7,3.7,3.4,6.7c-0.3,2.9-1.9,5-4.5,5.7c-1.6,0.5-2.9,0-3.9-1.3c-0.4-0.6-0.5-1.3-0.1-1.9
			c0.3-0.5,0.8-0.6,1.5-0.4c1.8,0.5,3.2-0.4,3.6-2.1c0.4-1.9-0.8-3.6-2.6-3.8c-2.7-0.4-5.2,1.5-5.9,4.5c-0.9,3.7-0.5,7.4,0.8,10.9
			c1.1,2.9,2.6,5.6,4.2,8.3c1.2,2.1,2.7,4,3.7,6.5c1.7-2.3,3.7-4,6.4-4.7c-1.7-3.8-3.3-7.5-5-11.2c-0.1-0.2-0.1-0.5-0.3-1.2
			c2.8,3.2,4.9,6.4,6.6,9.9c0.4,0.8,0.3,2.1,1.7,2.1c1.5-0.1,2.8-0.7,3.5-2.1c0.8-1.8,1.2-3.7,0.7-5.6c-1.1-5.1-2.3-10.1-4.2-15
			c-2.1-5.5-5.6-10.2-8.9-15c-0.3-0.4-0.6-0.8-0.8-1.2c-0.1-0.1,0-0.2,0-0.5c5,4.7,10.8,8.2,15.6,12.9c2.5,2.5,4.7,5.3,6.3,8.5
			c0.5,0.9,0.9,1.4,2,0.7c0.4-0.3,0.9-0.4,1.4-0.5c2.3-0.8,2.3-0.8,0.9-2.8c-2.9-4-6.4-7.4-10.1-10.6c-0.5-0.5-1.1-1-1.5-1.6
			c6.2,2.5,11.2,6.4,14.2,12.5c0.7,1.5,1.4,1.1,2.2,0.4c1.7-1.6,1.8-3.9,2.4-5.9c0.3-1.2-0.9-1.8-1.5-2.6
			c-3.7-4.5-8.1-8.1-12.7-11.6c-1.1-0.8-2.3-1.6-3.1-3.1c2.2,0.1,4,1,5.8,1.9c5,2.6,9.4,5.9,13.2,10.1c0.3,0.4,0.7,1.8,1.5,0.7
			c0.6-0.8,3-0.9,1.2-3.1c-3.8-4.7-8.3-8.6-12.9-12.5c-3.2-2.6-6.3-5.4-9.3-8.3c1.7,0.8,3.4,1.7,5.2,2.5c4.7,2,9.8,3.1,14.8,4.1
			c4.1,0.9,8,2.3,11.3,4.9c0.6,0.5,1.1,0.6,1.4-0.1c0.3-0.8,2.1-1.1,0.9-2.5c-2.8-3.3-6.3-5.1-10.4-6.1c-2.5-0.6-5.2-0.5-7.7-1.3
			c-0.6-0.2-1.2-0.2-1.7-0.8c1.8-1,3.7-1.2,5.9-1.5c-2.4-1.1-4.5-2.1-6.5-3.1c0.5-1.1,1.1-1.5,2.2-1.2c7.4,2.3,14.3,5.5,19,11.9
			c1.2,1.7,2,1.8,3.8,1.2c1.9-0.6,1.8-1.4,1.1-2.8c-3.6-7-9.2-12.2-15.7-16.5c-2-1.3-4-2.7-5.8-4.2c4.4,0,8.2,1.5,11.6,4
			c3.5,2.5,6.6,5.4,9.2,8.8c1.9,2.6,2.5,2.8,4.7,2.1c2.2-0.7,3-2.5,3.2-4.6c0.4-3.5-0.2-6.8-1.5-10c-6.1-15.6-15.8-28.2-30.2-37
			c-10-6.1-20.9-7.3-32.2-5.1c-10.1,1.9-19.2,6.3-28.2,11c-9.9,5.2-18.9,11.8-28.9,16.8c-0.9,0.5-1.8,1.1-2.6,1.7
			c-2.6,2.1-2.7,4.7-0.4,7c3.1,3,6.9,4.1,11.1,3.9c5.7-0.3,9.6-3.5,12.8-7.9c2-2.7,3.6-5.6,4.7-8.8c0.1,4-1.2,7.6-3.3,10.8
			c-5.4,8.1-15.7,11.2-24.5,5.4c-0.6-0.4-1.1-0.8-1.7-1.1c-2.3-1.2-3.5-3.1-3.4-6c-2.6,1.6-4.3,3.7-6.3,5.7c1.8-0.2,3.4-0.4,5.1-0.2
			c3.2,0.3,5.9,1.7,7.9,4.3c3.8,4.7,11.2,6.4,16.8,4c4.2-1.8,7.2-5,9.4-8.9c4-7,6.7-14.4,8.3-22.8c0.8,2.2,0.6,4,0.5,5.8
			c-0.4,8.4-2.9,16.1-8.2,22.7c-4.4,5.4-10.1,8-17.2,7c0,0.7,0.6,0.8,1,1.1c3.8,2.8,6.9,6.1,7.8,10.9c0.8,4.5-0.5,7-4.5,9.2
			c2.1,2.5,2.9,5.2,2,8.4c-0.9-6.4-6.6-8-10.9-11c1.5,0.2,3.1,0.4,4.6,0.7c4,0.6,7.1-2.1,5.8-7.2c-1.5-5.9-5.4-10-10.6-13
			c-1.1-0.6-2.3-1.2-3.5-1.7c-1.3,6.4-5.3,9.8-12.3,9.5c3.6,1.9,5.7,5.1,9.1,6.7c2.4,1.2,4.7,1.4,7-0.4c2-1.6,2.1-4.8,0.2-6
			c-0.2-0.2-0.6-0.3-0.8-0.3c-0.5,0.1-0.2,0.4-0.2,0.7c0,1.8-0.8,2.8-2.1,2.6c-1.5-0.2-2.6-1.8-2.4-3.4c0.4-2.3,2.7-3.8,5.2-3.3
			c3,0.6,5,3.1,5.3,6.6c0.3,3.1-1.6,6.3-4.4,7.3c-4.5,1.6-8.1-0.2-11.4-3c-1.8-1.5-3.4-3.3-5.2-4.8c-4.2-3.7-10.5-3.1-13.6,1.1
			c8.9-2,13.9,3.1,12.6,8.9c4.4-1,8.4,0,12.1,2.3c2,1.3,3.7,3,4.7,5.3c-1.7-1-3.2-2.4-5-3.3c-5.5-2.5-10.9-2.6-16.1,0.6
			c-4.1,2.5-8.5,3.2-13.5,1.5c1.5,2.2,2.5,4.2,1.6,6.6c-0.5,1.2-1,2.4-2.5,2.7c-1.5,0.3-2.6-0.4-3.6-1.5c-2-2.4-2.5-5.5-3.2-8.4
			c-0.2-0.7-0.3-1.4-0.5-2.6c-1,3.5-1.3,6.6-0.8,9.8c0.5,2.8,0,4-2.4,5.3c0.1-1.6-0.1-3.1-0.5-4.8c-1.3,1.2-2,2.6-1.9,4.4
			c-1.8-1.9-2.1-3.4-0.7-5.6c1.9-3,3.8-6,5.3-9.8c-2.3,2.2-4.3,4.1-6.4,6c-0.9,0.8-1.8,1.7-3.1,2c-1.4,0.4-2.1-0.1-2.5-1.4
			c-1.1-3.3,0.5-6.4,4.1-7.8c0.7-0.3,1.4-0.5,2.3-0.7c-1.2-0.8-2.6-0.7-3.5-1.8c-0.7-1-1.7-1.8-2.1-3.3c1.9,0.5,3.5,1,5.1,1.3
			c1.3,0.3,1.6,0,2-1.7c-0.7,0.9-1.5,0.8-2.2,0.6c-0.8-0.2-1.6-0.5-1.9-1.4c-0.4-1.1-0.3-2.2,0.9-2.9c1.2-0.7,2.5-0.1,3.4,1.7
			c0.4-1.8,0.5-3.6,1.2-5.3c-1.4,0.3-2.8,0.7-3.4-1c-0.4-1.2,0-2.3,1.3-2.7c1.6-0.5,2.5,0.5,3,1.9c0.7-0.4,0.6-1,0.4-1.5
			c-0.3-1-0.6-1.9-1.2-2.7c-0.9-1-1.7-2.6-3-2.5c-0.9,0.1-1.1,1.9-1.6,2.9c-0.9,1.8-1.7,3.7-2.8,5.4c-6.4,9.6-5.4,19.4-0.8,29.3
			c0.4,0.9,0.9,1.8,1.3,2.7c1.2,2.6,2.3,5.3,2,8.8c3-3.2,6.2-5.4,9.8-7.1c1.7-0.8,3.5-1.6,5.3-2.3c2.8-1.2,4.6-3.4,6.5-6.3
			c-1,5.2-3.7,8.3-8,10c-2.9,1.2-5.6,2.6-8.1,4.5c-6.5,5-9.2,14-1.7,21.6c3.1,3.2,6.1,6.4,7.1,10.9c0.5,2.3,1,4.7,0.1,7.5
			c-0.9-6.5-4.5-11.1-8.5-15.4c-1.6-1.7-3.2-3.5-4.3-5.5c-1.8-3.3-1.9-6.7-0.8-10.3c0.1-0.5,0.6-0.9,0.3-1.7
			c-2.6,3.8-5.7,7-8.9,10.2c1.1-3.7,2.9-7.1,5.6-9.6c5.1-4.8,2.8-11.9-0.9-16.4c1.2,4.2,2.8,8,2.1,12.5c-1.3-2.5-1.9-5.1-2.8-7.9
			c-1.2,3.7-2.3,7-3.3,10.4c-2.5,8.5-5.1,16.9-6.6,25.6c-1.2,7.2-2.2,14.4-3.2,21.6c-0.4,3.3-0.3,6.7-3.4,9c-3.2,2.4-6.7,3.7-10.6,4
			c-5.1,0.3-9.8-1.1-14.2-3.7c-0.9-0.5-2-1.7-3.1-0.5c-1,1.2,0.1,2.2,0.8,3.1c5.7,7.9,13.6,12.5,22.9,14.7c1,0.2,1.9,0.4,2.9,0.6
			c2.5,0.5,2.6,0.5,2.4,3.2c-0.3,5.5-1.1,10.9-1.1,16.5c0,8.8,0.3,17.6,3,26c3.2,10.2,8.7,18.8,18.6,23.8c10.1,5,20.3,5.1,30.2-0.6
			c10.6-6.1,14.7-20.4,8.8-30.9c-2.6-4.7-6.5-7.8-12.2-7.7c-5.3,0-8.8,4.8-7,9.3c1.1,2.9,3.6,3.8,6.2,2.1c0.9-0.6,1.5-0.3,2.1,0.3
			c1.5,1.7,1.7,3.7,1.1,5.8c-1.4,5.7-7.2,9.2-13,8.1c-7.1-1.4-12.4-7.2-14-14.9c-1.7-8.1-0.7-16,1.2-23.9c2-8,4-15.9,6-23.9
			c0.2-0.7,0.4-1.2,1.1-1.6c10.3-6.3,17.5-15.4,22.6-26.2c0.5-1,1-2,1.4-3c1.1-2.7,1.9-5.3,4.9-7c2.9-1.6,3.7-5.1,3.8-8.5
			c0.1-3.7-0.3-7.3,0-11c0.3-3.4,1.3-6.5,3.4-9.3C109.4,105.9,111.8,102.6,113.7,98.9 M209.3,291.9c-1-3.9-0.8-7.1,0.6-12.1
			c-3.7,3.4-5,7.4-5,12.1c-1.9-3.8-1.6-7.6-0.5-11.4c-3.7,3.2-4.4,7.3-3.6,12.1c-1.5-1.3-2.1-3.2-3.7-4.5c-0.5,1.6,0.3,2.9,0.4,4.3
			c-1.6-0.3-2.4-1.7-3.5-2.7c-0.2,0.5,0,0.9,0.2,1.2c0.2,0.7,0.2,1.5-0.9,1.3c-0.8-0.1-2.3,0.8-2.3-0.9c0.1-4-1.4-7.5-3.3-10.9
			c-1.7-3.1-2.3-6.4-1.8-9.9c0.4-3.3,0.1-6.4-1.1-9.5c-1.4-3.9-2.9-7.8-4-11.8c-2.7-9.9-4.7-19.9-5.8-30.3c-1.5,1.6-2.6,3.3-3.8,4.9
			c-6.1,8.7-11.1,18-15.5,27.7c-0.6,1.4-0.6,2.5,0.1,4c2.6,5.1,5.3,10.2,6.5,15.9c0.7,3.4,0,6.4-2.4,8.9c-1,1.2-2.1,2.3-3.1,3.4
			c-1.4,1.5-2.3,3.2-2.8,5.2c-0.3,1,0.1,2.5-0.8,3c-0.9,0.5-2.2,0.1-3.3,0.2c-1.2,0.1-1.5-0.5-1.5-1.5c-0.1-1.7-0.3-3.3-0.7-4.9
			c-1.4-6.4-2.2-12.8-0.8-19.3c1.3-6.3,3.8-12.2,6.3-18c6.7-15.1,15.8-28.5,26.4-41.1c1.3-1.5,2.2-1.6,3.9-0.7
			c14.3,7.2,29.4,10.9,45.4,10.8c1.2,0,1.9,0.4,2.4,1.5c2.3,5.3,5.7,9.9,9.6,14.1c1.6,1.7,3.3,3.4,5.4,4.8c1-5.5,0.3-10.6-1.2-16.1
			c2,2,3,4.2,3.6,6.4c1.9,6.3,1.5,12.6,0.2,18.9c-1.7,8.1-4.6,15.9-7.1,23.8c-1.4,4.4-3.5,8.3-6.9,11.5c-2.7,2.5-5.1,5.3-5.2,9.3
			c0,0.6-0.4,0.7-0.9,0.7h-9.5c0.8-1.2,1.8-2,2.7-3c-2.4,0.4-4.3,1.6-6.1,3.8c0.6-3,2.2-4.8,4.8-6.1c-2.1,0-3.7,0.3-5,1.4
			c-1.3,1-2.1,2.3-3.1,3.9c-0.2-4.1,2.1-6.3,4.8-8.4C212.9,284.3,210.5,287.3,209.3,291.9 M250,137.1c2.7,1.5,4.3,3.8,4.6,7
			c0,0.5,0.2,0.8,0.8,0.8c4.8,0.6,7.5,3.8,9.3,7.9c2.6,5.9,1.5,11.9,0,17.8c-0.2,0.7-0.5,0.9-1.2,0.5c-2.2-1.1-4.5-1.6-6.8-2.4
			c-5.9-2-9.9-5.6-11.3-11.9c-0.5-2.1-0.3-2.3,1.8-2c0.9,0.2,1.2,0.8,1.5,1.5c2.6,5.3,7.5,7.1,12.8,8.6c0-1.7-0.1-3.2-0.7-4.7
			c-1.7-4.3-5.9-5.6-9.5-7.5c-0.2-0.1-0.5-0.1-0.7,0.1c-2,1.6-4.3,1.6-6.7,1.4c4.2,13.4-1.9,18.7-10.1,23.2
			c-0.4-2.8-1.9-5.1-3.4-7.3c-1.1-1.7-2.1-3.5-2.8-5.4c-1.3-3.7-0.6-7.4,0.4-11.2c-2.1,2.2-4.7,2.8-7.5,3
			c-5.9,0.4-10.8-2.6-16.1-4.5c-0.6-0.2-0.5-0.5-0.2-1c3-6,6.7-11.1,14.2-12.3c-1.8-1-3.3-2.1-4.6-3.5c-1.3-1.4-2.5-2.9-3.8-4.3
			c-2.6-2.9-6.9-4-9.9-2.6c-1.1,0.5-2.2,1.2-1.2,2.7c0.5,0.8,0.1,1.4-0.4,2c-1.2,1.4-3.3,0.9-4.3-0.9c-1-2-0.9-4,0.3-5.8
			c1.5-2.3,3.8-3.1,6.4-2.9c2.8,0.2,5.3,1.3,7.6,3.6c-0.6-2-1-3.5-1.5-5c-0.3-1.1-0.3-1.6,1.1-1.3c1.1,0.2,2.2,0.1,3.3-0.2
			c3.2-0.7,6.4-1.5,9.7-1.3c5.3,0.4,9.6,2.7,12.5,7.3c0.4,0.6,0.8,1.2,0.3,2c1.3-0.3,2.3-0.6,3.1-0.8c-1.4-2.1-2.1-4.5-2.7-6.9
			c-0.2-1,0.2-1.9,1.3-2.2c1.2-0.4,1.7,0.5,2.1,1.4c0.7,2,0.8,4.1,0.9,6.2c0.1,2,0,2,2.1,2c-0.4-0.4-0.4-0.9-0.4-1.4
			c0.3-6.2,2.8-11.1,8.3-14.2c2.4-1.3,5-2,7.4-3.6c0.3,1.3,0.7,2.6,1,3.8c1.1,4.5,2.5,9,1.3,13.7C257,131.4,254.4,134.9,250,137.1
			 M291.8,112.6c1.2,1.5,1.6,3.2,1.8,4.9c0.4,3.8-0.8,7.4-2.4,10.7c-3,6.1-4.4,12.6-5,19.3c-0.9,9-1.9,17.9-5.5,26.3
			c3.6-2.6,7.2-5.2,10.7-7.9c2.4-1.8,4.5-3.9,6.2-6.3c2.7-3.8,4.2-8,3.9-12.7c-0.1-1.3,0.3-2.3,1.6-2.6c1.5-0.3,1.8,1.1,2,2.1
			c0.2,0.8,0.4,1.6,0.4,2.4c0.3,8.2-2.8,14.7-9.4,19.5c-3,2.2-6.3,3.6-9.5,5.4c-3.1,1.7-6,3.6-8.6,6.1c0.3,0,0.4,0.1,0.5,0.1
			c0.5-0.3,1-0.5,1.4-0.8c3.5-2.1,7.3-3.8,11.3-4.5c2.9-0.5,5.8-0.2,8.5,1.3c2.8,1.6,3.8,5.3,2,7.5c-0.8,0.9-1.7,1-2.7,0.6
			c-0.8-0.3-1.2-1.1-0.9-1.8c0.8-1.9-0.4-2.2-1.7-2.4c-1.1-0.2-2.4-0.3-3.5-0.2c-9.9,1-17.4,5.9-22.2,14.6
			c-5.2,9.3-6.4,19.8-7.6,30.1c-1,8.6-1.2,17.3-2.6,25.8c-0.9,5.5-1.9,11-3.5,16.4c-0.1-0.8-0.1-1.6-0.1-2.4
			c0.9-10.4,0.9-20.8,1.3-31.1c0.2-6.1,0.2-12.1,0.6-18.2c0.6-9.5,0.2-18.8-2.6-27.9c-0.9-2.9-2-5.7-4.3-7.9c-1.3-1.3-2.2-1.3-3.4,0
			c-0.8,0.9-2,0.7-2.8-0.4c-1.5-2.2,0.2-5,3.2-5.2c2.3-0.1,4.2,1,5.7,2.6c3.4,3.5,4.8,8,6,12.6c1,4.2,1.6,8.4,2,13.1
			c0.3-0.6,0.4-0.8,0.5-1.1c1.9-5.8,4.2-11.5,7.3-16.8c2.9-5,5.5-10.1,6-16c0.6-7.2,0.2-14.2-4-20.5c-0.3-0.4-1-0.8-0.5-1.4
			c0.5-0.5,1.1-0.7,1.9-0.6c1.6,0.4,2.5,1.6,3.1,2.9c1.2,2.6,1.5,5.5,1.9,8.3c0.6,4,0.1,8-0.3,12c0.3-0.4,0.5-0.9,0.6-1.3
			c2.8-9.3,3-18.7,0.5-28.1c-1.2-4.3-3.3-8.3-4.4-12.6c-0.5-2.1-0.6-4.3,0.2-6.4c0.4-1.1,1.2-1.9,2.5-1.8c1.3,0,1.8,0.9,2.2,1.9
			c0.1,0.3,0.3,0.7,0.3,1.1c1.6,6.6,3,13.1,3.5,19.9c0,0.5-0.1,1.1,0.5,1.4C285.9,132.1,291.8,123.1,291.8,112.6 M150.4,219.8
			c2.6-3.4,5.5-6.3,8.7-9c5.1-4.3,9.9-8.8,14-14c3.6-4.7,5.7-9.8,5.5-15.8c0-0.9-0.2-1.6-1.4-1.3c-1.1,0.3-1.7-0.5-2.1-1.3
			c-0.4-0.9-0.2-1.8,0.4-2.6c1.6-1.8,4.4-1.3,5.5,1.1c0.7,1.5,0.8,3.2,0.7,4.9c-0.1,1.8-1,3.5-1.1,5.4c1.6-2.3,2.9-4.8,3.8-7.4
			c1.2-3.4,1.9-6.9,1.2-10.6c-0.4-2.1-1.2-4-3-5.4c-1.4-1.1-3.2-1.2-4.2-0.2c-0.6,0.6-1.1,1-1.9,0.6c-0.9-0.4-1.2-1.2-1.3-2.1
			c-0.1-1.9,1.6-3.8,3.6-4c2.9-0.3,5,1.1,6.5,3.5c1.5,2.4,2.3,5,2.3,7.9c1-3.8,1.2-7.5,0.3-11.3c-0.4-1.8-1.1-3.5-2.4-4.7
			c-0.8-0.8-1.9-1.7-2.7,0.2c-0.6,1.5-1.8,1.3-2.9,0.5c-0.9-0.6-1.3-1.6-1.4-2.7c-0.1-1.8,0.9-3.6,2.5-4.4c2-1,3.9-0.5,5.5,0.9
			c2.2,1.8,2.9,4.4,3.4,7c0.3,1.5,0.5,3.1,0.8,4.7c0.3-1.2,0.3-2.4,0.3-3.6c-0.2-5.2-1.3-10.1-4.9-14.1c-2.5-2.8-5.6-4.4-9.5-4
			c-0.7,0.1-2,0-1.9,1.3c0.2,1.7-0.4,2.7-2.1,2.8c-1.5,0.1-2.6-1.3-2.8-3c-0.1-1.8,0.3-3.4,1.4-4.9c2-2.6,4.7-3.8,7.9-3.8
			c6.4,0,10.9,3.2,14,8.5c3.8,6.5,4.2,13.8,2.9,20.9c-3.6,19.8-13.8,35.8-29.6,48.3c-3.8,3-7.8,5.7-11,9.4
			c-4.4,5-8.2,10.4-11.9,15.9c-1.2,1.8-2.5,3.5-3.3,5.8c1.9-1.9,3.5-3.6,5.3-5.2c1.6-1.4,3.3-2.7,5.5-3c2.6-0.3,4.7,1.7,4.3,4.1
			c-0.2,0.9-0.7,1.6-1.6,1.9c-0.8,0.3-1.6,0.2-2-0.5c-0.9-1.7-2.1-1.2-3.3-0.6c-1,0.5-2.1,1.1-3,1.8c-5.9,4.4-10.5,9.9-13.3,16.9
			c-1,2.4-1.8,4.8-2.5,7.2c-0.3-2.6,0-5,0.6-7.5c1.5-6.6,5.3-12.1,8.5-17.8c3.1-5.5,6.5-10.8,8.6-16.8c1.4-3.9,1.8-7.9,1-12
			c-0.5-2.7-2-4.9-3-7.4c-1.3-3.1,0.4-6.4,3.5-6.8c1.6-0.2,3,0.4,3.6,2c0.6,1.4-0.2,2.5-1.5,3.2c-0.8,0.4-0.9,0.8-0.4,1.6
			c1,1.9,1.4,3.9,1.6,6.1C152.7,210.9,151.9,215.4,150.4,219.8 M171.3,58.1c-2.1,1.9-3,3.8-3.6,5.9c-1.4,5.2-4.6,9.4-7.5,13.7
			c-0.3,0.5-0.8,0.9-1.1,0.2c-1.2-2.4-3.5-4-4.7-6.4c-2.7-5.2-1.1-10.2,4.3-12.6c2.1-0.9,4.3-1.7,6.4-2.6c1-0.4,2.1-0.9,2.8-2.2
			c-2.6,0.5-5,0.9-7.3,1.3c-5.8,1.1-11.1,0.7-15.4-3.9c-0.8-0.8-0.7-1.3-0.2-2c1.5-2.2,3.5-3.4,6-4c4.5-1.1,8.2,0.7,11.8,3.1
			c1.7,1.1,3.2,2.4,5.3,3.2c-0.2-0.9-0.7-1.2-1.1-1.6c-1.3-1.1-2.6-2.2-3.8-3.5c-4.7-4.9-3.6-12.1,2.2-15.2c0.6-0.3,1.2-0.6,1.9-0.1
			c2.3,1.8,4.3,3.7,4.9,6.8c0.6,2.8-0.1,5.5-0.4,8.3c0,0.4-0.4,1.1,0.3,1.2c0.5,0.1,1-0.2,1.1-1c0.1-1,0.4-2.1,0.6-3.1
			c0.7-3.9,3.3-7,4.5-10.7c0.3-0.9,0.8-0.5,1.2-0.2c2.6,1.4,3.7,3.8,3.2,7.1c-0.5,3.5-2.3,6.3-4.8,8.8c-0.3,0.3-0.9,0.5-0.4,1
			c0.3,0.3,0.7,0.1,1-0.1c5-2.9,9.8-4.6,16.9-0.1c0.8,0.5,1.2,0.8,0.6,1.9c-3.3,6.2-8.9,8.4-15.6,6.2c-0.9-0.3-2-1.3-2.7-0.2
			c-0.6,1,0.7,1.7,1.4,2.3c3.8,4.1,4.7,8.5,2.3,13.4c-1,2-1,3.6,0.6,5.2c0.4,0.5,0.8,1,1.4,1.8c-4.5-1.5-8.7-2.9-11.4-6.7
			C168.5,68.6,169.5,63.6,171.3,58.1 M162.9,190c2.6-4.2,5.7-12.7,6.2-17.1c0.5-5.2,0.8-10.4-1.6-15.3c-1.7-3.5-4.2-6.1-8.1-7
			c-3.3-0.7-6.6,1.7-7,5c-0.3,2.6,1.6,4.3,4,3.4c0.9-0.3,1.7-0.3,2.3,0.5c0.6,0.7,0.7,1.5,0.2,2.4c-1,2-3.7,3.1-6.2,2.6
			c-6.4-1.3-9.7-9.4-6.5-15.6c3.7-7.2,13.7-9.1,19.9-3.9c3.6,3,5.4,7,6.3,11.5c1.9,9.7,0.3,19-3.5,27.9c-3.5,8.3-8.6,15.8-12.9,23.6
			c-0.2,0.4-0.4,0.9-1.1,0.8c0.4-2.1,0.8-4.2,1.3-6.3c1-4.3,1.5-8.5,0.2-12.8c-0.5-1.4-1.2-2.6-2.9-2.8c-0.6-0.1-1.2,0-1.4,0.8
			c-0.1,0.8-0.4,1.5-1.4,1.4c-0.9-0.1-1.4-0.6-1.8-1.4c-1.1-2.3,0-5.1,2.4-6c2.7-1.1,5.8,0.4,7,3.3c0.9,2,1.1,4.2,1.3,6.4
			c0.9-3.4,0.8-6.7-0.3-10c-1.2-3.5-3.4-6.1-7.2-7.1c-0.8-0.2-1.6-0.2-2.3,0.4c-0.6,0.5-1.2,1.2-2.1,0.5c-0.9-0.6-1.1-1.5-1-2.4
			c0.2-1.7,1.1-2.7,2.6-3.3c2-0.8,3.9-0.9,6-0.2c3.7,1.3,5.8,4.1,7.1,7.6C163.7,181.1,163.8,185.3,162.9,190 M216.7,203.4
			c-1.5-1.2-3.2-2.3-4.5-3.8c-7.7-8.2-11.8-17.9-11.3-29.3c0.1-3.3,0.6-6.5,2.3-9.5c1-1.7,2.9-2.4,4.2-1.5c1.8,1.1,1.3,2.6,0.4,3.9
			c-2.6,3.7-2,13.8-0.3,18.1c0.1-0.8,0.1-1.5,0.2-2.2c0.3-4.6,1-9,4-12.7c2.4-3,6-3.9,9.2-2.4c3.1,1.4,4.8,4.8,4.2,8.5
			c-0.5,3-2.8,5.2-5.4,5.2c-2.2,0-3.9-1.5-4-3.5c-0.1-2,0.8-2.8,3.3-3c0.7-0.1,0.6-0.5,0.6-0.9c0-1.4-1.1-2.2-2.7-2
			c-2.8,0.4-3.9,2.6-4.7,5c-1.1,3.4-1.2,6.9-1.1,10.4c0.4,8.8,5.8,18.7,17.7,19.4c5.7,0.3,10.5-1.5,13.6-6.6
			c0.8-1.3,1.2-1.1,2.1-0.4c1.2,0.8,0.6,1.6,0.1,2.4c-2.6,4-6.4,6.5-10.9,7.9c-5.4,1.6-10.8,1-16.1-0.4c-7.3-1.9-13.8-5.3-19-11
			c-0.9-1-1.4-2.1-3-2.4c-1.5-0.3-1.9-2-1.5-3.6c0.4-1.4,1.2-2.2,2.7-2.1c1.6,0.1,2.3,1.1,2.3,2.6c0,1,0.5,1.7,1.1,2.4
			C204.6,197.4,210.6,200.6,216.7,203.4 M256.6,219.3c-0.4-2.4-0.7-4.2-1-6.1c-1-7-3.3-13.5-7.9-18.9c-3.2-3.7-7-6.3-12.1-6.1
			c-1.9,0.1-3.8,0.6-4.9,2.5c-0.4,0.7-1.1,1.9,0.9,1.5c1.1-0.2,2.1,0.3,2.6,1.4c0.6,1.3,0.3,2.5-0.6,3.4c-1,1-2.3,1.6-3.9,1.3
			c-4.9-0.8-7.2-6.3-4.5-10.8c2.8-4.6,7.2-5.6,12.1-5.2c6.9,0.6,11.6,4.6,15,10.3c4.1,6.8,5.5,14.2,5.2,22
			C257.3,216,257.4,217.5,256.6,219.3 M183.9,28.1c0.4-1.1,0.9-2.1,1.2-3.1c1.9-6.1-2-11-8.5-10.4c-7.4,0.6-15.9,6.8-21.1,12.7
			c8.9-4.9,22.3-6.4,25.3-3.3c-12.2,1.6-24.4,3.3-33.8,12.9c0.4-3.4,9.6-21.7,11.3-22.7c0.2,3.8-1,7.2-2.8,10.5
			c0.6-0.4,1.1-0.9,1.5-1.5c1.8-2.4,3.9-4.7,6.3-6.6c5.1-4,10.5-6.7,17.3-5.6c4.1,0.7,7.2,3.5,8,7.1C189.4,22.5,188,25.7,183.9,28.1
			 M257.1,97.7c-2.9,0-5.6,0.8-8.2,2.1c-7.5,3.9-13.3,9.6-17.5,16.9c-1.3,2.3-1.4,2.3-3.8,1.2c-1.1-0.5-1.2-1-0.7-2
			c1-1.9,2-3.8,3.3-5.6c6.6-9,14.6-15.9,26.1-17.7c3-0.5,6,0,8.4,2.1c2.7,2.3,2.6,6.4-0.3,8.1c-1.3,0.8-2.6,0.9-3.8-0.2
			c-1-0.9-0.9-1.8-0.1-2.9c0.6-0.8-0.1-1.4-0.8-1.7C258.9,97.8,258,97.7,257.1,97.7 M285.3,126.7c-0.5-2.3-1.1-4.5-1.9-6.7
			c-1.7-4.5-4.5-7.8-9.6-8.4c-4.2-0.6-7.7,3.3-6.4,7c0.3,0.7,0.6,1.2,1.4,1.2c1,0.1,1.9,0.3,2,1.5c0.1,1.2-0.4,2-1.4,2.6
			c-1.9,1.2-4.7,0.2-6.2-2.3c-3.3-5.7-0.1-14,6.2-16c7.2-2.3,15.5,3,16.7,10.6C286.7,119.7,286.6,123.2,285.3,126.7 M20.4,171.1
			c0.6,0.3,1.2,0.5,1.8,0.8c10.1,4.3,20.5,6.3,31.3,3.3c17-4.6,28.5-15.7,36-31.4c1-2,0.9-2.1,3.1-3c-0.1,0.4-0.2,0.8-0.3,1.1
			c-3,8.4-7.7,15.8-14,22.1c-11.8,11.6-25.6,17.5-42.4,14.5C30.3,177.3,25,175,20.4,171.1 M31.6,172.6c2.8-0.2,5.5-0.1,8.3-0.5
			c5.7-0.8,11.1-2.2,16.3-4.7c10-4.7,17.2-12.2,22.6-21.6c1.2-2.1,2.6-3.2,5-2.5C76.6,162.8,54,178.6,31.6,172.6 M210.5,103.2
			c-0.1-3.9,2.4-7.3,6.3-8.8c6.8-2.7,15.3,0.1,20.7,5.2c0.7,0.7,0.3,1.2-0.2,1.4c-1.2,0.6-1.5,2.5-3.2,2.2c0,0-0.1-0.1-0.1-0.2
			c-2.5-2.6-5.8-3.3-9.3-3.7c-0.3,0-0.7-0.1-0.8,0.2c-0.2,0.4,0,0.8,0.2,1c0.5,0.5,1,0.9,0.8,1.7c-0.2,1-0.7,1.8-1.7,2
			c-0.8,0.2-1.5-0.1-2-0.7c-0.6-0.8-0.9-1.6-0.2-2.6c0.2-0.3,0.7-0.7,0.4-1.1c-0.3-0.4-0.8-0.2-1.2-0.2c-1.4,0.1-2.7,0.5-3.8,1.4
			c-1,0.9-2.3,1.8-1.5,3.6c0.3,0.8,0.5,1.6-0.4,2.1c-1,0.6-1.9,0.5-2.7-0.2C210.7,105.5,210.4,104.3,210.5,103.2 M80.6,126.1
			c-2.7-0.5-3.5,2.7-2.5,4.4c1.7,3.2,6,4.3,9.4,2.4c3.6-2.1,5.5-6.3,4.7-10.5c-0.2-0.9-0.1-1.8-1.5-1.9c-0.9-0.1-1.4-1-1.4-1.9
			c0-1,0.5-1.6,1.3-2.1c0.8-0.5,1.5-0.1,2.2,0.4c0.8,0.6,1.3,1.3,1.8,2.1c4,8.4-1.1,18.4-10.1,18.7c-3.2,0.1-5.8-1.2-7.3-4.1
			c-1.5-2.9-1.7-5.8,0.2-8.6c1.1-1.6,2.8-2,4.6-1.6c1.4,0.2,2.2,1.2,2.7,2.5c0.4,1.3,0.1,2.3-1,3c-0.9,0.6-1.9,0.7-2.8,0.1
			C79.5,128.2,80.2,127.2,80.6,126.1 M284.4,192.3c-3.5,1-6,2.6-7.9,5.1c-0.2,0.3-0.4,1-1.1,0.7c-1-0.6-1.6-2.3-1-3.4
			c2.7-5.6,10.6-9.2,16.7-7.7c2.1,0.5,4,1.4,5.1,3.3c1.1,1.8,1,4.2,0,5.4c-0.7,0.8-1.6,0.9-2.5,0.6c-0.8-0.3-1-1-0.8-1.8
			c0.1-0.3,0.1-0.8-0.1-1.1c-0.5-1.2-3.6-1.8-5.1-1.2c-1,0.4-0.6,1.7-1.4,2.3c-0.7,0.5,0.4,1,0.6,1.5c0.5,1,0.3,1.8-0.4,2.6
			c-0.6,0.6-1.3,0.9-2.2,0.4c-0.9-0.5-1.6-1.5-1.1-2.3C283.9,195.3,283.4,193.8,284.4,192.3 M286.2,211.1c-0.1,2-0.8,4-2.4,5.6
			c-1.7,1.7-4.6,1.9-6.3,0.5c-0.7-0.6-1-1.4-0.8-2.3c0.2-0.7,0.7-1.2,1.3-1c1.4,0.3,1.8-0.5,2.1-1.5c0.3-1.3-0.3-2.3-1.4-2.9
			c-1.9-1-4-0.1-5.2,2.1c-0.3,0.5-0.3,1.1-1.1,1.1c-0.7-0.1-0.9-0.7-1.1-1.2c-1.4-3.1,0.1-6.8,3.4-8.2
			C280.3,200.9,286.2,204.8,286.2,211.1 M254.9,143.9c0.2-0.9,0.9-1.2,1.4-1.5c1.8-0.9,3.7-1.1,5.8-1c0.9,0.1,2.1,0.1,2.4-1
			c0.2-1.1-0.7-1.9-1.6-2.4c-0.5-0.3-1-0.3-1.6-0.5c-2.5-0.6-4.6,0.4-6.7,1.6c-0.5,0.3-1,0.5-1.5,0c-0.4-0.5-0.7-1-0.3-1.7
			c1.4-2.7,5.6-4.8,8.7-4.4c5.2,0.5,8.7,3.9,12,7.5c0.5,0.6,0.4,1-0.3,1.3c-2.2,0.9-4.1,2.3-6.1,3.6c-0.9,0.5-1.8,0.7-2.8,0.4
			C261.2,144.6,258.2,143.6,254.9,143.9 M194.1,44c3.2-4.7,6.3-9.3,11.4-12.1c1.6-0.9,3.2-1.4,5.3-1c-1.5,1.1-2.8,2-4.1,2.9
			c-1.2,0.9-2.5,1.9-3.6,2.9c-1.2,1-2.3,2-3.4,3.1c8-2.8,16.5-1.8,19.8,1.7C210.8,40.3,202.5,42.3,194.1,44 M267.2,240.8
			c0-4.8-0.2-9.2,0.1-13.6c0.1-2.3-0.1-4.9,1.3-7c1-1.5,2.4-1.9,4-1.3c1.7,0.7,2.9,2.6,2.6,4.2c-0.4,1.9-1.4,2.9-3.3,2.8
			c-0.9,0-1,0.2-1.1,1C270.6,231.7,269,236.1,267.2,240.8 M64.3,119.5c-1-1.7-1-3.2-0.6-4.8c0.6-2.4,2.8-4.3,5.3-4.5
			c2.7-0.2,5.6,1.5,6.6,3.9c1.1,2.5,0.6,5.2-1.1,6.9c-1.7,1.6-4.1,1.6-5.5,0.1c-0.7-0.7-0.7-1.6-0.5-2.4c0.2-0.8,1-1,1.7-0.9
			c2,0.2,2.1-1.1,2-2.5c-0.1-1.7-2.1-2.7-4-2.1C65.4,114.1,64.5,116.4,64.3,119.5 M66.8,138c-0.7-0.3-1-0.4-1.1-0.5
			c-4.6-3.8-9.3-7.2-15.8-6.2c-0.8,0.1-0.9-0.3-0.8-1c0.4-2.9,3.6-5.1,6.5-4.3c1.6,0.4,2.8,1.4,4,2.6
			C62.4,131.1,64.3,134.4,66.8,138 M82.1,115.1c2.4,1.5,4.4,3.4,5.6,6c1.3,2.9,0.7,6.2-1.3,7.7c0-1.1,0.4-2.2,0.2-3.3
			c-0.5-2.7-1.5-5-3.4-7c-1.8-1.8-3.5-3.7-4.2-6.3c-0.1-0.4-0.4-1,0.2-1.4c0.4-0.3,0.8,0.2,1.1,0.4c4.1,2.5,7.7,1.4,9.9-2.8
			c0.4-0.7,0.5-1.6,1.3-2.2C92.3,112.6,88.4,116.2,82.1,115.1 M91.3,95.6c1.2-4.2,1.4-9.1,6.4-10.9c4.7-1.8,8.7,0.1,12.6,2.9
			C102.1,85.9,96,88.9,91.3,95.6 M68.2,105.3c2-2.9,4.6-5,8.2-5.7c1.7-0.3,3.3,0.1,4.7,1.1c1.7,1.2,2.4,3.4,1.6,5.2
			c-0.8,1.9-2.8,3-4.8,2.6c-1.3-0.3-2.4-1-2.3-2.5c0.1-1.3,1-2,2.4-2.1c0.6,0,1.4,0.3,1.5-0.6c0.1-0.9-0.6-1.4-1.4-1.5
			c-1.2-0.1-2.4-0.2-3.7,0.2C72.1,102.7,70.3,104.3,68.2,105.3 M290.3,136.7c2.1,1.2,3.8,1.1,5.1-0.1c0.9-0.8,0.9-1.7,0.6-2.7
			c-0.3-0.7-0.6-1.5-1.7-1.5c-0.5,0-1.1,0.4-1.3-0.3c-0.2-0.6,0.1-1.2,0.5-1.7c1-1.1,2.2-1.5,3.7-1c2,0.7,3.3,2.3,3.3,4.4
			c0.1,2.3-1.5,4.7-3.8,5.6C294,140.8,291.4,139.7,290.3,136.7 M205,118.7c-0.5-1.6-1-2.7-2.1-3.5c-1.2-0.9-2.4-0.8-3.7-0.2
			c-1.2,0.6-1,1.5-0.6,2.5c0.4,0.9-0.1,1.7-1,2.1c-0.8,0.5-1.6,0.3-2.2-0.4c-1.1-1.1-1.4-2.4-1.1-3.9c0.9-4,5.7-5.8,9.1-3.4
			C205.6,113.4,206.4,116.4,205,118.7 M206.8,24.7c-6.1,4.2-11.2,9-16.7,14.1C193.8,29.1,200.1,23.7,206.8,24.7 M125.5,26.8
			c0.4,1.2,0,2-0.1,2.8c-1.1,5.1-5,8.7-10,9.3c-1.4,0.2-2.9,0.1-4-0.9c-0.8-0.7-1-1.6-0.4-2.5c0.5-0.8,1.5-1,2.1-0.3
			c1.1,1.3,2.4,1,3.7,0.6c1.7-0.5,3.1-1.5,4.4-2.7C122.9,31.4,124.4,29.3,125.5,26.8 M194.2,13.9c1.4,1.8,2,3.4,1.6,5.4
			c-0.6,2.6-1.7,4.9-3.4,6.9c-1.8,2.2-3.5,4.4-5.3,6.6C188.7,26.2,192.7,20.8,194.2,13.9 M144.5,222.5c-0.2,0-0.3-0.1-0.5-0.1
			c0-1,0-2.1,0-3.1c0-1.1-0.4-2.1-1-2.9c-0.9-1.1-1.9-1.6-3.1-0.4c-0.5,0.5-1.1,0.7-1.7,0.3c-0.7-0.4-1.1-1.2-1-2.1
			c0.2-1.8,2.1-3.1,4.1-2.9c2.1,0.2,4,1.9,4.5,3.9C146.6,217.8,145.8,220.2,144.5,222.5 M243,97.2c-0.2-1-0.3-1.6-0.6-2.3
			c-1.1-3.4-4.1-4.3-6.1-1.8c-1.3,1.6-1.6,0.3-1.9-0.4c-1-2.5,1.5-5.2,4.5-4.9C243.1,88.2,245.3,92.9,243,97.2 M64,145.7
			c-0.9-0.5-1.7-0.9-2.6-1.4c-3.9-1.9-7.9-3.2-12.3-2.4c-1.4,0.2-1.8-0.4-1.3-1.7c0.4-1,1.2-1.6,2.2-1.7c1-0.1,2.1-0.1,3.1,0.2
			C57.5,139.9,60.9,142.6,64,145.7 M155.2,220.9c0.6-1.3,1.2-2.1,2.1-2.7c1.6-1.2,3.8-0.9,5,0.5c1.2,1.3,1.2,3.8-0.1,5.1
			c-0.8,0.9-1.8,1.1-2.8,0.5c-0.8-0.4-1.1-1.1-0.8-2c0.6-1.7,0.2-2-1.6-1.8C156.5,220.5,156,220.7,155.2,220.9 M287.6,156.2
			c0.1-1.7,0.7-3,2.2-3.8c1-0.6,2.1-0.6,3.1,0.2c0.9,0.7,1.3,1.6,1,2.8c-0.3,1.2-1.1,1.7-2.2,1.9c-0.4,0.1-0.9-0.1-1.1,0.4
			c-0.3,0.7-0.8,1.3-1.7,1C287.8,158.2,287.7,157.2,287.6,156.2 M62.2,154.1c-5.1-1-10.1-2.1-15.2-0.7c-0.7,0.2-0.9-0.1-0.9-0.7
			c-0.2-1.5,0.8-2.5,2.7-2.5C53.6,150.3,58,151.8,62.2,154.1 M111.2,120.1c3.5-5.3,4.8-9.8,5.4-17.6
			C118.8,110.9,116.2,118,111.2,120.1 M292,148.1c-1.6,0-2.6-1.1-2.6-2.7c0-1.6,1.1-2.7,2.6-2.7c1.4,0,2.7,1.3,2.7,2.7
			C294.7,146.9,293.5,148.1,292,148.1 M272.4,175.7c0-1.5,0-3.1,0-4.6c0-1.9-0.4-3.8-1.6-5.4c-0.2-0.4-1-0.6-0.5-1.2
			c0.5-0.5,1.1-0.8,1.8-0.5c1.4,0.5,1.9,1.6,2.1,3C274.6,170,273.6,172.8,272.4,175.7 M265,186.8c-0.7-3-1-6,0.3-8.9
			c0.3-0.6,0.7-1.2,1.3-1.6c0.8-0.5,1.4-0.2,2,0.3c0.5,0.4,0.6,0.8,0.2,1.4C266.6,180.6,265.6,183.6,265,186.8 M140.8,244.5
			c1.9-1.8,3.8-3,6.1-3.6c1-0.2,1.9-0.2,2.7,0.4c0.8,0.6,1.6,1.4,0.8,2.5c-0.7,1.1-1.7,1.3-2.7,0.5c-1.1-0.9-2.3-0.8-3.5-0.6
			C143.2,243.8,142.1,244.2,140.8,244.5 M253,107.4c-1.3-0.1-2.2-1-2.2-2.4c0-1.5,1.1-2.2,2.4-2.3c1.2-0.1,2.4,1.2,2.3,2.4
			C255.4,106.5,254.7,107.4,253,107.4 M57.8,195.8c-1.9-0.3-3.7-0.2-5.6-0.2c-1.9,0-3.7,0-5.6,0c-0.7,0-1.9,0.1-1.8-1
			c0.1-1,1.1-1.6,2.3-1.3c0.8,0.2,1.6,0.3,2.4,0.5C52.2,194.4,55.1,194.7,57.8,195.8 M242.7,107.8c1.1,0.1,1.9,0.9,2,2.3
			c0.1,1.2-1.3,2.6-2.5,2.5c-1.4-0.1-2.1-0.9-2.2-2.3C239.9,109,241.2,107.7,242.7,107.8 M202.3,136.6c-0.2-1.3,0.9-2.8,2.1-2.8
			c1.4,0,2.2,0.9,2.4,2.1c0.2,1.1-1,2.6-2.1,2.6C203.2,138.5,202.5,137.7,202.3,136.6 M244,206.1c0.1-1.1,0.8-2.2,2.2-2.2
			c1.3,0,2.2,0.8,2.3,2.2c0.1,1.3-1.2,2.6-2.4,2.5C244.8,208.4,244.1,207.7,244,206.1 M213.8,185.9c0-1.3,1.1-2.6,2.3-2.5
			c1.3,0,2,1,2.2,2.1c0.2,1.1-1.1,2.3-2.3,2.3C214.6,187.8,214,187,213.8,185.9 M227.2,110.1c-1.7,0-2.6-0.7-2.6-2.1
			c0-1.4,1-2.2,2.2-2.2c1.3-0.1,2.1,0.8,2.1,2C229,109.1,228.2,110,227.2,110.1 M161.4,169c0.2-1.1,0.9-2,2.2-2
			c1.5,0,2.1,1.2,2.1,2.4c0,1.2-1.1,2-2.3,1.9C162.1,171.3,161.6,170.3,161.4,169 M250.6,215.4c-1.5,0-2.2-0.8-2.3-2
			c-0.1-1.4,0.8-2.3,2.2-2.4c1.4-0.1,1.9,1,2.1,2.1C252.7,214.5,251.7,215.1,250.6,215.4 M218.2,49.7c0.1-1.1,0.7-2,2.1-2
			c1.3,0,2.1,0.9,2.1,2.1c0,1.2-0.7,2.1-2.1,2.1C219,51.9,218.4,51.1,218.2,49.7 M142.5,125.7c0.2-1.3,0.9-2.1,2.2-2.1
			c1.2,0,2,0.7,1.9,2c0,1.3-0.9,2.1-2.1,2.1C143.2,127.8,142.6,126.9,142.5,125.7 M183.8,43.3c0-1.4,1-2.3,2.3-2.3
			c1.2,0,1.8,0.7,1.8,1.9c0,1.2-1.3,2.4-2.6,2.3C183.9,45.2,184,44.1,183.8,43.3 M54.7,208.6c-1.2,0-2.5,0-3.7,0c-1.7,0-3.3,0-5-0.2
			c-0.6-0.1-1.8-0.4-1.6-1.1c0.1-0.8,1.2-0.7,1.9-0.6C49.2,206.9,52,207.6,54.7,208.6 M203.9,53.1c0.2-1.2,0.9-2,2.1-1.9
			c1.1,0,2,0.8,2,2c0,1.1-0.7,2-1.8,2C204.8,55.2,204.1,54.4,203.9,53.1 M154.3,41.6c0-1.2,0.7-2,1.9-2.1c1.2-0.1,2.1,0.8,2.1,1.9
			c0,1.1-0.7,2.2-2,2.2C155.2,43.6,154.4,42.9,154.3,41.6 M130.5,122.2c0.2-1.1,0.8-1.9,2.1-1.9c1.2,0,1.9,0.9,1.9,1.9
			c0,1.1-0.8,2.2-2,2.2C131.3,124.4,130.6,123.5,130.5,122.2 M139.8,247.8c1.5-0.8,2.9-1.9,4.6-0.8c0.9,0.6,1.5,1.4,0.7,2.4
			c-0.7,1-1.6,0.9-2.5,0.1C141.9,248.7,141.1,247.9,139.8,247.8 M166.2,111.6c0.1-1.1,0.7-1.9,2-2c1.2,0,1.8,0.8,1.9,1.8
			c0.1,1.3-0.8,2.1-2,2.1C167.1,113.6,166.3,113,166.2,111.6 M176.1,104.9c-1.2-0.1-2-0.6-1.9-1.7c0-1.1,0.6-2.1,1.9-2.1
			c1.2,0,1.7,0.9,1.8,2C177.9,104.2,177.2,104.8,176.1,104.9 M171.7,188.7c1.2,0.1,1.7,0.9,1.7,2c0.1,1.1-0.6,1.8-1.6,1.9
			c-1.2,0.1-1.8-0.7-1.9-1.8C169.9,189.5,170.6,188.9,171.7,188.7 M180.9,108.8c0,1.3-0.8,1.9-1.8,1.8c-1.1-0.1-1.8-0.8-1.8-2
			c0-1.2,0.9-1.8,1.9-1.8C180.5,106.8,180.8,107.8,180.9,108.8 M165,196.9c0.3-1,0.8-1.8,2-1.7c1.1,0.1,1.7,0.8,1.5,1.9
			c-0.1,1-0.7,1.8-1.8,1.6C165.7,198.6,165,198,165,196.9 M152.3,115.9c-0.1-1.3,0.7-1.7,1.7-1.8c1.1,0,1.6,0.8,1.6,1.7
			c0,1.2-0.8,1.8-1.9,1.9C152.5,117.9,152.5,116.7,152.3,115.9 M155.3,224.5c1.2,0,1.7,0.8,1.8,1.8c0.1,1.1-0.5,1.7-1.5,1.7
			c-1.1,0-1.8-0.5-1.9-1.6C153.6,225.3,154.3,224.7,155.3,224.5 M63.2,245.8c1.7-1.2,2.8-2.8,3.5-4.9c1.1,2.1,0.6,3.6-0.6,5
			C65.2,246.7,64.3,246.7,63.2,245.8 M52.3,161.7c-1.8,0.4-3.6,0.5-5.4,0.9c-0.4,0.1-0.7,0.3-1-0.1c-0.2-0.4-0.1-0.8,0.1-1.2
			c0.4-0.8,1.2-0.9,1.9-0.7C49.3,160.9,50.8,161.3,52.3,161.7 M61.9,237.7c0.3,0.7,0.2,1.3,0.1,1.9c-0.4,1.9-1.9,3.2-3.2,2.9
			c-0.4-0.1-0.8-0.2-0.9-0.6c-0.1-0.3,0.2-0.6,0.5-0.7C59.9,240.4,60.9,239,61.9,237.7 M58,233.7c-0.3,1.9-0.9,3.3-2.5,4
			c-1.1,0.5-1.8-0.1-2.8-0.9C54.9,236.3,56.2,234.9,58,233.7 M161,202.4c0-0.9,0.2-1.7,1.4-1.7c1.1,0,1.6,0.5,1.6,1.6
			c0,1.1-0.6,1.6-1.6,1.6C161.6,204,161,203.5,161,202.4 M52.2,200.9c-1.3,0.3-2.3,0.5-3.3,0.7c-1.1,0.3-2.1,0.8-3.2,0.7
			c-0.5-0.1-1.1-0.2-1.2-0.7c-0.1-0.6,0.6-0.7,1-0.8C47.7,200,49.8,200.8,52.2,200.9 M54.7,229.4c-1.9,3.4-3.8,3.9-5.8,1.8
			C50.8,230.8,52.6,230.2,54.7,229.4 M44.8,219.4c2.9-1,5.2,0.3,7.6,0.6C50,220.1,47.5,221.4,44.8,219.4 M44.1,213.4
			c3.2-0.8,5.8,0.4,8.5,0.7C49.9,214,47.1,215.6,44.1,213.4 M137.2,251.7c0.2-0.9,0.6-1.7,1.6-1.7c1,0,1.4,0.7,1.4,1.6
			c0.1,1-0.4,1.7-1.5,1.7C137.9,253.2,137.4,252.6,137.2,251.7 M53.5,225.3c-2.3,0.4-4.6,2.2-7.1,0.2
			C48.9,224.7,51.2,225,53.5,225.3 M72,243.7c1,1.6,1,3.2,0.1,4.7c-0.5,0.8-1.2,0.9-2.2,0.5C70.8,247.3,71.9,245.7,72,243.7
			 M134.8,233.9c0.1-0.8,0.5-1.5,1.5-1.5c0.9,0,1.6,0.6,1.6,1.4c0,0.7-0.3,1.5-1.2,1.6C135.7,235.4,135.1,234.8,134.8,233.9
			 M133.9,256.2c0.1-0.8,0.1-1.5,1.2-1.5c1,0,1.7,0.4,1.6,1.5c0,1-0.6,1.5-1.5,1.5C134.2,257.6,133.8,257.1,133.9,256.2
			 M138.6,228.4c0-0.8,0.7-1.2,1.5-1.2c0.8-0.1,1.2,0.5,1.2,1.3c0,0.8-0.3,1.6-1.2,1.6C139.3,230.2,138.7,229.6,138.6,228.4
			 M134.6,240.2c-0.2,0.7-0.5,1.5-1.4,1.5c-0.9,0-1.5-0.6-1.5-1.5c0-0.9,0.6-1.4,1.4-1.3C133.9,238.9,134.4,239.4,134.6,240.2
			 M130,245.4c0.7,0,1.2,0.6,1.3,1.4c0.1,0.8-0.4,1.3-1.2,1.3c-0.9,0-1.5-0.6-1.6-1.5C128.4,245.9,129,245.4,130,245.4 M140.8,220.2
			c1.1,1.8,2.1,3.7,1.1,6.2C141.5,224.2,141.1,222.2,140.8,220.2"/>
		<path class="st0" d="M78.2,36.1c3,2.7,3.5,5.7,1.5,8.3c-1,1.3-2.3,1.8-3.9,1.7c-1.4-0.2-2.2-1.5-1.8-2.7c0.4-1.1,1-1.4,1.9-0.6
			c1.1,0.8,1.6,0.2,1.8-0.8c0.4-1.5-0.5-2.3-1.5-3.1c-0.9-0.8-1.7-0.3-2.5,0.3c-3.8,3-5.9,7.1-7.6,11.4c-0.1,0.4-0.1,0.7,0.2,1
			c1.6,1.2,2.7,2.9,3.7,4.8c3.1-4.6,7.4-7.3,12.4-9.1c1.1-0.4,1.8-0.3,2.6,0.7c2.8,3.5,3.4,7.5,2.2,11.7c-0.1,0.5-0.4,1-0.5,1.6
			c0,0,0.1,0.1,0.1,0.3c2.1-1.9,4.7-2.6,7.2-3.5c4.7-1.6,6.8-4.9,6.1-9.4c2.8,2.7,1.8,6.8-2.5,10.2c4.5,1.3,9.4-1.9,9.9-6.5
			c0.2-2-0.6-3.6-2.1-4.7c-3.1-2.3-6.6-3.3-10.5-2c-0.7,0.2-1.4,0.6-1.9,1.2c-0.3,0.4-0.7,0.8-0.5,1.3c0.2,0.5,0.7,0.2,1.1,0.2
			c0.9-0.1,1.4,0.4,1.7,1.1c0.3,0.8,0.1,1.6-0.7,2.1c-1,0.7-2,0.7-3.1,0c-1.4-0.9-1.9-2.2-1.6-3.8c0.7-3,2.6-5.3,4.5-7.6
			c2.7-3.3,6.2-5.7,10-8.2c-3,0-5.8,0-8.5,0c-1,0-1,0.4-0.6,1.1c0.8,1.4,0.5,2.6-0.6,3.7c-1.2,1.2-2.7,2.1-4.5,1.7
			c-2-0.4-2.7-3.8-1.1-6.1C85.4,33.1,81.6,34,78.2,36.1 M86,45.3c-1.8,0-3-1.4-3-3.3c0-1.5,1.7-3,3.2-3c1.4,0.1,3,1.6,3,3
			C89.2,43.8,87.7,45.3,86,45.3"/>
		<path class="st0" d="M83.9,30.4c8.3-2.2,16.8-1.5,25.2-2.3c6.4-0.6,6.1-1.2,5.8-6.8c-0.2-3.2-0.8-6.4-2.9-9.1
			c-2-2.6-4.6-3.4-7.7-2.5c-3.4,1-6.2,3-8.8,5.4C90.9,19.6,87.2,24.8,83.9,30.4"/>
	</g>
	<g>
		<g>
			<defs>
				<path id="SVGID_1_" d="M81.6,52.5C73,54.4,66.4,65.3,68.7,73.7c0.1,0.5,0.1,1.2,0.6,1.2c0.8,0.1,0.7-0.8,0.8-1.2
					c0.9-2.9,1.7-5.9,2.7-8.9c1.2-3.4,3.5-5.9,7-7.3c-0.1,3.6-1.8,6.4-3.8,9c-1.6,2.1-3,4.2-3.9,6.7c-0.2,0.6-0.5,1.3-0.3,2
					c0.8,0.3,1.1-0.5,1.5-0.8c3.8-3.6,7.5-7.2,9.5-12.2c1.1-2.8,1.4-5.8,0.5-8.7c-0.2-0.7-0.6-1.1-1.2-1.1
					C82,52.4,81.8,52.4,81.6,52.5"/>
			</defs>
			<clipPath id="SVGID_00000112610209443778766020000014737909701609730944_">
				<use xlink:href="#SVGID_1_"  style="overflow:visible;"/>
			</clipPath>
			
				<linearGradient id="SVGID_00000183209710170449926750000010120751569990017950_" gradientUnits="userSpaceOnUse" x1="-280.6574" y1="1566.8422" x2="-279.6574" y2="1566.8422" gradientTransform="matrix(-15.6 0 0 15.6 -4294.3696 -24378.7129)">
				<stop  offset="0" style="stop-color:#BA5119"/>
				<stop  offset="0.49" style="stop-color:#FF9F6B"/>
				<stop  offset="1" style="stop-color:#BA5119"/>
			</linearGradient>
			
				<rect x="66.4" y="52.4" style="clip-path:url(#SVGID_00000112610209443778766020000014737909701609730944_);fill:url(#SVGID_00000183209710170449926750000010120751569990017950_);" width="17.8" height="23.1"/>
		</g>
		<g>
			<path class="st2" d="M194.9,69c2.4,1.7,4.7,3.4,6.9,5.1c2.5,2,4.5,4.4,5.9,7.3c0.5,1.1,1.1,1.3,2.1,0.8c0.2-0.1,0.5-0.1,0.7-0.2
				c2.8-0.9,3.8-2.1,4-5c0.1-0.8-0.4-1.1-0.9-1.4c-3.1-2.2-6.6-3.3-10.2-4.3C200.6,70.6,197.9,69.8,194.9,69"/>
		</g>
		<g>
			<defs>
				<path id="SVGID_00000020385734059573800840000001195657475179635088_" d="M77.6,75.5C77.7,75.5,77.7,75.5,77.6,75.5
					C77.7,75.5,77.7,75.5,77.6,75.5L77.6,75.5z M81.2,69.7c-1,0.4-1.7,1.1-2.6,2.5c2.9-1.4,5.2-0.9,7.5,0.3c0.4,0.2,0.9,0.3,1,0.8
					c0.1,0.6-0.6,0.8-1,1c-2.6,1.4-5.4,1.6-8.3,1.3c1.8,2.5,4.4,3.3,7.2,3c3.2-0.4,5.3-2.4,6.6-5.3c1.2-2.8,0.9-3.2-2-4.1
					c-1.2-0.3-2.3-0.5-3.4-0.5C84.4,68.6,82.8,69,81.2,69.7"/>
			</defs>
			<clipPath id="SVGID_00000055696512011487571440000017888152159237935500_">
				<use xlink:href="#SVGID_00000020385734059573800840000001195657475179635088_"  style="overflow:visible;"/>
			</clipPath>
			
				<linearGradient id="SVGID_00000087385745812106460380000007852663435684560278_" gradientUnits="userSpaceOnUse" x1="-279.2399" y1="1566.1661" x2="-278.2399" y2="1566.1661" gradientTransform="matrix(-14.52 0 0 14.52 -3962.3833 -22666.9453)">
				<stop  offset="0" style="stop-color:#BA5119"/>
				<stop  offset="0.49" style="stop-color:#FF9F6B"/>
				<stop  offset="1" style="stop-color:#BA5119"/>
			</linearGradient>
			
				<rect x="77.6" y="68.6" style="clip-path:url(#SVGID_00000055696512011487571440000017888152159237935500_);fill:url(#SVGID_00000087385745812106460380000007852663435684560278_);" width="15" height="10.2"/>
		</g>
		<g>
			<path class="st2" d="M184.4,104.5c1.1-1.9,2.2-3.3,3.8-4.3c0.6-0.4,0.5-0.6,0.1-1.2c-2.9-4.2-6.3-7.9-10.1-11.3
				C181.4,92.8,182.4,98.6,184.4,104.5"/>
			<path class="st2" d="M158.7,109.5c0.6,2.5,1.8,4.8,2.1,7.4c0.1,1.2,0.2,2.3,0.3,3.5c0.1,0.8-0.5,2,0.3,2.4c1.2,0.6,2.5,1.2,3.9,1
				c1.2-0.1,1.2-0.9,0.8-1.7c-0.8-1.5-1.5-3-2.4-4.4C162.1,115,160.4,112.2,158.7,109.5"/>
		</g>
		<g>
			<defs>
				<path id="SVGID_00000064354778390768358950000017086158963630813320_" d="M73.7,77.7c0.6,2.9,0.4,5.8,1.9,8.2
					c0.5,0.8,0.9,2,2.1,1.6c1.4-0.4,1.2-1.7,1.2-2.8c0-1.1-0.6-2-1.3-2.8C76.4,80.6,75.1,79.2,73.7,77.7z"/>
			</defs>
			<clipPath id="SVGID_00000021826276784935423910000015140528986570950575_">
				<use xlink:href="#SVGID_00000064354778390768358950000017086158963630813320_"  style="overflow:visible;"/>
			</clipPath>
			
				<linearGradient id="SVGID_00000151537549830860624780000016864516624147909055_" gradientUnits="userSpaceOnUse" x1="-243.0882" y1="1548.7732" x2="-242.0882" y2="1548.7732" gradientTransform="matrix(-5.25 0 0 5.25 -1197.2743 -8048.3145)">
				<stop  offset="0" style="stop-color:#BA5119"/>
				<stop  offset="0.49" style="stop-color:#FF9F6B"/>
				<stop  offset="1" style="stop-color:#BA5119"/>
			</linearGradient>
			
				<rect x="73.7" y="77.7" style="clip-path:url(#SVGID_00000021826276784935423910000015140528986570950575_);fill:url(#SVGID_00000151537549830860624780000016864516624147909055_);" width="5.5" height="10.2"/>
		</g>
		<g>
			<defs>
				<path id="SVGID_00000098935974794027907640000016548877848040097154_" d="M61.7,77.7c-0.7,0.4-1.4,0.8-1.9,1.5
					c-0.6,0.9-1.2,2-0.3,2.9c1,1,1.8-0.2,2.5-0.7c1.5-1.3,2.8-2.9,4.3-4.7C64.5,76.8,63,77,61.7,77.7"/>
			</defs>
			<clipPath id="SVGID_00000111902241014890170350000002063462733648043199_">
				<use xlink:href="#SVGID_00000098935974794027907640000016548877848040097154_"  style="overflow:visible;"/>
			</clipPath>
			
				<linearGradient id="SVGID_00000051350922579814935340000018303562308906150047_" gradientUnits="userSpaceOnUse" x1="-258.4815" y1="1556.1746" x2="-257.4815" y2="1556.1746" gradientTransform="matrix(-7.21 0 0 7.21 -1797.3571 -11140.1328)">
				<stop  offset="0" style="stop-color:#BA5119"/>
				<stop  offset="0.49" style="stop-color:#FF9F6B"/>
				<stop  offset="1" style="stop-color:#BA5119"/>
			</linearGradient>
			
				<rect x="58.6" y="76.6" style="clip-path:url(#SVGID_00000111902241014890170350000002063462733648043199_);fill:url(#SVGID_00000051350922579814935340000018303562308906150047_);" width="7.7" height="6.4"/>
		</g>
		<g>
			<defs>
				<path id="SVGID_00000054948690705103901080000007644140689804545953_" d="M77.6,74.6c-1.1,0.4-0.1,0.6,0.1,0.9c0,0,0,0,0,0.1
					c0,0,0,0,0,0c0,0,0,0,0,0c1.1-1.3,3.1-0.9,4.3-2.3C80.4,73.4,79,74,77.6,74.6"/>
			</defs>
			<clipPath id="SVGID_00000182515948463435666630000012418966057839377841_">
				<use xlink:href="#SVGID_00000054948690705103901080000007644140689804545953_"  style="overflow:visible;"/>
			</clipPath>
			
				<linearGradient id="SVGID_00000021097769634571616530000005156872926480963206_" gradientUnits="userSpaceOnUse" x1="-239.4124" y1="1547.006" x2="-238.4124" y2="1547.006" gradientTransform="matrix(-4.93 0 0 4.93 -1098.2629 -7552.3506)">
				<stop  offset="0" style="stop-color:#BA5119"/>
				<stop  offset="0.49" style="stop-color:#FF9F6B"/>
				<stop  offset="1" style="stop-color:#BA5119"/>
			</linearGradient>
			
				<rect x="76.5" y="73.2" style="clip-path:url(#SVGID_00000182515948463435666630000012418966057839377841_);fill:url(#SVGID_00000021097769634571616530000005156872926480963206_);" width="5.5" height="2.3"/>
		</g>
		<g>
			<defs>
				<path id="SVGID_00000006670622711600868420000010603659401404582036_" d="M212.6,124.5c-0.7,0.1-0.9,0.4-0.6,1.1
					c2.8,6.3,7.4,10.4,14.3,11.8c1,0.2,2.4,0.6,2.8-0.6c0.4-1.2,0.8-2.8-1.1-3.8c-1.5-0.8-3-1.6-4.7-2.2c-1-0.4-2-0.8-2.9-1.6
					c3.7-0.7,7.4,0.3,10.1,2.5c0.5-0.6,0.9-1.1,1.3-1.6c-1.4-2-3.2-3.4-5.3-4.5c-2.7-1.3-5.4-1.8-8.1-1.8
					C216.5,123.8,214.6,124.1,212.6,124.5"/>
			</defs>
			<clipPath id="SVGID_00000036942046165688171780000000358236260113222048_">
				<use xlink:href="#SVGID_00000006670622711600868420000010603659401404582036_"  style="overflow:visible;"/>
			</clipPath>
			
				<linearGradient id="SVGID_00000000224017004202305640000017224320441971200389_" gradientUnits="userSpaceOnUse" x1="-284.8796" y1="1568.8773" x2="-283.8796" y2="1568.8773" gradientTransform="matrix(-20.04 0 0 20.04 -5477.1123 -31309.457)">
				<stop  offset="0" style="stop-color:#BA5119"/>
				<stop  offset="0.49" style="stop-color:#FF9F6B"/>
				<stop  offset="1" style="stop-color:#BA5119"/>
			</linearGradient>
			
				<rect x="211.7" y="123.8" style="clip-path:url(#SVGID_00000036942046165688171780000000358236260113222048_);fill:url(#SVGID_00000000224017004202305640000017224320441971200389_);" width="20.2" height="14.1"/>
		</g>
		<g>
			<defs>
				<path id="SVGID_00000134241867049984875340000004755607934342912158_" d="M250.6,124c-0.2,3.7-1,7.2-4.2,9.6
					C245.1,130.7,247.3,125.6,250.6,124 M253.2,116.4c-2.2,0.5-4.1,1.3-5.7,2.7c-3,2.6-4,6.1-4.6,9.8c-0.1,0.7,0.3,0.9,0.6,1.2
					c1.2,1.3,2,2.8,2.1,4.6c0.1,1,0.4,1,1.3,0.6c5-2.1,7.7-6.3,7.5-11.6c-0.1-2.2-0.3-4.3-0.6-6.4c-0.1-0.4,0.1-0.9-0.4-0.9
					C253.3,116.4,253.3,116.4,253.2,116.4"/>
			</defs>
			<clipPath id="SVGID_00000136373981370141670530000009444150241025902744_">
				<use xlink:href="#SVGID_00000134241867049984875340000004755607934342912158_"  style="overflow:visible;"/>
			</clipPath>
			
				<linearGradient id="SVGID_00000008855258939398852950000017691788662104629637_" gradientUnits="userSpaceOnUse" x1="-273.9304" y1="1563.6055" x2="-272.9304" y2="1563.6055" gradientTransform="matrix(-11.53 0 0 11.53 -2904.0605 -17902.2812)">
				<stop  offset="0" style="stop-color:#BA5119"/>
				<stop  offset="0.49" style="stop-color:#FF9F6B"/>
				<stop  offset="1" style="stop-color:#BA5119"/>
			</linearGradient>
			
				<rect x="242.7" y="116.4" style="clip-path:url(#SVGID_00000136373981370141670530000009444150241025902744_);fill:url(#SVGID_00000008855258939398852950000017691788662104629637_);" width="11.8" height="19.4"/>
		</g>
		<g>
			<defs>
				<path id="SVGID_00000052096280597103505910000015919393985151186586_" d="M238.5,151.9c-0.8,0-1.4,1.2-1.7,2
					c-1,2.8-1.9,5.6-2.2,8.6c0,0.4-0.2,0.7-0.3,1.5c-1.1-3.6-1.2-6.8,0-10c-0.2-0.1-0.3-0.2-0.4-0.2c-3.1,0.3-3,0.3-3.3,3.4
					c-0.4,3.9,1.2,7.1,3.1,10.3c0.6,1,1.2,2,1.8,3c4.7-4,6.6-10.6,4.7-16.4c0-0.1,0-0.1-0.1-0.2
					C239.8,153.2,239.6,151.9,238.5,151.9C238.6,151.9,238.6,151.9,238.5,151.9"/>
			</defs>
			<clipPath id="SVGID_00000116931155080323547880000008148408419460061857_">
				<use xlink:href="#SVGID_00000052096280597103505910000015919393985151186586_"  style="overflow:visible;"/>
			</clipPath>
			
				<linearGradient id="SVGID_00000066479317690791641880000007395350582314127536_" gradientUnits="userSpaceOnUse" x1="-328.2174" y1="1589.704" x2="-327.2174" y2="1589.704" gradientTransform="matrix(10.43 0 0 -10.43 3653.8535 16741.8457)">
				<stop  offset="0" style="stop-color:#BA5119"/>
				<stop  offset="0.49" style="stop-color:#FF9F6B"/>
				<stop  offset="1" style="stop-color:#BA5119"/>
			</linearGradient>
			
				<rect x="230.2" y="151.9" style="clip-path:url(#SVGID_00000116931155080323547880000008148408419460061857_);fill:url(#SVGID_00000066479317690791641880000007395350582314127536_);" width="11.9" height="18.7"/>
		</g>
		<g>
			<defs>
				<path id="SVGID_00000043423930976195983600000008533682580233852296_" d="M245.3,139c-3.1,0.1-5.7,2.9-5.6,6.2
					c0.1,3.2,2.7,5.9,5.7,5.9c3.5,0,6.1-2.8,6-6.4c-0.1-3.2-2.7-5.7-5.9-5.7C245.4,139,245.3,139,245.3,139"/>
			</defs>
			<clipPath id="SVGID_00000176753205986359115030000012839579368658449852_">
				<use xlink:href="#SVGID_00000043423930976195983600000008533682580233852296_"  style="overflow:visible;"/>
			</clipPath>
			
				<linearGradient id="SVGID_00000177461041905981643430000002363232469241593499_" gradientUnits="userSpaceOnUse" x1="-274.3269" y1="1563.7971" x2="-273.3269" y2="1563.7971" gradientTransform="matrix(-11.71 0 0 11.71 -2961.0051 -18167.0156)">
				<stop  offset="0" style="stop-color:#BA5119"/>
				<stop  offset="0.49" style="stop-color:#FF9F6B"/>
				<stop  offset="1" style="stop-color:#BA5119"/>
			</linearGradient>
			
				<rect x="239.6" y="139" style="clip-path:url(#SVGID_00000176753205986359115030000012839579368658449852_);fill:url(#SVGID_00000177461041905981643430000002363232469241593499_);" width="11.9" height="12.1"/>
		</g>
		<g>
			<defs>
				<path id="SVGID_00000033360135034670564410000015694246340776426632_" d="M211.2,147.5c-0.7,0.9-1.5,1.7,0.6,2.1
					c1.5,0.3,2.9,1.4,4.4,2c2.8,1.1,5.6,1.5,8.5,0.2c1-0.4,1.2-0.9,0.5-1.8c-0.2-0.2-0.4-0.5-0.5-0.8c-0.3-1.6-1.3-1.3-2.4-0.9
					c-1.5,0.6-3.1,0.5-4.9,0.1c1.1-1.2,2.4-1.6,3.6-1.9c2.2-0.6,3.4-1.7,3.1-4.1c-0.5,0-0.9,0-1.4,0
					C218.3,142.3,214.3,143.7,211.2,147.5"/>
			</defs>
			<clipPath id="SVGID_00000079475951196610399520000013819525288376534413_">
				<use xlink:href="#SVGID_00000033360135034670564410000015694246340776426632_"  style="overflow:visible;"/>
			</clipPath>
			
				<linearGradient id="SVGID_00000052062651298808718160000001804562123075637133_" gradientUnits="userSpaceOnUse" x1="-279.9479" y1="1566.5048" x2="-278.9479" y2="1566.5048" gradientTransform="matrix(-15.04 0 0 15.04 -3984.8989 -23412.6094)">
				<stop  offset="0" style="stop-color:#BA5119"/>
				<stop  offset="0.49" style="stop-color:#FF9F6B"/>
				<stop  offset="1" style="stop-color:#BA5119"/>
			</linearGradient>
			
				<rect x="209.7" y="142.3" style="clip-path:url(#SVGID_00000079475951196610399520000013819525288376534413_);fill:url(#SVGID_00000052062651298808718160000001804562123075637133_);" width="16.1" height="10.8"/>
		</g>
		<g>
			<defs>
				<path id="SVGID_00000115497928887715368770000004101027212800615597_" d="M232.1,139.9c-3,0.1-5.2,2.4-5.1,5.4
					c0.1,3.2,2.5,5.7,5.4,5.7c3.1,0,4.9-2.1,4.9-5.9c0-2.9-2.3-5.2-5-5.2C232.1,139.9,232.1,139.9,232.1,139.9"/>
			</defs>
			<clipPath id="SVGID_00000057851690732113965390000012945153607115763633_">
				<use xlink:href="#SVGID_00000115497928887715368770000004101027212800615597_"  style="overflow:visible;"/>
			</clipPath>
			
				<linearGradient id="SVGID_00000107552990540982182590000017190205059716465563_" gradientUnits="userSpaceOnUse" x1="-270.7672" y1="1562.0852" x2="-269.7672" y2="1562.0852" gradientTransform="matrix(-10.27 0 0 10.27 -2543.5767 -15897.1768)">
				<stop  offset="0" style="stop-color:#BA5119"/>
				<stop  offset="0.49" style="stop-color:#FF9F6B"/>
				<stop  offset="1" style="stop-color:#BA5119"/>
			</linearGradient>
			
				<rect x="226.9" y="139.9" style="clip-path:url(#SVGID_00000057851690732113965390000012945153607115763633_);fill:url(#SVGID_00000107552990540982182590000017190205059716465563_);" width="10.3" height="11.2"/>
		</g>
		<g>
			<defs>
				<path id="SVGID_00000008867691374248266740000016174819419756743354_" d="M232.3,135.5c-0.2,0.8-0.1,1.2,0.8,1.5
					c1.7,0.5,3.5,0.9,4.6,2.4c0.4,0.5,0.7,0,1-0.2c0.8-0.7,1.5-1.4,2.4-2c1.9-1.3,2-1.7,0.8-3.7c-1-1.6-2.5-2.1-3.9-2.2
					C235.2,131.2,233,133,232.3,135.5"/>
			</defs>
			<clipPath id="SVGID_00000155141916812281511860000017282843953336082604_">
				<use xlink:href="#SVGID_00000008867691374248266740000016174819419756743354_"  style="overflow:visible;"/>
			</clipPath>
			
				<linearGradient id="SVGID_00000057843953360725587330000006321506084899263389_" gradientUnits="userSpaceOnUse" x1="-271.5088" y1="1562.4382" x2="-270.5088" y2="1562.4382" gradientTransform="matrix(-10.54 0 0 10.54 -2618.9446 -16332.6084)">
				<stop  offset="0" style="stop-color:#BA5119"/>
				<stop  offset="0.49" style="stop-color:#FF9F6B"/>
				<stop  offset="1" style="stop-color:#BA5119"/>
			</linearGradient>
			
				<rect x="232.1" y="131.2" style="clip-path:url(#SVGID_00000155141916812281511860000017282843953336082604_);fill:url(#SVGID_00000057843953360725587330000006321506084899263389_);" width="11.1" height="8.7"/>
		</g>
		<g>
			<defs>
				<path id="SVGID_00000158726318424794194750000006883499199317322125_" d="M254.1,148.2c-0.5,0.8-0.9,1.6-1.4,2.5
					c3,1,5.8,2.2,8.1,4.2c-0.1-2.8-3.1-6.5-5.7-7.2c-0.1,0-0.2,0-0.3,0C254.4,147.7,254.2,147.9,254.1,148.2"/>
			</defs>
			<clipPath id="SVGID_00000138574014170583447190000005212136469789274762_">
				<use xlink:href="#SVGID_00000158726318424794194750000006883499199317322125_"  style="overflow:visible;"/>
			</clipPath>
			
				<linearGradient id="SVGID_00000183967085750616342360000015397405909476989327_" gradientUnits="userSpaceOnUse" x1="-263.0703" y1="1558.3879" x2="-262.0703" y2="1558.3879" gradientTransform="matrix(-8.1129 0 0 8.1129 -1873.4728 -12491.6797)">
				<stop  offset="0" style="stop-color:#BA5119"/>
				<stop  offset="0.49" style="stop-color:#FF9F6B"/>
				<stop  offset="1" style="stop-color:#BA5119"/>
			</linearGradient>
			
				<rect x="252.7" y="147.7" style="clip-path:url(#SVGID_00000138574014170583447190000005212136469789274762_);fill:url(#SVGID_00000183967085750616342360000015397405909476989327_);" width="8.1" height="7.3"/>
		</g>
		<g>
			<defs>
				<path id="SVGID_00000088107440986280204200000017393825113971997616_" d="M160.7,68.5c4.3-3,6.1-7.5,9.1-11.4
					C166.7,58.5,161.1,65.6,160.7,68.5"/>
			</defs>
			<clipPath id="SVGID_00000031171308327369536510000011919573343273228954_">
				<use xlink:href="#SVGID_00000088107440986280204200000017393825113971997616_"  style="overflow:visible;"/>
			</clipPath>
			
				<linearGradient id="SVGID_00000026857998811267648900000000300262000404850619_" gradientUnits="userSpaceOnUse" x1="-266.959" y1="1560.2507" x2="-265.959" y2="1560.2507" gradientTransform="matrix(-9.076 0 0 9.076 -2253.1729 -14098.043)">
				<stop  offset="0" style="stop-color:#BA5119"/>
				<stop  offset="0.49" style="stop-color:#FF9F6B"/>
				<stop  offset="1" style="stop-color:#BA5119"/>
			</linearGradient>
			
				<rect x="160.7" y="57.1" style="clip-path:url(#SVGID_00000031171308327369536510000011919573343273228954_);fill:url(#SVGID_00000026857998811267648900000000300262000404850619_);" width="9.1" height="11.4"/>
		</g>
		<g>
			<defs>
				<path id="SVGID_00000137851324215354400300000016806008067501800617_" d="M153.9,52.2c4.1,1.5,8.4,0.8,12.6,0.4
					c-2-1-4.1-1.4-6.2-1.4C158.2,51.1,156.1,51.5,153.9,52.2"/>
			</defs>
			<clipPath id="SVGID_00000052796028282892830410000016054776114822852751_">
				<use xlink:href="#SVGID_00000137851324215354400300000016806008067501800617_"  style="overflow:visible;"/>
			</clipPath>
			
				<linearGradient id="SVGID_00000111879234525390439350000001651093418604065699_" gradientUnits="userSpaceOnUse" x1="-276.0626" y1="1564.6521" x2="-275.0626" y2="1564.6521" gradientTransform="matrix(-12.5694 0 0 12.5694 -3303.4358 -19614.3477)">
				<stop  offset="0" style="stop-color:#BA5119"/>
				<stop  offset="0.49" style="stop-color:#FF9F6B"/>
				<stop  offset="1" style="stop-color:#BA5119"/>
			</linearGradient>
			
				<rect x="153.9" y="51.1" style="clip-path:url(#SVGID_00000052796028282892830410000016054776114822852751_);fill:url(#SVGID_00000111879234525390439350000001651093418604065699_);" width="12.6" height="2.5"/>
		</g>
		<g>
			<defs>
				<path id="SVGID_00000156589915484398915470000018092403225185230757_" d="M157.7,66.9c3-3.7,6.7-6.4,9.5-9.9
					C163.5,57.5,158.2,62.9,157.7,66.9"/>
			</defs>
			<clipPath id="SVGID_00000120557029640634870040000013441842322746799541_">
				<use xlink:href="#SVGID_00000156589915484398915470000018092403225185230757_"  style="overflow:visible;"/>
			</clipPath>
			
				<linearGradient id="SVGID_00000105408516605099658800000007815842564536899256_" gradientUnits="userSpaceOnUse" x1="-268.4601" y1="1560.9725" x2="-267.4601" y2="1560.9725" gradientTransform="matrix(-9.5119 0 0 9.5119 -2386.3152 -14785.835)">
				<stop  offset="0" style="stop-color:#BA5119"/>
				<stop  offset="0.49" style="stop-color:#FF9F6B"/>
				<stop  offset="1" style="stop-color:#BA5119"/>
			</linearGradient>
			
				<rect x="157.7" y="57" style="clip-path:url(#SVGID_00000120557029640634870040000013441842322746799541_);fill:url(#SVGID_00000105408516605099658800000007815842564536899256_);" width="9.5" height="9.9"/>
		</g>
		<g>
			<defs>
				<path id="SVGID_00000022562430069520544810000003175100350631808907_" d="M175.2,70.7c-0.6-3.8-1-7.6-2.2-11.6
					C171,63.7,172.7,67.3,175.2,70.7"/>
			</defs>
			<clipPath id="SVGID_00000145756307913534770610000009579211154815712662_">
				<use xlink:href="#SVGID_00000022562430069520544810000003175100350631808907_"  style="overflow:visible;"/>
			</clipPath>
			
				<linearGradient id="SVGID_00000114762210791659999640000001195202346078869947_" gradientUnits="userSpaceOnUse" x1="-204.1231" y1="1530.038" x2="-203.1231" y2="1530.038" gradientTransform="matrix(-3.11 0 0 3.11 -459.5742 -4693.5244)">
				<stop  offset="0" style="stop-color:#BA5119"/>
				<stop  offset="0.49" style="stop-color:#FF9F6B"/>
				<stop  offset="1" style="stop-color:#BA5119"/>
			</linearGradient>
			
				<rect x="171" y="59.1" style="clip-path:url(#SVGID_00000145756307913534770610000009579211154815712662_);fill:url(#SVGID_00000114762210791659999640000001195202346078869947_);" width="4.2" height="11.6"/>
		</g>
		<g>
			<defs>
				<path id="SVGID_00000097493002068236679960000008961957126977371785_" d="M174.8,59.1c0.2,3.4,2,6.2,2.6,9.4
					C178.8,64.4,177.6,60.3,174.8,59.1z"/>
			</defs>
			<clipPath id="SVGID_00000028295285508989151940000000165138373248617887_">
				<use xlink:href="#SVGID_00000097493002068236679960000008961957126977371785_"  style="overflow:visible;"/>
			</clipPath>
			
				<linearGradient id="SVGID_00000155144856615828806180000000889570193712509587_" gradientUnits="userSpaceOnUse" x1="-205.3363" y1="1530.6215" x2="-204.3363" y2="1530.6215" gradientTransform="matrix(-3.15 0 0 3.15 -468.8133 -4757.6021)">
				<stop  offset="0" style="stop-color:#BA5119"/>
				<stop  offset="0.49" style="stop-color:#FF9F6B"/>
				<stop  offset="1" style="stop-color:#BA5119"/>
			</linearGradient>
			
				<rect x="174.8" y="59.1" style="clip-path:url(#SVGID_00000028295285508989151940000000165138373248617887_);fill:url(#SVGID_00000155144856615828806180000000889570193712509587_);" width="3.9" height="9.4"/>
		</g>
		<g>
			<defs>
				<path id="SVGID_00000175300371117559245200000013752883686348573093_" d="M180.6,53.2c-0.5,0-1.1-0.1-1.2,0.6
					c-0.1,0.6,0.5,0.7,1,0.9c2.4,0.8,4.7,1,7.4-0.4c-2.1-0.7-4-1.1-5.9-1.1C181.4,53.1,181,53.1,180.6,53.2"/>
			</defs>
			<clipPath id="SVGID_00000036242489131669963440000000879193107581071546_">
				<use xlink:href="#SVGID_00000175300371117559245200000013752883686348573093_"  style="overflow:visible;"/>
			</clipPath>
			
				<linearGradient id="SVGID_00000142151397910039928750000008515830549619176848_" gradientUnits="userSpaceOnUse" x1="-264.1961" y1="1558.932" x2="-263.1961" y2="1558.932" gradientTransform="matrix(-8.37 0 0 8.37 -2023.5638 -12993.9229)">
				<stop  offset="0" style="stop-color:#BA5119"/>
				<stop  offset="0.49" style="stop-color:#FF9F6B"/>
				<stop  offset="1" style="stop-color:#BA5119"/>
			</linearGradient>
			
				<rect x="179.3" y="53.1" style="clip-path:url(#SVGID_00000036242489131669963440000000879193107581071546_);fill:url(#SVGID_00000142151397910039928750000008515830549619176848_);" width="8.4" height="2.5"/>
		</g>
		<g>
			<defs>
				<path id="SVGID_00000107577692208416547910000000656916861547529629_" d="M179,52c3.4-0.4,6.4-0.4,9.8-0.3
					c-1.2-1-2.8-1.5-4.4-1.5C182.5,50.2,180.6,50.8,179,52"/>
			</defs>
			<clipPath id="SVGID_00000147187896451106378990000002532230136067902873_">
				<use xlink:href="#SVGID_00000107577692208416547910000000656916861547529629_"  style="overflow:visible;"/>
			</clipPath>
			
				<linearGradient id="SVGID_00000070101350143763321790000005860616487478326965_" gradientUnits="userSpaceOnUse" x1="-269.3602" y1="1561.436" x2="-268.3603" y2="1561.436" gradientTransform="matrix(-9.794 0 0 9.794 -2449.3401 -15241.626)">
				<stop  offset="0" style="stop-color:#BA5119"/>
				<stop  offset="0.49" style="stop-color:#FF9F6B"/>
				<stop  offset="1" style="stop-color:#BA5119"/>
			</linearGradient>
			
				<rect x="179" y="50.2" style="clip-path:url(#SVGID_00000147187896451106378990000002532230136067902873_);fill:url(#SVGID_00000070101350143763321790000005860616487478326965_);" width="9.8" height="1.8"/>
		</g>
		<g>
			<defs>
				<path id="SVGID_00000002360177750329749450000014350562180435913918_" d="M153.2,49.1c3.1,0.4,6.1,0.8,9.2,1.2
					c-1.9-1.1-3.9-1.9-6-1.9C155.4,48.4,154.3,48.6,153.2,49.1"/>
			</defs>
			<clipPath id="SVGID_00000152961661897779857850000005787157176705946498_">
				<use xlink:href="#SVGID_00000002360177750329749450000014350562180435913918_"  style="overflow:visible;"/>
			</clipPath>
			
				<linearGradient id="SVGID_00000031886321767663087620000016456950839087239851_" gradientUnits="userSpaceOnUse" x1="-267.3464" y1="1560.4777" x2="-266.3464" y2="1560.4777" gradientTransform="matrix(-9.1846 0 0 9.1846 -2293.0793 -14283.0264)">
				<stop  offset="0" style="stop-color:#BA5119"/>
				<stop  offset="0.49" style="stop-color:#FF9F6B"/>
				<stop  offset="1" style="stop-color:#BA5119"/>
			</linearGradient>
			
				<rect x="153.2" y="48.4" style="clip-path:url(#SVGID_00000152961661897779857850000005787157176705946498_);fill:url(#SVGID_00000031886321767663087620000016456950839087239851_);" width="9.2" height="1.9"/>
		</g>
		<g>
			<defs>
				<path id="SVGID_00000058582585138136216050000012922830096050549420_" d="M166.8,37.8c-0.3,0.2-0.2,0.7-0.1,1
					c0.9,3.2,1.8,6.5,2.8,10.1c1-4,0.7-7.5-1.7-10.6c-0.2-0.3-0.4-0.6-0.7-0.6C167,37.7,166.9,37.7,166.8,37.8"/>
			</defs>
			<clipPath id="SVGID_00000072238048369324108410000013789381678965073831_">
				<use xlink:href="#SVGID_00000058582585138136216050000012922830096050549420_"  style="overflow:visible;"/>
			</clipPath>
			
				<linearGradient id="SVGID_00000062162621608575510570000006029712628141422774_" gradientUnits="userSpaceOnUse" x1="-213.9139" y1="1534.47" x2="-212.9139" y2="1534.47" gradientTransform="matrix(-3.46 1.000980e-02 1.000980e-02 3.46 -585.478 -5263.8989)">
				<stop  offset="0" style="stop-color:#BA5119"/>
				<stop  offset="0.49" style="stop-color:#FF9F6B"/>
				<stop  offset="1" style="stop-color:#BA5119"/>
			</linearGradient>
			
				<polygon style="clip-path:url(#SVGID_00000072238048369324108410000013789381678965073831_);fill:url(#SVGID_00000062162621608575510570000006029712628141422774_);" points="
				170.5,48.9 166.4,48.9 166.4,37.7 170.5,37.7 			"/>
		</g>
		<g>
			<defs>
				<path id="SVGID_00000065790618862541917580000015067402726184617135_" d="M168.3,49.3c-1.2-3.2-2.4-6.5-4.6-9.3
					C163.5,44,165.5,46.9,168.3,49.3"/>
			</defs>
			<clipPath id="SVGID_00000115474388618193457340000013346914370952390297_">
				<use xlink:href="#SVGID_00000065790618862541917580000015067402726184617135_"  style="overflow:visible;"/>
			</clipPath>
			
				<linearGradient id="SVGID_00000145025083711759554160000002304077437457628564_" gradientUnits="userSpaceOnUse" x1="-234.9423" y1="1544.5073" x2="-233.9423" y2="1544.5073" gradientTransform="matrix(-4.58 2.001960e-02 2.001960e-02 4.58 -938.6517 -7024.4976)">
				<stop  offset="0" style="stop-color:#BA5119"/>
				<stop  offset="0.49" style="stop-color:#FF9F6B"/>
				<stop  offset="1" style="stop-color:#BA5119"/>
			</linearGradient>
			
				<polygon style="clip-path:url(#SVGID_00000115474388618193457340000013346914370952390297_);fill:url(#SVGID_00000145025083711759554160000002304077437457628564_);" points="
				168.4,49.3 163.5,49.4 163.4,40 168.3,40 			"/>
		</g>
		<g>
			<defs>
				<path id="SVGID_00000183214694755153078520000006989133972054242236_" d="M174.5,46.8c-0.1,0.3,0.2,0.5,0.5,0.7
					c0.6,0.3,1.1,0.1,1.5-0.4c1.1-1.2,1.9-2.6,2.7-4.4c-1.8,1-2.3,2.8-3.8,3.8c1.5-2,1.9-4.3,2.7-6.6
					C176.1,41.8,175.1,44.2,174.5,46.8"/>
			</defs>
			<clipPath id="SVGID_00000090253909877183717530000009679928427719944860_">
				<use xlink:href="#SVGID_00000183214694755153078520000006989133972054242236_"  style="overflow:visible;"/>
			</clipPath>
			
				<linearGradient id="SVGID_00000175310831898544630850000006797461501737979278_" gradientUnits="userSpaceOnUse" x1="-236.2561" y1="1545.323" x2="-235.2561" y2="1545.323" gradientTransform="matrix(-4.68 9.887400e-03 9.887400e-03 4.68 -941.7774 -7185.9727)">
				<stop  offset="0" style="stop-color:#BA5119"/>
				<stop  offset="0.49" style="stop-color:#FF9F6B"/>
				<stop  offset="1" style="stop-color:#BA5119"/>
			</linearGradient>
			
				<polygon style="clip-path:url(#SVGID_00000090253909877183717530000009679928427719944860_);fill:url(#SVGID_00000175310831898544630850000006797461501737979278_);" points="
				179.2,47.7 174.4,47.7 174.4,39.9 179.2,39.9 			"/>
		</g>
		<g>
			<defs>
				<path id="SVGID_00000158027361240078575550000014455645840235870884_" d="M169.4,53.6c0,2.2,2.1,4.3,4.5,4.3
					c2.5,0,4.3-1.9,4.3-4.6c0-2.5-1.7-4.3-4.1-4.3C171.2,49,169.4,50.7,169.4,53.6"/>
			</defs>
			<clipPath id="SVGID_00000102515621991768343750000012060994083607538602_">
				<use xlink:href="#SVGID_00000158027361240078575550000014455645840235870884_"  style="overflow:visible;"/>
			</clipPath>
			
				<linearGradient id="SVGID_00000147938836984256152740000014346608636126617773_" gradientUnits="userSpaceOnUse" x1="-265.6787" y1="1559.4906" x2="-264.6787" y2="1559.4906" gradientTransform="matrix(-8.72 3.002960e-02 3.002960e-02 8.72 -2185.4189 -13537.3887)">
				<stop  offset="0" style="stop-color:#BA5119"/>
				<stop  offset="0.49" style="stop-color:#FF9F6B"/>
				<stop  offset="1" style="stop-color:#BA5119"/>
			</linearGradient>
			
				<polygon style="clip-path:url(#SVGID_00000102515621991768343750000012060994083607538602_);fill:url(#SVGID_00000147938836984256152740000014346608636126617773_);" points="
				178.2,57.9 169.4,58 169.4,49 178.2,48.9 			"/>
		</g>
	</g>
	<g>
		<path class="st27" d="M132.7,120.4c1.2,0,2.3,1,2.3,2.2c0,1.2-1,2.2-2.3,2.2c-1.2,0-2.3-1-2.3-2.2
			C130.4,121.4,131.4,120.5,132.7,120.4"/>
		<path class="st27" d="M144.7,123.4c1.2,0,2.3,1,2.3,2.2c0,1.2-1,2.2-2.3,2.2c-1.2,0-2.3-1-2.3-2.2
			C142.5,124.4,143.5,123.4,144.7,123.4"/>
		<path class="st27" d="M154.5,113.8c1.2,0,2.3,1,2.3,2.2c0,1.2-1,2.2-2.3,2.2c-1.2,0-2.3-1-2.3-2.2
			C152.2,114.8,153.2,113.8,154.5,113.8"/>
		<path class="st27" d="M168.3,109.4c1.2,0,2.3,1,2.3,2.2c0,1.2-1,2.2-2.3,2.2c-1.2,0-2.3-1-2.3-2.2
			C166.1,110.4,167.1,109.4,168.3,109.4"/>
		<path class="st27" d="M176,100.8c1.2,0,2.3,1,2.3,2.2c0,1.2-1,2.2-2.3,2.2c-1.2,0-2.3-1-2.3-2.2
			C173.7,101.7,174.8,100.8,176,100.8"/>
		<path class="st27" d="M179.3,106.5c1.2,0,2.3,1,2.3,2.2c0,1.2-1,2.2-2.3,2.2c-1.2,0-2.3-1-2.3-2.2
			C177,107.5,178,106.5,179.3,106.5"/>
		<path class="st27" d="M156.2,39.4c1.2,0,2.3,1,2.3,2.2c0,1.2-1,2.2-2.3,2.2c-1.2,0-2.3-1-2.3-2.2C154,40.4,155,39.4,156.2,39.4"/>
		<path class="st27" d="M185.7,40.8c1.3,0,2.3,1,2.3,2.2c0,1.2-1,2.2-2.3,2.3c-1.3,0-2.3-1-2.3-2.2
			C183.4,41.8,184.5,40.8,185.7,40.8"/>
		<path class="st27" d="M205.9,50.8c1.2,0,2.3,1,2.3,2.2c0,1.2-1,2.2-2.3,2.2c-1.2,0-2.3-1-2.3-2.2
			C203.6,51.8,204.6,50.8,205.9,50.8"/>
		<path class="st27" d="M220.2,47.5c1.2,0,2.3,1,2.3,2.2c0,1.2-1,2.2-2.3,2.2c-1.2,0-2.3-1-2.3-2.2C218,48.4,219,47.5,220.2,47.5"/>
	</g>
</g>
</svg>
