<?xml version="1.0" encoding="utf-8"?>
<!-- Generator: Adobe Illustrator 25.4.1, SVG Export Plug-In . SVG Version: 6.00 Build 0)  -->
<svg version="1.1" id="Layer_1" xmlns="http://www.w3.org/2000/svg" xmlns:xlink="http://www.w3.org/1999/xlink" x="0px" y="0px"
	 viewBox="0 0 518.6 517.7" style="enable-background:new 0 0 518.6 517.7;" xml:space="preserve">
<style type="text/css">
	.st0{fill:#DCEDCA;}
	.st1{fill:#BF5923;}
	.st2{fill:#24A0A0;}
	.st3{fill:#043B37;}
	.st4{fill:#74B72C;}
	.st5{fill:#A3B290;}
	.st6{fill:#FFFFFF;}
	.st7{fill:#5E8E20;}
</style>
<g id="cart_bag">
	<path class="st0" d="M486.4,321L320,487.4c-34.1,34.1-89.5,34.1-123.6,0L29.9,321c-34.1-34.1-34.1-89.5,0-123.6L160.6,66.7
		l12.9,50.7l40-21.1l14.9,58.8l0.9,3.6l0.9,3.6l1.4,5.6L234,179l0.1-1l0.5,1.8l2.9-18.4l0.6-3.7l0-0.1l0.6-3.8l19.4-121.5
		l-32.7,16.6L218.2,15c23.2-11.9,50.6-12.8,74.3-2.7L270.6,98l59.1-57.3l156.7,156.7C520.5,231.5,520.5,286.9,486.4,321z"/>
	<g>
		<path class="st1" d="M249.7,476.4c0,0,0.1-0.1,0.1-0.1c0.2-0.2,22.5-19.5,9-51.2c-0.4-1-1.6-1.5-2.6-1.1c-1,0.4-1.5,1.6-1.1,2.6
			c12.3,28.9-7,45.9-7.9,46.6c-0.8,0.7-0.9,2-0.2,2.8C247.7,476.9,248.8,477,249.7,476.4z"/>
		<path class="st2" d="M302.5,429.2c-0.1,0-0.1,0-0.2,0c-0.3,0-29.7-1.8-38.3-35.1c-0.3-1.1,0.4-2.2,1.4-2.4
			c1.1-0.3,2.2,0.4,2.4,1.4c7.9,30.4,33.6,32.1,34.7,32.1c1.1,0.1,2,1,1.9,2.1C304.4,428.3,303.5,429.2,302.5,429.2z"/>
		<circle class="st3" cx="225.5" cy="440.6" r="8.7"/>
		<circle class="st4" cx="283.3" cy="474.2" r="8.7"/>
	</g>
	<g>
		<path class="st3" d="M201.5,335.8c2-0.2,3.8,1.2,4.1,3.2l2.8,23.2c1,8.1,5.2,15.5,11.7,20.4c13.7,10.6,33.4,8,44-5.7
			c4.9-6.3,7.2-14.3,6.4-22.3l-2.8-23.2c-0.2-2,1.2-3.8,3.2-4.1c2-0.2,3.8,1.2,4.1,3.2l2.8,23.2c2.1,21.3-13.5,40.2-34.7,42.3
			c-9.7,1-19.5-1.8-27.3-7.7c-8-6.1-13.3-15.2-14.5-25.2l-2.8-23.2C198.2,337.9,199.5,336.1,201.5,335.8z"/>
		<path class="st5" d="M340.7,322.4l-17.2,2.1l-4.1,0.5l-7.2,0.9v0l-37.3,4.5l-7.2,0.9l-17.6,2.2l-7.2,0.9l-25.7,3.1l-3.6,0.4
			l-0.2-1.5L195,186.6c0-0.4-0.1-0.8-0.2-1.2c0-0.1,0-0.2,0-0.2c0-0.3-0.1-0.6-0.2-0.8c0,0,0-0.1,0-0.1c0-0.1-0.1-0.3-0.1-0.5
			c0,0,0,0,0,0c0,0,0-0.1,0-0.1c0,0,0,0,0,0c0-0.1,0-0.2-0.1-0.3c-0.1-0.4-0.2-0.7-0.3-1.1c0-0.1-0.1-0.3-0.1-0.4
			c-0.1-0.2-0.1-0.4-0.2-0.5c0-0.1-0.1-0.2-0.1-0.3c0-0.1-0.1-0.2-0.1-0.3c0-0.1-0.1-0.3-0.2-0.4c0-0.1-0.1-0.2-0.1-0.3
			c-0.1-0.2-0.1-0.3-0.2-0.4c-0.1-0.3-0.3-0.6-0.5-0.9c-0.1-0.2-0.2-0.4-0.4-0.7c-0.1-0.1-0.2-0.3-0.2-0.4c-0.3-0.5-0.6-1-1-1.5
			c-0.1-0.2-0.3-0.4-0.4-0.6c-0.1-0.1-0.2-0.2-0.3-0.4c-0.1-0.1-0.2-0.2-0.3-0.4c-0.1-0.1-0.2-0.3-0.3-0.4c-0.1-0.1-0.2-0.3-0.3-0.4
			c0,0,0,0,0,0c-0.2-0.2-0.4-0.4-0.6-0.6c0,0-0.1-0.1-0.1-0.1c-0.1-0.1-0.2-0.2-0.3-0.3c-0.1-0.1-0.2-0.2-0.3-0.2c0,0,0,0,0,0
			c-0.1-0.1-0.3-0.3-0.4-0.4c-0.1-0.1-0.2-0.2-0.4-0.3c-0.1-0.1-0.2-0.2-0.4-0.3c-0.2-0.2-0.5-0.4-0.8-0.6c-0.6-0.5-1.3-0.9-1.9-1.3
			c-0.2-0.2-0.4-0.3-0.7-0.4c-0.2-0.1-0.4-0.3-0.7-0.4c-0.2-0.1-0.5-0.3-0.7-0.4c-0.2-0.1-0.5-0.2-0.7-0.3c-0.2-0.1-0.5-0.2-0.7-0.3
			c-0.2-0.1-0.5-0.2-0.8-0.3c-0.2-0.1-0.5-0.2-0.8-0.3c-0.1-0.1-0.3-0.1-0.4-0.1c-0.3-0.1-0.5-0.2-0.8-0.2c-1.2-0.3-2.4-0.6-3.6-0.7
			c-0.1,0-0.3,0-0.4,0c-0.2,0-0.4,0-0.6-0.1c-0.3,0-0.6,0-0.9-0.1c-0.3,0-0.7,0-1,0c-0.5,0-1,0-1.5,0l12.3-1.5h0l47-5.8l0.9,3.6
			l1.4,5.6L234,179l0.1-1l0.5,1.8l2.9-18.4l0.6-3.7l0-0.1l69.1-8.5c12.4-1.6,23.9,7.1,25.5,19.5v0l17.4,142
			C350.7,316.5,346.5,321.8,340.7,322.4z"/>
		<path class="st6" d="M152.8,168l17.1-2.1c5.8-0.4,11.5,1.4,16.2,4.9c5,3.8,8.3,9.5,9,15.7L213.5,338l-17.1,2.1l-18.5-151.3
			c-0.8-6.2-4-11.9-9-15.7C164.3,169.5,158.6,167.7,152.8,168z"/>
		<path class="st6" d="M331.2,319.9c-1.7,2.5-4.4,4.3-7.6,4.6l-4.1,0.5l-7.2,0.9l-37.3,4.6l-7.2,0.9l-17.6,2.2l-7.2,0.9l-25.7,3.1
			l-3.6,0.4l-0.2-1.5L195,186.6c0-0.4-0.1-0.8-0.2-1.2c0-0.1,0-0.2,0-0.2c0-0.3-0.1-0.6-0.2-0.8c0,0,0-0.1,0-0.1
			c0-0.1,0-0.2-0.1-0.3c0,0,0-0.1,0-0.1c0,0,0,0,0,0c0,0,0-0.1,0-0.1c0,0,0,0,0,0c-0.2-0.6-0.3-1.2-0.5-1.8
			c-0.1-0.2-0.1-0.4-0.2-0.5c0-0.1-0.1-0.2-0.1-0.3c0-0.1-0.1-0.2-0.1-0.3c0-0.1-0.1-0.3-0.2-0.4c-0.1-0.2-0.2-0.5-0.3-0.7
			c-0.1-0.3-0.3-0.6-0.5-0.9c-0.1-0.2-0.2-0.4-0.4-0.7c-0.1-0.1-0.2-0.3-0.2-0.4c-0.3-0.5-0.6-1-1-1.5c-0.1-0.2-0.3-0.4-0.4-0.6
			c0,0,0-0.1,0-0.1c0-0.1-0.1-0.2-0.2-0.2c0,0,0,0,0,0c-0.1-0.1-0.2-0.2-0.3-0.4c-0.2-0.3-0.4-0.5-0.7-0.8c-0.2-0.3-0.5-0.5-0.7-0.8
			c-0.1-0.1-0.2-0.2-0.3-0.3c-0.1-0.1-0.2-0.2-0.3-0.3c-0.1-0.1-0.3-0.3-0.4-0.4c-0.1-0.1-0.2-0.2-0.4-0.3c-0.1-0.1-0.2-0.2-0.4-0.3
			c-0.2-0.2-0.5-0.4-0.8-0.6c-0.3-0.2-0.6-0.5-0.9-0.7c-0.3-0.2-0.7-0.5-1-0.7c-0.2-0.2-0.4-0.3-0.7-0.4c-0.2-0.1-0.4-0.3-0.7-0.4
			c-0.2-0.1-0.5-0.3-0.7-0.4c-0.2-0.1-0.5-0.2-0.7-0.3c-0.2-0.1-0.5-0.2-0.7-0.3c-0.2-0.1-0.5-0.2-0.8-0.3c-0.2-0.1-0.5-0.2-0.8-0.3
			c-0.1-0.1-0.3-0.1-0.4-0.1c-0.3-0.1-0.5-0.2-0.8-0.2c-1.2-0.3-2.4-0.6-3.6-0.7c-0.1,0-0.3,0-0.4,0c-0.2,0-0.4,0-0.6-0.1
			c-0.3,0-0.6,0-0.9-0.1c-0.3,0-0.7,0-1,0c-0.5,0-1,0-1.5,0l12.3-1.5h0l47-5.8l0.9,3.6l1.4,5.6L234,179l0.1-1l0.5,1.8l2.9-18.4
			l0.6-3.7c7.1-0.6,14.1-0.2,20.8,1.1h0c32.7,6,59.1,32.3,63.3,66.6l10.7,87.5C333.2,315.4,332.5,317.9,331.2,319.9z"/>
		<path class="st3" d="M353.7,310.3l-17.4-142c-1.9-14.4-15.1-24.6-29.6-22.8l-68,8.3l-0.6,3.8l0,0.1l-0.6,3.7l21.4-2.6h0l48.7-6
			c10.4-1.4,20,6,21.4,16.4l17.4,142c0.4,3.8-2.3,7.2-6.1,7.6l-9.1,1.1l-12.2,1.5l-7.2,0.9l-40.8,5l-0.1,0l-0.1,0h0c0,0,0,0-0.1,0
			l-21.1,2.6l-7.2,0.9l-25.6,3.1l-18.1-147.7c0-0.4-0.1-0.7-0.2-1.1c-0.1-0.3-0.1-0.6-0.2-0.9c0-0.3-0.1-0.5-0.2-0.8
			c0-0.2-0.1-0.5-0.2-0.7c-0.2-0.7-0.4-1.4-0.6-2c-0.1-0.3-0.2-0.6-0.3-0.9c-0.1-0.3-0.2-0.6-0.4-0.9c-0.1-0.3-0.3-0.6-0.4-0.9
			c-0.4-0.9-0.9-1.7-1.4-2.5c0,0,0-0.1-0.1-0.1c-0.2-0.2-0.3-0.5-0.5-0.7c-0.2-0.3-0.4-0.5-0.5-0.8c-0.2-0.2-0.4-0.5-0.5-0.7
			c-0.1-0.1-0.2-0.2-0.3-0.3c-0.1-0.2-0.2-0.3-0.4-0.5c-0.2-0.3-0.4-0.5-0.7-0.8c-0.2-0.3-0.5-0.5-0.8-0.8c-0.3-0.3-0.6-0.6-1-0.9
			c-0.3-0.3-0.7-0.6-1-0.9c-0.3-0.3-0.7-0.6-1.1-0.8c-0.2-0.2-0.5-0.3-0.7-0.5l42.6-5.2l-0.9-3.6l-0.9-3.6l-58.6,7.2c0,0,0,0-0.1,0
			c-0.1,0-0.2,0-0.3,0c-2,0.2-3.4,2.1-3.2,4.1v0c0,0,0,0,0,0.1c0.2,1.4,1.2,2.6,2.4,3c0.5,0.2,0.9,0.2,1.4,0.2
			c4.9-0.3,9.8,1.2,13.7,4.2c4.2,3.2,7,8,7.6,13.2l18.1,147.7l0.1,1.1l0.3,2.6v0c0.2,1.8,1.8,3.2,3.6,3.2l0.1,0c0.1,0,0.2,0,0.4,0
			l29.3-3.6l7.2-0.9l17.6-2.2l7.2-0.9l37.3-4.6l7.2-0.9l21.3-2.6C349,325.1,354.6,318.1,353.7,310.3z M249.6,329.9l-7.2,0.9
			l-25.6,3.1l-18.1-147.7c0-0.4-0.1-0.7-0.2-1.1c-0.1-0.3-0.1-0.6-0.2-0.9c0-0.3-0.1-0.5-0.2-0.8c0-0.2-0.1-0.5-0.2-0.7
			c-0.2-0.7-0.4-1.4-0.6-2c-0.1-0.3-0.2-0.6-0.3-0.9c-0.1-0.3-0.2-0.6-0.4-0.9c-0.1-0.3-0.3-0.6-0.4-0.9c-0.4-0.9-0.9-1.7-1.4-2.5
			c0,0,0-0.1-0.1-0.1c-0.2-0.2-0.3-0.5-0.5-0.7c-0.2-0.3-0.4-0.5-0.5-0.8c-0.2-0.2-0.4-0.5-0.5-0.7c-0.1-0.1-0.2-0.2-0.3-0.3
			c0.1,0.2,0.2,0.3,0.4,0.5c0.2,0.2,0.3,0.5,0.5,0.7c0.3,0.5,0.7,1,1,1.5c0.5,0.8,0.9,1.5,1.3,2.3c0.2,0.5,0.5,1,0.7,1.5
			c0.2,0.6,0.4,1.1,0.6,1.7c0.1,0.3,0.2,0.6,0.3,0.9c0.4,1.4,0.7,2.9,0.9,4.4l18.5,151.4v0l25.7-3.1l7.2-0.9l17.6-2.2v0
			c0-0.3,0-0.5,0-0.8c0-0.1,0-0.1,0-0.2c0-0.1,0-0.1,0-0.2c0,0,0,0,0,0c0-0.1,0-0.2,0.1-0.2c0-0.1,0.1-0.3,0.1-0.4
			c0-0.1,0.1-0.2,0.1-0.3c0-0.1,0.1-0.1,0.1-0.2c0-0.1,0.1-0.2,0.2-0.3c0.1-0.1,0.2-0.2,0.2-0.3c0.1-0.1,0.2-0.2,0.3-0.3
			c0.1-0.1,0.2-0.2,0.4-0.3c0,0,0.1-0.1,0.1-0.1c0,0,0.1,0,0.1-0.1c0,0,0,0,0,0c0.1,0,0.2-0.1,0.3-0.1c0.1,0,0.2-0.1,0.3-0.1
			c0.1,0,0.2-0.1,0.3-0.1c0,0,0.1,0,0.2,0c0,0,0.1,0,0.1,0L249.6,329.9z M249.6,329.9l-7.2,0.9l-25.6,3.1l-18.1-147.7
			c0-0.4-0.1-0.7-0.2-1.1c-0.1-0.3-0.1-0.6-0.2-0.9c0-0.3-0.1-0.5-0.2-0.8c0-0.2-0.1-0.5-0.2-0.7c-0.2-0.7-0.4-1.4-0.6-2
			c-0.1-0.3-0.2-0.6-0.3-0.9c-0.1-0.3-0.2-0.6-0.4-0.9c-0.1-0.3-0.3-0.6-0.4-0.9c-0.4-0.9-0.9-1.7-1.4-2.5c0,0,0-0.1-0.1-0.1
			c-0.2-0.2-0.3-0.5-0.5-0.7c-0.2-0.3-0.4-0.5-0.5-0.8c-0.2-0.2-0.4-0.5-0.5-0.7c-0.1-0.1-0.2-0.2-0.3-0.3c0.1,0.2,0.2,0.3,0.4,0.5
			c0.2,0.2,0.3,0.5,0.5,0.7c0.3,0.5,0.7,1,1,1.5c0.5,0.8,0.9,1.5,1.3,2.3c0.2,0.5,0.5,1,0.7,1.5c0.2,0.6,0.4,1.1,0.6,1.7
			c0.1,0.3,0.2,0.6,0.3,0.9c0.4,1.4,0.7,2.9,0.9,4.4l18.5,151.4v0l25.7-3.1l7.2-0.9l17.6-2.2v0c0-0.3,0-0.5,0-0.8c0-0.1,0-0.1,0-0.2
			c0-0.1,0-0.1,0-0.2c0,0,0,0,0,0c0-0.1,0-0.2,0.1-0.2c0-0.1,0.1-0.3,0.1-0.4c0-0.1,0.1-0.2,0.1-0.3c0-0.1,0.1-0.1,0.1-0.2
			c0-0.1,0.1-0.2,0.2-0.3c0.1-0.1,0.2-0.2,0.2-0.3c0.1-0.1,0.2-0.2,0.3-0.3c0.1-0.1,0.2-0.2,0.4-0.3c0,0,0.1-0.1,0.1-0.1
			c0,0,0.1,0,0.1-0.1c0,0,0,0,0,0c0.1,0,0.2-0.1,0.3-0.1c0.1,0,0.2-0.1,0.3-0.1c0.1,0,0.2-0.1,0.3-0.1c0,0,0.1,0,0.2,0
			c0,0,0.1,0,0.1,0L249.6,329.9z"/>
		<path class="st7" d="M164.6,333.4l-17.2-140.9c-1.5-13.1,7.9-24.9,20.9-26.4c0,0,0,0,0,0c0.5-0.1,1-0.2,1.5-0.2
			c1.6-0.1,3.1,0,4.7,0.2c4.2,0.5,8.1,2.2,11.5,4.8c5,3.8,8.3,9.5,9,15.7L213.5,338l-37.1,4.5C170.6,343.2,165.3,339.2,164.6,333.4z
			"/>
		<path class="st4" d="M172.3,295.4L159.5,191c-1.2-10.7,5-20.9,15-24.8c4.2,0.5,8.1,2.2,11.5,4.8c5,3.8,8.3,9.5,9,15.7l18.3,149.8
			C191.9,333.7,175,316.9,172.3,295.4z"/>
		<path class="st3" d="M217.2,337.6L217.2,337.6l-18.5-151.4c-0.2-1.5-0.5-3-0.9-4.4c-0.1-0.3-0.2-0.6-0.3-0.9
			c-0.2-0.6-0.4-1.1-0.6-1.7c-0.2-0.5-0.4-1-0.7-1.5c-0.4-0.8-0.8-1.6-1.3-2.3c-0.3-0.5-0.6-1-1-1.5c-0.2-0.3-0.4-0.6-0.6-0.9
			c-0.1-0.1-0.2-0.2-0.3-0.3c-0.1-0.2-0.2-0.3-0.4-0.5c-0.2-0.3-0.4-0.5-0.7-0.8c-0.2-0.3-0.5-0.5-0.8-0.8c-0.3-0.3-0.6-0.6-1-0.9
			c-0.3-0.3-0.7-0.6-1-0.9c-0.3-0.3-0.7-0.6-1.1-0.8c-0.2-0.2-0.5-0.3-0.7-0.5c-1.7-1.2-3.5-2.2-5.4-3h0c-3.9-1.7-8.2-2.4-12.4-2.2
			c0,0,0,0-0.1,0c-0.1,0-0.2,0-0.3,0c-0.5,0-1,0.1-1.5,0.2c-5,0.6-9.6,2.5-13.3,5.3h0l0,0c-0.1,0.1-0.1,0.1-0.2,0.2
			c-7.4,5.7-11.7,15-10.6,24.9l17.2,140.9c1,7.8,8.1,13.3,15.9,12.3l22-2.7l7.1-0.9l7.6-0.9l0.1,0l0.4,0
			C216,341.3,217.4,339.5,217.2,337.6z M201.5,335.8l-0.1,0l-5.5,0.7l-20,2.5c-3.8,0.5-7.3-2.2-7.8-6L151,192.1
			c-1.1-9.8,5-18.7,14.1-21.5h0c1-0.3,2-0.5,3-0.7c0.2,0,0.4-0.1,0.7-0.1l1.1-0.1l0.3,0c4.9-0.3,9.8,1.2,13.7,4.2
			c4.2,3.2,7,8,7.6,13.2l18.1,147.7h0l-2.8,0.3L201.5,335.8z"/>
		<path class="st3" d="M241.8,295.9c2-0.2,3.8,1.2,4.1,3.2l7,57.5c2.1,17.2,17.7,29.4,34.9,27.3c17.1-2.1,29.4-17.7,27.3-34.9
			l-7-57.5c-0.2-2,1.2-3.8,3.2-4.1s3.8,1.2,4.1,3.2l7,57.5c2.6,21.2-12.5,40.4-33.6,43c-21.2,2.6-40.4-12.5-43-33.6l-7-57.5
			C238.3,298,239.8,296.2,241.8,295.9z"/>
		<path class="st3" d="M282.9,244.2L282.9,244.2c0-0.2-0.1-0.5-0.2-0.7l-11-28.4c0,0,0-0.1,0-0.1c0-0.1-0.1-0.1-0.1-0.2
			c-0.1-0.2-0.3-0.5-0.4-0.7c-0.2-0.2-0.4-0.4-0.6-0.6c-0.1-0.1-0.2-0.2-0.3-0.2c-0.4-0.2-0.8-0.4-1.3-0.5c0,0-0.1,0-0.2,0
			c-0.3,0-0.6,0-1,0l-24.9,3c-3.1,0.4-5.6,2.8-6,6l-3,23.6c-0.1,0.5-0.1,1.1,0,1.7c0.4,3.8,3.9,6.4,7.6,6l35.3-4.3l2.8-0.3
			c0.3,0,0.6-0.1,0.9-0.2C282.3,247.6,283.2,245.9,282.9,244.2z M241.3,245.8l2.9-22.7l21.7-2.6l0.1,0l8.3,21.4h0L241.3,245.8z"/>
		<path class="st3" d="M267.9,212.8c1.7-0.2,3.3,0.8,3.9,2.3l14.6,38c0,0.1,0.1,0.2,0.2,0.2l9.4-1.2c2-0.2,3.8,1.2,4.1,3.2
			c0.2,2-1.2,3.8-3.2,4.1l-9.3,1.1c-3.4,0.4-6.7-1.6-7.9-4.8l-14.8-38c-0.7-1.9,0.3-4,2.2-4.8C267.3,212.9,267.6,212.8,267.9,212.8z
			"/>
		<path class="st3" d="M261,202.2l0.3,0c2-0.2,3.8,1.2,4.1,3.2c0.2,2-1.2,3.8-3.2,4.1l-0.3,0c-2,0.2-3.8-1.2-4.1-3.2
			C257.6,204.2,259,202.4,261,202.2z"/>
		<path class="st3" d="M245.1,204.1l0.3,0c2-0.2,3.8,1.2,4.1,3.2c0.2,2-1.2,3.8-3.2,4.1l-0.3,0c-2,0.2-3.8-1.2-4.1-3.2
			S243.1,204.4,245.1,204.1z"/>
	</g>
</g>
</svg>
