<svg width="49" height="52" viewBox="0 0 49 52" fill="none" xmlns="http://www.w3.org/2000/svg">
<path d="M3.47015 4.4537C-0.319991 8.60447 0.455723 13.0137 0.455723 26.4089C0.455723 37.5327 -1.38509 48.6841 8.24903 51.3093C11.2574 52.125 37.913 52.125 40.9174 51.3051C44.9286 50.2139 48.1923 46.7835 48.6384 40.8021C48.7007 39.9673 48.7007 12.8654 48.6364 12.0137C48.1621 5.64236 44.4423 1.97044 39.5408 1.22674C38.4175 1.05511 38.1924 1.00426 32.4288 0.993666C11.9849 1.00426 7.50346 0.0444347 3.47015 4.4537Z" fill="url(#paint0_linear_2070_298)"/>
<path d="M24.5672 7.64464C17.2702 7.64464 10.341 6.96026 7.69438 14.1219C6.60114 17.0798 6.7599 20.9212 6.7599 26.4216C6.7599 31.2483 6.6132 35.7847 7.69438 38.7193C10.335 45.8851 17.3205 45.1986 24.5631 45.1986C31.5506 45.1986 38.7551 45.9656 41.4339 38.7193C42.5291 35.7317 42.3684 31.9475 42.3684 26.4216C42.3684 19.0863 42.7522 14.3507 39.3781 10.7953C35.9617 7.19333 31.3416 7.64464 24.5591 7.64464H24.5672ZM22.9715 11.0284C38.1924 11.003 40.1297 9.21893 39.0605 34.0028C38.6807 42.7683 32.3504 41.8064 24.5692 41.8064C10.3812 41.8064 9.97329 41.3784 9.97329 26.4132C9.97329 11.2742 11.0987 11.0369 22.9715 11.0242V11.0284ZM34.0727 14.1452C32.893 14.1452 31.9364 15.1537 31.9364 16.3975C31.9364 17.6412 32.893 18.6498 34.0727 18.6498C35.2523 18.6498 36.2089 17.6412 36.2089 16.3975C36.2089 15.1537 35.2523 14.1452 34.0727 14.1452ZM24.5672 16.7789C19.517 16.7789 15.4234 21.097 15.4234 26.4216C15.4234 31.7462 19.517 36.0623 24.5672 36.0623C29.6173 36.0623 33.7089 31.7462 33.7089 26.4216C33.7089 21.097 29.6173 16.7789 24.5672 16.7789ZM24.5672 20.1626C32.4147 20.1626 32.4248 32.6806 24.5672 32.6806C16.7216 32.6806 16.7095 20.1626 24.5672 20.1626Z" fill="white"/>
<defs>
<linearGradient id="paint0_linear_2070_298" x1="3.56264" y1="48.5974" x2="50.4026" y2="10.1473" gradientUnits="userSpaceOnUse">
<stop stop-color="#FFDD55"/>
<stop offset="0.5" stop-color="#FF543E"/>
<stop offset="1" stop-color="#C837AB"/>
</linearGradient>
</defs>
</svg>
