<svg width="26" height="26" viewBox="0 0 26 26" fill="none" xmlns="http://www.w3.org/2000/svg">
<path d="M13.9945 17.9739L10.0163 21.9531L10.0162 21.9532L10.0162 21.9533C8.37108 23.5989 5.69418 23.599 4.04892 21.9533C3.25189 21.1561 2.81305 20.0962 2.81305 18.9689C2.81305 17.8417 3.25189 16.7819 4.04864 15.9847L8.02704 12.0052C8.57624 11.4557 8.57624 10.5649 8.02695 10.0155C7.47775 9.46619 6.58713 9.46619 6.03784 10.0155L2.05972 13.9948C2.05943 13.9951 2.05915 13.9954 2.05887 13.9957C0.731206 15.3242 0 17.0904 0 18.9689C0 20.8478 0.731487 22.6143 2.05981 23.9429C3.43089 25.3143 5.23171 26 7.03263 26C8.83351 26 10.6344 25.3143 12.0053 23.943C12.0053 23.943 12.0054 23.9429 12.0054 23.9429C12.0054 23.9428 12.0055 23.9427 12.0055 23.9427L15.9836 19.9635C16.5328 19.4142 16.5328 18.5233 15.9835 17.9739C15.4344 17.4246 14.5438 17.4246 13.9945 17.9739Z" fill="white"/>
<path d="M26 7.03106C26 5.15212 25.2684 3.38563 23.9401 2.05697C21.1981 -0.685633 16.7367 -0.68561 13.9948 2.05676C13.9946 2.0569 13.9945 2.05707 13.9944 2.05721C13.9942 2.05735 13.9941 2.05751 13.994 2.05765L10.0162 6.03639C9.46686 6.58574 9.46686 7.47667 10.0162 8.02601C10.2909 8.30082 10.6508 8.43814 11.0108 8.43814C11.3706 8.43814 11.7307 8.30073 12.0053 8.02601L15.9828 4.04753C15.9831 4.04722 15.9834 4.0469 15.9838 4.04659C17.6288 2.4011 20.3057 2.401 21.951 4.04659C22.7479 4.84382 23.187 5.90377 23.187 7.03106C23.187 8.15826 22.7481 9.21802 21.9513 10.0153L21.951 10.0155L17.9729 13.9948C17.4237 14.5441 17.4237 15.435 17.973 15.9844C18.2476 16.2591 18.6076 16.3965 18.9675 16.3965C19.3274 16.3965 19.6874 16.2591 19.9621 15.9844L23.9402 12.0052C23.9405 12.0049 23.9408 12.0045 23.941 12.0042C25.2687 10.6757 26 8.90954 26 7.03106Z" fill="white"/>
<path d="M8.02723 17.9739C8.30188 18.2486 8.66185 18.386 9.02174 18.386C9.38171 18.386 9.74169 18.2486 10.0163 17.9739L17.9728 10.0154C18.5221 9.4661 18.5221 8.57526 17.9728 8.02582C17.4236 7.47648 16.533 7.47648 15.9837 8.02582L8.02723 15.9842C7.47793 16.5337 7.47793 17.4246 8.02723 17.9739Z" fill="white"/>
</svg>
