<?xml version="1.0" encoding="utf-8"?>
<!-- Generator: Adobe Illustrator 25.4.1, SVG Export Plug-In . SVG Version: 6.00 Build 0)  -->
<svg version="1.1" id="Layer_1" xmlns="http://www.w3.org/2000/svg" xmlns:xlink="http://www.w3.org/1999/xlink" x="0px" y="0px"
	 viewBox="0 0 358 387" style="enable-background:new 0 0 358 387;" xml:space="preserve">
<g>
	<g>
		<g>
			<path style="opacity:0.82;fill-rule:evenodd;clip-rule:evenodd;fill:#D6E2EA;" d="M37.89,217c2.07-15.15,16.75-8.8,24.17,3.02
				c7.31,11.63,26.35,57.61,39.51,69.76l-4.66,1.3C73.81,278.06,35.23,236.48,37.89,217z"/>
			<path style="fill-rule:evenodd;clip-rule:evenodd;fill:#CCCAE8;" d="M98.7,290.58c-31.75-24.42-53.39-75.78-53.46-75.95
				c-0.13-0.31,0.01-0.67,0.33-0.81c0.31-0.13,0.67,0.01,0.81,0.33c0.07,0.17,21.95,52.09,53.8,76.02L98.7,290.58z"/>
		</g>
		<g>
			<path style="opacity:0.82;fill-rule:evenodd;clip-rule:evenodd;fill:#B7D3EA;" d="M44.21,261.1
				c-11.63,2.71-5.63,13.66,4.09,18.57c4.59,2.32,15.53,6.17,26.82,10.58l0,0l0.01,0c0.45,0.17,0.89,0.35,1.34,0.53
				c5.85,2.14,12.39,2.55,18.82,0.75l1.77-0.5C81.58,275.39,56.3,258.29,44.21,261.1z"/>
			<linearGradient id="SVGID_1_" gradientUnits="userSpaceOnUse" x1="42.2736" y1="279.614" x2="93.2547" y2="279.614">
				<stop  offset="0" style="stop-color:#8D78ED"/>
				<stop  offset="1" style="stop-color:#BE9BE8"/>
			</linearGradient>
			<path style="fill-rule:evenodd;clip-rule:evenodd;fill:url(#SVGID_1_);" d="M93.25,292.03c-21.86-16.05-50.24-25.01-50.35-25.05
				c-0.25-0.08-0.52,0.06-0.6,0.31c-0.08,0.25,0.06,0.52,0.31,0.61c0.11,0.04,27.77,8.77,49.37,24.37
				C92.4,292.2,92.83,292.12,93.25,292.03z"/>
		</g>
	</g>
	<g style="opacity:0.75;">
		<g>
			<path style="fill-rule:evenodd;clip-rule:evenodd;fill:#F9A5C5;" d="M329.91,81.58c-2.98-12.81-15.04-6.2-20.45,4.51
				c-5.32,10.54-17.95,51.43-28.25,62.88l4.09,0.74C304.04,136.72,333.74,98.05,329.91,81.58z"/>
			<path style="fill-rule:evenodd;clip-rule:evenodd;fill:#FFFFFF;" d="M283.73,149.43c25.23-23.44,39.65-69.13,39.7-69.29
				c0.09-0.28-0.06-0.58-0.34-0.67c-0.28-0.09-0.58,0.06-0.67,0.34c-0.05,0.15-14.62,46.35-39.98,69.38L283.73,149.43z"/>
		</g>
		<g>
			<path style="fill-rule:evenodd;clip-rule:evenodd;fill:#EA608E;" d="M328.02,119.84c10.17,1.39,5.91,11.24-2.02,16.23
				c-3.75,2.35-12.8,6.52-22.11,11.2l0,0l-0.01,0c-0.37,0.18-0.74,0.37-1.1,0.56c-4.84,2.3-10.4,3.17-16.05,2.15l-1.56-0.28
				C297.17,135.06,317.44,118.4,328.02,119.84z"/>
			<path style="fill-rule:evenodd;clip-rule:evenodd;fill:#FFFFFF;" d="M288.51,150.23c17.43-15.49,41.01-25.42,41.1-25.46
				c0.21-0.09,0.45,0.01,0.54,0.22c0.09,0.21-0.01,0.45-0.22,0.54c-0.09,0.04-23.07,9.72-40.31,24.8
				C289.25,150.31,288.88,150.28,288.51,150.23z"/>
		</g>
	</g>
	<path style="fill-rule:evenodd;clip-rule:evenodd;fill:#E7EBF2;" d="M271.14,10.69L90.59,114.94c-6.38,3.68-11.6,12.69-11.6,20.01
		l1.48,229.49c0,7.32,5.22,10.3,11.6,6.61l180.56-104.25c6.38-3.68,11.6-12.69,11.6-20.01l-1.48-229.49
		C282.75,9.99,277.53,7.01,271.14,10.69z"/>
	<g>
		<path style="fill-rule:evenodd;clip-rule:evenodd;fill:#D1D7E0;" d="M281.3,14.71L100.74,118.96c-6.38,3.68-11.6,12.69-11.6,20.01
			l1.48,229.5c0,7.32,5.22,10.3,11.6,6.61l180.57-104.25c6.38-3.68,11.6-12.69,11.6-20.01l-1.48-229.5
			C292.9,14,287.68,11.03,281.3,14.71z"/>
		<path style="fill-rule:evenodd;clip-rule:evenodd;fill:#2C3C9B;" d="M286.7,21.84L110.47,123.59
			c-6.23,3.6-11.32,12.38-11.32,19.53l1.57,224.33c0,7.15,5.09,10.05,11.32,6.46l176.23-101.75c6.23-3.6,11.32-12.38,11.32-19.53
			l-1.57-224.33C298.03,21.15,292.93,18.24,286.7,21.84z"/>
		<path style="fill-rule:evenodd;clip-rule:evenodd;fill:#F73C74;" d="M286.7,21.84L110.47,123.59
			c-6.23,3.6-11.32,12.38-11.32,19.53v32.65L298.2,61.23l-0.17-32.93C298.03,21.15,292.93,18.24,286.7,21.84z"/>
		<g>
			<path style="fill-rule:evenodd;clip-rule:evenodd;fill:#FFFFFF;" d="M272.45,58.43c1.9-1.1,3.45-3.77,3.45-5.95
				c0-2.18-1.55-3.07-3.45-1.97c-1.9,1.1-3.45,3.77-3.45,5.96S270.55,59.53,272.45,58.43z"/>
			<path style="fill-rule:evenodd;clip-rule:evenodd;fill:#FFFFFF;" d="M258.64,66.4c1.9-1.1,3.45-3.77,3.45-5.95
				s-1.55-3.07-3.45-1.97c-1.9,1.1-3.45,3.77-3.45,5.96S256.74,67.5,258.64,66.4z"/>
			<path style="fill-rule:evenodd;clip-rule:evenodd;fill:#FFFFFF;" d="M244.83,74.38c1.9-1.1,3.45-3.77,3.45-5.95
				s-1.55-3.07-3.45-1.97c-1.9,1.1-3.45,3.77-3.45,5.96S242.93,75.47,244.83,74.38z"/>
		</g>
	</g>
	<g>
		<path style="fill:#F73C74;stroke:#FFFFFF;stroke-width:2.0136;stroke-miterlimit:10;" d="M269.97,245.38l-33.16,19.14
			c-1.77,1.02-3.22-0.07-3.22-2.44v-8.11c0-2.36,1.45-5.13,3.22-6.16l33.16-19.14c1.77-1.02,3.22,0.07,3.22,2.44v8.11
			C273.2,241.59,271.75,244.36,269.97,245.38z"/>
		<g>
			<path style="fill:#FFFFFF;" d="M244.24,253.44l1.62-0.93v1.07l-2.83,1.64v-5.76l1.21-0.7V253.44z"/>
			<path style="fill:#FFFFFF;" d="M250.08,245.66c0.39,0.03,0.69,0.2,0.91,0.52c0.22,0.32,0.33,0.76,0.33,1.33
				c0,0.56-0.11,1.14-0.34,1.72c-0.22,0.58-0.53,1.11-0.92,1.58c-0.39,0.48-0.81,0.85-1.28,1.12s-0.9,0.39-1.28,0.36
				c-0.39-0.03-0.69-0.2-0.92-0.53c-0.22-0.32-0.34-0.76-0.34-1.33c0-0.56,0.11-1.14,0.34-1.71c0.22-0.58,0.53-1.1,0.92-1.58
				c0.39-0.48,0.81-0.85,1.28-1.12C249.27,245.76,249.7,245.64,250.08,245.66z M247.85,248.32c-0.23,0.43-0.35,0.9-0.35,1.41
				c0,0.51,0.12,0.84,0.35,1c0.23,0.16,0.55,0.13,0.95-0.1c0.39-0.23,0.71-0.56,0.94-0.99c0.24-0.43,0.36-0.91,0.36-1.41
				c0-0.51-0.12-0.84-0.35-1c-0.23-0.16-0.55-0.13-0.95,0.1C248.4,247.55,248.08,247.89,247.85,248.32z"/>
			<path style="fill:#FFFFFF;" d="M255.9,242.49c0.41,0.12,0.66,0.45,0.76,1l-1.29,0.74c-0.09-0.16-0.22-0.25-0.39-0.27
				c-0.18-0.02-0.39,0.04-0.63,0.18c-0.38,0.22-0.69,0.55-0.92,0.98c-0.23,0.43-0.35,0.9-0.35,1.4c0,0.55,0.12,0.9,0.37,1.05
				c0.24,0.15,0.59,0.1,1.04-0.16c0.29-0.17,0.54-0.4,0.76-0.71c0.22-0.31,0.37-0.66,0.46-1.04l-1.53,0.89v-1l2.55-1.47v1.38
				c-0.09,0.39-0.25,0.79-0.45,1.2c-0.21,0.41-0.47,0.8-0.8,1.16c-0.32,0.37-0.69,0.67-1.11,0.91c-0.51,0.29-0.95,0.42-1.33,0.4
				c-0.38-0.03-0.67-0.21-0.88-0.53c-0.21-0.33-0.31-0.78-0.31-1.35c0-0.57,0.1-1.14,0.31-1.7c0.21-0.56,0.5-1.08,0.87-1.54
				c0.38-0.46,0.82-0.84,1.32-1.13C254.98,242.49,255.5,242.37,255.9,242.49z"/>
			<path style="fill:#FFFFFF;" d="M258.61,240.45v5.76l-1.21,0.7v-5.76L258.61,240.45z"/>
			<path style="fill:#FFFFFF;" d="M263.89,243.16l-1.21,0.7l-2.03-2.36v3.54l-1.21,0.7v-5.76l1.21-0.7l2.03,2.4v-3.57l1.21-0.7
				V243.16z"/>
		</g>
	</g>
	<polygon style="fill:#4968CE;" points="199.5,305.3 117.02,352.91 117.02,181.81 199.5,134.19 	"/>
	<path style="fill:#FFFFFF;" d="M180.45,214.77v-7.35c0-13.36-9.47-18.76-21.11-12.04c-11.64,6.72-21.11,23.06-21.11,36.42v7.35
		c-3.56,2.34-6.38,7.34-6.38,11.5v31.6c0,4.34,3.07,6.09,6.85,3.91l41.29-23.84c3.78-2.19,6.85-7.48,6.85-11.82v-31.6
		C186.83,214.74,184.01,213,180.45,214.77z M162.28,251.31v8.83c0,1.87-1.32,4.14-2.95,5.08c-1.63,0.94-2.95,0.19-2.95-1.68v-8.83
		c-1.75-0.16-2.95-1.63-2.95-4.12c0-3.73,2.64-8.28,5.89-10.16c3.25-1.88,5.89-0.37,5.89,3.36
		C165.22,246.28,164.03,249.13,162.28,251.31z M173.1,218.96l-27.54,15.9v-7.3c0-8.71,6.18-19.37,13.77-23.75
		c7.59-4.38,13.77-0.86,13.77,7.85V218.96z"/>
	<g>
		<g>
			<g>
				<path style="fill:#172968;" d="M229.7,150.24c0.01-0.33,0.03-0.65,0.05-0.98c0.02-0.33,0.05-0.66,0.08-0.99
					c0.03-0.33,0.07-0.66,0.11-0.99c0.04-0.34,0.09-0.68,0.15-1.02c0.05-0.34,0.11-0.68,0.18-1.02c0.07-0.35,0.14-0.7,0.21-1.06
					c0.08-0.35,0.16-0.71,0.25-1.06c0.09-0.36,0.18-0.72,0.28-1.08c0.1-0.36,0.2-0.71,0.31-1.07c0.11-0.35,0.22-0.7,0.34-1.05
					c0.12-0.34,0.24-0.69,0.36-1.03c0.12-0.33,0.24-0.66,0.37-0.99c0.13-0.33,0.26-0.66,0.4-0.98c0.13-0.32,0.27-0.65,0.42-0.97
					c0.15-0.33,0.29-0.65,0.45-0.98c0.17-0.36,0.34-0.72,0.52-1.07c0.2-0.41,0.41-0.81,0.63-1.22c0.32-0.6,0.65-1.19,1-1.78
					c0.48-0.82,0.98-1.62,1.51-2.4c0.41-0.62,0.84-1.23,1.28-1.83c0.29-0.4,0.59-0.79,0.9-1.18c0.26-0.33,0.52-0.65,0.78-0.96
					c0.26-0.31,0.52-0.62,0.78-0.92c0.26-0.3,0.52-0.59,0.79-0.87c0.27-0.29,0.55-0.59,0.83-0.87c0.28-0.29,0.57-0.57,0.86-0.85
					c0.29-0.28,0.59-0.56,0.89-0.83c0.3-0.27,0.6-0.53,0.9-0.79c0.3-0.25,0.6-0.5,0.9-0.74c0.29-0.23,0.59-0.46,0.89-0.68
					c0.29-0.22,0.59-0.42,0.88-0.63c0.29-0.2,0.57-0.39,0.86-0.57c0.28-0.18,0.57-0.36,0.86-0.53c0.07-0.04,0.13-0.08,0.2-0.12
					c0.22-0.12,0.43-0.25,0.65-0.36c0.28-0.15,0.56-0.29,0.83-0.43c0.28-0.14,0.55-0.27,0.82-0.39c0.27-0.12,0.54-0.24,0.81-0.34
					c0.27-0.11,0.55-0.21,0.82-0.31c0.27-0.1,0.54-0.18,0.81-0.27c0.28-0.09,0.56-0.16,0.84-0.23c0.28-0.07,0.56-0.13,0.83-0.18
					c0.3-0.06,0.6-0.11,0.89-0.15c0.3-0.04,0.61-0.07,0.9-0.09c0.32-0.02,0.64-0.03,0.95-0.03c0.36,0,0.71,0.02,1.05,0.05
					c0.4,0.04,0.79,0.09,1.17,0.17c0.49,0.1,0.96,0.23,1.42,0.39c0.57,0.2,1.12,0.46,1.64,0.76l6.85,3.98
					c-0.52-0.3-1.07-0.56-1.64-0.76c-0.46-0.16-0.93-0.29-1.42-0.39c-0.38-0.08-0.77-0.13-1.17-0.17c-0.34-0.03-0.7-0.05-1.05-0.05
					c-0.31,0-0.63,0.01-0.95,0.03c-0.3,0.02-0.6,0.05-0.9,0.09c-0.29,0.04-0.59,0.09-0.89,0.15c-0.27,0.05-0.55,0.12-0.83,0.18
					c-0.28,0.07-0.56,0.15-0.84,0.23c-0.27,0.08-0.54,0.17-0.81,0.27c-0.27,0.1-0.54,0.2-0.82,0.31c-0.27,0.11-0.54,0.22-0.81,0.34
					c-0.27,0.12-0.55,0.25-0.82,0.39c-0.28,0.14-0.55,0.28-0.83,0.43c-0.21,0.12-0.43,0.24-0.65,0.36c-0.07,0.04-0.13,0.08-0.2,0.12
					c-0.29,0.17-0.57,0.35-0.86,0.53c-0.29,0.18-0.58,0.37-0.86,0.57c-0.3,0.2-0.59,0.41-0.88,0.63c-0.3,0.22-0.6,0.45-0.89,0.68
					c-0.3,0.24-0.6,0.49-0.9,0.74c-0.3,0.26-0.6,0.52-0.9,0.79c-0.3,0.27-0.6,0.55-0.89,0.83c-0.29,0.28-0.57,0.56-0.86,0.85
					c-0.28,0.29-0.56,0.58-0.83,0.87c-0.27,0.29-0.53,0.58-0.79,0.87c-0.26,0.3-0.53,0.61-0.78,0.92c-0.26,0.32-0.52,0.64-0.78,0.96
					c-0.31,0.39-0.61,0.78-0.9,1.18c-0.44,0.6-0.87,1.21-1.28,1.83c-0.53,0.79-1.03,1.59-1.51,2.4c-0.34,0.58-0.68,1.18-1,1.78
					c-0.22,0.4-0.42,0.81-0.63,1.22c-0.18,0.36-0.35,0.71-0.52,1.07c-0.15,0.33-0.3,0.65-0.45,0.98c-0.14,0.32-0.28,0.65-0.42,0.97
					c-0.14,0.33-0.27,0.65-0.4,0.98c-0.13,0.33-0.25,0.66-0.37,0.99c-0.12,0.34-0.24,0.69-0.36,1.03c-0.12,0.35-0.23,0.7-0.34,1.05
					c-0.11,0.36-0.21,0.71-0.31,1.07c-0.1,0.36-0.19,0.72-0.28,1.08c-0.09,0.35-0.17,0.71-0.25,1.06c-0.08,0.35-0.15,0.71-0.21,1.06
					c-0.06,0.34-0.12,0.68-0.18,1.02c-0.05,0.34-0.1,0.68-0.14,1.02c-0.04,0.33-0.08,0.66-0.11,0.99c-0.03,0.33-0.06,0.66-0.08,0.99
					c-0.02,0.33-0.04,0.66-0.05,0.98c-0.01,0.31-0.01,0.61-0.01,0.91c0,0.02,0,0.04,0,0.06c0,0.33,0.01,0.66,0.02,0.98
					c0.01,0.32,0.03,0.64,0.06,0.96c0.03,0.33,0.06,0.66,0.1,0.98c0.04,0.33,0.09,0.65,0.14,0.97c0.06,0.34,0.13,0.67,0.2,0.99
					c0.08,0.35,0.17,0.7,0.27,1.04c0.11,0.37,0.23,0.72,0.35,1.07c0.15,0.4,0.31,0.78,0.49,1.15c0.23,0.49,0.49,0.95,0.77,1.39
					c0.94,1.47,2.13,2.63,3.51,3.43l-6.85-3.98c-1.39-0.81-2.57-1.96-3.51-3.43c-0.28-0.43-0.53-0.9-0.77-1.39
					c-0.18-0.37-0.34-0.75-0.49-1.15c-0.13-0.34-0.25-0.7-0.35-1.07c-0.1-0.34-0.19-0.68-0.27-1.04c-0.07-0.32-0.14-0.65-0.2-0.99
					c-0.06-0.32-0.1-0.64-0.15-0.97c-0.04-0.32-0.07-0.64-0.1-0.98c-0.03-0.31-0.05-0.63-0.06-0.96c-0.01-0.32-0.02-0.65-0.02-0.98
					c0-0.02,0-0.04,0-0.06C229.69,150.85,229.69,150.55,229.7,150.24z"/>
				<g>
					<path style="fill:#F73C74;stroke:#FFFFFF;stroke-width:2.0136;stroke-miterlimit:10;" d="M256.75,120.13
						c-11.2,6.47-20.25,22.13-20.22,35c0.04,12.87,9.15,18.06,20.35,11.6c11.2-6.47,20.25-22.15,20.22-35.02
						C277.07,118.84,267.96,113.66,256.75,120.13z"/>
				</g>
			</g>
		</g>
		<g>
			<g>
				<path style="fill:#FFFFFF;" d="M262.72,131.18c0,3.45-2.44,7.65-5.44,9.39c-3.01,1.74-5.44,0.35-5.44-3.1
					c0-3.45,2.44-7.66,5.44-9.39C260.28,126.34,262.72,127.73,262.72,131.18z"/>
				<path style="fill:#FFFFFF;" d="M269.62,148.1c-2.9-8.48-5.32-9.87-12.34-5.82c-7.03,4.06-9.45,8.25-12.35,20.07L269.62,148.1z"
					/>
			</g>
		</g>
	</g>
	<path style="fill:#98A8D3;stroke:#FFFFFF;stroke-width:2.0136;stroke-miterlimit:10;" d="M284.33,179.56l-61.87,35.72
		c-1.62,0.93-2.93-0.06-2.93-2.22v-6.82c0-2.16,1.31-4.67,2.93-5.6l61.87-35.72c1.62-0.93,2.93,0.06,2.93,2.22v6.82
		C287.26,176.11,285.95,178.62,284.33,179.56z"/>
	<path style="fill:#98A8D3;stroke:#FFFFFF;stroke-width:2.0136;stroke-miterlimit:10;" d="M284.33,200.63l-61.87,35.72
		c-1.62,0.93-2.93-0.06-2.93-2.22v-6.82c0-2.16,1.31-4.67,2.93-5.6L284.33,186c1.62-0.93,2.93,0.06,2.93,2.22v6.82
		C287.26,197.19,285.95,199.7,284.33,200.63z"/>
	<ellipse style="fill:#E1E8EF;" cx="208.59" cy="358.4" rx="31.95" ry="13.96"/>
	<g>
		<g>
			<g>
				<path style="fill:#FFD1A4;" d="M225.35,284.43l-0.78-0.28c0,0-4.89-5.03-6.74-6.66c-1.84-1.64,1.34-7.51,3.15-4.86
					c2.68,3.94,5.15,9.17,5.81,9.56"/>
			</g>
			<path style="fill:#FFD1A4;" d="M224.61,282.63c1.16-1.95,4.3,0.43,5.34,1.28c1.69,1.39,2.62,4.29,2.09,4.97
				c-0.54,0.68-4.21-2.7-4.46-2.65c-0.25,0.05,1.37,1.87,0.8,2.46c-0.57,0.59-3.03-1.54-3.68-2.77S223.88,283.85,224.61,282.63z"/>
			<g>
				<path style="fill:#F46494;" d="M217.03,261.78c0,0,2.39,7.18,3.26,8.76c0.88,1.58,1.92,3.28,1.92,3.28s-0.6,2.3-2.36,3.16
					c-1.76,0.85-2.2,0.84-2.2,0.84s-2.69-2.41-3.1-3.42c-0.41-1,0.67-8.13,0.67-8.13L217.03,261.78z"/>
			</g>
			<path style="fill:#FFD1A4;" d="M221.26,357.3c0.23,1.93-5.56,1.45-7.12,0.48c-1.56-0.97-2.78-2.89-3.86-3.73
				c-1.09-0.85-2.04-0.85-2.17-1.69c-0.03-0.25-0.1-0.94-0.16-1.9c-0.17-2.33-0.36-6.22-0.2-8.96c0.25-3.86-0.32-12.78,0.36-17.37
				c0.1-0.65,0.17-1.33,0.25-2.04c0.33-3.52,0.35-7.58,0.45-9.99c0.13-2.89-0.56-14.39-0.56-14.39s-0.72-13.27-0.72-16.4
				c0-1.06,0.85-1.64,2-1.93c2.24-0.61,5.6-0.13,5.6-0.13c3.98,18.82,2.37,29.43,2.29,35.35c-0.07,5.31-1.56,8.68-2.17,14.59
				c-0.61,5.91-1.81,14.23-1.56,17.25c0.16,2.03,3.44,5.38,5.65,7.93C220.36,355.63,221.17,356.67,221.26,357.3z"/>
			<path d="M216.13,278.99c0,0,1.71,10.28,2.21,17.28c0.5,7,0.63,19.82-0.81,23.64c-1.44,3.82-3.14,24.49-3.14,24.49
				s-3.61,3.02-6.88,0V307l-3.03-25.81l3.46-4.66L216.13,278.99z"/>
			<path style="fill:#FFD1A4;" d="M212.94,293.98c-1.22,3.73-4.83,4.1-4.34,10.13c0.48,6.02,0.84,13.14-0.13,17.48
				c-0.04,0.16-0.07,0.33-0.12,0.49v0.01c-0.94,4.17-2.08,8.25-2.78,16.14c-0.72,8.21-0.72,16.53-0.48,18.57
				c0.12,0.96,0.62,2.95,1.03,4.95c0.49,2.3,0.87,4.6,0.42,5.31c-0.84,1.32-5.91,0-6.63-1.22c-0.72-1.2-0.49-3.85-0.49-5.3
				c0-0.26-0.04-1.22-0.13-2.63c-0.38-6.46-1.39-22.57-1.19-26.31c0.23-4.59,1.56-11.83,1.2-17.01c-0.36-5.2-2.17-9.29-1.56-18.34
				c0.59-9.05,3.98-9.77,4.21-14.47c0.16-2.94,4.39-2.87,7.56-2.4h0.01c1.9,0.29,3.42,0.71,3.42,0.71S214.14,290.23,212.94,293.98z"
				/>
			<path d="M213.47,281.19c0,0,0.73,8.87,0,11.82c-0.73,2.96-3.32,5.61-3.8,7c-0.48,1.39-0.18,14.66-0.18,16.65s-0.9,7.06-1.45,8.38
				c-0.54,1.33-1.99,8.93-1.99,11.88c0,2.96-0.96,12.48-0.78,14.66c0,0-1.09,1.27-3.44,1.27c-2.35,0-3.44-1.15-3.44-1.15
				s-0.9-17.13-0.54-21.71c0.36-4.58,1.15-11.94,1.03-14.53c-0.12-2.59-1.75-8.14-2.11-13.81c-0.36-5.67,1.09-11.34,1.09-11.34
				l3.14-9.11c0,0,1.81-3.5,2.05-3.5c0.24,0,8.44,0.18,8.44,0.18L213.47,281.19z"/>
			<path style="fill:#FFD1A4;" d="M193.19,264.47c0.81-5.29,2.89-6.78,7.6-10.4c4.7-3.62,10-5.47,12.71-1.27
				c2.71,4.21,4.03,9.82,4.03,10.81c0,1-1.63,3.3-1.58,4.61c0.05,1.31,0.18,10.77,0.18,10.77s-1.4,3.62-7.78,4.03
				c-6.38,0.41-6.97-0.54-6.97-0.54s-0.81-4.98-1.4-7.92C199.39,271.62,192.64,268.06,193.19,264.47z"/>
			<path style="fill:#E9E5D9;" d="M201.38,282.47c0,0,0.59,0.95,6.97,0.54c6.38-0.41,7.78-4.03,7.78-4.03s-0.14-9.45-0.18-10.77
				c-0.05-1.31,1.58-3.62,1.58-4.61c0-1-1.31-6.6-4.03-10.81c-0.98-1.51-2.29-2.23-3.79-2.38c0.22,0.26,2.73,3.29,2.67,5.14
				c-0.06,1.93-5.67,5.73-7.9,5.73c-2.2,0-3.47-3.76-6.58-4.96c-2.72,2.26-4.09,4.08-4.71,8.14c-0.55,3.59,6.2,7.15,6.78,10.09
				C200.57,277.5,201.38,282.47,201.38,282.47z"/>
			<path style="fill:#F73C74;" d="M209.75,256.47c-3.61,1.48-5.25-0.45-6.6-1.45c-1.36-1-2.44-1.54-2.44-1.54s-5.5,3.74-6.88,6.69
				c-0.92,1.98-0.36,7.15,1.81,9.95c2.17,2.8,3.89,2.15,4.34,4.42c0.45,2.27,1.09,6.07,0.45,7.79c-0.63,1.72-2.62,5.97-3.26,10.04
				c0,0,3.8-3.26,6.15-2.44c2.35,0.81,4.79,5.25,8.41,5.34c3.62,0.09,6.24-4.52,6.42-5.52c0.18-1-1.72-11.85-1.72-17.01
				s1.72-8.23,1.45-10.22c-0.27-1.99-2.65-7.66-3.62-9.17c-0.96-1.51-4.52-1.57-4.52-1.57S211.74,255.66,209.75,256.47z"/>
			<path style="fill:#F2BA88;" d="M209.79,249.99c0,0-0.05,3.84-0.18,4.98c-0.14,1.13-3.26,1.13-4.61,1.13
				c-1.36,0-2.31-0.86-2.35-2.17c-0.05-1.31,0.03-7.36,0.03-7.36s1.78,0.3,4.4,1.57S209.79,249.99,209.79,249.99z"/>
			<path style="fill:#FFD1A4;" d="M212.93,237.16c0.42,1.33,0,3.2,0.12,3.8c0.12,0.6,0.48,1.21,0.48,2.17s0.06,6.09-0.96,6.75
				c-1.03,0.66-6.69-0.24-7.84-1.15c-1.15-0.9-2.05-2.17-2.05-2.17s-1.27,0.12-2.05-0.9c-0.78-1.03-2.77-5.13-1.45-9.59
				s8.5-4.64,11.04-2.83C212.75,235.05,212.93,237.16,212.93,237.16z"/>
			<path style="fill:#F73C74;" d="M221.26,357.3c0.23,1.93-5.56,1.45-7.12,0.48c-1.56-0.97-2.78-2.89-3.86-3.73
				c-1.09-0.85-2.04-0.85-2.17-1.69c-0.03-0.25-0.1-0.94-0.16-1.9c2.13,1.58,7.32,5.24,9.28,4.98c1.22-0.17,1.84-0.56,2.08-1.06
				C220.36,355.63,221.17,356.67,221.26,357.3z"/>
			<path style="fill:#F73C74;" d="M206.54,367.07c-0.84,1.32-5.91,0-6.63-1.22c-0.72-1.2-0.49-3.85-0.49-5.3
				c0-0.26-0.04-1.22-0.13-2.63c0.14,0.58,0.27,1.2,0.38,1.84c0.42,2.72,0.67,3.81,4.1,4.23c1.51,0.19,2.13-0.93,2.36-2.23
				C206.61,364.06,206.99,366.37,206.54,367.07z"/>
			<path style="fill:#D68162;" d="M209.68,252.72c0,0,1.69,0.48,1.87,2.11c0,0,0.36-1.15-0.06-2.23c-0.42-1.09-1.77-2.18-1.77-2.18
				L209.68,252.72z"/>
			<g>
				<g>
					<path d="M212.12,235.38c0,0-1.81,5.7-8.68,8.68c0,0-0.86-2.99-2.22-2.04c-1.36,0.95-1.31,2.22-0.81,2.99
						c0.5,0.77,1.11,1.79,2.27,1.55c-0.36,0.07,0.47,4.89,0.57,5.25c0.51,1.91,1.54,3.38,2.26,5.13c1.05,2.55-6.2-1.96-8.1-0.95
						c-0.21-6.01-1.12-12.75,0.63-18.61c1.57-5.25,5.31-5.97,8.14-5.19C209.02,233,212.12,235.38,212.12,235.38z"/>
					<path d="M203.62,232.08c2.17-1.22,4.61-0.77,6.38,0.05c1.76,0.81,3.08,2.4,3.3,3.48c0.23,1.09-0.16,3.57-0.16,3.57
						s-0.29-2.31-0.52-3.03c-0.23-0.72-0.5-0.77-0.5-0.77s-2.53-1.81-4.09-2.49C205.16,231.65,203.62,232.08,203.62,232.08z"/>
					<path d="M213.3,235.61c0.66,4.85,1.25,9.28,0.71,13.8c-0.54,4.52-0.81,8.96-0.81,8.96l-3.53-5.02l0.13-3.36
						c0,0,2.24,0.22,2.77-0.11c0.53-0.32,0.98-3.91,0.95-4.94c-0.03-1.03,0.12-2.26-0.18-2.93c-0.3-0.66-0.33-1.3-0.33-1.3
						l0.09-2.14L213.3,235.61z"/>
				</g>
			</g>
			<path style="fill:#FFC8AF;" d="M196.93,259.94c-6.02-1.44-4.9,16.5-3.24,20.83c1.66,4.34,2.91-0.7,3.98-8.26
				C198.75,264.94,199.3,260.5,196.93,259.94z"/>
			<path style="fill:#FFD1A4;" d="M194.31,282.59c-3.8-4.04,12.68-10.64,17.24-11.16c4.56-0.52,0.59,2.53-5.71,6.5
				C199.53,281.91,195.8,284.18,194.31,282.59z"/>
			<path style="fill:#F46494;" d="M192.52,262.86c0.58-2.79,1.81-4.34,4.64-3.86c2.83,0.48,3.38,5.25,2.59,8.93
				c-0.78,3.68-1.76,7.76-1.84,8.3c-0.02,0.16,1.46-0.63,1.46-0.63c1.17,1.53,2.32,3.87,1.8,5.41c0,0-0.74,0.77-1.37,1.14
				c0,0-7.9,4.44-8.25-2.52C191.49,278.18,191.44,268.1,192.52,262.86z"/>
		</g>
		<g>
			<path style="fill:#FFFFFF;" d="M212.94,273.8l3.19-8.1c0.12-0.3,0.41-0.55,0.68-0.59l3.48-0.43c0.29-0.04,0.43,0.21,0.3,0.54
				l-3.22,8.45c-0.12,0.32-0.45,0.59-0.72,0.6l-3.44,0.08C212.93,274.35,212.82,274.11,212.94,273.8z"/>
			<path d="M212.82,274.32c-0.1-0.15-0.11-0.36-0.02-0.58l3.19-8.1c0.14-0.35,0.49-0.65,0.8-0.69l3.48-0.43
				c0.18-0.02,0.33,0.04,0.43,0.16c0.11,0.15,0.13,0.36,0.04,0.59l-3.22,8.45c-0.15,0.39-0.53,0.69-0.87,0.7l-3.44,0.07
				c-0.01,0-0.01,0-0.01,0C213.03,274.51,212.9,274.44,212.82,274.32z M220.3,264.84l-3.48,0.43c-0.2,0.02-0.45,0.24-0.55,0.49
				l-3.19,8.1c-0.06,0.14-0.04,0.24-0.01,0.29c0.01,0.01,0.03,0.05,0.11,0.05c0,0,0.01,0,0.01,0l3.44-0.08
				c0.21,0,0.48-0.24,0.58-0.5l3.22-8.45c0.06-0.14,0.04-0.24,0.01-0.28c-0.03-0.03-0.07-0.04-0.11-0.04
				C220.32,264.84,220.31,264.84,220.3,264.84z"/>
		</g>
		<path style="fill:#FFD1A4;" d="M211.5,273.11c0.71,1.47,3.11-0.04,3.91-0.59c1.3-0.89,2.15-2.92,1.8-3.44
			c-0.34-0.52-3.18,1.68-3.36,1.63c-0.18-0.05,1.1-1.26,0.73-1.71s-2.27,0.92-2.81,1.76C211.22,271.59,211.05,272.19,211.5,273.11z"
			/>
	</g>
</g>
</svg>
