<?xml version="1.0" encoding="utf-8"?>
<!-- Generator: Adobe Illustrator 25.4.1, SVG Export Plug-In . SVG Version: 6.00 Build 0)  -->
<svg version="1.1" id="Layer_1" xmlns="http://www.w3.org/2000/svg" xmlns:xlink="http://www.w3.org/1999/xlink" x="0px" y="0px"
	 viewBox="0 0 166.3 90.1" style="enable-background:new 0 0 166.3 90.1;" xml:space="preserve">
<style type="text/css">
	
		.st0{clip-path:url(#SVGID_00000087384202619157252540000012218120624294792833_);fill:url(#SVGID_00000151538009395034821920000017727423410119696000_);}
	
		.st1{clip-path:url(#SVGID_00000138575149762441012110000015123732709574724768_);fill:url(#SVGID_00000075871490825838177360000011108198037972003225_);}
	
		.st2{clip-path:url(#SVGID_00000064350558443772683960000003381908770568106663_);fill:url(#SVGID_00000015322659060957134780000009514934214545286787_);}
	
		.st3{clip-path:url(#SVGID_00000107563329412475753570000014857243769175898019_);fill:url(#SVGID_00000170259975075369692220000000376860424707130042_);}
	.st4{fill-rule:evenodd;clip-rule:evenodd;fill:#74B72C;}
	.st5{fill:#043B37;}
	
		.st6{clip-path:url(#SVGID_00000021117859275326005210000001476512549583720864_);fill:url(#SVGID_00000073694700551123824040000003323897298285298316_);}
	.st7{fill-rule:evenodd;clip-rule:evenodd;fill:#043B37;}
</style>
<g>
	<g>
		<defs>
			<path id="SVGID_1_" d="M0.3,17.8C0,10.3,5.4,5.8,12.7,6.4c3.3,0.1,6.7,0.2,10.1,0c3.2-0.2,6.4-0.7,9.6-1.3
				c12-2.3,24.3-4.2,36.5-4.7C77.1,0,85,0.4,93.2,1.5c7.5,1,15,2.4,22.6,3.4c10.4,1.4,20.8,2.2,31.4,2.4c0.8,0,1.7-0.2,2.5-0.4
				c1.2-0.3,2.5-0.5,3.7-0.6c3.3-0.3,6.6,0.7,9.1,3c2.6,2.4,3.8,5.7,3.6,9.2L166,71.9l0,0.1c-0.7,7.1-8.1,9.7-14.1,10.7l-0.1,0
				l-0.1,0c-13.9,1.5-27.8,3.7-41.7,6.1l-0.1,0l-0.1,0c-8.9,0.9-17.9,1.2-26.9,1c-9,0.2-17.9-0.1-26.9-1l-0.1,0l-0.1,0
				c-13.8-2.4-27.7-4.6-41.7-6.1l-0.1,0l-0.1,0c-5.9-1-12.9-2.8-13.6-9.9l0-0.1L0.3,17.8z"/>
		</defs>
		<clipPath id="SVGID_00000008129634769405849990000016465700777170335894_">
			<use xlink:href="#SVGID_1_"  style="overflow:visible;"/>
		</clipPath>
		
			<linearGradient id="SVGID_00000092417062928526610210000018403677959618859139_" gradientUnits="userSpaceOnUse" x1="166.2936" y1="45.0708" x2="0.4236" y2="45.0708">
			<stop  offset="0" style="stop-color:#BA5119"/>
			<stop  offset="0.49" style="stop-color:#FF9F6B"/>
			<stop  offset="1" style="stop-color:#BA5119"/>
		</linearGradient>
		
			<rect style="clip-path:url(#SVGID_00000008129634769405849990000016465700777170335894_);fill:url(#SVGID_00000092417062928526610210000018403677959618859139_);" width="166.3" height="90.1"/>
	</g>
	<g>
		<defs>
			<path id="SVGID_00000018205232134375773540000016073920186929758858_" d="M3.5,72.7L3.3,17.7C3,11.7,7.3,8.4,13,8.9
				c9.5,0.2,11.3,0.3,20.2-1.4C94.1-4,94.5,8.8,147.6,9.8c2,0,4.2-0.9,6.4-0.9c5.7-0.5,10.3,3.5,10.1,9.5l-0.1,53.4
				c-0.5,4.3-4.5,7.2-12,8.5c-11.7,1.3-25.6,3.3-41.8,6.1c-8.7,0.9-17.6,1.2-26.6,1c-9,0.2-17.9-0.1-26.6-1
				c-16.2-2.8-30.1-4.8-41.8-6.1C7.5,79,4,77,3.5,72.7"/>
		</defs>
		<clipPath id="SVGID_00000088116402925046275020000001568058152753948804_">
			<use xlink:href="#SVGID_00000018205232134375773540000016073920186929758858_"  style="overflow:visible;"/>
		</clipPath>
		
			<linearGradient id="SVGID_00000013157082234430434290000014355635740213624510_" gradientUnits="userSpaceOnUse" x1="3.2838" y1="41.8113" x2="164.0738" y2="41.8113">
			<stop  offset="0" style="stop-color:#D9DADA"/>
			<stop  offset="0.19" style="stop-color:#FEFEFE"/>
			<stop  offset="0.44" style="stop-color:#FEFEFE"/>
			<stop  offset="0.68" style="stop-color:#FEFEFE"/>
			<stop  offset="1" style="stop-color:#B8B9B9"/>
		</linearGradient>
		
			<rect x="3" y="-4" style="clip-path:url(#SVGID_00000088116402925046275020000001568058152753948804_);fill:url(#SVGID_00000013157082234430434290000014355635740213624510_);" width="161.3" height="91.6"/>
	</g>
	<g>
		<defs>
			<path id="SVGID_00000144300636348028821570000002862096411961275016_" d="M97.5,69.4c0.1-0.6,0-1.1-0.2-1.4
				c-0.2-0.3-0.6-0.5-1.1-0.5c-0.3,0-0.5,0.1-0.7,0.2c-0.2,0.1-0.4,0.2-0.5,0.4c-0.1,0.2-0.3,0.4-0.4,0.6c-0.1,0.2-0.2,0.5-0.2,0.7
				H97.5z M98.5,69.8c0,0.2-0.1,0.3-0.2,0.4c-0.1,0.1-0.2,0.1-0.3,0.1h-3.7c0,0.3,0,0.7,0,0.9c0,0.3,0.1,0.5,0.2,0.7
				c0.1,0.2,0.3,0.4,0.5,0.5c0.2,0.1,0.5,0.2,0.8,0.2c0.3,0,0.5,0,0.7-0.1c0.2,0,0.4-0.1,0.6-0.2c0.2-0.1,0.3-0.1,0.4-0.2
				c0.1,0,0.2-0.1,0.2-0.1c0,0,0.1,0,0.1,0c0,0,0,0,0,0.1c0,0,0,0.1,0,0.1c0,0.1,0,0.1,0,0.2c0,0.1,0,0.1,0,0.2c0,0,0,0.1,0,0.1
				c0,0,0,0.1,0,0.1c0,0,0,0.1-0.1,0.1c0,0-0.1,0.1-0.2,0.1c-0.1,0.1-0.3,0.1-0.5,0.2c-0.2,0.1-0.4,0.1-0.6,0.1
				c-0.2,0-0.5,0.1-0.8,0.1c-0.5,0-0.9-0.1-1.2-0.2c-0.3-0.1-0.6-0.4-0.8-0.6c-0.2-0.3-0.4-0.6-0.4-1.1c-0.1-0.4-0.1-0.9,0-1.5
				c0-0.5,0.2-1,0.3-1.5c0.2-0.4,0.4-0.8,0.6-1.1c0.3-0.3,0.6-0.5,0.9-0.7c0.3-0.2,0.7-0.2,1.1-0.2c0.4,0,0.8,0.1,1.1,0.2
				c0.3,0.2,0.5,0.4,0.7,0.6c0.2,0.3,0.3,0.6,0.4,0.9c0.1,0.4,0.1,0.7,0,1.2L98.5,69.8z M92.9,66.9C92.9,66.9,92.9,66.9,92.9,66.9
				c0,0.1,0,0.1,0,0.1c0,0,0,0,0,0.1c0,0,0,0.1,0,0.1l-2.5,6c0,0.1,0,0.1-0.1,0.1c0,0-0.1,0.1-0.1,0.1c-0.1,0-0.1,0-0.2,0
				c-0.1,0-0.2,0-0.3,0c-0.1,0-0.2,0-0.3,0c-0.1,0-0.1,0-0.2,0c-0.1,0-0.1,0-0.1-0.1c0,0,0-0.1-0.1-0.1l-1.4-6c0-0.1,0-0.1,0-0.1
				c0,0,0-0.1,0-0.1c0,0,0,0,0-0.1c0,0,0-0.1,0-0.1c0,0,0,0,0.1-0.1c0,0,0.1,0,0.2,0c0.1,0,0.1,0,0.2,0c0.1,0,0.2,0,0.3,0
				c0.1,0,0.1,0,0.2,0c0,0,0.1,0,0.1,0.1c0,0,0,0.1,0,0.1l1.1,5.2l0,0.1l0-0.1l2-5.2c0,0,0-0.1,0.1-0.1c0,0,0.1-0.1,0.1-0.1
				c0,0,0.1,0,0.2,0c0.1,0,0.2,0,0.3,0c0.1,0,0.2,0,0.2,0c0.1,0,0.1,0,0.1,0C92.9,66.7,92.9,66.8,92.9,66.9
				C92.9,66.8,92.9,66.8,92.9,66.9z M86.4,72.8c0,0.1,0,0.2,0,0.2c0,0.1,0,0.1-0.1,0.2c0,0-0.1,0.1-0.1,0.1c0,0-0.1,0-0.1,0h-3.9
				c-0.1,0-0.2,0-0.3-0.1c-0.1-0.1-0.1-0.2-0.1-0.4l0.7-8c0-0.2,0.1-0.3,0.2-0.4c0.1-0.1,0.2-0.1,0.3-0.1h3.9c0,0,0.1,0,0.1,0
				c0,0,0,0,0.1,0.1c0,0,0,0.1,0,0.2c0,0.1,0,0.1,0,0.2c0,0.1,0,0.2,0,0.2c0,0.1,0,0.1-0.1,0.2c0,0,0,0.1-0.1,0.1c0,0-0.1,0-0.1,0
				h-3.2l-0.3,2.8h2.7c0,0,0.1,0,0.1,0c0,0,0,0.1,0.1,0.1c0,0,0,0.1,0,0.2c0,0.1,0,0.1,0,0.2c0,0.1,0,0.2,0,0.2c0,0.1,0,0.1-0.1,0.1
				c0,0,0,0.1-0.1,0.1c0,0-0.1,0-0.1,0h-2.7L83,72.3h3.2c0,0,0.1,0,0.1,0c0,0,0,0,0.1,0.1c0,0,0,0.1,0,0.2
				C86.4,72.7,86.4,72.7,86.4,72.8z M78.8,64.3c0,0.1,0,0.2,0,0.2c0,0.1,0,0.1,0,0.1c0,0,0,0.1,0,0.1c0,0,0,0-0.1,0c0,0-0.1,0-0.1,0
				c0,0-0.1,0-0.2-0.1c-0.1,0-0.1,0-0.2-0.1c-0.1,0-0.2,0-0.3,0c-0.2,0-0.3,0-0.4,0.1c-0.1,0.1-0.2,0.1-0.3,0.3
				C77.1,65,77,65.2,77,65.4c0,0.2-0.1,0.4-0.1,0.7l-0.1,0.7h1.3c0,0,0.1,0,0.1,0c0,0,0,0,0.1,0.1c0,0,0,0.1,0,0.2
				c0,0.1,0,0.1,0,0.2c0,0.2,0,0.3-0.1,0.4c0,0.1-0.1,0.1-0.2,0.1h-1.3l-0.5,5.5c0,0,0,0.1,0,0.1c0,0,0,0-0.1,0.1c0,0-0.1,0-0.2,0
				c-0.1,0-0.2,0-0.3,0s-0.2,0-0.2,0c-0.1,0-0.1,0-0.2,0c0,0-0.1,0-0.1-0.1c0,0,0-0.1,0-0.1l0.5-5.5h-0.8c-0.1,0-0.1,0-0.1-0.1
				c0-0.1,0-0.2,0-0.4c0-0.1,0-0.2,0-0.2c0-0.1,0-0.1,0.1-0.2c0,0,0-0.1,0.1-0.1c0,0,0.1,0,0.1,0h0.8l0.1-0.6c0-0.4,0.1-0.8,0.2-1.1
				c0.1-0.3,0.2-0.6,0.4-0.8c0.2-0.2,0.4-0.3,0.6-0.4c0.2-0.1,0.5-0.1,0.8-0.1c0.1,0,0.3,0,0.4,0c0.1,0,0.2,0.1,0.3,0.1
				s0.1,0.1,0.1,0.1c0,0,0,0.1,0.1,0.1c0,0,0,0.1,0,0.2C78.8,64.2,78.8,64.2,78.8,64.3z M72.6,70c0-0.3,0-0.7,0-1
				c0-0.3-0.1-0.6-0.2-0.8c-0.1-0.2-0.3-0.4-0.5-0.5c-0.2-0.1-0.5-0.2-0.8-0.2c-0.3,0-0.6,0.1-0.8,0.2c-0.2,0.1-0.4,0.3-0.6,0.5
				c-0.2,0.2-0.3,0.5-0.4,0.8c-0.1,0.3-0.2,0.6-0.2,1c0,0.3,0,0.7,0,1c0,0.3,0.1,0.6,0.2,0.8c0.1,0.2,0.3,0.4,0.5,0.5
				c0.2,0.1,0.5,0.2,0.8,0.2c0.3,0,0.6-0.1,0.8-0.2c0.2-0.1,0.4-0.3,0.6-0.5c0.2-0.2,0.3-0.5,0.4-0.8C72.5,70.7,72.6,70.4,72.6,70z
				 M73.7,70c0,0.5-0.1,1-0.3,1.4c-0.2,0.4-0.4,0.8-0.6,1.1c-0.3,0.3-0.6,0.6-1,0.7c-0.4,0.2-0.8,0.3-1.3,0.3
				c-0.5,0-0.9-0.1-1.2-0.2c-0.3-0.2-0.6-0.4-0.8-0.7c-0.2-0.3-0.3-0.6-0.4-1.1c-0.1-0.4-0.1-0.9,0-1.4c0-0.5,0.1-1,0.3-1.4
				c0.2-0.4,0.4-0.8,0.6-1.1c0.3-0.3,0.6-0.6,1-0.7c0.4-0.2,0.8-0.3,1.3-0.3c0.5,0,0.9,0.1,1.2,0.2c0.3,0.2,0.6,0.4,0.8,0.7
				c0.2,0.3,0.3,0.6,0.4,1.1C73.7,69,73.7,69.4,73.7,70z M62.9,69.4c0.1-0.6,0-1.1-0.2-1.4c-0.2-0.3-0.6-0.5-1.1-0.5
				c-0.3,0-0.5,0.1-0.7,0.2c-0.2,0.1-0.4,0.2-0.5,0.4c-0.1,0.2-0.3,0.4-0.4,0.6c-0.1,0.2-0.2,0.5-0.2,0.7H62.9z M64,69.8
				c0,0.2-0.1,0.3-0.2,0.4c-0.1,0.1-0.2,0.1-0.3,0.1h-3.7c0,0.3,0,0.7,0,0.9c0,0.3,0.1,0.5,0.2,0.7c0.1,0.2,0.3,0.4,0.5,0.5
				c0.2,0.1,0.5,0.2,0.8,0.2c0.3,0,0.5,0,0.7-0.1c0.2,0,0.4-0.1,0.6-0.2c0.2-0.1,0.3-0.1,0.4-0.2c0.1,0,0.2-0.1,0.2-0.1
				c0,0,0.1,0,0.1,0c0,0,0,0,0,0.1c0,0,0,0.1,0,0.1c0,0.1,0,0.1,0,0.2c0,0.1,0,0.1,0,0.2c0,0,0,0.1,0,0.1c0,0,0,0.1,0,0.1
				c0,0,0,0.1-0.1,0.1c0,0-0.1,0.1-0.2,0.1c-0.1,0.1-0.3,0.1-0.5,0.2c-0.2,0.1-0.4,0.1-0.6,0.1c-0.2,0-0.5,0.1-0.8,0.1
				c-0.5,0-0.9-0.1-1.2-0.2c-0.3-0.1-0.6-0.4-0.8-0.6c-0.2-0.3-0.4-0.6-0.4-1.1c-0.1-0.4-0.1-0.9,0-1.5c0-0.5,0.2-1,0.3-1.5
				c0.2-0.4,0.4-0.8,0.6-1.1s0.6-0.5,0.9-0.7c0.3-0.2,0.7-0.2,1.1-0.2c0.4,0,0.8,0.1,1.1,0.2c0.3,0.2,0.5,0.4,0.7,0.6
				c0.2,0.3,0.3,0.6,0.4,0.9c0.1,0.4,0.1,0.7,0,1.2L64,69.8z M57.6,72.2c0,0.1,0,0.1,0,0.2c0,0.1,0,0.1,0,0.1c0,0,0,0.1,0,0.1
				c0,0-0.1,0.1-0.1,0.1c-0.1,0.1-0.2,0.1-0.3,0.2c-0.1,0.1-0.3,0.2-0.4,0.2c-0.2,0.1-0.3,0.1-0.5,0.2c-0.2,0-0.4,0.1-0.6,0.1
				c-0.4,0-0.8-0.1-1.1-0.2c-0.3-0.1-0.5-0.4-0.7-0.6c-0.2-0.3-0.3-0.6-0.4-1.1c-0.1-0.4-0.1-0.9,0-1.4c0.1-0.6,0.2-1.1,0.3-1.6
				c0.2-0.4,0.4-0.8,0.7-1.1c0.3-0.3,0.6-0.5,0.9-0.6c0.3-0.1,0.7-0.2,1.1-0.2c0.2,0,0.4,0,0.5,0.1c0.2,0,0.3,0.1,0.5,0.1
				c0.1,0.1,0.3,0.1,0.4,0.2c0.1,0.1,0.2,0.1,0.2,0.2c0,0.1,0.1,0.1,0.1,0.1c0,0,0,0.1,0,0.1c0,0,0,0.1,0,0.1c0,0.1,0,0.1,0,0.2
				c0,0.2,0,0.3-0.1,0.4c0,0.1-0.1,0.1-0.1,0.1c-0.1,0-0.1,0-0.2-0.1c-0.1-0.1-0.2-0.2-0.3-0.3c-0.1-0.1-0.3-0.2-0.4-0.3
				c-0.2-0.1-0.4-0.1-0.6-0.1c-0.5,0-0.9,0.2-1.2,0.6c-0.3,0.4-0.5,1-0.6,1.8c0,0.4,0,0.8,0,1.1c0,0.3,0.1,0.6,0.2,0.8
				c0.1,0.2,0.3,0.4,0.5,0.5c0.2,0.1,0.4,0.1,0.7,0.1c0.2,0,0.5,0,0.6-0.1c0.2-0.1,0.4-0.2,0.5-0.3c0.1-0.1,0.3-0.2,0.4-0.3
				c0.1-0.1,0.2-0.1,0.2-0.1c0,0,0.1,0,0.1,0c0,0,0,0,0,0.1c0,0,0,0.1,0,0.2C57.6,72,57.6,72.1,57.6,72.2z M51.5,73.2
				C51.5,73.2,51.5,73.2,51.5,73.2c-0.1,0.1-0.1,0.1-0.1,0.2c0,0-0.1,0-0.2,0c-0.1,0-0.2,0-0.3,0c-0.1,0-0.2,0-0.3,0
				c-0.1,0-0.1,0-0.2,0c0,0-0.1,0-0.1-0.1c0,0,0-0.1,0-0.1l0.3-3.7c0-0.4,0-0.6,0-0.9c0-0.2-0.1-0.4-0.2-0.6
				c-0.1-0.2-0.2-0.3-0.3-0.4c-0.1-0.1-0.3-0.1-0.5-0.1c-0.3,0-0.5,0.1-0.8,0.3c-0.3,0.2-0.6,0.5-0.9,0.9l-0.4,4.4c0,0,0,0.1,0,0.1
				c0,0,0,0-0.1,0.1c0,0-0.1,0-0.2,0c-0.1,0-0.2,0-0.3,0c-0.1,0-0.2,0-0.3,0c-0.1,0-0.1,0-0.2,0c0,0-0.1,0-0.1-0.1c0,0,0-0.1,0-0.1
				l0.6-6.3c0,0,0-0.1,0-0.1c0,0,0,0,0.1-0.1c0,0,0.1,0,0.1,0c0.1,0,0.1,0,0.2,0c0.1,0,0.2,0,0.2,0c0.1,0,0.1,0,0.1,0
				c0,0,0.1,0,0.1,0.1c0,0,0,0.1,0,0.1l-0.1,0.8c0.4-0.4,0.7-0.7,1-0.9c0.3-0.2,0.7-0.3,1-0.3c0.4,0,0.7,0.1,0.9,0.2
				c0.2,0.1,0.4,0.3,0.6,0.6c0.1,0.2,0.2,0.5,0.3,0.8c0,0.3,0,0.7,0,1.1L51.5,73.2z M44.4,69.4c0.1-0.6,0-1.1-0.2-1.4
				c-0.2-0.3-0.6-0.5-1.1-0.5c-0.3,0-0.5,0.1-0.7,0.2c-0.2,0.1-0.4,0.2-0.5,0.4c-0.1,0.2-0.3,0.4-0.4,0.6c-0.1,0.2-0.2,0.5-0.2,0.7
				H44.4z M45.4,69.8c0,0.2-0.1,0.3-0.2,0.4c-0.1,0.1-0.2,0.1-0.3,0.1h-3.7c0,0.3,0,0.7,0,0.9c0,0.3,0.1,0.5,0.2,0.7
				c0.1,0.2,0.3,0.4,0.5,0.5c0.2,0.1,0.5,0.2,0.8,0.2c0.3,0,0.5,0,0.7-0.1c0.2,0,0.4-0.1,0.6-0.2c0.2-0.1,0.3-0.1,0.4-0.2
				c0.1,0,0.2-0.1,0.2-0.1c0,0,0.1,0,0.1,0c0,0,0,0,0,0.1c0,0,0,0.1,0,0.1c0,0.1,0,0.1,0,0.2c0,0.1,0,0.1,0,0.2c0,0,0,0.1,0,0.1
				c0,0,0,0.1,0,0.1c0,0,0,0.1-0.1,0.1c0,0-0.1,0.1-0.2,0.1c-0.1,0.1-0.3,0.1-0.5,0.2c-0.2,0.1-0.4,0.1-0.6,0.1
				c-0.2,0-0.5,0.1-0.8,0.1c-0.5,0-0.9-0.1-1.2-0.2c-0.3-0.1-0.6-0.4-0.8-0.6c-0.2-0.3-0.4-0.6-0.4-1.1c-0.1-0.4-0.1-0.9,0-1.5
				c0-0.5,0.2-1,0.3-1.5c0.2-0.4,0.4-0.8,0.6-1.1c0.3-0.3,0.6-0.5,0.9-0.7c0.3-0.2,0.7-0.2,1.1-0.2c0.4,0,0.8,0.1,1.1,0.2
				c0.3,0.2,0.5,0.4,0.7,0.6c0.2,0.3,0.3,0.6,0.4,0.9c0.1,0.4,0.1,0.7,0,1.2L45.4,69.8z M38.9,71.5c0,0.3-0.1,0.6-0.2,0.9
				c-0.1,0.2-0.3,0.5-0.5,0.6c-0.2,0.2-0.5,0.3-0.7,0.4c-0.3,0.1-0.6,0.1-0.9,0.1c-0.2,0-0.4,0-0.6-0.1c-0.2,0-0.3-0.1-0.5-0.1
				c-0.1-0.1-0.3-0.1-0.4-0.2C35.1,73.1,35,73,34.9,73c0,0-0.1-0.1-0.1-0.2c0-0.1,0-0.2,0-0.3c0-0.1,0-0.2,0-0.2c0-0.1,0-0.1,0-0.1
				c0,0,0-0.1,0.1-0.1c0,0,0.1,0,0.1,0c0,0,0.1,0,0.2,0.1c0.1,0.1,0.2,0.1,0.3,0.2c0.1,0.1,0.3,0.1,0.4,0.2c0.2,0.1,0.4,0.1,0.6,0.1
				c0.2,0,0.3,0,0.5-0.1c0.1,0,0.3-0.1,0.4-0.2c0.1-0.1,0.2-0.2,0.3-0.3c0.1-0.1,0.1-0.3,0.1-0.4c0-0.2,0-0.3-0.1-0.4
				c-0.1-0.1-0.2-0.2-0.3-0.3c-0.1-0.1-0.3-0.2-0.4-0.2c-0.2-0.1-0.3-0.1-0.5-0.2c-0.2-0.1-0.3-0.2-0.5-0.3
				c-0.2-0.1-0.3-0.2-0.4-0.4c-0.1-0.1-0.2-0.3-0.3-0.5c-0.1-0.2-0.1-0.4-0.1-0.7c0-0.2,0.1-0.5,0.2-0.7c0.1-0.2,0.3-0.4,0.4-0.6
				c0.2-0.2,0.4-0.3,0.7-0.4c0.3-0.1,0.6-0.2,0.9-0.2c0.2,0,0.3,0,0.4,0c0.1,0,0.3,0.1,0.4,0.1c0.1,0,0.2,0.1,0.3,0.1
				c0.1,0.1,0.1,0.1,0.2,0.1c0,0,0.1,0.1,0.1,0.1c0,0,0,0.1,0,0.1c0,0,0,0.1,0,0.1c0,0.1,0,0.1,0,0.2c0,0.1,0,0.1,0,0.2
				c0,0.1,0,0.1,0,0.1c0,0,0,0.1-0.1,0.1c0,0,0,0-0.1,0c0,0-0.1,0-0.2-0.1c-0.1-0.1-0.2-0.1-0.3-0.2c-0.1-0.1-0.2-0.1-0.4-0.2
				c-0.1-0.1-0.3-0.1-0.5-0.1c-0.2,0-0.3,0-0.5,0.1c-0.1,0-0.3,0.1-0.3,0.2c-0.1,0.1-0.2,0.2-0.2,0.3c-0.1,0.1-0.1,0.2-0.1,0.4
				c0,0.2,0,0.3,0.1,0.5c0.1,0.1,0.2,0.2,0.3,0.3c0.1,0.1,0.3,0.2,0.4,0.3c0.2,0.1,0.3,0.1,0.5,0.2c0.2,0.1,0.3,0.2,0.5,0.3
				c0.2,0.1,0.3,0.2,0.4,0.4c0.1,0.1,0.2,0.3,0.3,0.5C38.9,71,39,71.2,38.9,71.5z M33.9,71.5c0,0.3-0.1,0.6-0.2,0.9
				c-0.1,0.2-0.3,0.5-0.5,0.6c-0.2,0.2-0.5,0.3-0.7,0.4c-0.3,0.1-0.6,0.1-0.9,0.1c-0.2,0-0.4,0-0.6-0.1c-0.2,0-0.3-0.1-0.5-0.1
				c-0.1-0.1-0.3-0.1-0.4-0.2C30,73.1,30,73,29.9,73c0,0-0.1-0.1-0.1-0.2c0-0.1,0-0.2,0-0.3c0-0.1,0-0.2,0-0.2c0-0.1,0-0.1,0-0.1
				c0,0,0-0.1,0.1-0.1c0,0,0.1,0,0.1,0c0,0,0.1,0,0.2,0.1c0.1,0.1,0.2,0.1,0.3,0.2c0.1,0.1,0.3,0.1,0.4,0.2c0.2,0.1,0.4,0.1,0.6,0.1
				c0.2,0,0.3,0,0.5-0.1c0.1,0,0.3-0.1,0.4-0.2c0.1-0.1,0.2-0.2,0.3-0.3c0.1-0.1,0.1-0.3,0.1-0.4c0-0.2,0-0.3-0.1-0.4
				c-0.1-0.1-0.2-0.2-0.3-0.3c-0.1-0.1-0.3-0.2-0.4-0.2c-0.2-0.1-0.3-0.1-0.5-0.2c-0.2-0.1-0.3-0.2-0.5-0.3
				c-0.2-0.1-0.3-0.2-0.4-0.4c-0.1-0.1-0.2-0.3-0.3-0.5c-0.1-0.2-0.1-0.4-0.1-0.7c0-0.2,0.1-0.5,0.2-0.7c0.1-0.2,0.3-0.4,0.4-0.6
				c0.2-0.2,0.4-0.3,0.7-0.4c0.3-0.1,0.6-0.2,0.9-0.2c0.1,0,0.3,0,0.4,0c0.1,0,0.3,0.1,0.4,0.1c0.1,0,0.2,0.1,0.3,0.1
				c0.1,0.1,0.1,0.1,0.2,0.1c0,0,0.1,0.1,0.1,0.1c0,0,0,0.1,0,0.1c0,0,0,0.1,0,0.1c0,0.1,0,0.1,0,0.2c0,0.1,0,0.1,0,0.2
				c0,0.1,0,0.1,0,0.1c0,0,0,0.1-0.1,0.1c0,0,0,0-0.1,0c0,0-0.1,0-0.2-0.1c-0.1-0.1-0.2-0.1-0.3-0.2c-0.1-0.1-0.2-0.1-0.4-0.2
				c-0.1-0.1-0.3-0.1-0.5-0.1c-0.2,0-0.3,0-0.5,0.1c-0.1,0-0.3,0.1-0.3,0.2c-0.1,0.1-0.2,0.2-0.2,0.3c-0.1,0.1-0.1,0.2-0.1,0.4
				c0,0.2,0,0.3,0.1,0.5c0.1,0.1,0.2,0.2,0.3,0.3c0.1,0.1,0.3,0.2,0.4,0.3c0.2,0.1,0.3,0.1,0.5,0.2c0.2,0.1,0.3,0.2,0.5,0.3
				c0.2,0.1,0.3,0.2,0.4,0.4c0.1,0.1,0.2,0.3,0.3,0.5C33.9,71,33.9,71.2,33.9,71.5z M28.6,72.8c0,0.1,0,0.2,0,0.2
				c0,0.1,0,0.1-0.1,0.2c0,0-0.1,0.1-0.1,0.1c0,0-0.1,0-0.1,0h-3.9c-0.1,0-0.2,0-0.3-0.1c-0.1-0.1-0.1-0.2-0.1-0.4l0.7-8
				c0-0.2,0.1-0.3,0.2-0.4c0.1-0.1,0.2-0.1,0.3-0.1h3.9c0,0,0.1,0,0.1,0c0,0,0,0,0.1,0.1c0,0,0,0.1,0,0.2c0,0.1,0,0.1,0,0.2
				c0,0.1,0,0.2,0,0.2c0,0.1,0,0.1-0.1,0.2c0,0,0,0.1-0.1,0.1c0,0-0.1,0-0.1,0h-3.2l-0.3,2.8h2.7c0,0,0.1,0,0.1,0c0,0,0,0.1,0.1,0.1
				c0,0,0,0.1,0,0.2c0,0.1,0,0.1,0,0.2c0,0.1,0,0.2,0,0.2c0,0.1,0,0.1-0.1,0.1c0,0,0,0.1-0.1,0.1c0,0-0.1,0-0.1,0h-2.7l-0.3,3.2h3.2
				c0,0,0.1,0,0.1,0c0,0,0,0,0.1,0.1c0,0,0,0.1,0,0.2C28.6,72.7,28.6,72.7,28.6,72.8z"/>
		</defs>
		<clipPath id="SVGID_00000093873874552068944260000006420435429804026028_">
			<use xlink:href="#SVGID_00000144300636348028821570000002862096411961275016_"  style="overflow:visible;"/>
		</clipPath>
		
			<linearGradient id="SVGID_00000097475261174721976480000002542796487822525114_" gradientUnits="userSpaceOnUse" x1="98.5671" y1="68.5283" x2="24.0655" y2="68.5283">
			<stop  offset="0" style="stop-color:#BA5119"/>
			<stop  offset="0.49" style="stop-color:#FF9F6B"/>
			<stop  offset="1" style="stop-color:#BA5119"/>
		</linearGradient>
		
			<rect x="24.1" y="63.6" style="clip-path:url(#SVGID_00000093873874552068944260000006420435429804026028_);fill:url(#SVGID_00000097475261174721976480000002542796487822525114_);" width="74.5" height="9.9"/>
	</g>
	<g>
		<defs>
			<path id="SVGID_00000173879473983860239430000001814421375379944113_" d="M142.2,69.4c0.1-0.6,0-1.1-0.2-1.4
				c-0.2-0.3-0.6-0.5-1.1-0.5c-0.3,0-0.5,0.1-0.7,0.2c-0.2,0.1-0.4,0.2-0.5,0.4c-0.1,0.2-0.3,0.4-0.4,0.6c-0.1,0.2-0.2,0.5-0.2,0.7
				H142.2z M143.2,69.8c0,0.2-0.1,0.3-0.2,0.4c-0.1,0.1-0.2,0.1-0.3,0.1h-3.7c0,0.3,0,0.7,0,0.9c0,0.3,0.1,0.5,0.2,0.7
				c0.1,0.2,0.3,0.4,0.5,0.5c0.2,0.1,0.5,0.2,0.8,0.2c0.3,0,0.5,0,0.7-0.1c0.2,0,0.4-0.1,0.6-0.2c0.2-0.1,0.3-0.1,0.4-0.2
				c0.1,0,0.2-0.1,0.2-0.1c0,0,0.1,0,0.1,0c0,0,0,0,0,0.1c0,0,0,0.1,0,0.1c0,0.1,0,0.1,0,0.2c0,0.1,0,0.1,0,0.2c0,0,0,0.1,0,0.1
				c0,0,0,0.1,0,0.1c0,0,0,0.1-0.1,0.1c0,0-0.1,0.1-0.2,0.1c-0.1,0.1-0.3,0.1-0.5,0.2c-0.2,0.1-0.4,0.1-0.6,0.1
				c-0.2,0-0.5,0.1-0.8,0.1c-0.5,0-0.9-0.1-1.2-0.2c-0.3-0.1-0.6-0.4-0.8-0.6c-0.2-0.3-0.4-0.6-0.4-1.1c-0.1-0.4-0.1-0.9,0-1.5
				c0-0.5,0.2-1,0.3-1.5c0.2-0.4,0.4-0.8,0.6-1.1c0.3-0.3,0.6-0.5,0.9-0.7c0.3-0.2,0.7-0.2,1.1-0.2c0.4,0,0.8,0.1,1.1,0.2
				c0.3,0.2,0.5,0.4,0.7,0.6c0.2,0.3,0.3,0.6,0.4,0.9c0.1,0.4,0.1,0.7,0,1.2L143.2,69.8z M136.2,73.2
				C136.2,73.2,136.2,73.2,136.2,73.2c-0.1,0.1-0.1,0.1-0.1,0.2c0,0-0.1,0-0.2,0c-0.1,0-0.2,0-0.3,0c-0.1,0-0.2,0-0.3,0
				c-0.1,0-0.1,0-0.2,0c0,0-0.1,0-0.1-0.1c0,0,0-0.1,0-0.1l0.3-3.8c0-0.3,0-0.5,0-0.7c0-0.2-0.1-0.4-0.2-0.6
				c-0.1-0.2-0.2-0.3-0.3-0.4c-0.1-0.1-0.3-0.1-0.5-0.1c-0.2,0-0.5,0.1-0.7,0.3c-0.3,0.2-0.6,0.5-0.9,0.9l-0.4,4.4c0,0,0,0.1,0,0.1
				c0,0,0,0-0.1,0.1c0,0-0.1,0-0.2,0c-0.1,0-0.2,0-0.3,0c-0.1,0-0.2,0-0.2,0c-0.1,0-0.1,0-0.2,0c0,0-0.1,0-0.1-0.1c0,0,0-0.1,0-0.1
				l0.3-3.8c0-0.3,0-0.5,0-0.7c0-0.2-0.1-0.4-0.2-0.6c-0.1-0.2-0.2-0.3-0.3-0.4c-0.1-0.1-0.3-0.1-0.5-0.1c-0.2,0-0.5,0.1-0.7,0.3
				c-0.3,0.2-0.6,0.5-0.9,0.9l-0.4,4.4c0,0,0,0.1,0,0.1c0,0,0,0-0.1,0.1c0,0-0.1,0-0.2,0c-0.1,0-0.2,0-0.3,0c-0.1,0-0.2,0-0.3,0
				c-0.1,0-0.1,0-0.2,0c0,0-0.1,0-0.1-0.1c0,0,0-0.1,0-0.1l0.6-6.3c0,0,0-0.1,0-0.1c0,0,0,0,0.1-0.1c0,0,0.1,0,0.1,0
				c0.1,0,0.1,0,0.2,0c0.1,0,0.2,0,0.2,0c0.1,0,0.1,0,0.1,0c0,0,0.1,0,0.1,0.1c0,0,0,0.1,0,0.1l-0.1,0.8c0.4-0.4,0.7-0.7,1-0.9
				c0.3-0.2,0.6-0.3,0.9-0.3c0.2,0,0.4,0,0.6,0.1c0.2,0.1,0.3,0.1,0.5,0.3c0.1,0.1,0.2,0.2,0.3,0.4c0.1,0.1,0.2,0.3,0.2,0.5
				c0.2-0.2,0.4-0.4,0.6-0.6c0.2-0.2,0.4-0.3,0.5-0.4c0.2-0.1,0.3-0.2,0.5-0.2c0.2,0,0.3-0.1,0.5-0.1c0.4,0,0.7,0.1,0.9,0.2
				c0.2,0.1,0.4,0.3,0.5,0.6c0.1,0.2,0.2,0.5,0.2,0.8c0,0.3,0,0.7,0,1L136.2,73.2z M125.5,70c0-0.3,0-0.7,0-1c0-0.3-0.1-0.6-0.2-0.8
				c-0.1-0.2-0.3-0.4-0.5-0.5c-0.2-0.1-0.5-0.2-0.8-0.2c-0.3,0-0.6,0.1-0.8,0.2c-0.2,0.1-0.4,0.3-0.6,0.5c-0.2,0.2-0.3,0.5-0.4,0.8
				c-0.1,0.3-0.2,0.6-0.2,1c0,0.3,0,0.7,0,1c0,0.3,0.1,0.6,0.2,0.8c0.1,0.2,0.3,0.4,0.5,0.5c0.2,0.1,0.5,0.2,0.8,0.2
				c0.3,0,0.6-0.1,0.8-0.2c0.2-0.1,0.4-0.3,0.6-0.5c0.2-0.2,0.3-0.5,0.4-0.8C125.4,70.7,125.5,70.4,125.5,70z M126.6,70
				c0,0.5-0.1,1-0.3,1.4c-0.2,0.4-0.4,0.8-0.6,1.1c-0.3,0.3-0.6,0.6-1,0.7c-0.4,0.2-0.8,0.3-1.3,0.3c-0.5,0-0.9-0.1-1.2-0.2
				c-0.3-0.2-0.6-0.4-0.8-0.7c-0.2-0.3-0.3-0.6-0.4-1.1c-0.1-0.4-0.1-0.9,0-1.4c0-0.5,0.1-1,0.3-1.4c0.2-0.4,0.4-0.8,0.6-1.1
				c0.3-0.3,0.6-0.6,1-0.7c0.4-0.2,0.8-0.3,1.3-0.3c0.5,0,0.9,0.1,1.2,0.2c0.3,0.2,0.6,0.4,0.8,0.7c0.2,0.3,0.3,0.6,0.4,1.1
				C126.6,69,126.6,69.4,126.6,70z M119,73.2C119,73.2,119,73.2,119,73.2c-0.1,0.1-0.1,0.1-0.1,0.2c0,0-0.1,0-0.2,0
				c-0.1,0-0.2,0-0.3,0c-0.1,0-0.2,0-0.3,0c-0.1,0-0.1,0-0.2,0c0,0-0.1,0-0.1-0.1c0,0,0-0.1,0-0.1l0.4-4h-3.7l-0.4,4
				c0,0,0,0.1,0,0.1c0,0,0,0-0.1,0.1c0,0-0.1,0-0.2,0c-0.1,0-0.2,0-0.3,0c-0.1,0-0.2,0-0.3,0c-0.1,0-0.1,0-0.2,0c0,0-0.1,0-0.1-0.1
				c0,0,0-0.1,0-0.1l0.8-8.6c0,0,0-0.1,0-0.1c0,0,0-0.1,0.1-0.1c0,0,0.1,0,0.2,0c0.1,0,0.2,0,0.3,0c0.1,0,0.2,0,0.3,0
				c0.1,0,0.1,0,0.2,0c0,0,0.1,0,0.1,0.1c0,0,0,0.1,0,0.1l-0.3,3.6h3.7l0.3-3.6c0,0,0-0.1,0-0.1c0,0,0-0.1,0.1-0.1c0,0,0.1,0,0.2,0
				c0.1,0,0.2,0,0.3,0c0.1,0,0.2,0,0.3,0c0.1,0,0.1,0,0.2,0c0,0,0.1,0,0.1,0.1c0,0,0,0.1,0,0.1L119,73.2z M106.9,73.3l-1,2.3
				c0,0.1-0.1,0.1-0.2,0.2c-0.1,0-0.3,0.1-0.5,0.1c-0.1,0-0.2,0-0.3,0c-0.1,0-0.1,0-0.1-0.1c0,0,0-0.1,0-0.1c0,0,0-0.1,0-0.2l1-2.2
				c0,0-0.1,0-0.1-0.1c0,0-0.1-0.1-0.1-0.1l-1.5-6c0-0.1,0-0.2,0-0.2c0-0.1,0-0.1,0.1-0.1s0.1-0.1,0.2-0.1c0.1,0,0.2,0,0.3,0
				c0.1,0,0.2,0,0.3,0c0.1,0,0.1,0,0.2,0c0,0,0.1,0,0.1,0.1c0,0,0,0.1,0,0.1l1.2,5h0l2-5.1c0-0.1,0.1-0.1,0.1-0.2c0,0,0.1,0,0.2-0.1
				c0.1,0,0.2,0,0.3,0c0.1,0,0.2,0,0.3,0c0.1,0,0.1,0,0.2,0.1c0,0,0,0.1,0,0.1c0,0.1,0,0.1-0.1,0.2L106.9,73.3z M103.6,67.3
				c0,0.1,0,0.2,0,0.3c0,0.1,0,0.1,0,0.2c0,0,0,0.1-0.1,0.1c0,0,0,0-0.1,0c0,0-0.1,0-0.1,0c0,0-0.1,0-0.2-0.1c-0.1,0-0.1,0-0.2-0.1
				c-0.1,0-0.2,0-0.2,0c-0.1,0-0.2,0-0.3,0.1c-0.1,0-0.2,0.1-0.3,0.2c-0.1,0.1-0.2,0.2-0.4,0.4c-0.1,0.2-0.3,0.4-0.5,0.7l-0.4,4.1
				c0,0,0,0.1,0,0.1c0,0,0,0-0.1,0.1c0,0-0.1,0-0.2,0c-0.1,0-0.2,0-0.3,0c-0.1,0-0.2,0-0.3,0c-0.1,0-0.1,0-0.2,0c0,0-0.1,0-0.1-0.1
				c0,0,0-0.1,0-0.1l0.6-6.3c0,0,0-0.1,0-0.1c0,0,0,0,0.1-0.1c0,0,0.1,0,0.1,0c0.1,0,0.1,0,0.2,0c0.1,0,0.2,0,0.2,0
				c0.1,0,0.1,0,0.1,0c0,0,0.1,0,0.1,0.1c0,0,0,0.1,0,0.1l-0.1,0.9c0.2-0.3,0.3-0.5,0.5-0.6c0.2-0.2,0.3-0.3,0.4-0.4
				c0.1-0.1,0.3-0.2,0.4-0.2c0.1,0,0.2-0.1,0.4-0.1c0.1,0,0.1,0,0.2,0c0.1,0,0.1,0,0.2,0c0.1,0,0.1,0,0.2,0.1c0.1,0,0.1,0,0.1,0.1
				c0,0,0,0,0,0.1c0,0,0,0,0,0.1c0,0,0,0.1,0,0.1C103.6,67.1,103.6,67.2,103.6,67.3z"/>
		</defs>
		<clipPath id="SVGID_00000152237927117621825290000017162546305437353610_">
			<use xlink:href="#SVGID_00000173879473983860239430000001814421375379944113_"  style="overflow:visible;"/>
		</clipPath>
		
			<linearGradient id="SVGID_00000072989993386799986060000007926261845343328441_" gradientUnits="userSpaceOnUse" x1="143.2732" y1="70.0818" x2="99.7869" y2="70.0818">
			<stop  offset="0" style="stop-color:#BA5119"/>
			<stop  offset="0.49" style="stop-color:#FF9F6B"/>
			<stop  offset="1" style="stop-color:#BA5119"/>
		</linearGradient>
		
			<rect x="99.8" y="64.3" style="clip-path:url(#SVGID_00000152237927117621825290000017162546305437353610_);fill:url(#SVGID_00000072989993386799986060000007926261845343328441_);" width="43.5" height="11.6"/>
	</g>
	<path class="st4" d="M81.3,26.5c4.1-5.8,9.3-10.4,15.6-13.6c2.5-1.4,2.2-2.8-1.2-4.2c-1.7-0.8-3.5-0.5-5.3,0.9
		C88.5,11.4,74,23.5,81.3,26.5"/>
	<path class="st4" d="M88.3,23.5c0.8-2.7,5.7-6.6,14.7-11.5c2.6-0.9,3.9-0.3,3.9,1.7C106.6,15.4,103.2,14,88.3,23.5"/>
	<path class="st5" d="M143,58.4l4.9-42.2c1.3-0.8,7.3,0.3,7.3,3.5l-3.8,38.7H143z M127.1,53.7c1.9-0.5,3.2-1.2,3.8-1.9
		c0.6-0.7,0.8-1.3,0.8-1.7l0.8-6.9c-0.1,0.1-0.2,0.3-0.4,0.7c-0.2,0.4-0.7,0.7-1.4,1.1c-0.7,0.4-1.8,0.6-3.1,0.8
		c-2.5,0.3-4.4,0.9-5.8,1.6c-1.4,0.8-2.1,2-2.1,3.7c0.1,2.1,1.6,3.1,4.5,3.1C125.1,54.1,126,54,127.1,53.7z M131.1,55.2
		c-0.3,0.5-1.1,1.2-2.6,2c-1.4,0.8-3.8,1.2-7,1.2c-2.5-0.1-4.5-0.7-6.1-1.8c-1.7-1.1-2.5-2.7-2.7-4.9c0-0.2,0-0.8,0.1-1.6
		c0.4-3,1.7-5.3,4.1-6.8c2.3-1.5,5.7-2.4,10.1-2.8c2.2-0.2,3.9-0.7,5.1-1.7c1.2-1,1.7-2.1,1.6-3.2c-0.1-1-0.5-1.8-1.4-2.5
		c-0.9-0.7-2.1-1-3.6-1c-3.5,0-7.2,3-7.3,2.8l-3.3-3.7c0-0.1,0.5-0.4,1.5-1c1-0.5,2.3-1,4-1.5c1.7-0.5,3.7-0.7,6-0.7
		c7.9,0,12,2.4,12.3,7.1c0,0.3,0,0.8-0.1,1.5l-2.5,21.6C135.5,58.7,132.8,58,131.1,55.2z M94.7,35.6c0.1,1.1,1.1,1.9,3,2.6
		c1.9,0.6,3.8,1.2,5.8,1.8c1.9,0.5,3.6,1.4,5.1,2.6c1.5,1.2,2.3,3,2.4,5.4c-0.3,3.7-1.6,6.3-3.8,7.9c-2.2,1.6-5.2,2.6-9,2.9
		c-0.5,0.1-1.2,0.1-2.2,0.1c-2.6,0-4.8-0.2-6.6-0.6c-1.8-0.4-3-0.8-3.7-1L85.1,52c0.6,0.5,1.7,1,3.4,1.7c1.7,0.7,3.8,1.1,6.3,1.1
		c2.7,0,4.5-0.4,5.5-1.2c1-0.8,1.7-2.1,1.9-3.8c0.1-0.6,0.2-1,0.1-1.3c-0.1-1.5-0.8-2.5-2-3c-1.3-0.5-3.2-1-5.8-1.4
		c-2.6-0.4-4.6-1-6-1.8c-1.4-0.8-2.1-2.2-2.3-4.2c0-0.6,0-1.4,0.1-2.3c0.9-4.9,5-7.5,12.4-7.8c0.3,0,0.6,0,1,0c0.4,0,0.8,0,0.9,0
		c2.7,0,4.9,0.2,6.5,0.6c1.6,0.4,2.7,0.7,3.3,1l0.8,4.9c-0.5-0.4-1.6-0.8-3.2-1.4c-1.6-0.5-3.9-0.8-6.8-0.8c-1.9,0-3.5,0.2-4.6,0.7
		C95.6,33.1,94.9,34.1,94.7,35.6z M72.5,58.4L76,28.2h8.4l-3.5,30.2H72.5z M56.7,53.7c1.9-0.5,3.2-1.2,3.8-1.9
		c0.6-0.7,0.8-1.3,0.8-1.7l0.8-6.9c-0.1,0.1-0.2,0.3-0.4,0.7c-0.2,0.4-0.7,0.7-1.4,1.1c-0.7,0.4-1.8,0.6-3.1,0.8
		c-2.5,0.3-4.4,0.9-5.8,1.6c-1.4,0.8-2.1,2-2.1,3.7c0.1,2.1,1.6,3.1,4.5,3.1C54.7,54.1,55.7,54,56.7,53.7z M60.7,55.2
		c-0.3,0.5-1.1,1.2-2.6,2c-1.4,0.8-3.8,1.2-7,1.2c-2.5-0.1-4.5-0.7-6.1-1.8c-1.6-1.1-2.5-2.7-2.7-4.9c0-0.2,0-0.8,0.1-1.6
		c0.4-3,1.7-5.3,4.1-6.8c2.3-1.5,5.7-2.4,10.1-2.8c2.2-0.2,3.9-0.7,5.1-1.7c1.2-1,1.7-2.1,1.6-3.2c-0.1-1-0.5-1.8-1.4-2.5
		c-0.9-0.7-2.1-0.8-3.6-1c-3.6-0.5-7.6,3.1-7.7,3l-2.9-3.8c0-0.1,0.5-0.4,1.5-1c1-0.5,2.3-1,4-1.5c1.7-0.5,3.7-0.7,6-0.7
		c7.9,0,12,2.4,12.3,7.1c0,0.3,0,0.8-0.1,1.5c-0.8,7.2-1.7,14.4-2.5,21.6C66.3,58.4,63.6,58.3,60.7,55.2z M38.5,47.9
		c-1.6,15-25,10.1-24.9,10.1l1.4-6c0-0.1,3,0.6,5,0.6c3.3,0,5.6,0,6.9-1.3c1.3-1.3,2.2-3.2,2.4-5.7l2.4-24.8c2.6-4.2,7-4.5,10.6-4.6
		L38.5,47.9z"/>
	<g>
		<defs>
			<path id="SVGID_00000096038528673753712020000003411719121980994702_" d="M73.5,21.8c0.3,0,0.5-0.1,0.7-0.3
				c0.2-0.2,0.3-0.4,0.3-0.8c0-0.2,0-0.5-0.1-1c-0.1-0.9-0.1-1.4-0.1-1.7c-0.2,0.6-0.5,1.3-0.9,2.1c0.2,0.1,0.3,0.2,0.3,0.4
				c0,0.1,0,0.3-0.1,0.4c-0.1,0.1-0.2,0.2-0.4,0.2c-0.2,0-0.3,0-0.3-0.1c0,0.3,0.1,0.5,0.2,0.6S73.2,21.8,73.5,21.8 M73.9,22.7
				c-0.4,0-0.7-0.1-0.9-0.2c-0.3-0.1-0.4-0.3-0.6-0.5c-0.1-0.2-0.2-0.5-0.2-0.7c0-0.2,0.1-0.5,0.2-0.7c0.1-0.2,0.3-0.3,0.4-0.4
				c0.3-0.5,0.6-1.1,0.8-1.6c0.2-0.5,0.4-1.1,0.6-1.8l1.7-0.2c0,1,0.1,2,0.2,3.2c0,0.5,0.1,0.8,0.1,1c0,0.5-0.1,0.8-0.4,1.1
				c-0.2,0.3-0.5,0.5-0.9,0.6C74.6,22.6,74.2,22.7,73.9,22.7z M70.9,16.6c0.2-0.2,0.3-0.3,0.4-0.5c0.1-0.1,0.1-0.3,0.1-0.4
				c0-0.1,0-0.1-0.1-0.1c0,0-0.1-0.1-0.2-0.1c-0.1-0.1-0.2-0.2-0.2-0.3c-0.1-0.1-0.1-0.2-0.1-0.4c0-0.2,0.1-0.4,0.2-0.6
				c0.1-0.1,0.3-0.2,0.5-0.2c0.2,0,0.4,0.1,0.6,0.2c0.1,0.1,0.2,0.3,0.2,0.6c0,0.3-0.1,0.6-0.4,1c-0.2,0.4-0.6,0.7-1,0.9L70.9,16.6z
				 M66.6,21.6c0.2,0,0.4-0.1,0.6-0.3c0.2-0.2,0.3-0.4,0.4-0.7l0.5-2.6c0-0.1,0-0.2-0.1-0.3c-0.1-0.1-0.2-0.1-0.4-0.1
				c-0.3,0-0.6,0.2-0.8,0.5c-0.2,0.4-0.4,0.8-0.6,1.3c-0.1,0.5-0.2,0.9-0.2,1.3c0,0.4,0.1,0.6,0.2,0.7
				C66.4,21.5,66.5,21.6,66.6,21.6z M65.9,22.7c-0.4,0-0.8-0.1-1.1-0.4c-0.3-0.3-0.4-0.8-0.4-1.4c0-0.6,0.1-1.2,0.3-1.8
				c0.2-0.6,0.6-1.1,1-1.6c0.4-0.4,1-0.6,1.6-0.6c0.3,0,0.5,0.1,0.7,0.2c0.2,0.1,0.2,0.2,0.2,0.4v0.1l0.1-0.6H70l-0.8,3.9
				c0,0.1,0,0.2,0,0.4c0,0.2,0,0.3,0.1,0.3c0.1,0.1,0.2,0.1,0.4,0.1c0.1,0,0.2,0,0.3,0c-0.2,0.4-0.3,0.7-0.5,0.9
				c-0.2,0.2-0.4,0.3-0.7,0.3c-0.3,0-0.6-0.1-0.8-0.3c-0.2-0.2-0.3-0.4-0.4-0.8C67.1,22.3,66.6,22.7,65.9,22.7z M62.6,22.7
				c-0.4,0-0.7-0.1-0.9-0.3c-0.2-0.2-0.3-0.6-0.3-1c0-0.2,0-0.4,0.1-0.7l0.8-3.7h1.6l-0.8,3.9c0,0.1,0,0.2,0,0.4
				c0,0.2,0,0.3,0.1,0.3c0.1,0.1,0.2,0.1,0.4,0.1c0.2,0,0.4-0.1,0.6-0.3c0.2-0.2,0.3-0.4,0.4-0.7H65c-0.3,0.8-0.6,1.4-1.1,1.7
				C63.5,22.5,63.1,22.7,62.6,22.7z M63.4,16.3c-0.2,0-0.5-0.1-0.6-0.3c-0.2-0.2-0.3-0.4-0.3-0.6c0-0.3,0.1-0.5,0.3-0.6
				c0.2-0.2,0.4-0.3,0.6-0.3c0.3,0,0.5,0.1,0.6,0.3c0.2,0.2,0.3,0.4,0.3,0.6c0,0.2-0.1,0.5-0.3,0.6C63.9,16.2,63.7,16.3,63.4,16.3z
				 M57.6,21.6c0.2,0,0.4-0.1,0.6-0.3c0.2-0.2,0.3-0.4,0.4-0.7v-0.1l0.6-2.6c-0.1-0.3-0.2-0.4-0.5-0.4c-0.3,0-0.6,0.2-0.8,0.5
				c-0.2,0.4-0.4,0.8-0.6,1.3c-0.1,0.5-0.2,0.9-0.2,1.3c0,0.4,0.1,0.6,0.2,0.7C57.3,21.5,57.5,21.6,57.6,21.6z M56.9,22.7
				c-0.4,0-0.8-0.1-1.1-0.4c-0.3-0.3-0.4-0.8-0.4-1.4c0-0.6,0.1-1.2,0.3-1.8c0.2-0.6,0.6-1.1,1-1.6c0.4-0.4,1-0.6,1.6-0.6
				c0.3,0,0.5,0.1,0.7,0.2c0.2,0.1,0.2,0.2,0.2,0.4v0l0.6-2.6l1.7-0.2l-1.3,6.1c0,0.1,0,0.2,0,0.4c0,0.2,0,0.3,0.1,0.3
				s0.2,0.1,0.4,0.1c0.2,0,0.4-0.1,0.6-0.3c0.2-0.2,0.3-0.4,0.4-0.7H62c-0.5,1.4-1.2,2-2.3,2c-0.3,0-0.6-0.1-0.8-0.2
				c-0.2-0.2-0.3-0.4-0.4-0.7c-0.2,0.3-0.4,0.6-0.7,0.8C57.6,22.6,57.3,22.7,56.9,22.7z M53.9,22.7c-0.5,0-0.8-0.1-1-0.4
				c-0.2-0.2-0.3-0.6-0.3-0.9c0-0.2,0-0.3,0.1-0.5c0-0.2,0.1-0.4,0.1-0.6c0-0.2,0.1-0.3,0.1-0.4c0.1-0.3,0.1-0.5,0.2-0.8
				c0.1-0.3,0.1-0.5,0.1-0.6c0-0.4-0.1-0.6-0.4-0.6c-0.2,0-0.4,0.1-0.5,0.3c-0.2,0.2-0.3,0.4-0.4,0.8L51,22.6h-1.6l1.2-5.7h1.6
				l-0.1,0.6c0.4-0.4,0.8-0.6,1.3-0.6c0.4,0,0.7,0.1,0.9,0.3s0.3,0.5,0.3,1c0,0.2,0,0.5-0.1,0.7c-0.1,0.3-0.1,0.6-0.2,1
				c-0.1,0.2-0.1,0.5-0.2,0.7c0,0.2-0.1,0.4-0.1,0.5c0,0.2,0,0.3,0.1,0.4c0.1,0.1,0.2,0.1,0.4,0.1c0.2,0,0.4-0.1,0.5-0.2
				c0.1-0.2,0.3-0.4,0.4-0.8H56c-0.3,0.8-0.6,1.4-1,1.7C54.7,22.5,54.3,22.7,53.9,22.7z M48.2,14.9c-0.5,0.2-0.9,0.5-1.2,0.9
				c-0.3,0.4-0.4,0.9-0.4,1.5c0,0.3,0,0.5,0.1,0.6c0.1,0.1,0.1,0.2,0.1,0.2c-0.4,0-0.7-0.1-0.9-0.3c-0.2-0.2-0.3-0.5-0.3-0.8
				c0-0.5,0.2-1,0.6-1.4c0.4-0.5,0.9-0.8,1.5-1.1c0.6-0.3,1.2-0.4,1.9-0.4c0.1,0,0.3,0,0.5,0l-1.8,8.5h-1.6L48.2,14.9z"/>
		</defs>
		<clipPath id="SVGID_00000016791325930146911440000005430026870730059677_">
			<use xlink:href="#SVGID_00000096038528673753712020000003411719121980994702_"  style="overflow:visible;"/>
		</clipPath>
		
			<linearGradient id="SVGID_00000026162745596431845440000011805711263771253690_" gradientUnits="userSpaceOnUse" x1="76.1318" y1="18.3513" x2="45.5887" y2="18.3513">
			<stop  offset="0" style="stop-color:#BA5119"/>
			<stop  offset="0.49" style="stop-color:#FF9F6B"/>
			<stop  offset="1" style="stop-color:#BA5119"/>
		</linearGradient>
		
			<rect x="45.6" y="14" style="clip-path:url(#SVGID_00000016791325930146911440000005430026870730059677_);fill:url(#SVGID_00000026162745596431845440000011805711263771253690_);" width="30.5" height="8.6"/>
	</g>
	<path class="st7" d="M157.7,11.7c1.4,0,2.6,1.2,2.6,2.6c0,1.4-1.2,2.6-2.6,2.6s-2.6-1.2-2.6-2.6C155.1,12.8,156.3,11.7,157.7,11.7
		 M157.7,11.1c1.7,0,3.1,1.4,3.1,3.1c0,1.7-1.4,3.1-3.1,3.1s-3.1-1.4-3.1-3.1C154.6,12.5,156,11.1,157.7,11.1z"/>
	<path class="st5" d="M156.9,14h0.5c0.3,0,0.5,0,0.6,0c0.1,0,0.1-0.1,0.2-0.1c0-0.1,0.1-0.1,0.1-0.2c0-0.1,0-0.2-0.1-0.3
		c-0.1-0.1-0.1-0.1-0.2-0.1c-0.1,0-0.2,0-0.5,0h-0.5V14z M156.3,15.8v-3.1h1.3c0.3,0,0.6,0,0.7,0.1c0.2,0.1,0.3,0.2,0.4,0.3
		c0.1,0.1,0.1,0.3,0.1,0.5c0,0.2-0.1,0.4-0.2,0.6c-0.1,0.2-0.3,0.2-0.6,0.3c0.1,0.1,0.2,0.2,0.3,0.3c0.1,0.1,0.2,0.3,0.4,0.5
		l0.4,0.6h-0.8l-0.5-0.7c-0.2-0.2-0.3-0.4-0.3-0.5c-0.1-0.1-0.1-0.1-0.2-0.1c-0.1,0-0.2,0-0.3,0h-0.1v1.3H156.3z"/>
</g>
</svg>
