<?xml version="1.0" encoding="utf-8"?>
<!-- Generator: Adobe Illustrator 25.4.1, SVG Export Plug-In . SVG Version: 6.00 Build 0)  -->
<svg version="1.1" id="Layer_1" xmlns="http://www.w3.org/2000/svg" xmlns:xlink="http://www.w3.org/1999/xlink" x="0px" y="0px"
	 viewBox="0 0 55.5 53.2" style="enable-background:new 0 0 55.5 53.2;" xml:space="preserve">
<style type="text/css">
	.st0{fill:#B6B7B7;}
</style>
<path class="st0" d="M21.5,38.9v9.5c0,0.7,0.4,1.3,1.1,1.5C22.7,50,22.8,50,23,50c0.5,0,0.9-0.2,1.2-0.6l5.6-7.6L21.5,38.9z"/>
<path class="st0" d="M52.2,3c-0.5-0.3-1.1-0.4-1.6-0.1L4.3,27c-0.5,0.3-0.9,0.9-0.8,1.5c0,0.6,0.5,1.1,1,1.3l12.9,4.4l27.4-23.4
	L23.6,36.4l21.6,7.4c0.2,0.1,0.3,0.1,0.5,0.1c0.3,0,0.6-0.1,0.8-0.2c0.4-0.2,0.7-0.6,0.7-1.1l5.7-38.1C52.9,3.9,52.7,3.3,52.2,3z"/>
</svg>
