<svg width="31" height="31" viewBox="0 0 31 31" fill="none" xmlns="http://www.w3.org/2000/svg">
<path d="M19.982 14.436L13.742 9.9C13.513 9.734 13.209 9.709 12.958 9.838C12.705 9.966 12.547 10.226 12.547 10.507V19.576C12.547 19.86 12.705 20.119 12.958 20.247C13.065 20.301 13.182 20.328 13.3 20.328C13.454 20.328 13.61 20.279 13.742 20.182L19.982 15.65C20.179 15.505 20.294 15.281 20.294 15.043C20.295 14.801 20.177 14.578 19.982 14.436Z" fill="white"/>
<path d="M15.026 0C6.726 0 0 6.726 0 15.026C0 23.323 6.726 30.047 15.026 30.047C23.324 30.047 30.051 23.322 30.051 15.026C30.052 6.726 23.324 0 15.026 0ZM15.026 27.54C8.114 27.54 2.51 21.939 2.51 15.026C2.51 8.116 8.114 2.508 15.026 2.508C21.937 2.508 27.54 8.115 27.54 15.026C27.541 21.939 21.937 27.54 15.026 27.54Z" fill="white"/>
</svg>
