<?xml version="1.0" encoding="utf-8"?>
<!-- Generator: Adobe Illustrator 25.4.1, SVG Export Plug-In . SVG Version: 6.00 Build 0)  -->
<svg version="1.1" id="Layer_1" xmlns="http://www.w3.org/2000/svg" xmlns:xlink="http://www.w3.org/1999/xlink" x="0px" y="0px"
	 viewBox="0 0 122.4 87" style="enable-background:new 0 0 122.4 87;" xml:space="preserve">
<style type="text/css">
	.st0{fill-rule:evenodd;clip-rule:evenodd;fill:#97564A;}
	.st1{clip-path:url(#SVGID_00000105397541306112781160000008801135337544562600_);}
	
		.st2{clip-path:url(#SVGID_00000075139086078643926900000017290847756584624005_);fill-rule:evenodd;clip-rule:evenodd;fill:#97564A;}
	
		.st3{clip-path:url(#SVGID_00000075139086078643926900000017290847756584624005_);fill:none;stroke:#FFFFFF;stroke-width:0.567;stroke-miterlimit:22.926;}
	.st4{clip-path:url(#SVGID_00000025401035669359241910000011914384986892046502_);}
	
		.st5{clip-path:url(#SVGID_00000126292590443016452630000003941694052001922473_);fill-rule:evenodd;clip-rule:evenodd;fill:#97564A;}
	
		.st6{clip-path:url(#SVGID_00000126292590443016452630000003941694052001922473_);fill:none;stroke:#FFFFFF;stroke-width:0.567;stroke-miterlimit:22.926;}
	.st7{clip-path:url(#SVGID_00000029740204642151657490000009507923057572995247_);}
	
		.st8{clip-path:url(#SVGID_00000052100212931404963050000012173759664789884347_);fill-rule:evenodd;clip-rule:evenodd;fill:#97564A;}
	
		.st9{clip-path:url(#SVGID_00000052100212931404963050000012173759664789884347_);fill:none;stroke:#FFFFFF;stroke-width:0.567;stroke-miterlimit:22.926;}
	.st10{clip-path:url(#SVGID_00000119799516662213137500000017173568860119899534_);}
	
		.st11{clip-path:url(#SVGID_00000165924741052563401500000015554702156510498234_);fill-rule:evenodd;clip-rule:evenodd;fill:#97564A;}
	
		.st12{clip-path:url(#SVGID_00000165924741052563401500000015554702156510498234_);fill:none;stroke:#FFFFFF;stroke-width:0.567;stroke-miterlimit:22.926;}
</style>
<path class="st0" d="M123,53.4c-0.3-0.1-0.5-0.1-0.8-0.2c-0.1-0.1-0.2-0.1-0.4-0.1c-0.2-0.1-0.1-0.1-0.3-0.2c-0.4-0.1-0.2,0-0.8-0.2
	c-0.1-0.1-0.2-0.1-0.4-0.1c-0.2,0-0.2-0.1-0.4-0.1c-0.3-0.1-0.5-0.1-0.8-0.2c-0.2-0.1-0.6-0.1-0.8-0.2c-0.4-0.1-1-0.2-1.4-0.3
	c-0.3-0.1-0.8-0.1-1.1-0.1c-0.3,0-0.6-0.1-0.9-0.1c-0.7-0.1-2.9,0-3.7,0.1c-0.1,0-0.2,0-0.4,0c-0.3,0-0.2,0.1-0.4,0.1
	c-0.3,0.1-0.4,0-0.8,0.2l-0.6,0.1c-0.2,0-0.1,0-0.2,0.1c-0.3,0.3-0.4,0.1-0.8,0.2c-0.3,0.1-0.5,0.2-0.7,0.3
	c-0.2,0.1-0.1,0.1-0.4,0.1c-0.3,0-0.1,0.1-0.3,0.2c-0.2,0.1-0.4,0-0.7,0.3l-0.1,0.1c-0.3,0.2-0.6,0.2-0.9,0.4l-0.6,0.4
	c0,0-0.1,0-0.2,0.1c-0.1,0.1,0,0.1-0.1,0.1c-0.1,0.1-0.2,0-0.4,0.1c-0.3,0.2-0.3,0.1-0.7,0.3c-0.1,0.1-0.2,0.1-0.4,0.1
	c-0.4,0.1-0.7,0.3-1.1,0.4c-0.2,0-0.2,0-0.4,0.1c-0.6,0.2-0.5,0.1-0.9,0.2c-0.1,0-0.1,0.2-0.5,0.2c-0.3,0-0.2,0.1-0.5,0.2
	c-0.4,0.1-0.7,0.3-1.2,0.3c0,0.3,0,0-0.1,0.2c-0.6,0-0.4,0.1-0.8,0.2c-0.2,0-0.3,0-0.4,0.1C96.8,57,97.1,57,96.7,57
	c-0.3,0-0.5,0.2-0.8,0.2c-0.3,0.1-0.1,0.2-0.8,0.3c-0.2,0-0.2,0.1-0.3,0.2L93.5,58c-0.3,0-0.5,0.1-0.8,0.2c-0.2,0-0.8,0.1-0.9,0
	c0-0.3,0.3-0.2,0.6-0.5l1.7-1.5c0,0,0,0,0,0c0,0,0.1-0.1,0.1-0.1c0.1-0.1,0.1-0.1,0.2-0.2c0.3-0.4,1.1-1.1,1.4-1.3
	c0.2-0.1,0.3-0.2,0.5-0.3l0.5-0.2c0.2-0.1,0.1-0.1,0.2-0.1c0.1-0.1,0.2,0,0.3-0.1c0.1,0,0.1-0.1,0.2-0.1c0.1,0,0.2-0.1,0.3-0.1
	c0.1,0,0.1-0.1,0.2-0.1c0.2-0.1,0.7-0.2,0.8-0.3c0.2-0.1,0-0.1,0.2-0.2c0.1-0.1,0.2-0.1,0.3-0.1l0.9-0.6c0.2-0.2,0.6-0.5,0.8-0.7
	l1.2-1.5c0.1-0.2,0.2-0.3,0.3-0.4c0.2-0.1,0.1-0.1,0.2-0.3c0.1-0.2,0.2-0.3,0.3-0.4c0.1-0.2,0.2-0.3,0.3-0.5c0.3-0.5,0.7-0.8,1-1.3
	c0.1-0.1,0.4-0.3,0.3-0.5c0,0,0,0,0,0l-0.1,0c-0.1,0-0.1,0-0.2,0c-0.2,0-0.3,0.1-0.5,0.2c-0.3,0.1-0.2,0.2-0.5,0.3
	c-0.1,0-0.1,0.1-0.2,0.1c-0.3,0.2-0.5,0.5-0.8,0.8c-0.2,0.2,0,0.1-0.2,0.2c-0.2,0.1-0.4,0.4-0.6,0.7c-0.2,0.2-0.4,0.4-0.6,0.6l-1,1
	l-0.9,0.7c-0.1,0.1-0.3,0.3-0.5,0.3c-0.3,0.1-0.5,0.3-0.7,0.4c-0.6,0.2-0.1,0.1-0.8,0.4c-0.1,0.1-0.4,0.2-0.5,0.2l-0.2,0.1
	c-0.1,0.1-0.2,0-0.3,0.1c-0.2,0.1-0.8,0.4-1,0.6c-0.1,0.1-0.1,0.1-0.2,0.2c-0.1,0.1-0.1,0.1-0.2,0.2l-0.3,0.3c0,0-0.1,0.1-0.1,0.1
	c-0.1,0.1,0,0-0.1,0.1l-0.9,0.9c-0.1,0.1-0.1,0.1-0.2,0.2c-0.1,0.1-0.1,0.1-0.2,0.2l-0.4,0.4c-0.2,0.2-0.4,0.4-0.6,0.6l-2.5,1.9
	c-0.1,0.1,0,0-0.1,0.1c-0.1,0.1-0.1,0.1-0.2,0.1c-0.1,0.1-0.1,0.1-0.2,0.2l-0.5,0.3c-0.3,0.2-1.5,1-1.8,1.3l-0.4,0.4
	c-0.3,0.2-0.6,0.5-0.9,0.7l-0.8,0.7c-0.5,0.5-1,0.9-1.5,1.4c-0.2,0.3-0.5,0.4-0.7,0.7c-0.1,0.1-0.1,0.1-0.2,0.2l-0.2,0.2
	c-0.1,0.1-0.1,0.1-0.2,0.2l-1.5,1.6c-0.2,0.2-0.4,0.4-0.6,0.6c-0.2,0.3-0.4,0.4-0.6,0.6L79,67.9c-0.2,0.2-0.4,0.4-0.5,0.6
	c-0.2,0.2-0.2,0.3-0.4,0.5L77,70.2c-0.1,0.2-0.2,0.3-0.3,0.4l-1.5,1.7c-0.1,0.1-0.1,0.1-0.2,0.2c-0.1,0.1-0.2,0.1-0.2,0.2l-0.4,0.4
	c-0.2,0.2-0.1,0.2-0.4,0.4c-0.2,0.1-0.2,0.3-0.4,0.4c-0.1,0.1-0.3,0.2-0.5,0.3c-0.1,0.1-0.1,0.1-0.2,0.2c-0.3,0.2-0.8,0.4-1.2,0.8
	c-0.3,0.3-0.8,0.5-1.1,0.8c-0.1,0.1-0.1,0.1-0.2,0.2L70,76.7c0,0,0,0,0,0l-1.5,2.1c-0.1,0.2-0.2,0.3-0.3,0.4l-1.3,2.2c0,0,0,0,0,0
	l-0.2,0.3c-0.4,0.7-0.8,1.3-1.2,2l-0.4,0.8c0,0,0,0,0,0.1l-0.1,0.2c0,0,0,0,0,0l-0.3,0.4c-0.2,0.2-0.2,0.2-0.5,0.2
	c-1.1-0.1-1.6,0.4-3,0c-0.1,0-0.2,0-0.4,0c-0.3,0-0.4-0.1-0.6-0.2c-0.2-0.1-0.4-0.1-0.6-0.1c-0.1-0.1-0.1-0.1-0.2-0.1
	c-0.2-0.1-0.7-0.3-0.8-0.4c-0.1-0.1-0.2-0.1-0.4-0.2l-0.9-0.4c-0.2-0.1-0.1-0.1-0.2-0.2c-0.2-0.1-0.3-0.2-0.5-0.3L56,83.4
	c-0.2-0.2-0.5-0.2-0.7-0.4c-0.1-0.1-0.1-0.1-0.2-0.2L55,82.7c0,0,0,0,0,0c-0.1,0,0,0-0.1-0.1c-0.1-0.1-0.2-0.1-0.3-0.1
	c-0.1-0.1-0.3-0.2-0.4-0.4l-1.1-0.8c-0.2-0.2-0.2-0.1-0.4-0.3c0,0,0,0,0,0c0,0,0,0,0,0c0,0,0,0,0,0l-0.4-0.3
	c-0.1-0.1-0.1-0.1-0.2-0.2l-0.2-0.2c-0.2-0.2-0.7-0.6-0.9-0.8l-0.1-0.2c-0.4,0-0.3-0.2-0.9-0.2c-0.6,0-1.5-0.1-2.1,0.1c0,0,0,0,0,0
	l-0.4,0c-1.3,0-3.1,0-4.3-0.4l-0.8-0.3c-0.6-0.3-1.5-0.8-2-1.3c-0.4-0.4-0.7-0.8-1-1.3c-0.1-0.2-0.1-0.2-0.2-0.4
	c-0.1-0.2-0.3-0.5-0.3-0.8c-0.1-0.7-0.2-1.5,0.2-2.2c0.3-0.6,0.2-0.3,0.5-0.6c0.3-0.3,1.4-0.2,1.6,0l1,0.5c0,0,0.1,0,0.1,0
	c0.1,0,0.1,0,0.2,0.1l0.4,0.4c0.1,0.1,0.1,0.1,0.1,0.1l0.7,0.5c0.1,0.1,0.2,0.2,0.5,0.4l1.4,1c0.1,0.1,0,0,0.1,0.1
	c0.1,0.1,0.1,0,0.2,0.1l1,0.7c0.1,0.1,0.2,0.2,0.3,0.2l1.2,0.8c0.2,0.2,0.1,0.1,0.4,0.2c0.2,0.1,0.2,0.2,0.4,0.1
	c0-0.3-0.5-0.4-0.8-0.9l-4.2-4.4c-0.7-0.6-1.2-1.3-1.9-2c-0.1-0.1-0.2-0.3-0.4-0.5c-0.3-0.2-0.6-0.6-0.8-0.8c-0.3-0.2-0.6-0.2-1-0.3
	C39.3,68.2,35,68,34.6,68c-1.1,0-1.5-0.2-2.1-0.3l-1.3-0.4c-0.2-0.1-0.4-0.1-0.6-0.2l-0.8-0.4c-0.4-0.2-1.2-0.7-1.5-1.1
	c-0.1-0.1-0.1-0.1-0.2-0.2c-0.3-0.3-0.5-0.7-0.7-1.1c-0.1-0.2-0.1-0.1-0.1-0.3c-0.2-0.6-0.4-1.4-0.1-2c0.4-0.9,0.9-0.9,1.7-0.8
	c0.4,0,0.9,0.2,1.3,0.4c0.4,0.2,0.8,0.2,1.2,0.5c0.1,0.1,0.2,0.1,0.3,0.1c0.1,0.1,0.1,0.1,0.3,0.2c0.2,0.1,0.3,0.2,0.6,0.2l0.7,0.3
	c0.2,0.2,0.5,0.3,0.7,0.4c0.1,0,0.1,0,0.2,0.1c0.1,0.1,0.4,0.1,0.5,0.3c0.2,0.2,0.6,0.3,0.8,0.5l0.4,0.2c0.1,0.1,0,0,0.1,0.1
	l2.3,1.3c0.1,0.1,0,0.1,0.1,0.1c0.2,0,0.1,0,0.2-0.1c0-0.2-0.1-0.2-0.4-0.5c0,0,0,0,0,0c0,0,0,0,0,0L37.8,65
	c-0.2-0.2-0.4-0.5-0.6-0.8l-0.6-0.8c-0.2-0.3-0.4-0.6-0.6-0.8l-0.7-0.8c-0.1-0.1-0.2-0.3-0.3-0.4L34.6,61c-0.1-0.1-0.2-0.3-0.3-0.4
	l-0.6-0.8c-0.1-0.1-0.3-0.2-0.3-0.5c-0.3,0-0.4-0.2-0.8-0.2c-0.4,0-1.5,0.1-1.8-0.1c-0.3-0.2-0.5-0.1-0.8-0.2l-1.2-0.3
	c-0.5-0.2-0.3-0.1-0.8-0.2c-0.2,0-0.2-0.1-0.3-0.2c-0.2-0.1-0.4,0-0.5-0.1C27,58.1,27,58,27,58c-0.2-0.2,0.2-0.1-0.5-0.1
	c-0.3,0-0.5-0.2-0.8-0.2c-0.2,0-0.3-0.2-0.7-0.2l-3.3-1.2c-0.3-0.2-0.7-0.3-1-0.5c-0.2-0.1-0.3-0.1-0.4-0.3
	c-0.2-0.2-0.7-0.3-1.1-0.9l-0.3-0.5c-0.3-0.4-0.3-1.4,0-1.8l0.5-0.6c0.2-0.2,0.4-0.2,0.6-0.4c0.2-0.1,0.5-0.1,0.7-0.2
	c0.4-0.2,0.4-0.1,0.8-0.1c0.3,0,0.6,0,0.9,0c0.3,0,0.3,0.2,0.7,0.2c0.3,0,0.2,0,0.4,0.1c0.2,0.1,0.2,0,0.4,0.1
	c0.1,0,0.2,0.1,0.3,0.2l0.7,0.3c0.2,0.1,0.1,0.1,0.3,0.2c0.2,0.1,0.5,0.2,0.7,0.4l1.5,1c0.2,0.1,0.4,0.2,0.6,0.4
	c0.2,0.3,0.7,0.4,0.9,0.6l1.1,1c0.1,0.1,0.2,0.2,0.3,0.2c0.1,0.2,0.1,0.1,0.3,0.1c0-0.2,0-0.1-0.1-0.2c-0.1-0.1-0.1-0.1-0.2-0.2
	c-0.2-0.3-0.5-0.5-0.7-0.8L29.1,54c-0.1-0.1-0.1-0.1-0.2-0.2c-0.1-0.1-0.2-0.3-0.3-0.4c-0.1-0.1-0.2-0.2-0.4-0.4l-1.4-1.7
	c-0.1-0.1-0.2-0.3-0.4-0.5c-0.1-0.1-0.2-0.3-0.3-0.4l-0.8-0.8c-0.2-0.1-0.5-0.1-0.7-0.1c-0.9,0-1.8,0-2.7,0l-2.6-0.2
	c-0.4-0.1-0.9,0-1.3-0.1c-0.5,0-0.8-0.2-1.3-0.2L15,48.8c-0.3-0.1-0.6-0.1-0.9-0.2c-0.2-0.1-0.4-0.1-0.6-0.3
	c-0.1-0.1-0.2-0.1-0.4-0.1L12,47.5c-0.1-0.1-0.3-0.3-0.4-0.4c-0.1-0.1-0.3-0.4-0.3-0.5c-0.4-0.8-0.5-1.8-0.1-2.7
	c0.1-0.3,0.3-0.5,0.5-0.7c0.1-0.1,0-0.1,0.2-0.2c0.7-0.5,1.6-0.4,2.4-0.3l1.1,0.3c0.1,0,0.2,0.1,0.2,0.1c0.4,0.1,0.1,0,0.5,0.2
	c0.1,0.1,0.1,0,0.3,0.1c0.2,0.1,0.1,0.2,0.5,0.2c0.4,0.1,0.7,0.4,1,0.5l1.5,0.7c0.2,0.1,0,0.1,0.5,0.3c0.1,0.1,0.1,0.1,0.2,0.2
	c0.1,0.1,0.2,0,0.3,0.1c0.1,0.1,0.1,0.1,0.2,0.2c0.1,0,0.2,0.1,0.3,0.1l0.7,0.4c0.2,0.1,0.1,0,0.2,0.2c0.2,0,0.3,0,0.5,0.1l0.2,0.1
	c0.1,0.1,0.2,0.2,0.4,0.1c0-0.1-0.1-0.1-0.1-0.2c-0.1-0.2-0.2-0.2-0.4-0.4c-0.2-0.2-0.3-0.4-0.5-0.5c-0.2-0.1-0.2-0.1-0.3-0.2
	c-0.3-0.3-0.5-0.5-0.8-0.8c0,0-0.1-0.1-0.1-0.1c0,0,0,0-0.1-0.1c-0.2-0.3-0.7-0.6-1-0.7c-0.2-0.1-0.5-0.3-0.7-0.4
	c-0.1,0-0.1,0-0.2-0.1c0,0-0.1,0-0.1,0c-0.2-0.1-0.2-0.1-0.5-0.2c-0.4-0.1-0.4-0.2-0.8-0.2c-0.4,0-0.4-0.2-0.8-0.2
	c-0.3,0-0.1-0.1-0.8-0.2c-0.2,0-0.2-0.1-0.4-0.2c-0.2-0.1-0.3,0-0.4-0.1c-0.1,0-0.2-0.1-0.3-0.2c-0.1,0-0.3-0.1-0.4-0.1
	c-0.1,0-0.2-0.1-0.3-0.2l-2.3-0.8c-0.2-0.1-0.3,0-0.4-0.1c-0.1-0.1-0.2-0.1-0.3-0.2l-0.7-0.3c-0.1-0.1-0.1,0-0.2-0.1
	c-0.1,0-0.1-0.1-0.2-0.1l-0.7-0.3c-0.1-0.1-0.1-0.1-0.3-0.2C8,39.4,7.5,39.2,7.2,39l-0.1,0c0,0,0,0,0,0c0,0-0.1,0-0.1,0l-1.3-0.8
	c-0.2-0.1-0.2,0-0.4-0.2l-0.3-0.3c-0.1,0,0,0-0.1-0.1l-0.7-0.6c-0.1-0.1-0.1,0-0.2-0.1c-0.2-0.1-0.4-0.5-0.6-0.7
	c-0.4-0.4-0.4-0.5-0.7-1l-0.1-0.3c-0.1-0.5-0.3-0.6-0.2-1.2c0-0.3,0.3-0.8,0.7-1c0.6-0.3,1-0.3,1.8-0.2c0.3,0,0.5,0.2,0.8,0.2
	c0.1,0,0.1,0,0.2,0c0,0,0.1,0,0.1,0c0.1,0,0.1,0,0.1,0.1c0.2,0.2,0,0.1,0.4,0.2c0.2,0,0.2,0.1,0.4,0.1c0.1,0.1,0.1,0,0.2,0.1
	c0.3,0.1,0.1,0.1,0.5,0.3c0.2,0.1,0,0,0.2,0.1c0,0,0.1,0.1,0.2,0.1c0.3,0.1,0.5,0.2,0.7,0.4c0,0,0.1,0.1,0.1,0.1
	c0.3,0.3,0.9,0.5,1.2,0.8c0,0,0,0,0,0c0,0,0,0,0,0c0.3,0.2,0.5,0.5,0.8,0.7l1.5,1.2c0.2,0.2,0.4,0.3,0.6,0.5l2,1.8
	c0.3,0.3,0.8,0.8,1.2,0.9c0.2,0.1,0.1,0,0.2,0.1c0.3,0.2,0.5,0.4,0.8,0.6l1.7,0.9c0.2,0.1,0.2,0,0.4,0.2l0.7,0.3
	c0.3,0.1,0.4,0.2,0.7,0.3c0.1,0.1,0.2,0.1,0.4,0.2c0.2,0.1,0.4,0.3,0.6,0.4c0.2,0.1,0.1,0,0.2,0.1l0.3,0.2c0.1,0.1,0.1,0,0.2,0.1
	l0.1,0.1c0,0,0,0,0,0l0.3,0.3c0.3,0.3,0.8,0.8,1.1,0.9c0-0.5-0.4-1.3-0.7-1.7l-1-2.1c-0.1-0.3-0.3-0.5-0.4-0.8
	c-0.1-0.3,0-0.1-0.1-0.3l-0.1-0.2c0,0,0,0,0,0c0,0,0-0.1,0-0.1L20.9,39c0-0.1,0-0.1-0.1-0.1l-0.2-0.5c-0.1-0.1-0.1-0.1-0.1-0.3
	c-0.1-0.3,0,0-0.3-0.5c-0.2-0.6-0.4-0.6-0.6-1.4c-0.1-0.2-0.1-0.1-0.1-0.3c0-0.1,0-0.2-0.1-0.3c-0.1-0.3-0.1-0.1-0.1-0.7
	c0-0.6,0-1,0.2-1.4c0.1-0.2,0.1-0.1,0.1-0.3c0.1-0.3,0.2-0.4,0.4-0.7c0.2-0.2,0.9-0.5,1.4-0.2l0.4,0.2c0.3,0.3,1,0.7,1.3,1.4
	c0.1,0.2,0.2,0.5,0.2,0.6c0.1,0.2,0-0.1,0.1,0.2l0.5,1.5c0.1,0.3,0,0.3,0.2,0.6c0.1,0.2,0.1,0.4,0.2,0.6L25,40
	c0.1,0.3,0.1,0.4,0.1,0.7c0,0.1,0.1,0.2,0.1,0.3c0,0.1,0,0.2,0.1,0.3l0.1,0.7c0,0.3,0.1,0.2,0.2,0.6c0,0.3,0.1,0.4,0.1,0.7l0.4,2.8
	c0,0.4,0.2,0.8,0.2,1.4c0,0.3,0,0.5,0.1,0.7c0.1,0.6,0.4,0.5,1,1.3l1.3,1.6c0.1,0.2,0.2,0.4,0.4,0.5c0.2,0.2,0.2,0.2,0.4,0.4
	c0.2,0.3,0.5,0.5,0.7,0.8c0.1,0.2,0.2,0.3,0.3,0.4c0.1,0.2,0.2,0.2,0.3,0.5l0.2,0c0-0.4-0.1-0.4-0.2-0.7c-0.1-0.2-0.2-0.4-0.3-0.6
	c-0.3-0.5-1-2.2-1.3-2.6c-0.2-0.4-0.4-0.8-0.5-1.2c0,0-0.1-0.1-0.1-0.2l-1.7-3.8c0,0,0-0.1-0.1-0.1c-0.1-0.3-0.2-0.6-0.3-0.9
	c-0.1-0.1-0.1-0.1-0.1-0.3l-0.2-0.7c-0.1-0.2-0.1-0.2-0.1-0.3c0-0.2,0-0.2-0.1-0.5c-0.1-0.2-0.3-1-0.3-1.2c0-0.5-0.3-0.8-0.2-1.3
	c0-0.2,0.1-0.1,0.1-0.4c0.1-0.5,0.1-0.3,0.3-0.7c0.3-0.5,1.3-0.2,1.6,0.2c0.1,0.1,0.2,0.1,0.8,0.6c0.1,0.1,0.1,0.1,0.2,0.2l0.8,1.1
	c0.1,0.1,0.1,0.1,0.2,0.3l0.9,2.5c0.1,0.3,0.2,0.6,0.4,1.1c0,0.2,0.1,0.2,0.1,0.3c0.1,0.2,0.1,0.2,0.1,0.4l0.3,1.1
	c0.1,0.2,0.1,0.2,0.1,0.3c0,0.2,0,0.3,0.1,0.4c0.1,0.1,0.1,0,0.2,0.3c0.1,0.3,0.1,0.5,0.2,0.8l0.4,1.6c0,0.1,0.1,0.2,0.1,0.4
	c0.1,0.2,0,0.3,0.2,0.8c0,0.1,0.1,0.3,0.1,0.4l0.3,1.2c0,0.2,0,0.3,0.1,0.4c0.1,0.2,0.1,0.1,0.1,0.4c0.1,0.4,0.1,0.6,0.2,0.8
	c0.1,0.7,0.1,0.4,0.2,0.8c0,0.2,0,0.3,0.1,0.4c0,0.1,0.1,0.2,0.1,0.3c0.1,0.2,0,0.3,0.1,0.5c0,0.2,0.1,0.2,0.1,0.4l0.2,0.8
	c0.1,0.2,0,0.2,0.1,0.4c0,0,0,0,0,0l0.2,0.3c0,0,0.1,0.1,0.1,0.1l1.7,2.3c0.3,0.4,0.5,0.6,0.6,0.8c0.1,0.1,0.1,0.2,0.2,0.3l2.5,3
	c0.1,0.1,0,0,0.2,0.1c0-0.3,0-0.1-0.2-0.4c-0.2-0.4-0.3-0.5-0.4-0.7c-0.2-0.4-0.5-0.8-0.6-1.2l-0.8-1.7c-0.1-0.1-0.1-0.2-0.2-0.4
	c-0.1-0.2-0.3-0.5-0.3-0.7c-0.1-0.2-0.1-0.2-0.2-0.4l-0.9-2c-0.1-0.1,0,0-0.1-0.2c-0.1-0.2-0.1-0.2-0.1-0.4
	c-0.1-0.2-0.2-0.5-0.3-0.8l-0.2-0.6c0-0.1-0.1-0.1-0.1-0.2c-0.1-0.3-0.2-0.6-0.2-0.8c0-0.2-0.1-0.1-0.2-0.4l-0.9-3
	c-0.1-0.2-0.4-2.1-0.4-2.3c0-0.6,0-1.1,0.1-1.6c0-0.1,0-0.1,0-0.2l0.2-0.6c0.3-0.6,0.7-0.9,1.3-0.8c0.4,0.1,0.6,0.4,0.9,0.7
	c0.3,0.4,0.5,0.9,0.7,1.4c0.1,0.2,0.1,0.1,0.2,0.4c0,0.1,0.1,0.3,0.1,0.4c0.2,0.7,0.3,0.8,0.4,1.2l0.3,0.8c0.1,0.2,0.1,0.3,0.1,0.4
	c0.1,0.2,0.1,0.2,0.1,0.4c0.1,0.2,0,0.2,0.1,0.4c0.1,0.2,0.1,0.2,0.1,0.4c0,0.2,0.1,0.3,0.1,0.4c0.1,0.4,0.2,0.9,0.4,1.2
	c0.1,0.2,0,0.2,0.1,0.4l0.2,0.6c0.1,0.3,0.1,0.3,0.2,0.7l0.2,0.9c0.1,0.2,0.1,0.2,0.1,0.4c0,0.3,0,0.2,0.1,0.5
	c0.1,0.2,0.1,0.3,0.1,0.4c0.1,0.2,0.1,0.2,0.1,0.4l0.4,1.8c0.1,0.5,0.3,0.8,0.4,1.3c0,0.2,0.1,0.3,0.1,0.4c0.1,0.2,0.1,0.3,0.1,0.5
	c0.1,0.5,0.3,0.8,0.4,1.3c0,0.3,0.1,0.1,0.1,0.4c0,0.2,0,0.3,0.1,0.5c0.1,0.2,0.1,0.2,0.1,0.4c0,0.4,0.2,0.3,0.2,0.9
	c0,0.2,0.1,0.2,0.1,0.4l0.2,0.9c0.1,0.6,0.1,0.5,0.2,0.9c0,0.2,0.2,0.6,0.3,0.8c0.1,0.1,0.2,0.2,0.3,0.3l1.1,1.2
	c0.1,0.1,0,0.1,0.1,0.2l0.4,0.4c0.1,0.1,0.2,0.2,0.3,0.4l0.5,0.5c0.2,0.2,0-0.1,0.2,0.2l0.1,0.1c0.1,0.1,0.1,0.2,0.3,0.3
	c0.5,0.5,0.2,0.4,0.5,0.6l0.1,0.1c0.1,0.1,0.1,0.1,0.1,0.1c0.4,0.4,0.9,0.8,1.2,1.4c0.1,0.1,0,0.1,0.1,0.1c0,0,0.1,0,0.1,0
	c0.1,0,0.1-0.1,0-0.3c0,0,0,0,0,0l-0.8-1.7c-0.1-0.3-0.4-0.8-0.5-1c-0.2-0.2-0.5-1.1-0.6-1.4c-0.1-0.1-0.1-0.2-0.2-0.3l-0.3-0.7
	c-0.2-0.3-0.2-0.7-0.5-1.1c-0.1-0.2-0.1,0-0.2-0.3l-0.2-0.5c0-0.1-0.1-0.1-0.1-0.2l-0.1-0.2c-0.1-0.1,0,0-0.1-0.1
	c-0.1-0.1-0.1-0.2-0.2-0.4c-0.2-0.3-0.2-0.7-0.4-0.9c-0.2-0.4-0.3-0.9-0.6-1.2l-0.9-2.2c-0.1-0.1,0,0-0.1-0.1
	c-0.1-0.2-0.1-0.4-0.2-0.6c-0.2-0.4-0.3-1.3-0.5-1.7c0-0.1,0,0,0-0.1c-0.1-0.4-0.2-1.2-0.2-1.7c0-0.1,0-0.2,0-0.3l0.2-0.7
	c0-0.1,0-0.1,0-0.1c0.1-0.2,0.1-0.3,0.4-0.4c0.3-0.1,0.5-0.1,0.7,0l0.3,0.1c0.2,0,0.1,0.1,0.3,0.2c0.2,0.1,0.4,0.2,0.6,0.4
	c0.4,0.3,0.7,0.7,0.9,1.1c0.4,0.6,0.4,0.8,0.8,1.5l0.7,2.1c0,0.2,0,0.3,0.1,0.4l0.6,2c0.1,0.3,0.1,0.6,0.2,0.8
	c0.1,0.2,0.4,1.3,0.4,1.7c0,0.2,0,0.3,0,0.5c0,0.3,0.1,0,0.2,0.3c0,0.2,0,0.3,0,0.5c0,0.2,0.1,0.2,0.1,0.4c0,0.1,0,0.3,0.1,0.4
	c0.1,0.2,0.1,0.1,0.2,0.4l0.2,0.8c0.1,0.6,0.3,1.2,0.4,1.7c0.1,0.3,0.2,0.5,0.2,0.8c0,0.4,0.1,0.5,0.2,0.8l0.1,0.6
	c0.1,0.2,0,0.1,0.1,0.3c0,0.3,0.2,0.5,0.2,0.8c0.1,0.7,0.4,1.5,0.7,2.1c0,0.1,0.1,0.1,0.1,0.2c0.2,0.4,0.7,0.6,1,0.9l2.1,1.9
	c0.5,0.3,0.6,0.5,1.1,0.8l0.6,0.4c0.1,0,0.2,0.1,0.3,0.2c0.2,0.1,0.1,0.2,0.4,0.2c0-0.3-0.1-0.3-0.3-0.5c-0.1-0.2-0.2-0.3-0.3-0.5
	c-0.2-0.3-0.5-0.6-0.6-0.9l-0.1-0.3c0,0,0,0,0,0l-0.7-1.1c-0.3-0.4-0.4-0.8-0.7-1.2c-0.1-0.1-0.1-0.1-0.1-0.2
	c-0.1-0.1-0.1-0.1-0.1-0.3c-0.1-0.3-0.4-0.7-0.5-1c0-0.1,0-0.1-0.1-0.1l-0.9-2c-0.1-0.3-0.1-0.6-0.3-0.9c-0.1-0.3-0.1-0.4-0.2-0.6
	C51,71.3,51.2,71.5,51,71l-0.2-1c-0.1-0.7-0.1-1.6,0.1-2.2c0.1-0.2,0.1-0.4,0.2-0.6c0.1-0.1,0.1-0.1,0.2-0.2
	c0.1-0.1,0.3-0.7,1.2-0.3c0.3,0.1,0.3,0.1,0.5,0.3c0.2,0.1,0.2,0.2,0.4,0.3c0.2,0.2,0.9,1.1,1,1.4l0.9,1.8c0.2,0.5,0.5,1.1,0.6,1.7
	c0.1,0.4,0.2,0.2,0.2,0.5c0,0.3,0.1,0.4,0.2,0.6c0.1,0.3,0.1,0.2,0.2,0.6c0.1,0.4,0.3,0.8,0.4,1.2c0,0.2,0,0.1,0.1,0.3
	c0.1,0.1,0.1,0.1,0.1,0.3c0,0.2,0.1,0.5,0.1,0.7l0.3,1.2c0.1,0.3,0.1,0.3,0.1,0.6l0.2,0.6c0.1,0.2,0.1,0.3,0.2,0.6l0.2,1.1
	c0,0.2,0.1,0.1,0.1,0.3c0.1,0.3,0.2,1,0.3,1.3c0.1,0.1,0.1,0.1,0.1,0.3c0.1,0.3,0.1,0.7,0.3,0.9c0.2,0.2,0.9,0.4,1.2,0.5
	c0.2,0.1,0.1,0.1,0.2,0.1l1.1,0.2l-0.1-0.4c0,0,0,0,0,0l-0.3-0.6c-0.1-0.2-0.2-0.5-0.3-0.7c-0.1-0.3-0.2-0.5-0.4-0.9
	c-0.3-1-0.5-2.8-0.3-3.8c0.1-0.2,0.1-0.3,0.1-0.6c0-0.1,0-0.2,0-0.3l0.1-0.3c0.1-0.2,0.1-0.3,0.1-0.5l0.5-1.4
	c0.1-0.3,0.3-0.9,0.5-1.1c0.1-0.1,0,0,0.1-0.2c0-0.1,0.1-0.1,0.1-0.2l1.1-1.8c0.5-0.7,0.9-1.4,1.4-2.1l0.4-0.7
	c0.2-0.3,0.2-0.5,0.5-1.2l0.7-1.2c0.1-0.1,0.2-0.3,0.3-0.4c0.1-0.1,0.1-0.2,0.2-0.4c0.1-0.1,0.1-0.1,0.1-0.2l2.5-2.8l1.8-1.6
	c0.5-0.4,1-0.8,1.5-1.3l0.4-0.4c0.4-0.3,1-1,1.3-1.5l0.7-1.1c0.1-0.1,0-0.1,0.1-0.2c0.1-0.2,0.2-0.4,0.3-0.6l0.5-0.8
	c0.1-0.1,0.1-0.3,0.2-0.4l1.3-2.8c0.1-0.2,0.1-0.3,0.2-0.4l0.3-0.7c0-0.1,0.1-0.1,0.1-0.2c0.3-0.4,0.4-0.9,0.6-1.3
	c0.1-0.2,0.2-0.5,0.3-0.8c0.1-0.3,0.3-0.9,0.4-1.1l0.1-0.1c0-0.1,0,0,0.1-0.1l0.8-2.5c0.1-0.3,0.1-0.1,0.2-0.5
	c0.1-0.3,0.1-0.1,0.2-0.5l0.1-0.3c0.1-0.2,0.1-0.4,0.2-0.6c0.1-0.3,0.1-0.2,0.1-0.6c0-0.2,0.3-0.9,0.4-1.3c0-0.2,0.1-0.3,0.2-0.8
	c0.2-1.3,0.1-0.5,0-1.8c0-0.9-0.2-1.7-0.2-2.6c0-0.2,0-0.4,0-0.6c0-0.3-0.1-0.3-0.1-0.5l-0.1-1.3c-0.1-0.9-0.3-2.2-0.6-3l-0.3-0.7
	c-0.1-0.2-0.1-0.2-0.2-0.5c-0.1-0.2,0-0.1-0.1-0.2c-0.2-0.3-0.4-0.7-0.6-1c-0.2-0.2-0.2-0.1-0.2-0.4c0-0.1,0.4-0.4,0.4-0.4
	c0.2-0.2,0.5-0.5,0.7-0.8l0.2-0.3c0.3-0.3,0.6-0.7,0.8-1.1c0.1-0.3,0.2-0.3,0.4-0.6l0.3-0.7c0.1-0.3,0.2-0.5,0.2-0.8
	c0.2-0.1,0.2-0.3,0.3-0.5c0.2-0.3,0.2-0.7,0.3-1l0.2-0.6c0.1-0.2,0.1-0.1,0.1-0.4c-0.3,0-0.5,0.2-0.6,0.5c-0.1,0.1-0.2,0.2-0.2,0.4
	c0,0.1,0,0-0.1,0.1c-0.1,0.2-0.2,0.3-0.3,0.5l-0.6,1.1c-0.1,0.1-0.1,0.1-0.1,0.2c-0.1,0.1-0.1,0.3-0.2,0.4c-0.1,0.2-0.1,0.2-0.2,0.3
	l-0.9,1.4c-0.2,0.3-0.5,0.6-0.8,0.9l-0.9,0.8c-0.2,0.1-0.1,0.2-0.3,0.2c-0.1,0-0.1,0-0.2,0.1c-0.3,0.2-0.6,0.3-0.9,0.4
	c-0.4,0.2-1.8,0.4-2.3,0.1c-0.3-0.2-0.5,0-0.8-0.2c-0.1-0.1-0.3-0.1-0.5-0.1c-0.1-0.2-0.1-0.2-0.2-0.2c-0.2-0.1-0.2-0.1-0.3-0.2
	c-0.3-0.1-0.5,0-0.6-0.4l0.5-0.7c0.2-0.3,0.3-0.3,0.6-0.8l0.6-1.5c0.1-0.6,0.2-1.4,0.1-2c0-0.1,0-0.1,0-0.1
	c-0.1-0.2-0.1-0.1-0.1-0.4c0-0.4,0-0.2-0.1-0.4c-0.1-0.3,0-0.2-0.2-0.3L73,19.7c0,0.5,0.1,1.4-0.1,1.8l-0.1,0.3c0,0.3,0,0.3-0.1,0.5
	c-0.1,0.2-0.1,0.3-0.1,0.4c0,0.1,0,0-0.1,0.2l-0.6,1.2l-2.1,2.4L69,27c-0.1,0-0.1,0-0.2,0.1c-0.2,0.1-0.2,0.1-0.3,0.2
	c-0.1,0.1-0.1,0.1-0.3,0.2c-0.1,0-0.1,0-0.2,0.1c-0.2,0.1-0.1,0.1-0.3,0.2c-0.2,0.1-0.6,0.4-0.8,0.4c-0.2,0.1-0.2,0-0.3,0.2
	c-0.2,0.2-0.8,0.3-1,0.5c-0.2,0.1-0.1,0.1-0.4,0.1c-0.3,0.1-0.1,0.1-0.7,0.2c-0.2,0-0.8,0.3-1,0.4c-0.2,0.1-0.2,0-0.4,0.1
	c-0.2,0-0.3,0.2-0.7,0.2c-0.3,0-0.5,0.1-0.8,0.2c-0.5,0.1-1.2,0.1-1.7,0.1l-1.6,0.3c-0.3,0.1-0.5,0.1-0.7,0.2l-0.5,0.2
	c-0.2,0.2-0.5,0.3-0.8,0.5L56,31.7c-0.3,0.3-0.8,0.8-1.1,1.2c-0.2,0.3-0.5,0.5-0.7,0.8c-0.1,0.3-0.2,0.4-0.4,0.5l-0.5,0.5
	c-0.3,0.3-0.7,0.7-1.1,0.9c-0.2,0.1-0.3,0.3-0.6,0.4c-0.2,0.1-0.5,0.2-0.6,0.4c-0.2,0.2-0.9,0.5-1.2,0.7c-0.1,0.1-0.2,0.1-0.3,0.2
	c-0.3,0.2-0.5,0.2-0.8,0.4c-0.1,0.1,0,0-0.1,0.1c-0.2,0.1-0.2,0.1-0.4,0.2c-0.1,0.1-0.2,0.1-0.3,0.1c-0.2,0.1-0.1,0.1-0.3,0.2
	c-0.2,0.1-0.2,0.1-0.3,0.2c-0.1,0.1-0.2,0.1-0.4,0.1c-0.1,0.1-0.1,0.1-0.3,0.2c-0.2,0.1-0.1,0.1-0.3,0.2c-0.1,0.1-0.3,0-0.4,0.1
	c-0.2,0.1-0.1,0.1-0.3,0.2l-1.4,0.5c-0.4,0.1-0.2,0.2-1.1,0.3c-0.2,0-0.2,0.1-0.4,0.1c-0.4,0.1-1.4,0.1-1.8,0
	c-0.6-0.1-1.2-0.3-1.8-0.5L38,39c0,0-0.1-0.1-0.1-0.1l-0.5-0.6c-0.1-0.1-0.2-0.2-0.2-0.3c-0.4-0.6-0.5-1.1-0.8-1.7
	c-0.1-0.2-0.1-0.3-0.1-0.4C36.1,35.5,36,35.6,36,35l0.8-0.4c0.1,0,0.2,0,0.2-0.1c0.1,0,0.1-0.1,0.2-0.2c0.1-0.1,0.1,0,0.2-0.1
	l0.8-0.5c0.4-0.3,0.7-0.5,1.2-0.7c0.2-0.1,0.1-0.1,0.2-0.1c0.1,0,0.1-0.1,0.2-0.1c0.1-0.1,0.1,0,0.2-0.1c0.2-0.2,0.8-0.4,0.8-0.4
	l0.8-0.5c0.2-0.1,0.3-0.2,0.4-0.3c0.4-0.2,0.7-0.6,1-1c0.1-0.2,0.2-0.2,0.3-0.4l2.2-2.4l0.4-0.3c0.1,0,0.1-0.1,0.2-0.1
	c0.1-0.1,0.1-0.1,0.2-0.2l0.4-0.2c0.1-0.1,0.1,0,0.2-0.1l0.2-0.1c0.5-0.3,0.5-0.4,0.7-0.6l0.6-0.4c0.1-0.1,0.1-0.1,0.2-0.2l1.3-1.1
	c0,0,0,0,0,0c0.2-0.3,0.7-0.6,0.9-0.9l1.4-1.5c0.3-0.3,1.2-1.4,1.4-1.6c0.2-0.2,0.1-0.1,0.3-0.3l2.5-2.4l0.8-0.5c0,0,0,0,0.1-0.1
	c0.1,0,0.1,0,0.1-0.1l0.1-0.1c0,0,0,0,0,0l0.4-0.3c0.1-0.1,0.3-0.1,0.4-0.2c0.3-0.2,0.5-0.3,0.9-0.4c0.2,0,0.2-0.1,0.4-0.2l0.9-0.3
	c0.4-0.1,0.2-0.1,0.4-0.2c0.2-0.1,0.3,0,0.5-0.1l1.4-0.4c0.2-0.1,0.3-0.1,0.5-0.2c0.2,0,0.4,0,0.5-0.1c0.2-0.1,0-0.1,0.2-0.1
	c0.1,0,0.2,0,0.3,0c0.1,0,0.3-0.1,0.5-0.2c0.2-0.1,0.4,0,0.5-0.1c0.1-0.1,0-0.1,0.2-0.1c0.1,0,0.2,0,0.3,0c0.2-0.1,0.2-0.2,0.4-0.2
	c0.4-0.1,0.2,0,0.5-0.2c0.1-0.1,0.1,0,0.2-0.1c0,0,0.1,0,0.1,0l0.2-0.1c0.1-0.1,0.3-0.1,0.4-0.1c0.3-0.1,0.1-0.2,0.4-0.2
	c0.3,0,0.2-0.1,0.5-0.2c0.2-0.1,0.3,0,0.5-0.1l0.6-0.3c0.1,0,0.2,0,0.2-0.1c0.2-0.1,0.6-0.3,0.8-0.4c0.3-0.1,0.6-0.3,0.8-0.4
	c0.2-0.1,0.3-0.1,0.4-0.2c0.3-0.2,0.9-0.4,1.3-0.6l0.4-0.2c0.1-0.1,0.1-0.1,0.2-0.1c0.1,0,0.1,0,0.2-0.1l0.4-0.2
	c0.2-0.1,0.1-0.1,0.4-0.2c0.2-0.1,0.1,0,0.2-0.1c0.2-0.1,0.4-0.3,0.6-0.3c0.6-0.1,0.7-0.4,0.8-0.4c0.2-0.1,0.3,0,0.5-0.1
	c0.1,0,0.1-0.1,0.2-0.1l0.7-0.2c0.3-0.1,0.1-0.1,0.4-0.2c0.6-0.1,0.6-0.2,1-0.2c0.4,0,0.7-0.1,1.2-0.1c0.8,0,2.3,0.1,3.1,0.4
	c0.1,0.1,0.5,0.1,0.7,0.1c0.2,0,0.2,0.1,0.4,0.2C85.2,9,85.4,9,85.5,9c0.2,0.1,0.1,0.1,0.5,0.2c0.2,0,0.3,0.1,0.4,0.2
	c0.1,0.1,0.4,0,0.5,0.1c0.2,0,0.8,0.2,1,0.3c0.2,0.1,0.2,0.1,0.5,0.1c0.2,0.1,0.1,0.2,0.5,0.2c0-0.2,0-0.3-0.2-0.4l-0.6-0.5
	c0,0,0,0,0,0l-1.4-0.9c-0.2-0.1-0.1,0-0.3-0.1c-0.1-0.1,0-0.1-0.2-0.1l-0.5-0.2c-0.1,0-0.2-0.1-0.3-0.1l-2.6-0.8l-1.9-0.2
	c-0.2,0-0.4,0-0.6,0c-0.3,0-0.3,0.1-0.6,0.1c-0.4,0-0.9,0-1.3,0.1l-0.5,0.1c-0.4,0-0.1,0.2-0.5,0.2c-0.5,0.1-0.3,0.1-0.6,0.3
	c0,0-0.1,0-0.1,0c-0.1,0.1-0.1,0.1-0.2,0.1c-0.1,0.1-0.1,0-0.2,0.1l-0.6,0.3c-0.2,0.2-0.4,0.2-0.6,0.3c-0.1,0.1,0,0-0.1,0.1
	l-0.6,0.3c-0.2,0.1-0.2,0.2-0.5,0.3C73.7,9,73.7,9,73.6,9.1c-0.2,0.1-0.5,0.2-0.8,0.3c-0.2,0.1,0,0-0.2,0.2c-0.4,0.1-0.2,0-0.5,0.2
	l-0.7,0.3c-0.2,0.1,0,0-0.2,0.2c-0.1,0.1-0.2,0.1-0.3,0.1c-0.2,0.1,0,0-0.2,0.1c-0.1,0.1-0.1,0-0.2,0.1c-0.2,0.1-1.2,0.7-1.6,0.8
	c-0.3,0.1-0.3,0-0.5,0.2c-0.1,0.1-0.1,0.1-0.3,0.1c-0.2,0.1-0.7,0.3-1,0.4c-0.4,0.1-0.2,0.1-0.4,0.2c-0.1,0-0.2,0-0.3,0.1
	c-0.2,0.1-0.2,0.2-0.5,0.2c-0.3,0.1-0.3,0.1-0.5,0.2l-0.5,0.2c-0.2,0.1-0.3,0.1-0.5,0.1l-1,0.4c-0.2,0.1-0.4,0-0.6,0.1
	c-0.1,0-0.1,0.1-0.2,0.1c-0.1,0-0.2,0-0.3,0.1C62,13.9,62,14,61.7,14c-0.3,0-0.3,0-0.5,0.2c-0.2,0.1-0.8,0.2-1.1,0.3
	c-0.5,0.1-1.5,0.5-2.1,0.7c-0.1,0-0.1,0.1-0.2,0.1l-1.6,0.9c-0.1,0.1-0.3,0.3-0.4,0.3c-0.3,0.3-0.7,0.4-1,0.8
	c-0.4,0.5-0.4,0.3-1.1,1.1l-0.2,0.3c0,0,0,0,0,0l-0.9,1.1c-0.3,0.2-0.2,0.2-0.4,0.4c-0.1,0.1-0.2,0.3-0.3,0.4l-0.7,0.8
	c-0.1,0.2-0.2,0.2-0.3,0.5c-0.1,0.2-0.2,0.3-0.3,0.4l-0.4,0.4c-0.2,0.3-0.5,0.5-0.7,0.8c-0.1,0.1-0.2,0.2-0.3,0.4l-0.3,0.3
	c0,0,0,0,0,0l-3.7,3.1c-0.1,0.1-0.1,0.2-0.3,0.2c0-0.3,0.1-0.5,0.1-0.8c0-0.3,0-0.7,0-1c0-0.8,0.1-1.7,0.3-2.5
	c0.1-0.5,0.1-0.9,0.3-1.5c0.1-0.3,0-0.4,0.2-0.7l0-0.1c0.1-0.2,0,0.1,0-0.1c0.1-0.3,0.2-0.8,0.3-1c0.1-0.1,0,0,0.1-0.2
	c0.1-0.2,0.1-0.2,0.1-0.3l0.5-1.4c0.1-0.3,0.5-1.1,0.6-1.7l0.3-0.7c0.1-0.1,0-0.2,0.1-0.3c0.1-0.2,0.1,0,0.1-0.3l0.4-1
	c0.1-0.2,0.1-0.1,0.2-0.3c0.1-0.1,0-0.2,0.1-0.4c0.1-0.3,0.1,0,0.1-0.3l0.2-0.7c0-0.1,0,0,0.1-0.1c0.1-0.1,0,0,0.1-0.2
	c0.1-0.3,0.1-0.1,0.2-0.3c0-0.1,0-0.2,0.1-0.4c0.1-0.2,0.1,0,0.1-0.3l0.1-0.3c0.1-0.2,0-0.2,0.1-0.4c0.1-0.2,0.1-0.1,0.1-0.3
	c0-0.2,0-0.2,0.1-0.3l0.5-1.3c0-0.1,0.1-0.2,0.1-0.3c0.1-0.2,0-0.2,0.1-0.4C50.9,7.5,50.9,7.3,51,7c0-0.2,0.1-0.2,0.1-0.4
	c0-0.2,0,0,0.1-0.2c0.1-0.1,0.1-0.4,0.2-0.6l0.1-0.3c0.1-0.2,0.1-0.2,0.1-0.3c0,0,0,0,0,0l0.1-0.1c0.1-0.2,0-0.1,0.1-0.2
	c0.1-0.2,0-0.1,0.1-0.3c0.1-0.2,0.1-0.1,0.2-0.3c0.1-0.1,0.1-0.2,0.1-0.3c0.4-0.8,1-1.4,1.7-1.8c0.8-0.5,0.6-0.2,0.9-0.3
	c0.1-0.1,0.1-0.1,0.3-0.1c0.6-0.1,1.3,0.1,1.9,0.1c0.3,0,0.4,0.1,0.7,0.1c0.3,0,0.6,0,0.8,0c1.3,0.1,1.7,0.1,3.1,0.1
	c0.5,0,1-0.1,1.5-0.1l3.2,0c0.5,0,1,0.1,1.4,0.2c0.3,0,0.5,0,0.7,0c0.4,0,0.4,0.1,0.7,0.2c0.7,0.1,0.6,0.1,1,0.2
	c0.2,0,0.2,0,0.4,0.1L71,2.9c0.3,0.1,0.6,0.4,0.8,0.5c0.1,0.1,0.2,0,0.4,0.1c0.1,0,0.2,0.1,0.3,0.1c0.1,0,0.3,0,0.4,0.1
	c0.2,0.2,0,0.1,0.2,0.2c0,0,0.1,0,0.1,0c0.3,0.2-0.1,0,0.5,0.3c0,0,0.1,0,0.1,0c0.1,0,0.1,0.1,0.1,0.1c0.1,0.1,0.2,0.1,0.4,0.2
	c0.2,0.1,0,0,0.1,0.1c0.1,0.1,0.1,0,0.3,0.1c0.2,0.1,0.1,0.1,0.2,0.2c0.2,0,0.3,0,0.5,0c0.2,0,0.3,0.1,0.4,0.1c0.3,0,0.6,0,1,0.1
	c0.6,0.1,1.3,0,2,0.1c0.3,0.1,0.5,0.1,0.9,0.1l2.8,0.3c0.3,0,0.5,0.1,0.9,0.1c0.6,0,0.5,0,0.9,0.1c0.5,0.1,0.8,0,1.4,0.2
	c0.2,0.1,0.2,0.1,0.4,0.1l0.8,0.2c0.3,0.1,0.5,0.2,0.8,0.3c0.2,0,0.5,0.2,0.8,0.2c0.2,0,0.2,0.1,0.4,0.2c0.2,0.1,0.4,0.1,0.6,0.2
	c0,0,0,0,0,0s0,0,0,0l0.1,0c0.2,0,0.3,0,0.5,0.1l0.8,0.3c0.2,0.1,0.3,0.1,0.4,0.1c0.2,0.1,0.1,0.1,0.4,0.2c0.1,0,0.1,0,0.2,0.1
	c0,0,0.1,0,0.1,0.1c0,0,0,0,0,0c0.2,0.1,0.3,0.1,0.5,0.2c0.1,0,0.2,0.1,0.3,0.2l0.8,0.3c0.1,0.1,0.2,0.1,0.3,0.2
	c0.1,0,0.1,0,0.2,0.1l0.6,0.2c0.3,0.2,0.4,0.2,0.8,0.3c0.1,0,0.2,0.1,0.3,0.2l0.3,0.2c0.4,0.3,1.6,0.8,2.1,1.1
	c0.3,0.2,1,0.7,1.4,0.8c0.2,0.1,0.1,0.1,0.3,0.2c0.2,0.1,0.5,0.2,0.7,0.4c0.1,0.1,0.2,0.2,0.3,0.2l1.6,1.1c0.2,0.2,0.5,0.3,0.7,0.5
	c0.1,0.1,0.3,0.1,0.4,0.3c0.2,0.2,0.4,0.4,0.6,0.5c0,0,0,0,0,0l0.2,0.2c0.1,0.1,0.5,0.4,0.9,0.8l0.9,0.7c0,0,0,0,0.1,0.1l2.4,1.9
	l1.4,0.8l1.9,0.8c0.2,0.2,0.1,0.1,0.4,0.1c0.2,0,0.2,0.1,0.4,0.2c0.5,0.1,1.2,0.5,1.7,0.5c0.2,0,0.2,0,0.4,0.1
	c0.3,0.1,0.6,0.1,0.8,0.2c0.2,0.1,0.2,0.1,0.4,0.1c0.2,0,0.6,0.2,0.8,0.2c0.3,0.1,0.7,0,0.9,0.1c0.4,0.2,0.9,0.1,1.3,0.2
	c0.2,0.1,0.2,0.1,0.4,0.1c0.4,0,0.6,0,1,0.1c0.3,0,0.5,0.1,0.9,0.2c1.5,0.1,1.6,0.2,2.8,0.3"/>
<g>
	<g>
		<defs>
			<rect id="SVGID_1_" x="50" y="37.4" width="25" height="28.3"/>
		</defs>
		<clipPath id="SVGID_00000134228709229609083690000010519978904220617638_">
			<use xlink:href="#SVGID_1_"  style="overflow:visible;"/>
		</clipPath>
		<g style="clip-path:url(#SVGID_00000134228709229609083690000010519978904220617638_);">
			<defs>
				<rect id="SVGID_00000097500416058770675670000012299816738410405037_" x="50" y="37.4" width="25" height="28.3"/>
			</defs>
			<clipPath id="SVGID_00000101811516794786098430000009531790593636436129_">
				<use xlink:href="#SVGID_00000097500416058770675670000012299816738410405037_"  style="overflow:visible;"/>
			</clipPath>
			
				<path style="clip-path:url(#SVGID_00000101811516794786098430000009531790593636436129_);fill-rule:evenodd;clip-rule:evenodd;fill:#97564A;" d="
				M63.2,65.4c-0.4,0.1-0.5-0.2-0.8-0.4l-0.9-0.7c-0.7-0.6-1.6-1.5-2.2-2.2L57.5,60c-0.3-0.4-0.5-0.5-0.8-0.9l-0.6-0.8
				c-0.1-0.1-0.1-0.1-0.2-0.2L55.9,58c0,0,0,0,0,0l-0.5-0.6c-0.2-0.2-0.3-0.5-0.5-0.8c-0.2-0.3-0.1,0-0.4-0.6l-0.3-0.5c0,0,0,0,0,0
				l-0.5-1c0-0.1-0.1-0.2-0.1-0.2c0,0,0,0-0.1-0.1c-0.1-0.1,0-0.1-0.1-0.1c-0.1-0.2-0.1-0.2-0.3-0.4l-1.2-2.2
				c-0.1-0.2-0.2-0.3-0.3-0.6l-0.6-1.3c-0.1-0.1,0-0.2-0.1-0.3l-0.2-0.5c-0.1-0.3-0.1-0.3-0.2-0.5l-0.1-0.3
				c-0.1-0.3-0.1-0.8-0.2-1.2c-0.1-0.5-0.1-1.6,0-2.1c0.1-0.4,0.1-0.9,0.2-1.2c0.1-0.2,0-0.4,0.1-0.6l0.1-0.3
				c0.2-0.4,0.6-1.3,0.9-1.7c0,0,0,0,0,0l0.2-0.2c0.1-0.1,0.1-0.1,0.1-0.2l0.5-0.5c0.1-0.2,0.4-0.3,0.5-0.4c0.2-0.1,0.1,0,0.2-0.1
				c0.3-0.2,0.6-0.1,0.8-0.5c0.1,0,0.3,0,0.4,0c0.2-0.1,0.4-0.2,0.6-0.2l0.3-0.1c0.3-0.2,2.2-0.2,2.7,0c0.2,0.1,0.2,0.1,0.4,0.1
				c0.2,0.1,0.2,0.1,0.3,0.2c0.2,0.1,0.2,0,0.5,0.2c0.1,0,0.1,0,0.2,0.1c0.3,0.2,0.6,0.4,0.8,0.6c0.1,0.2,0.2,0.1,0.4,0.4
				c0.1,0.2,0.3,0.3,0.4,0.6l0.3,0.8c0.3,0,0.3-0.1,0.4-0.4c0.2-0.5,0.6-0.9,0.9-1.3l0.9-0.9l1.4-0.8c0.3-0.1,0.1-0.2,0.6-0.2
				c0.4,0,0.3-0.2,0.6-0.2c0.9-0.1,1.4,0,2.3,0c0.3,0,1.2,0.2,1.4,0.3c0.2,0.2,0.7,0.3,0.9,0.4c0.1,0.1,0,0.1,0.2,0.2
				c0.5,0.3,1,0.7,1.5,1.1l0.6,0.7c0.4,0.5,0.2,0.4,0.5,0.8l0.9,1.8l0.2,0.7c0.1,0.3,0,0.5,0.1,0.9c0.1,0.7,0.1,1,0.1,1.7
				c0,0.6,0,0.8-0.1,1.3l-0.7,2.5c-0.4,0.8-0.3,0.8-0.9,1.9l-0.8,1.4c0,0,0,0.1-0.1,0.1l-0.5,0.7c-0.1,0.2-0.2,0.4-0.4,0.5l-0.4,0.7
				c0,0,0,0.1,0,0.1l0,0.1c-0.1,0.2,0,0.1-0.2,0.2l-1.5,2.1c0,0,0,0,0,0c-0.1,0.2-0.4,0.4-0.5,0.7c-0.1,0.1-0.1,0.2-0.1,0.3l-1,1.2
				c-0.1,0.1-0.1,0.2-0.2,0.3l-0.6,0.7c-0.3,0.4-0.6,0.8-1,1.2l-2,2.4C63.5,65.1,63.3,65.3,63.2,65.4 M53.1,47
				c0.1,0.4,0.1,0.6,0.2,0.9c0,0.2,0.1,0.3,0.1,0.5c0,0.2,0.1,0.3,0.1,0.4c0,0.2,0,0.3,0.1,0.5c0.2,0.5,0.4,1.2,0.6,1.6
				c0,0.1,0.1,0.1,0.1,0.2c0.1,0.2,0,0,0.1,0.1c0.2,0.2,0,0.2,0.1,0.4l0.4,0.8c0.1,0.3,0.3,0.4,0.4,0.7l1.3,2
				c0.1,0.1,0.1,0.2,0.2,0.4c0.3,0.4,0.6,0.8,0.9,1.3l0.7,0.9c0.3,0.3,0.7,0.8,0.8,1.1c0.2,0.4,0.3,0.4,0.6,0.7
				C60,59.8,60,60,60.1,60c0.2,0.1,0.4-0.3,0.6-0.5c0.1-0.2,0.2-0.4,0.3-0.5c0.2-0.3,0.3-0.4,0.4-0.7l1.4-2.2
				c0.2-0.2,0.3-0.5,0.4-0.7c0.3-0.5,1.2-1.6,1.6-2.3c0.1-0.1,0.1-0.1,0.1-0.2l0.8-1.2c0.1-0.1,0.1-0.2,0.2-0.3l1.2-1.6
				c0.1-0.1,0.1-0.1,0.1-0.1c0,0,0.1-0.1,0.1-0.1c0.3-0.4,0.8-1.1,0.9-1.6l0.2-0.5c0.1-0.2,0.1-0.3,0.2-0.5c0.1-0.2,0.1-0.2,0.1-0.4
				c0.1-0.5,0.1-0.5,0.2-1c0-0.3,0.1-0.7,0.1-1c0-0.8,0-1-0.1-1.7c0-0.2,0-0.3,0-0.5c0-0.2-0.1-0.3-0.1-0.5
				c-0.2-0.8-0.1-0.3-0.2-0.7c-0.2-0.4-0.4-0.8-0.6-1.1c-0.2-0.2-0.6-0.6-0.9-0.7c-0.4-0.1-0.9-0.1-1.3,0l-1.3,0.8
				c-0.2,0.1-0.4,0.4-0.6,0.5c-0.8,0.9-0.7,0.8-1.3,1.9c-0.2,0.3-0.3,0.5-0.5,0.7c-0.2,0.2-0.5,0.2-0.8,0.2c-0.6,0-0.7,0-1-0.6
				c-0.2-0.4-0.8-1.4-1.1-1.6L58.9,41c0,0,0,0,0,0L58.8,41c-0.2-0.1-0.1-0.1-0.3-0.2c-0.1,0-0.1,0-0.2-0.1c-0.5-0.2-0.9-0.3-1.5-0.3
				c-0.3,0-1.1,0.1-1.3,0.3c-0.1,0.1-0.2,0.1-0.4,0.2c-0.1,0.1,0,0.1-0.2,0.1c-0.4,0.2-0.7,0.6-1,1l-0.7,1.6c-0.1,0.3-0.1,0.6-0.2,1
				c-0.1,0.4-0.1,1-0.1,1.4C53,46.4,53.1,46.6,53.1,47"/>
			
				<path style="clip-path:url(#SVGID_00000101811516794786098430000009531790593636436129_);fill:none;stroke:#FFFFFF;stroke-width:0.567;stroke-miterlimit:22.926;" d="
				M63.2,65.4c-0.4,0.1-0.5-0.2-0.8-0.4l-0.9-0.7c-0.7-0.6-1.6-1.5-2.2-2.2L57.5,60c-0.3-0.4-0.5-0.5-0.8-0.9l-0.6-0.8
				c-0.1-0.1-0.1-0.1-0.2-0.2L55.9,58c0,0,0,0,0,0l-0.5-0.6c-0.2-0.2-0.3-0.5-0.5-0.8c-0.2-0.3-0.1,0-0.4-0.6l-0.3-0.5c0,0,0,0,0,0
				l-0.5-1c0-0.1-0.1-0.2-0.1-0.2c0,0,0,0-0.1-0.1c-0.1-0.1,0-0.1-0.1-0.1c-0.1-0.2-0.1-0.2-0.3-0.4l-1.2-2.2
				c-0.1-0.2-0.2-0.3-0.3-0.6l-0.6-1.3c-0.1-0.1,0-0.2-0.1-0.3l-0.2-0.5c-0.1-0.3-0.1-0.3-0.2-0.5l-0.1-0.3
				c-0.1-0.3-0.1-0.8-0.2-1.2c-0.1-0.5-0.1-1.6,0-2.1c0.1-0.4,0.1-0.9,0.2-1.2c0.1-0.2,0-0.4,0.1-0.6l0.1-0.3
				c0.2-0.4,0.6-1.3,0.9-1.7c0,0,0,0,0,0l0.2-0.2c0.1-0.1,0.1-0.1,0.1-0.2l0.5-0.5c0.1-0.2,0.4-0.3,0.5-0.4c0.2-0.1,0.1,0,0.2-0.1
				c0.3-0.2,0.6-0.1,0.8-0.5c0.1,0,0.3,0,0.4,0c0.2-0.1,0.4-0.2,0.6-0.2l0.3-0.1c0.3-0.2,2.2-0.2,2.7,0c0.2,0.1,0.2,0.1,0.4,0.1
				c0.2,0.1,0.2,0.1,0.3,0.2c0.2,0.1,0.2,0,0.5,0.2c0.1,0,0.1,0,0.2,0.1c0.3,0.2,0.6,0.4,0.8,0.6c0.1,0.2,0.2,0.1,0.4,0.4
				c0.1,0.2,0.3,0.3,0.4,0.6l0.3,0.8c0.3,0,0.3-0.1,0.4-0.4c0.2-0.5,0.6-0.9,0.9-1.3l0.9-0.9l1.4-0.8c0.3-0.1,0.1-0.2,0.6-0.2
				c0.4,0,0.3-0.2,0.6-0.2c0.9-0.1,1.4,0,2.3,0c0.3,0,1.2,0.2,1.4,0.3c0.2,0.2,0.7,0.3,0.9,0.4c0.1,0.1,0,0.1,0.2,0.2
				c0.5,0.3,1,0.7,1.5,1.1l0.6,0.7c0.4,0.5,0.2,0.4,0.5,0.8l0.9,1.8l0.2,0.7c0.1,0.3,0,0.5,0.1,0.9c0.1,0.7,0.1,1,0.1,1.7
				c0,0.6,0,0.8-0.1,1.3l-0.7,2.5c-0.4,0.8-0.3,0.8-0.9,1.9l-0.8,1.4c0,0,0,0.1-0.1,0.1l-0.5,0.7c-0.1,0.2-0.2,0.4-0.4,0.5l-0.4,0.7
				c0,0,0,0.1,0,0.1l0,0.1c-0.1,0.2,0,0.1-0.2,0.2l-1.5,2.1c0,0,0,0,0,0c-0.1,0.2-0.4,0.4-0.5,0.7c-0.1,0.1-0.1,0.2-0.1,0.3l-1,1.2
				c-0.1,0.1-0.1,0.2-0.2,0.3l-0.6,0.7c-0.3,0.4-0.6,0.8-1,1.2l-2,2.4C63.5,65.1,63.3,65.3,63.2,65.4z M53.1,47
				c0.1,0.4,0.1,0.6,0.2,0.9c0,0.2,0.1,0.3,0.1,0.5c0,0.2,0.1,0.3,0.1,0.4c0,0.2,0,0.3,0.1,0.5c0.2,0.5,0.4,1.2,0.6,1.6
				c0,0.1,0.1,0.1,0.1,0.2c0.1,0.2,0,0,0.1,0.1c0.2,0.2,0,0.2,0.1,0.4l0.4,0.8c0.1,0.3,0.3,0.4,0.4,0.7l1.3,2
				c0.1,0.1,0.1,0.2,0.2,0.4c0.3,0.4,0.6,0.8,0.9,1.3l0.7,0.9c0.3,0.3,0.7,0.8,0.8,1.1c0.2,0.4,0.3,0.4,0.6,0.7
				C60,59.8,60,60,60.1,60c0.2,0.1,0.4-0.3,0.6-0.5c0.1-0.2,0.2-0.4,0.3-0.5c0.2-0.3,0.3-0.4,0.4-0.7l1.4-2.2
				c0.2-0.2,0.3-0.5,0.4-0.7c0.3-0.5,1.2-1.6,1.6-2.3c0.1-0.1,0.1-0.1,0.1-0.2l0.8-1.2c0.1-0.1,0.1-0.2,0.2-0.3l1.2-1.6
				c0.1-0.1,0.1-0.1,0.1-0.1c0,0,0.1-0.1,0.1-0.1c0.3-0.4,0.8-1.1,0.9-1.6l0.2-0.5c0.1-0.2,0.1-0.3,0.2-0.5c0.1-0.2,0.1-0.2,0.1-0.4
				c0.1-0.5,0.1-0.5,0.2-1c0-0.3,0.1-0.7,0.1-1c0-0.8,0-1-0.1-1.7c0-0.2,0-0.3,0-0.5c0-0.2-0.1-0.3-0.1-0.5
				c-0.2-0.8-0.1-0.3-0.2-0.7c-0.2-0.4-0.4-0.8-0.6-1.1c-0.2-0.2-0.6-0.6-0.9-0.7c-0.4-0.1-0.9-0.1-1.3,0l-1.3,0.8
				c-0.2,0.1-0.4,0.4-0.6,0.5c-0.8,0.9-0.7,0.8-1.3,1.9c-0.2,0.3-0.3,0.5-0.5,0.7c-0.2,0.2-0.5,0.2-0.8,0.2c-0.6,0-0.7,0-1-0.6
				c-0.2-0.4-0.8-1.4-1.1-1.6L58.9,41c0,0,0,0,0,0L58.8,41c-0.2-0.1-0.1-0.1-0.3-0.2c-0.1,0-0.1,0-0.2-0.1c-0.5-0.2-0.9-0.3-1.5-0.3
				c-0.3,0-1.1,0.1-1.3,0.3c-0.1,0.1-0.2,0.1-0.4,0.2c-0.1,0.1,0,0.1-0.2,0.1c-0.4,0.2-0.7,0.6-1,1l-0.7,1.6c-0.1,0.3-0.1,0.6-0.2,1
				c-0.1,0.4-0.1,1-0.1,1.4C53,46.4,53.1,46.6,53.1,47z"/>
		</g>
	</g>
</g>
<g>
	<g>
		<defs>
			<rect id="SVGID_00000081635630396407934590000007173301978095467159_" x="17.4" y="6.5" width="18.7" height="37.1"/>
		</defs>
		<clipPath id="SVGID_00000048461612765988706730000002696129147287559337_">
			<use xlink:href="#SVGID_00000081635630396407934590000007173301978095467159_"  style="overflow:visible;"/>
		</clipPath>
		<g style="clip-path:url(#SVGID_00000048461612765988706730000002696129147287559337_);">
			<defs>
				<rect id="SVGID_00000157283351504481485260000012178961359744510608_" x="17.4" y="6.5" width="18.7" height="37.1"/>
			</defs>
			<clipPath id="SVGID_00000085252496390246565900000003280681635962499755_">
				<use xlink:href="#SVGID_00000157283351504481485260000012178961359744510608_"  style="overflow:visible;"/>
			</clipPath>
			
				<path style="clip-path:url(#SVGID_00000085252496390246565900000003280681635962499755_);fill-rule:evenodd;clip-rule:evenodd;fill:#97564A;" d="
				M27.7,20.5c0-0.3,0.1-1,0.2-1.3l0.1-0.5c0.1-0.3-0.1,0.1,0-0.1c0,0,0,0,0,0l0.1-0.1c0.1-0.1,0.1-0.1,0.1-0.2
				c0.4-0.4,0.2-0.2,0.5-0.4c0.2-0.2,0.2-0.1,0.4-0.2c0.3-0.1,0.4-0.1,0.8-0.1c0.4,0,0.7,0.1,1,0.4c0.1,0.1,0.1,0.1,0.2,0.1
				c0.1,0,0.1,0.1,0.1,0.1c0,0,0,0,0.1,0.1c0.5,0.7,0.5,1.5,0.5,2.4c0,1.7-0.1,1.3-0.2,2.2l-0.6,3.4c0,0.2,0,0.5-0.1,0.7
				c0,0.2-0.1,0.4-0.2,0.6c-0.1,0.3-0.1,0.4-0.1,0.6c-0.1,0.2-0.1,0.4-0.1,0.7c0,0.2-0.1,0.3-0.1,0.6c-0.1,1.1-0.2,1.3-0.2,2.5
				c0,1.5,0.1,0.8,0.1,1.5c0,0.4,0.1,0.4,0.2,0.7c0.1,0.2,0.1,0.4,0.2,0.5l1,2.1c0.2,0.5,0.5,0.9,0.8,1.3c0.1,0.1,0.1,0.2,0.2,0.3
				l0.3,0.5c0.1,0.1,0.1,0.1,0.1,0.2l0.6,0.9c0.1,0.2,0.3,0.4,0.4,0.6c0.1,0.1,0.1,0.2,0.2,0.3l1.1,1.5c0.1,0.1,0.1,0.2,0.2,0.3
				c0.1,0.2,0.1,0.1,0.2,0.4c-0.2,0-0.3-0.2-0.5-0.4c-0.2-0.3-0.6-0.8-0.8-1c-0.4-0.3-0.2-0.2-0.4-0.5l-1.6-2.1
				c-0.2-0.3-0.6-0.7-0.8-1l-1-1.3c-0.2-0.3-0.2-0.2-0.4-0.6l-0.2-0.2c0,0,0-0.1,0-0.1c-0.1-0.1,0,0-0.1-0.1c-0.2-0.3-0.5-0.9-0.7-1
				c-0.4-0.1-0.2-0.1-0.6-0.2l-2.8-1.6c-0.1,0-0.1,0-0.1-0.1c0,0,0,0,0,0c0,0,0,0,0,0c-0.1-0.1-0.3-0.1-0.4-0.2
				c-0.1-0.2-0.3-0.3-0.5-0.4c-0.3-0.1-0.5-0.4-0.8-0.6c-0.2-0.1-0.1,0-0.3-0.2c-0.1-0.1,0,0-0.1-0.1L21,29.3
				c-0.4-0.5-0.9-0.9-1.3-1.4c-0.4-0.5-0.1,0-0.5-0.6l-0.7-1c-0.5-0.7-0.8-1.1-0.7-2.1c0-0.4,0.2-0.8,0.4-1c0.4-0.4,0.5-0.6,1.1-0.7
				c0.4-0.1,1.1,0,1.5,0.2c0.1,0.1,0.2,0.1,0.3,0.1c0.1,0.1,0.2,0.1,0.2,0.2l0.4,0.3c0,0,0,0,0,0l0.4,0.5c0.3,0.3,0.1,0,0.4,0.5
				c0.3,0.4,0.8,0.9,1.2,1.6c0.2,0.3,0.4,0.5,0.6,0.8l2.1,3c0.1,0.2,0.2,0.4,0.4,0.6c0.1,0.1,0.1,0.2,0.2,0.3
				c0.2,0.4,0.5,0.9,0.8,1.2c0.1,0.1,0,0.2,0.2,0.2c0.1-0.2,0-0.2-0.1-0.4l-0.6-1.3c-0.1-0.4-0.3-0.7-0.5-1
				c-0.1-0.2-0.2-0.5-0.3-0.7L26,27.3c0-0.1,0-0.1-0.1-0.2L25.4,26c0-0.1,0,0,0-0.1c0,0,0,0,0,0l-0.1-0.3c-0.2-0.4-0.3-0.9-0.6-1.3
				c0-0.1-0.1-0.1-0.1-0.2L23.2,22c-0.1-0.1-0.1-0.3-0.2-0.4c-0.7-0.9-1.1-2-1.7-3c0,0,0,0,0,0l-0.5-1c-0.1-0.2-0.1-0.1-0.2-0.4
				l-0.9-2c0,0,0,0,0,0c0,0,0,0,0,0l-0.2-0.5c0,0,0,0,0,0l-0.2-0.5c-0.1-0.5-0.4-1-0.5-1.4l-0.1-0.5c-0.1-0.2-0.1-0.3-0.1-0.5
				c-0.2-0.8-0.1-0.7-0.2-1c-0.1-0.3-0.1-0.9-0.2-1.1c-0.2-0.6-0.1-1.8,0-2.4c0-0.3,0-0.3,0.3-0.3c0.2,0,0.7,0.2,0.8,0.3
				c0.2,0.1,0,0,0.1,0.1c0.1,0.1,0.1,0,0.2,0.1c0.2,0.1,0.2,0.2,0.3,0.3l0.7,0.5c0.1,0.1,0.2,0.2,0.3,0.3l0.4,0.5
				c0.3,0.3,1,1.1,1.2,1.6c0.1,0.3,0.3,0.5,0.5,0.8c0.1,0.3,0.3,0.5,0.4,0.9c0.1,0.3,0.3,0.5,0.4,1.1L24,14c0.1,0.3,0,0.4,0.1,0.6
				c0,0.2,0.1,0.1,0.2,0.5c0.1,0.7,0.1,0.2,0.2,1.1c0,0.2,0.1,0.3,0.2,0.5c0.1,0.2,0,0.3,0.1,0.6c0.2,0.5,0.3,1.1,0.3,1.6l0.1,0.5
				c0.1,0.1,0.1,0.4,0.1,0.6c0,0.3,0.4,1.1,0.4,1.6c0,0.2,0,0.3,0.1,0.5c0.1,0.2,0.1,0.4,0.1,0.6c0,0.2,0.1,0.1,0.2,0.5l0.2,0.4
				c0,0,0,0,0,0c0,0,0,0,0,0c0.1,0.3,0.2,0.6,0.3,0.8c0.1,0.2,0.2,0.7,0.3,0.9c0.1,0.2,0.1,0.3,0.1,0.5c0.1,0.2,0.1,0.3,0.2,0.4
				c0.1,0.2,0.1,0.2,0.2,0.5c0.1,0.2,0.1,0.2,0.2,0.4c0.1,0.4,0.3,0.7,0.4,1.1c0,0.1,0.2,0.3,0.3,0.7l0.2,0.5
				c0.1,0.2,0.5,1.6,0.5,0.6c0-0.2,0-0.3,0-0.6c0-0.6,0-0.3-0.1-0.5c-0.1-0.2-0.1-1.3-0.2-1.8c-0.2-0.8-0.2-2.3-0.4-2.8
				c-0.1-0.4-0.2-1.9-0.3-2.4C27.7,21.4,27.7,20.9,27.7,20.5"/>
			
				<path style="clip-path:url(#SVGID_00000085252496390246565900000003280681635962499755_);fill:none;stroke:#FFFFFF;stroke-width:0.567;stroke-miterlimit:22.926;" d="
				M27.7,20.5c0-0.3,0.1-1,0.2-1.3l0.1-0.5c0.1-0.3-0.1,0.1,0-0.1c0,0,0,0,0,0l0.1-0.1c0.1-0.1,0.1-0.1,0.1-0.2
				c0.4-0.4,0.2-0.2,0.5-0.4c0.2-0.2,0.2-0.1,0.4-0.2c0.3-0.1,0.4-0.1,0.8-0.1c0.4,0,0.7,0.1,1,0.4c0.1,0.1,0.1,0.1,0.2,0.1
				c0.1,0,0.1,0.1,0.1,0.1c0,0,0,0,0.1,0.1c0.5,0.7,0.5,1.5,0.5,2.4c0,1.7-0.1,1.3-0.2,2.2l-0.6,3.4c0,0.2,0,0.5-0.1,0.7
				c0,0.2-0.1,0.4-0.2,0.6c-0.1,0.3-0.1,0.4-0.1,0.6c-0.1,0.2-0.1,0.4-0.1,0.7c0,0.2-0.1,0.3-0.1,0.6c-0.1,1.1-0.2,1.3-0.2,2.5
				c0,1.5,0.1,0.8,0.1,1.5c0,0.4,0.1,0.4,0.2,0.7c0.1,0.2,0.1,0.4,0.2,0.5l1,2.1c0.2,0.5,0.5,0.9,0.8,1.3c0.1,0.1,0.1,0.2,0.2,0.3
				l0.3,0.5c0.1,0.1,0.1,0.1,0.1,0.2l0.6,0.9c0.1,0.2,0.3,0.4,0.4,0.6c0.1,0.1,0.1,0.2,0.2,0.3l1.1,1.5c0.1,0.1,0.1,0.2,0.2,0.3
				c0.1,0.2,0.1,0.1,0.2,0.4c-0.2,0-0.3-0.2-0.5-0.4c-0.2-0.3-0.6-0.8-0.8-1c-0.4-0.3-0.2-0.2-0.4-0.5l-1.6-2.1
				c-0.2-0.3-0.6-0.7-0.8-1l-1-1.3c-0.2-0.3-0.2-0.2-0.4-0.6l-0.2-0.2c0,0,0-0.1,0-0.1c-0.1-0.1,0,0-0.1-0.1c-0.2-0.3-0.5-0.9-0.7-1
				c-0.4-0.1-0.2-0.1-0.6-0.2l-2.8-1.6c-0.1,0-0.1,0-0.1-0.1c0,0,0,0,0,0c0,0,0,0,0,0c-0.1-0.1-0.3-0.1-0.4-0.2
				c-0.1-0.2-0.3-0.3-0.5-0.4c-0.3-0.1-0.5-0.4-0.8-0.6c-0.2-0.1-0.1,0-0.3-0.2c-0.1-0.1,0,0-0.1-0.1L21,29.3
				c-0.4-0.5-0.9-0.9-1.3-1.4c-0.4-0.5-0.1,0-0.5-0.6l-0.7-1c-0.5-0.7-0.8-1.1-0.7-2.1c0-0.4,0.2-0.8,0.4-1c0.4-0.4,0.5-0.6,1.1-0.7
				c0.4-0.1,1.1,0,1.5,0.2c0.1,0.1,0.2,0.1,0.3,0.1c0.1,0.1,0.2,0.1,0.2,0.2l0.4,0.3c0,0,0,0,0,0l0.4,0.5c0.3,0.3,0.1,0,0.4,0.5
				c0.3,0.4,0.8,0.9,1.2,1.6c0.2,0.3,0.4,0.5,0.6,0.8l2.1,3c0.1,0.2,0.2,0.4,0.4,0.6c0.1,0.1,0.1,0.2,0.2,0.3
				c0.2,0.4,0.5,0.9,0.8,1.2c0.1,0.1,0,0.2,0.2,0.2c0.1-0.2,0-0.2-0.1-0.4l-0.6-1.3c-0.1-0.4-0.3-0.7-0.5-1
				c-0.1-0.2-0.2-0.5-0.3-0.7L26,27.3c0-0.1,0-0.1-0.1-0.2L25.4,26c0-0.1,0,0,0-0.1c0,0,0,0,0,0l-0.1-0.3c-0.2-0.4-0.3-0.9-0.6-1.3
				c0-0.1-0.1-0.1-0.1-0.2L23.2,22c-0.1-0.1-0.1-0.3-0.2-0.4c-0.7-0.9-1.1-2-1.7-3c0,0,0,0,0,0l-0.5-1c-0.1-0.2-0.1-0.1-0.2-0.4
				l-0.9-2c0,0,0,0,0,0c0,0,0,0,0,0l-0.2-0.5c0,0,0,0,0,0l-0.2-0.5c-0.1-0.5-0.4-1-0.5-1.4l-0.1-0.5c-0.1-0.2-0.1-0.3-0.1-0.5
				c-0.2-0.8-0.1-0.7-0.2-1c-0.1-0.3-0.1-0.9-0.2-1.1c-0.2-0.6-0.1-1.8,0-2.4c0-0.3,0-0.3,0.3-0.3c0.2,0,0.7,0.2,0.8,0.3
				c0.2,0.1,0,0,0.1,0.1c0.1,0.1,0.1,0,0.2,0.1c0.2,0.1,0.2,0.2,0.3,0.3l0.7,0.5c0.1,0.1,0.2,0.2,0.3,0.3l0.4,0.5
				c0.3,0.3,1,1.1,1.2,1.6c0.1,0.3,0.3,0.5,0.5,0.8c0.1,0.3,0.3,0.5,0.4,0.9c0.1,0.3,0.3,0.5,0.4,1.1L24,14c0.1,0.3,0,0.4,0.1,0.6
				c0,0.2,0.1,0.1,0.2,0.5c0.1,0.7,0.1,0.2,0.2,1.1c0,0.2,0.1,0.3,0.2,0.5c0.1,0.2,0,0.3,0.1,0.6c0.2,0.5,0.3,1.1,0.3,1.6l0.1,0.5
				c0.1,0.1,0.1,0.4,0.1,0.6c0,0.3,0.4,1.1,0.4,1.6c0,0.2,0,0.3,0.1,0.5c0.1,0.2,0.1,0.4,0.1,0.6c0,0.2,0.1,0.1,0.2,0.5l0.2,0.4
				c0,0,0,0,0,0c0,0,0,0,0,0c0.1,0.3,0.2,0.6,0.3,0.8c0.1,0.2,0.2,0.7,0.3,0.9c0.1,0.2,0.1,0.3,0.1,0.5c0.1,0.2,0.1,0.3,0.2,0.4
				c0.1,0.2,0.1,0.2,0.2,0.5c0.1,0.2,0.1,0.2,0.2,0.4c0.1,0.4,0.3,0.7,0.4,1.1c0,0.1,0.2,0.3,0.3,0.7l0.2,0.5
				c0.1,0.2,0.5,1.6,0.5,0.6c0-0.2,0-0.3,0-0.6c0-0.6,0-0.3-0.1-0.5c-0.1-0.2-0.1-1.3-0.2-1.8c-0.2-0.8-0.2-2.3-0.4-2.8
				c-0.1-0.4-0.2-1.9-0.3-2.4C27.7,21.4,27.7,20.9,27.7,20.5z"/>
		</g>
	</g>
</g>
<g>
	<g>
		<defs>
			<rect id="SVGID_00000052820158573175641820000017786706039514027659_" x="51.1" y="30.9" width="11.9" height="9.9"/>
		</defs>
		<clipPath id="SVGID_00000147929530137458863600000008970410898665381248_">
			<use xlink:href="#SVGID_00000052820158573175641820000017786706039514027659_"  style="overflow:visible;"/>
		</clipPath>
		<g style="clip-path:url(#SVGID_00000147929530137458863600000008970410898665381248_);">
			<defs>
				<rect id="SVGID_00000030455410703535641770000015947361224266167455_" x="51.1" y="30.9" width="11.9" height="9.9"/>
			</defs>
			<clipPath id="SVGID_00000178904137725935886450000003783740500757892543_">
				<use xlink:href="#SVGID_00000030455410703535641770000015947361224266167455_"  style="overflow:visible;"/>
			</clipPath>
			
				<path style="clip-path:url(#SVGID_00000178904137725935886450000003783740500757892543_);fill-rule:evenodd;clip-rule:evenodd;fill:#97564A;" d="
				M61.5,40.5c-0.4,0-0.2,0-0.7-0.6l-0.7-0.7c-0.3-0.2-0.2-0.3-0.5-0.5c-0.2-0.1-0.3-0.3-0.7-0.4l-1-0.5c-0.3-0.1-1.3-0.3-1.7-0.3
				c-0.5,0-1.2,0.1-1.6,0.2c-0.1,0-0.2,0.1-0.3,0.1C54.2,38,54.1,38,54,38l-0.9,0.6c-0.1,0.1-0.2,0.1-0.3,0.2
				c-0.3,0-0.4-0.4-0.6-0.6c-0.3-0.4,0.1-0.2-0.6-0.7c-0.1-0.1-0.1-0.1-0.1-0.4c0.1,0,0.8-0.4,1-0.6l0.5-0.4
				c0.2-0.2,0.1,0.1,0.5-0.4c0.6-0.6,0.6-0.4,1.3-1.2c0.1-0.2,0.3-0.3,0.4-0.5c0.3-0.4,0.3-0.4,0.8-0.9c0.1-0.1,0.1-0.1,0.4-0.4
				c0.6-0.6,0.4-0.5,1.1-0.9l0.3-0.2c0.1-0.1,0.1-0.1,0.3-0.1c0.4-0.1,0.9-0.6,1.5,0.1c0.1,0.2,0.3,0.3,0.4,0.4l1,1.1
				c0.4,0.5,0.7,1,1,1.7c0.1,0.4,0.1,0,0.2,0.5c0,0.1,0.3,0.8,0.4,1.2c0,0.4,0,0.5,0.1,0.8c0.1,0.3,0.1,0.9,0.1,1.3
				c0,0.2,0,0.2-0.1,0.3c-0.1,0.2-0.2,0.3-0.4,0.5l-0.4,0.5C61.6,40.1,61.6,40.3,61.5,40.5"/>
			
				<path style="clip-path:url(#SVGID_00000178904137725935886450000003783740500757892543_);fill:none;stroke:#FFFFFF;stroke-width:0.567;stroke-miterlimit:22.926;" d="
				M61.5,40.5c-0.4,0-0.2,0-0.7-0.6l-0.7-0.7c-0.3-0.2-0.2-0.3-0.5-0.5c-0.2-0.1-0.3-0.3-0.7-0.4l-1-0.5c-0.3-0.1-1.3-0.3-1.7-0.3
				c-0.5,0-1.2,0.1-1.6,0.2c-0.1,0-0.2,0.1-0.3,0.1C54.2,38,54.1,38,54,38l-0.9,0.6c-0.1,0.1-0.2,0.1-0.3,0.2
				c-0.3,0-0.4-0.4-0.6-0.6c-0.3-0.4,0.1-0.2-0.6-0.7c-0.1-0.1-0.1-0.1-0.1-0.4c0.1,0,0.8-0.4,1-0.6l0.5-0.4
				c0.2-0.2,0.1,0.1,0.5-0.4c0.6-0.6,0.6-0.4,1.3-1.2c0.1-0.2,0.3-0.3,0.4-0.5c0.3-0.4,0.3-0.4,0.8-0.9c0.1-0.1,0.1-0.1,0.4-0.4
				c0.6-0.6,0.4-0.5,1.1-0.9l0.3-0.2c0.1-0.1,0.1-0.1,0.3-0.1c0.4-0.1,0.9-0.6,1.5,0.1c0.1,0.2,0.3,0.3,0.4,0.4l1,1.1
				c0.4,0.5,0.7,1,1,1.7c0.1,0.4,0.1,0,0.2,0.5c0,0.1,0.3,0.8,0.4,1.2c0,0.4,0,0.5,0.1,0.8c0.1,0.3,0.1,0.9,0.1,1.3
				c0,0.2,0,0.2-0.1,0.3c-0.1,0.2-0.2,0.3-0.4,0.5l-0.4,0.5C61.6,40.1,61.6,40.3,61.5,40.5z"/>
		</g>
	</g>
</g>
<g>
	<g>
		<defs>
			<rect id="SVGID_00000064313917791186795990000002278330342073040318_" x="72.3" y="26.8" width="8.2" height="5.7"/>
		</defs>
		<clipPath id="SVGID_00000037686873234157636950000003702263109131449999_">
			<use xlink:href="#SVGID_00000064313917791186795990000002278330342073040318_"  style="overflow:visible;"/>
		</clipPath>
		<g style="clip-path:url(#SVGID_00000037686873234157636950000003702263109131449999_);">
			<defs>
				<rect id="SVGID_00000133490083130600999530000018057617684116383373_" x="72.3" y="26.8" width="8.2" height="5.7"/>
			</defs>
			<clipPath id="SVGID_00000037653399584247832430000016857081952985763996_">
				<use xlink:href="#SVGID_00000133490083130600999530000018057617684116383373_"  style="overflow:visible;"/>
			</clipPath>
			
				<path style="clip-path:url(#SVGID_00000037653399584247832430000016857081952985763996_);fill-rule:evenodd;clip-rule:evenodd;fill:#97564A;" d="
				M78.3,27.1C78.3,27.1,78.3,27.1,78.3,27.1l0.2,0.5c0.2,0.5,0.5,1,0.6,1.4c0.1,0.3,0.1,0,0.2,0.4c0,0.1,0,0,0.1,0.2
				c0.1,0.2,0.1,0.1,0.1,0.3c0.2,0.6,0.8,1.8,0.7,2.4c-0.4,0-0.4-0.2-0.5-0.3c-0.1,0-0.2,0-0.3-0.1c-0.7-0.3-0.2-0.1-0.8-0.5
				l-0.2-0.1c-0.1,0-0.2-0.1-0.3-0.1c-0.2-0.1,0-0.1-0.2-0.1c-0.1,0-0.2,0-0.3-0.1c-0.1,0-0.1-0.1-0.2-0.1c-0.1,0-0.2,0-0.3-0.1
				c-0.5-0.3-0.5-0.3-0.8-0.4c-0.1-0.1-0.4-0.3-0.7-0.5c-0.2-0.1-0.1-0.1-0.2-0.2L75,29.4c0,0,0,0,0,0c-0.1,0,0,0-0.1-0.1l-0.7-0.5
				c-0.1-0.1-0.2-0.3-0.4-0.4c-0.1-0.1-0.1-0.1-0.2-0.2l-0.6-0.6c-0.1-0.1-0.1-0.1-0.2-0.2c-0.1-0.1-0.1,0-0.2-0.3
				c0.3,0,0.2,0,0.7,0.3c0.1,0,0.2,0.1,0.3,0.2l0.7,0.3c0.6,0.1,1.3,0.2,1.9,0.1c0.2-0.1,0.6-0.1,0.8-0.2c0.2-0.1,0.1-0.1,0.3-0.1
				C77.6,27.5,78.1,27.1,78.3,27.1"/>
			
				<path style="clip-path:url(#SVGID_00000037653399584247832430000016857081952985763996_);fill:none;stroke:#FFFFFF;stroke-width:0.567;stroke-miterlimit:22.926;" d="
				M78.3,27.1C78.3,27.1,78.3,27.1,78.3,27.1l0.2,0.5c0.2,0.5,0.5,1,0.6,1.4c0.1,0.3,0.1,0,0.2,0.4c0,0.1,0,0,0.1,0.2
				c0.1,0.2,0.1,0.1,0.1,0.3c0.2,0.6,0.8,1.8,0.7,2.4c-0.4,0-0.4-0.2-0.5-0.3c-0.1,0-0.2,0-0.3-0.1c-0.7-0.3-0.2-0.1-0.8-0.5
				l-0.2-0.1c-0.1,0-0.2-0.1-0.3-0.1c-0.2-0.1,0-0.1-0.2-0.1c-0.1,0-0.2,0-0.3-0.1c-0.1,0-0.1-0.1-0.2-0.1c-0.1,0-0.2,0-0.3-0.1
				c-0.5-0.3-0.5-0.3-0.8-0.4c-0.1-0.1-0.4-0.3-0.7-0.5c-0.2-0.1-0.1-0.1-0.2-0.2L75,29.4c0,0,0,0,0,0c-0.1,0,0,0-0.1-0.1l-0.7-0.5
				c-0.1-0.1-0.2-0.3-0.4-0.4c-0.1-0.1-0.1-0.1-0.2-0.2l-0.6-0.6c-0.1-0.1-0.1-0.1-0.2-0.2c-0.1-0.1-0.1,0-0.2-0.3
				c0.3,0,0.2,0,0.7,0.3c0.1,0,0.2,0.1,0.3,0.2l0.7,0.3c0.6,0.1,1.3,0.2,1.9,0.1c0.2-0.1,0.6-0.1,0.8-0.2c0.2-0.1,0.1-0.1,0.3-0.1
				C77.6,27.5,78.1,27.1,78.3,27.1z"/>
		</g>
	</g>
</g>
</svg>
