<?xml version="1.0" encoding="utf-8"?>
<!-- Generator: Adobe Illustrator 25.4.1, SVG Export Plug-In . SVG Version: 6.00 Build 0)  -->
<svg version="1.1" id="Layer_1" xmlns="http://www.w3.org/2000/svg" xmlns:xlink="http://www.w3.org/1999/xlink" x="0px" y="0px"
	 viewBox="0 0 22.1 24.1" style="enable-background:new 0 0 22.1 24.1;" xml:space="preserve">
<style type="text/css">
	.st0{fill-rule:evenodd;clip-rule:evenodd;}
</style>
<path class="st0" d="M20.7,3.1c0.5,0.8-0.2,1.5-0.4,2.2c-0.3,1,0.4,1-0.2,2c-0.6,0.8-0.8,1-2.9,2.9c-2.1,1.9-6.7,4.6-7.9,3.8
	c-1.2-0.8,0.5-3.8,3.7-6.7C16.4,4.4,20.2,2.3,20.7,3.1"/>
<path class="st0" d="M2.7,0.3C1.8,0.6,1.9,1.6,1.6,2.2c-0.4,0.9-1,0.5-1.1,1.6c0,1,0,1.3,0.4,4c0.4,2.8,2.3,7.9,3.6,8
	c1.4,0.1,2-3.3,1.4-7.5C5.3,4.1,3.6,0,2.7,0.3"/>
<path class="st0" d="M21.6,22.2c-0.5,0.8-1.4,0.6-2.1,0.8c-1,0.3-0.7,0.9-1.8,0.9c-1-0.1-1.3-0.2-4-1c-2.7-0.8-7.5-3.4-7.4-4.7
	c0.1-1.4,3.5-1.5,7.7-0.3C18.2,19.1,22,21.4,21.6,22.2"/>
</svg>
