<?xml version="1.0" encoding="utf-8"?>
<!-- Generator: Adobe Illustrator 25.4.1, SVG Export Plug-In . SVG Version: 6.00 Build 0)  -->
<svg version="1.1" id="Layer_1" xmlns="http://www.w3.org/2000/svg" xmlns:xlink="http://www.w3.org/1999/xlink" x="0px" y="0px"
	 viewBox="0 0 67 67" style="enable-background:new 0 0 67 67;" xml:space="preserve">
<style type="text/css">
	.st0{fill:#8EC553;}
</style>
<path class="st0" d="M32.1,5.4c0.5,0,1-0.4,1-1c0-0.5-0.4-1-1-1c-0.5,0-1,0.4-1,1C31.1,4.9,31.5,5.4,32.1,5.4z"/>
<path class="st0" d="M28.4,5.4c-0.5,0-1,0.4-1,1c0,0.5,0.4,1,1,1c0.5,0,1-0.4,1-1C29.4,5.9,28.9,5.4,28.4,5.4z"/>
<path class="st0" d="M29.2,4.6c0.5,0,1-0.4,1-1c0-0.5-0.4-1-1-1c-0.5,0-1,0.4-1,1C28.2,4.2,28.7,4.6,29.2,4.6z"/>
<path class="st0" d="M31.3,8c0.5,0,0.9-0.4,0.9-0.9c0-0.5-0.4-0.9-0.9-0.9c-0.5,0-0.9,0.4-0.9,0.9C30.4,7.6,30.8,8,31.3,8z"/>
<path class="st0" d="M34.3,7.3c0.5,0,0.9-0.4,0.9-0.9c0-0.5-0.4-0.9-0.9-0.9c-0.5,0-0.9,0.4-0.9,0.9C33.4,6.9,33.8,7.3,34.3,7.3z"/>
<path class="st0" d="M33.8,9c0,0.5,0.4,0.9,0.9,0.9c0.5,0,0.9-0.4,0.9-0.9c0-0.5-0.4-0.9-0.9-0.9C34.2,8.1,33.8,8.5,33.8,9z"/>
<path class="st0" d="M37.2,10.9c0.5,0,0.9-0.4,0.9-0.9c0-0.5-0.4-0.9-0.9-0.9c-0.5,0-0.9,0.4-0.9,0.9C36.3,10.5,36.7,10.9,37.2,10.9
	z"/>
<path class="st0" d="M67,46.3c-0.1-0.1-2.4-2.6-5.2-2.7c-1.3,0-2.5,0.5-3.5,1.5c0,0-0.4,0.4-0.6,1l-1.7,0l0,0c0.4-0.2,0.7-0.5,1-0.8
	c1.9-2,1.7-5.5,1.7-5.7L58,38.9c-0.1,0-3.6-0.1-5.6,1.8c-0.1,0.1-0.2,0.2-0.2,0.2l-2.7-15.3c0.3-0.1,0.5-0.2,0.7-0.4
	c0.7-0.5,1.2-1.3,1.3-2.1l0.5-4.3c0.2-1.5-0.8-2.9-2.3-3.3c-0.6-0.2-1.3-0.3-1.9-0.5L35.2,2.5c-3.3-3.3-8.6-3.3-11.9,0L10.8,15
	c-0.7,0.2-1.3,0.3-1.9,0.5c-1.5,0.4-2.4,1.8-2.3,3.3l0.5,4.3c0.1,0.9,0.6,1.6,1.3,2.1c0.2,0.2,0.5,0.3,0.7,0.4l-3,17l-5.3,5.3
	l-0.2,0.4L0,53l0.7,0.9h27l-5.3,11.5l-0.6,0.6l1.1,1.1l0.3-0.3l0.2,0.1l0.3-0.6l10.1-10.1c0,0.1,0.1,0.2,0.1,0.2
	c0.5,1.2,1.4,2,2.5,2.5c0.6,0.2,1.2,0.3,1.8,0.3c1.9,0,3.5-0.8,3.6-0.9l0.4-0.9c0-0.1-0.2-0.6-0.7-1.3c0.8,0.3,1.6,0.3,2.4,0.3
	C45,56.2,46,56,46,56l0.6-0.8c0-0.1-0.1-0.6-0.3-1.3h0.3c1.4,0.9,3.2,1.1,4.2,1.1c0.5,0,0.9,0,1,0l0.7-0.8c0,0,0-0.1,0-0.2h1.2
	c1.6,0.9,3.5,0.9,4.2,0.9c0.1,0,0.2,0,0.2,0l0.7-0.7c0-0.1,0.1-1.7-0.5-3.4l-0.3-2.3l-0.2-0.4l-0.2-0.2l0.3,0c0.2,0.6,0.5,0.9,0.5,1
	l0,0c1,1,2.1,1.5,3.3,1.5c0,0,0.1,0,0.1,0c2.8-0.1,5.1-2.7,5.2-2.8L67,46.3z M50.2,38.7l-0.5-0.3c-0.1,0-3.6,1-5,3.5
	c-0.4,0.7-0.6,1.4-0.6,2.1c-0.1-1.2-0.6-2.3-1-3.1c0,0,0,0,0,0l-0.3-1c-0.1,0-1-0.6-2.4-0.9c0,0,0,0,0.1,0c0.6,0,1.1-0.1,1.6-0.3
	c2.6-1,3.9-4.2,4-4.3l-0.3-1c-0.1,0-1-0.6-2.4-0.9c0,0,0,0,0.1,0c0.6,0,1.1-0.1,1.6-0.3c1.6-0.6,2.8-2.2,3.4-3.2L50.2,38.7z
	 M44.4,50.1c0,0.1,0,0.2,0,0.3c-0.2-0.2-0.4-0.3-0.6-0.5c-0.4-0.3-0.8-0.5-1.3-0.7c0.8-0.3,1.6-0.6,2.4-0.8
	C44.3,49.2,44.4,50,44.4,50.1z M38.1,51.9c0,0.1,0,0.2,0,0.2c0,0.1,0,0.1,0,0.2h-0.6C37.8,52.2,38,52,38.1,51.9z M38,48.3
	C38,48.3,38,48.3,38,48.3C38,48.3,38,48.3,38,48.3C38,48.3,38,48.3,38,48.3z M37.6,44.1c-0.4,0-0.8-0.1-1.3-0.3c0,0,0,0,0,0l-0.1,0
	c0,0,0,0-0.1,0c0,0-0.3-0.2-0.5-0.6c-0.1-0.4,0-0.7,0-0.8c0.4-0.9,1-1.5,1.8-1.7c0.9-0.3,2-0.2,2.9,0C39.3,41.4,38.1,42.6,37.6,44.1
	z M34.2,37.9c-0.3-0.7-0.8-1.4-1.3-1.9c0.2,0.2,0.5,0.3,0.8,0.4c0.1,0,0.4,0.2,1,0.2c0.2,0,0.5,0,0.8-0.1l0.1,0
	c0.1,0,0.2-0.1,0.3-0.1l-1.3,2.8C34.4,38.8,34.3,38.3,34.2,37.9z M34.4,44.1c-0.3,0.2-0.6,0.5-0.9,0.8l0.6-1.4c0,0.1,0,0.2,0.1,0.3
	l0,0.1C34.3,43.9,34.4,44,34.4,44.1z M31.5,45.6c0-0.4-0.1-0.8-0.3-1.2c-0.3-0.8-0.8-1.5-1.4-2c0.3,0.2,0.6,0.4,0.9,0.5
	c0.1,0,0.4,0.2,1,0.2c0.2,0,0.5,0,0.8-0.1l0.1,0c0.1,0,0.2-0.1,0.3-0.1L31.5,45.6z M31.7,52.3h-1.7l0.9-2
	C31.1,51,31.3,51.6,31.7,52.3z M29.6,47.5c0,0.1-0.3,0.4-0.6,0.5c-0.4,0.1-0.7,0-0.7,0c-0.9-0.4-1.5-1-1.8-1.9c-0.5-1.4,0-3.1,0.3-4
	c1,0.5,2.4,1.5,2.9,2.8C30.1,45.8,30.1,46.6,29.6,47.5z M32.6,41c0,0.1-0.2,0.4-0.6,0.5c-0.4,0.1-0.7,0-0.7,0
	c-0.9-0.4-1.5-1-1.8-1.9c-0.5-1.4,0-3.1,0.3-4c1,0.5,2.4,1.5,2.9,2.8C33.1,39.3,33,40.1,32.6,41z M40.1,30.6c0,0.1,0,0.2,0.1,0.3
	l0,0.1c0.4,0.9,1.1,1.3,1.2,1.3c0.3,0.1,0.5,0.2,0.8,0.3c-0.7-0.1-1.5,0-2.3,0.2c-0.4,0.1-0.8,0.3-1.1,0.6L40.1,30.6z M39.7,24.3
	c0.4,0,0.8,0.1,1.2,0.2c0.1,0.1,0.1,0.1,0.2,0.2l-0.7,1.6c0-0.4-0.1-0.8-0.3-1.2C40,24.8,39.9,24.5,39.7,24.3z M45.1,22.1
	c-0.3,0.8-1,1.3-1.9,1.7c-0.1,0-0.4,0.1-0.8-0.1c-0.4-0.2-0.5-0.5-0.5-0.5c-0.3-0.9-0.3-1.8,0.1-2.6c0.6-1.3,2.2-2.2,3-2.6
	C45.3,19,45.7,20.7,45.1,22.1z M47.8,25.7c0.1,0,0.1,0,0.2,0l0.2,1.1c-1.1-0.4-3.3-1.2-5.2-0.5c-0.4,0.1-0.8,0.3-1.1,0.6l0.7-1.6
	c0.1,0,0.3,0,0.4,0c0.4,0,0.7-0.1,0.7-0.1l0,0c0.2-0.1,0.4-0.2,0.6-0.2C45.5,25.2,46.7,25.4,47.8,25.7z M43.4,27.8
	c1.4-0.5,3.1,0,4,0.4c-0.5,0.9-1.5,2.3-2.8,2.8c-0.8,0.3-1.7,0.3-2.6-0.1c0,0-0.3-0.2-0.5-0.6c-0.1-0.4,0-0.7,0-0.8
	C42,28.6,42.6,28,43.4,27.8z M37.2,37.3L37.2,37.3c0.4,1,1.2,1.3,1.2,1.4c0.3,0.1,0.5,0.2,0.8,0.3c-0.7-0.1-1.5,0-2.3,0.2
	c-0.4,0.1-0.8,0.3-1.1,0.6l1.3-2.8C37.1,37.1,37.2,37.2,37.2,37.3z M35.9,29.6c0.2,0.2,0.5,0.3,0.7,0.4c0.1,0,0.4,0.2,1,0.2
	c0.2,0,0.5,0,0.8-0.1l0.1,0c0.1,0,0.2-0.1,0.3-0.1l-1.3,2.8c0-0.4-0.1-0.8-0.3-1.2C36.8,30.8,36.4,30.1,35.9,29.6z M39.1,37.3
	c0,0-0.3-0.2-0.5-0.6c-0.1-0.4,0-0.7,0-0.8c0.4-0.9,1-1.5,1.8-1.7c1.4-0.5,3.1,0,4,0.4c-0.5,0.9-1.5,2.3-2.8,2.8
	C40.8,37.8,40,37.7,39.1,37.3z M38.6,28.1c0,0.1-0.2,0.4-0.6,0.5c-0.4,0.1-0.7,0-0.7,0c-0.9-0.4-1.5-1-1.8-1.9c-0.5-1.4,0-3.1,0.3-4
	c1,0.5,2.4,1.5,2.9,2.8C39,26.4,39,27.2,38.6,28.1z M35.7,32.1c0.3,0.8,0.3,1.6-0.1,2.5c0,0.1-0.3,0.4-0.6,0.5c-0.4,0.1-0.7,0-0.7,0
	c-0.9-0.4-1.5-1-1.8-1.9c-0.5-1.4,0-3.1,0.3-4C33.7,29.7,35.2,30.7,35.7,32.1z M38.9,44.8c0.5-1.5,2-2.7,2.8-3.3
	c0.5,0.9,1.2,2.7,0.8,4.3c-0.2,0.9-0.8,1.6-1.7,2.1c-0.1,0-0.5,0.2-0.9,0.1c-0.4-0.2-0.6-0.4-0.7-0.5C38.8,46.6,38.7,45.7,38.9,44.8
	z M24.4,3.5c1.3-1.3,3-2,4.9-2c1.8,0,3.6,0.7,4.9,2l10.9,10.9c-5.1-1-10.5-1.5-15.8-1.5s-10.7,0.5-15.8,1.5L24.4,3.5z M8.6,22.9
	l-0.5-4.3C8,17.9,8.5,17.2,9.2,17c6.3-1.6,13.2-2.5,20.1-2.5s13.8,0.9,20.1,2.5c0.7,0.2,1.2,0.9,1.1,1.7L50,22.9
	c-0.1,0.4-0.3,0.8-0.6,1.1c-0.4,0.3-0.8,0.3-1.2,0.2c-0.7-0.2-1.5-0.3-2.3-0.5c0.3-0.3,0.5-0.7,0.6-1c1.1-2.6-0.3-5.8-0.3-5.9
	l-0.9-0.4c-0.1,0-3.4,1.1-4.6,3.6c-0.4,0.9-0.6,1.9-0.4,2.9c-0.7-0.1-1.3-0.2-2-0.2c-1.2-1-2.5-1.5-2.6-1.5l-0.9,0.4
	c0,0-0.2,0.4-0.4,0.9c-1.7-0.1-3.4-0.2-5.1-0.2c-6.3,0-13.3,0.8-18.8,2.1c-0.4,0.1-0.9,0-1.2-0.2C8.8,23.7,8.6,23.3,8.6,22.9z
	 M1.6,52.3l0.5-3.6l5.3-5.3l0.2-0.4l0.6-3.4c2.5,1.4,6,2.1,10.4,2.1c0.9,0,1.9,0,2.9-0.1l-0.1-1.5c-5.9,0.4-10.3-0.4-13-2.1
	l2.2-12.3c0.1,0,0.1,0,0.2,0c5.4-1.3,12.3-2,18.5-2c1.5,0,3.1,0,4.6,0.1c-0.2,1-0.3,2.3,0.1,3.5c0.2,0.6,0.5,1.1,0.9,1.5
	c-1.1-0.8-2.1-1.2-2.2-1.2l-0.9,0.4c-0.1,0.1-1.6,3.2-0.7,5.8c0.2,0.6,0.5,1.1,0.9,1.5c-1.1-0.8-2.1-1.2-2.2-1.2l-0.9,0.4
	c-0.1,0.1-1.6,3.2-0.7,5.8c0.2,0.6,0.6,1.2,1,1.6c-1.1-0.9-2.2-1.3-2.3-1.3l-0.9,0.4c-0.1,0.1-1.6,3.2-0.7,5.8
	c0.4,1.2,1.3,2.2,2.6,2.8c0.1,0,0.4,0.2,1,0.2c0.2,0,0.5,0,0.8-0.1l0.1,0c0.1,0,0.2-0.1,0.3-0.1l-1.4,3L1.6,52.3z M25.5,62.2
	l3.9-8.4h4.5L25.5,62.2z M34.8,52.1c-0.1,0-0.5,0.2-0.9,0.1c-0.5-0.2-0.7-0.5-0.7-0.5c-0.6-1-0.8-1.9-0.5-2.9c0.4-1.6,2-2.9,2.8-3.5
	c0.5,0.9,1.4,2.8,1,4.5C36.3,50.7,35.7,51.5,34.8,52.1z M36.9,57.3c-0.7-0.3-1.3-0.8-1.6-1.6c0,0-0.1-0.3,0-0.6
	c0.1-0.3,0.4-0.5,0.4-0.5c0.8-0.3,1.5-0.4,2.2-0.1c1.2,0.5,2,1.8,2.4,2.6C39.5,57.4,38.1,57.7,36.9,57.3z M41,54
	c-0.7-0.5-1.2-1.2-1.4-2.2c0,0,0-0.3,0.2-0.7c0.2-0.3,0.6-0.5,0.7-0.5c1-0.2,1.8,0,2.5,0.5c1.2,0.9,1.8,2.6,2,3.5
	C43.9,54.8,42.2,54.8,41,54z M43.7,47.2c0.1-0.3,0.2-0.5,0.3-0.8c0.2,0,0.4,0,0.6,0c0.1,0.1,0.2,0.3,0.4,0.5
	C44.6,46.9,44.1,47.1,43.7,47.2z M46,42.7c0.8-1.4,2.4-2.2,3.4-2.6c0.3,1,0.6,2.8-0.1,4.3c-0.4,0.8-1.1,1.4-2.1,1.7
	c-0.1,0-0.5,0.1-0.9-0.1c-0.4-0.2-0.5-0.5-0.5-0.6C45.5,44.4,45.6,43.5,46,42.7z M47,52.3c-0.7-0.6-1-1.3-1.1-2.3c0,0,0-0.3,0.3-0.7
	c0.3-0.3,0.6-0.4,0.7-0.4c1-0.1,1.8,0.2,2.4,0.8c1.1,1,1.5,2.7,1.6,3.7C49.9,53.4,48.1,53.2,47,52.3z M51.7,47.8L51.7,47.8
	c-0.6,0.7-0.7,1.3-0.7,1.6c-0.2-0.3-0.4-0.6-0.7-0.8c-0.3-0.3-0.7-0.6-1.1-0.8c0.1,0,0.2,0,0.3,0L51.7,47.8
	C51.7,47.7,51.7,47.8,51.7,47.8z M49.9,46.3c0.3-0.3,0.6-0.7,0.8-1.2c0.1-0.1,0.1-0.3,0.2-0.4c0.1,0,0.1-0.1,0.2-0.1
	c0.1,0.3,0.2,0.8,0.6,1.3l0,0c0.1,0.1,0.3,0.2,0.4,0.3L49.9,46.3z M53.4,41.8c1.1-1,2.8-1.3,3.7-1.4c-0.1,1-0.3,2.7-1.3,3.8
	c-0.6,0.6-1.4,0.9-2.3,0.9c-0.1,0-0.4-0.1-0.7-0.3c-0.3-0.3-0.3-0.6-0.3-0.7C52.5,43.2,52.8,42.4,53.4,41.8z M53.4,51.9
	c-0.6-0.6-0.9-1.4-1-2.4c0,0,0-0.3,0.3-0.7c0.3-0.3,0.6-0.3,0.7-0.3c1,0,1.8,0.3,2.3,0.9c1,1.1,1.3,2.8,1.3,3.8
	C56.1,53.2,54.4,52.9,53.4,51.9z M61.7,48.6c-0.9,0-1.6-0.3-2.3-1c-0.1-0.1-0.3-0.4-0.3-0.8c0-0.4,0.2-0.7,0.3-0.7
	c0.7-0.7,1.5-1,2.4-1c1.5,0,2.9,1.1,3.6,1.7C64.6,47.5,63.2,48.5,61.7,48.6z"/>
</svg>
