<?xml version="1.0" encoding="utf-8"?>
<!-- Generator: Adobe Illustrator 25.4.1, SVG Export Plug-In . SVG Version: 6.00 Build 0)  -->
<svg version="1.1" id="Layer_1" xmlns="http://www.w3.org/2000/svg" xmlns:xlink="http://www.w3.org/1999/xlink" x="0px" y="0px"
	 viewBox="0 0 206.6 296.6" style="enable-background:new 0 0 206.6 296.6;" xml:space="preserve">
<style type="text/css">
	.st0{fill-rule:evenodd;clip-rule:evenodd;fill:#CBDBA7;}
	.st1{fill-rule:evenodd;clip-rule:evenodd;fill:#FFFFFF;}
	.st2{fill:none;}
	.st3{fill-rule:evenodd;clip-rule:evenodd;fill:#669966;}
	.st4{display:none;}
	.st5{display:inline;}
	.st6{display:inline;clip-path:url(#SVGID_00000054244097047215370080000005652944545860603530_);}
</style>
<path class="st0" d="M76.9,10.2h52.2c33,0,59.9,26.9,59.9,59.7v172.6H17V69.9C17,37.1,44,10.2,76.9,10.2 M75.1,3.9H131
	c35.2,0,64.1,27,64.1,62.1v184.6H11V66C11,30.9,39.9,3.9,75.1,3.9"/>
<path class="st1" d="M77.7,14.1H128c31.8,0,57.8,26,57.8,57.8v167.1H19.9V71.9C19.9,40.1,45.9,14.1,77.7,14.1"/>
<polyline class="st2" points="210.5,241.5 -5.3,241.5 -5.3,299.9 210.5,299.9 "/>
<g>
	
		<image style="overflow:visible;" width="692" height="510" xlink:href="2D1DFB37.png"  transform="matrix(0.24 0 0 0.24 -27.5486 204.5486)">
	</image>
</g>
<g>
	
		<image style="overflow:visible;" width="697" height="520" xlink:href="2D1DFB35.png"  transform="matrix(0.24 0 0 0.24 66.0514 202.1486)">
	</image>
</g>
<polygon class="st0" points="5.1,237.9 103,258.8 103,293.1 7.1,272.1 "/>
<polygon class="st0" points="198.9,237 102.9,258.8 103,293.1 198.9,272.1 "/>
<polygon class="st3" points="5,237.9 102.7,225.2 198.9,237 102.9,258.8 "/>
<g class="st4">
	<defs>
		<rect id="SVGID_1_" x="36.4" y="42.5" width="132.7" height="203.5"/>
	</defs>
	<clipPath id="SVGID_00000018231134672233632180000014753742566089656205_" class="st5">
		<use xlink:href="#SVGID_1_"  style="overflow:visible;"/>
	</clipPath>
	<g style="display:inline;clip-path:url(#SVGID_00000018231134672233632180000014753742566089656205_);">
		<defs>
			<rect id="SVGID_00000068661198815270593670000007761104421330784953_" x="36.4" y="42.5" width="132.7" height="203.5"/>
		</defs>
		<clipPath id="SVGID_00000015353145004314163720000002712115012329844889_">
			<use xlink:href="#SVGID_00000068661198815270593670000007761104421330784953_"  style="overflow:visible;"/>
		</clipPath>
		<g style="clip-path:url(#SVGID_00000015353145004314163720000002712115012329844889_);">
			
				<image style="overflow:visible;" width="368" height="565" xlink:href="2D1DFB3B.png"  transform="matrix(0.3607 0 0 0.3601 36.3539 42.51)">
			</image>
		</g>
	</g>
</g>
</svg>
