<?xml version="1.0" encoding="utf-8"?>
<!-- Generator: Adobe Illustrator 25.4.1, SVG Export Plug-In . SVG Version: 6.00 Build 0)  -->
<svg version="1.1" id="Layer_1" xmlns="http://www.w3.org/2000/svg" xmlns:xlink="http://www.w3.org/1999/xlink" x="0px" y="0px"
	 viewBox="0 0 42.4 22.4" style="enable-background:new 0 0 42.4 22.4;" xml:space="preserve">
<style type="text/css">
	.st0{fill-rule:evenodd;clip-rule:evenodd;fill:#FEFEFE;}
	.st1{fill:none;stroke:#FEFEFE;stroke-width:0.567;stroke-miterlimit:22.926;}
	.st2{fill:none;stroke:#FEFEFE;stroke-width:1.417;stroke-miterlimit:22.926;}
</style>
<path class="st0" d="M30.5,1.6C29.2,4.4,29,5,27,7.3c-0.8,1-2.2,2-3.2,2.5c-0.3,0.2-0.5,0.3-0.8,0.4c-0.4,0.2-0.6,0.2-0.9,0.3
	c-0.3,0.1-0.6,0.2-0.9,0.3c-0.3,0.1-0.6,0.1-0.9,0.2c-1.2,0.2-2.6,0.2-4,0c0.3-0.9,0.2-0.9,0.8-2.1c1.1-2.5,3.2-4.7,5.3-6
	c0.8-0.5,0.9-0.5,1.4-0.7c1.6-0.9,5.8-1.9,7.1-1.6C30.6,1,30.7,1.1,30.5,1.6 M29.9,1.4c-1.2,0.1-2.5,0.3-3.6,0.7
	c-1.8,0.6-3.4,1.2-5,2.6c-1.4,1.2-1.8,1.6-2.9,3.3c-0.6,1-0.9,1.8-1.1,2.4c1.2,0.4,4.1-0.1,5.4-0.7c1.4-0.6,2-1.1,3.2-2.1
	C27.6,5.9,28.8,3.8,29.9,1.4"/>
<path class="st1" d="M30.5,1.6C29.2,4.4,29,5,27,7.3c-0.8,1-2.2,2-3.2,2.5c-0.3,0.2-0.5,0.3-0.8,0.4c-0.4,0.2-0.6,0.2-0.9,0.3
	c-0.3,0.1-0.6,0.2-0.9,0.3c-0.3,0.1-0.6,0.1-0.9,0.2c-1.2,0.2-2.6,0.2-4,0c0.3-0.9,0.2-0.9,0.8-2.1c1.1-2.5,3.2-4.7,5.3-6
	c0.8-0.5,0.9-0.5,1.4-0.7c1.6-0.9,5.8-1.9,7.1-1.6C30.6,1,30.7,1.1,30.5,1.6z M29.9,1.4c-1.2,0.1-2.5,0.3-3.6,0.7
	c-1.8,0.6-3.4,1.2-5,2.6c-1.4,1.2-1.8,1.6-2.9,3.3c-0.6,1-0.9,1.8-1.1,2.4c1.2,0.4,4.1-0.1,5.4-0.7c1.4-0.6,2-1.1,3.2-2.1
	C27.6,5.9,28.8,3.8,29.9,1.4z"/>
<path class="st0" d="M30.3,20.6c-1.2-2.8-1.5-3.4-3.4-5.8c-0.8-1-2.2-2-3.2-2.6c-0.3-0.2-0.5-0.3-0.8-0.4c-0.4-0.2-0.6-0.2-0.9-0.4
	c-0.3-0.1-0.5-0.2-0.9-0.3c-0.3-0.1-0.6-0.2-0.9-0.2c-1.2-0.2-2.6-0.2-4,0c0.3,0.9,0.2,0.9,0.8,2.1c1.1,2.5,3.2,4.7,5.3,6
	c0.8,0.5,0.9,0.5,1.4,0.7c1.6,0.9,5.8,1.9,7.1,1.7C30.5,21.1,30.5,21.1,30.3,20.6 M29.7,20.8c-1.2-0.1-2.5-0.3-3.6-0.7
	c-1.8-0.6-3.4-1.2-4.9-2.6c-1.4-1.2-1.8-1.6-2.9-3.4c-0.6-1-0.9-1.8-1.1-2.4c1.2-0.4,4.1,0.2,5.4,0.8c1.4,0.7,2,1.1,3.2,2.2
	C27.5,16.2,28.7,18.4,29.7,20.8"/>
<path class="st1" d="M30.3,20.6c-1.2-2.8-1.5-3.4-3.4-5.8c-0.8-1-2.2-2-3.2-2.6c-0.3-0.2-0.5-0.3-0.8-0.4c-0.4-0.2-0.6-0.2-0.9-0.4
	c-0.3-0.1-0.5-0.2-0.9-0.3c-0.3-0.1-0.6-0.2-0.9-0.2c-1.2-0.2-2.6-0.2-4,0c0.3,0.9,0.2,0.9,0.8,2.1c1.1,2.5,3.2,4.7,5.3,6
	c0.8,0.5,0.9,0.5,1.4,0.7c1.6,0.9,5.8,1.9,7.1,1.7C30.5,21.1,30.5,21.1,30.3,20.6z M29.7,20.8c-1.2-0.1-2.5-0.3-3.6-0.7
	c-1.8-0.6-3.4-1.2-4.9-2.6c-1.4-1.2-1.8-1.6-2.9-3.4c-0.6-1-0.9-1.8-1.1-2.4c1.2-0.4,4.1,0.2,5.4,0.8c1.4,0.7,2,1.1,3.2,2.2
	C27.5,16.2,28.7,18.4,29.7,20.8z"/>
<line class="st2" x1="17.4" y1="11.1" x2="0.9" y2="11.1"/>
<path class="st0" d="M40.5,11.5c-2.6,1.6-3.2,1.9-6.2,2.7c-1.2,0.3-2.9,0.4-4.1,0.2c-0.4,0-0.5,0-0.9-0.1c-0.4-0.1-0.6-0.2-0.9-0.2
	c-0.3-0.1-0.5-0.2-0.9-0.3c-0.3-0.1-0.6-0.3-0.9-0.4c-1.1-0.6-2.3-1.3-3.2-2.3c0.8-0.6,0.7-0.6,1.9-1.3c2.4-1.4,5.3-1.9,7.8-1.8
	c0.9,0.1,1,0.1,1.5,0.2c1.8,0.2,5.8,1.8,6.8,2.8C41,11.1,41,11.2,40.5,11.5 M40.1,11c-1.1-0.6-2.2-1.2-3.4-1.6
	c-1.8-0.6-3.4-1-5.5-0.8c-1.8,0.2-2.4,0.3-4.3,1c-1.1,0.4-1.8,1-2.3,1.3c0.7,1,3.4,2.3,4.9,2.5c1.5,0.3,2.3,0.3,3.9,0.1
	C35.6,13.4,37.9,12.3,40.1,11"/>
<path class="st1" d="M40.5,11.5c-2.6,1.6-3.2,1.9-6.2,2.7c-1.2,0.3-2.9,0.4-4.1,0.2c-0.4,0-0.5,0-0.9-0.1c-0.4-0.1-0.6-0.2-0.9-0.2
	c-0.3-0.1-0.5-0.2-0.9-0.3c-0.3-0.1-0.6-0.3-0.9-0.4c-1.1-0.6-2.3-1.3-3.2-2.3c0.8-0.6,0.7-0.6,1.9-1.3c2.4-1.4,5.3-1.9,7.8-1.8
	c0.9,0.1,1,0.1,1.5,0.2c1.8,0.2,5.8,1.8,6.8,2.8C41,11.1,41,11.2,40.5,11.5z M40.1,11c-1.1-0.6-2.2-1.2-3.4-1.6
	c-1.8-0.6-3.4-1-5.5-0.8c-1.8,0.2-2.4,0.3-4.3,1c-1.1,0.4-1.8,1-2.3,1.3c0.7,1,3.4,2.3,4.9,2.5c1.5,0.3,2.3,0.3,3.9,0.1
	C35.6,13.4,37.9,12.3,40.1,11z"/>
</svg>
