<?xml version="1.0" encoding="utf-8"?>
<!-- Generator: Adobe Illustrator 25.4.1, SVG Export Plug-In . SVG Version: 6.00 Build 0)  -->
<svg version="1.1" id="Layer_1" xmlns="http://www.w3.org/2000/svg" xmlns:xlink="http://www.w3.org/1999/xlink" x="0px" y="0px"
	 viewBox="0 0 42.4 22.4" style="enable-background:new 0 0 42.4 22.4;" xml:space="preserve">
<style type="text/css">
	.st0{fill-rule:evenodd;clip-rule:evenodd;fill:#FEFEFE;}
	.st1{fill:none;stroke:#FEFEFE;stroke-width:0.567;stroke-miterlimit:22.926;}
	.st2{fill:none;stroke:#FEFEFE;stroke-width:1.417;stroke-miterlimit:22.926;}
</style>
<path class="st0" d="M11.8,20.4c1.3-2.8,1.5-3.4,3.5-5.7c0.8-1,2.2-2,3.2-2.5c0.3-0.2,0.5-0.3,0.8-0.4c0.4-0.2,0.6-0.2,0.9-0.3
	s0.6-0.2,0.9-0.3s0.6-0.1,0.9-0.2c1.2-0.2,2.6-0.2,4,0c-0.3,0.9-0.2,0.9-0.8,2.1c-1.1,2.5-3.2,4.7-5.3,6c-0.8,0.5-0.9,0.5-1.4,0.7
	c-1.6,0.9-5.8,1.9-7.1,1.6C11.7,21,11.6,20.9,11.8,20.4 M12.4,20.6c1.2-0.1,2.5-0.3,3.6-0.7c1.8-0.6,3.4-1.2,5-2.6
	c1.4-1.2,1.8-1.6,2.9-3.3c0.6-1,0.9-1.8,1.1-2.4c-1.2-0.4-4.1,0.1-5.4,0.7c-1.4,0.6-2,1.1-3.2,2.1C14.7,16.1,13.5,18.2,12.4,20.6"/>
<path class="st1" d="M11.8,20.4c1.3-2.8,1.5-3.4,3.5-5.7c0.8-1,2.2-2,3.2-2.5c0.3-0.2,0.5-0.3,0.8-0.4c0.4-0.2,0.6-0.2,0.9-0.3
	s0.6-0.2,0.9-0.3s0.6-0.1,0.9-0.2c1.2-0.2,2.6-0.2,4,0c-0.3,0.9-0.2,0.9-0.8,2.1c-1.1,2.5-3.2,4.7-5.3,6c-0.8,0.5-0.9,0.5-1.4,0.7
	c-1.6,0.9-5.8,1.9-7.1,1.6C11.7,21,11.6,20.9,11.8,20.4z M12.4,20.6c1.2-0.1,2.5-0.3,3.6-0.7c1.8-0.6,3.4-1.2,5-2.6
	c1.4-1.2,1.8-1.6,2.9-3.3c0.6-1,0.9-1.8,1.1-2.4c-1.2-0.4-4.1,0.1-5.4,0.7c-1.4,0.6-2,1.1-3.2,2.1C14.7,16.1,13.5,18.2,12.4,20.6z"
	/>
<path class="st0" d="M12,1.4c1.2,2.8,1.5,3.4,3.4,5.8c0.8,1,2.2,2,3.2,2.6c0.3,0.2,0.5,0.3,0.8,0.4c0.4,0.2,0.6,0.2,0.9,0.4
	c0.3,0.1,0.5,0.2,0.9,0.3c0.3,0.1,0.6,0.2,0.9,0.2c1.2,0.2,2.6,0.2,4,0c-0.3-0.9-0.2-0.9-0.8-2.1c-1.1-2.5-3.2-4.7-5.3-6
	c-0.8-0.5-0.9-0.5-1.4-0.7c-1.6-0.9-5.8-1.9-7.1-1.7C11.8,0.9,11.8,0.9,12,1.4 M12.6,1.2c1.2,0.1,2.5,0.3,3.6,0.7
	c1.8,0.6,3.4,1.2,4.9,2.6c1.4,1.2,1.8,1.6,2.9,3.4c0.6,1,0.9,1.8,1.1,2.4c-1.2,0.4-4.1-0.2-5.4-0.8c-1.4-0.7-2-1.1-3.2-2.2
	C14.8,5.8,13.6,3.6,12.6,1.2"/>
<path class="st1" d="M12,1.4c1.2,2.8,1.5,3.4,3.4,5.8c0.8,1,2.2,2,3.2,2.6c0.3,0.2,0.5,0.3,0.8,0.4c0.4,0.2,0.6,0.2,0.9,0.4
	c0.3,0.1,0.5,0.2,0.9,0.3c0.3,0.1,0.6,0.2,0.9,0.2c1.2,0.2,2.6,0.2,4,0c-0.3-0.9-0.2-0.9-0.8-2.1c-1.1-2.5-3.2-4.7-5.3-6
	c-0.8-0.5-0.9-0.5-1.4-0.7c-1.6-0.9-5.8-1.9-7.1-1.7C11.8,0.9,11.8,0.9,12,1.4z M12.6,1.2c1.2,0.1,2.5,0.3,3.6,0.7
	c1.8,0.6,3.4,1.2,4.9,2.6c1.4,1.2,1.8,1.6,2.9,3.4c0.6,1,0.9,1.8,1.1,2.4c-1.2,0.4-4.1-0.2-5.4-0.8c-1.4-0.7-2-1.1-3.2-2.2
	C14.8,5.8,13.6,3.6,12.6,1.2z"/>
<line class="st2" x1="24.9" y1="10.9" x2="41.4" y2="10.9"/>
<path class="st0" d="M1.8,10.5C4.4,8.9,5,8.6,8,7.8c1.2-0.3,2.9-0.4,4.1-0.2c0.4,0,0.5,0,0.9,0.1s0.6,0.2,0.9,0.2
	c0.3,0.1,0.5,0.2,0.9,0.3c0.3,0.1,0.6,0.3,0.9,0.4c1.1,0.6,2.3,1.3,3.2,2.3c-0.8,0.6-0.7,0.6-1.9,1.3c-2.4,1.4-5.3,1.9-7.8,1.8
	c-0.9-0.1-1-0.1-1.5-0.2C5.9,13.6,1.9,12,0.9,11C1.3,10.9,1.3,10.8,1.8,10.5 M2.2,11c1.1,0.6,2.2,1.2,3.4,1.6c1.8,0.6,3.4,1,5.5,0.8
	c1.8-0.2,2.4-0.3,4.3-1c1.1-0.4,1.8-1,2.3-1.3c-0.7-1-3.4-2.3-4.9-2.5c-1.5-0.3-2.3-0.3-3.9-0.1C6.7,8.6,4.4,9.7,2.2,11"/>
<path class="st1" d="M1.8,10.5C4.4,8.9,5,8.6,8,7.8c1.2-0.3,2.9-0.4,4.1-0.2c0.4,0,0.5,0,0.9,0.1s0.6,0.2,0.9,0.2
	c0.3,0.1,0.5,0.2,0.9,0.3c0.3,0.1,0.6,0.3,0.9,0.4c1.1,0.6,2.3,1.3,3.2,2.3c-0.8,0.6-0.7,0.6-1.9,1.3c-2.4,1.4-5.3,1.9-7.8,1.8
	c-0.9-0.1-1-0.1-1.5-0.2C5.9,13.6,1.9,12,0.9,11C1.3,10.9,1.3,10.8,1.8,10.5z M2.2,11c1.1,0.6,2.2,1.2,3.4,1.6
	c1.8,0.6,3.4,1,5.5,0.8c1.8-0.2,2.4-0.3,4.3-1c1.1-0.4,1.8-1,2.3-1.3c-0.7-1-3.4-2.3-4.9-2.5c-1.5-0.3-2.3-0.3-3.9-0.1
	C6.7,8.6,4.4,9.7,2.2,11z"/>
</svg>
