<?xml version="1.0" encoding="utf-8"?>
<!-- Generator: Adobe Illustrator 25.4.1, SVG Export Plug-In . SVG Version: 6.00 Build 0)  -->
<svg version="1.1" id="Layer_1" xmlns="http://www.w3.org/2000/svg" xmlns:xlink="http://www.w3.org/1999/xlink" x="0px" y="0px"
	 viewBox="0 0 32 32" style="enable-background:new 0 0 32 32;" xml:space="preserve">
<style type="text/css">
	.st0{fill-rule:evenodd;clip-rule:evenodd;fill:#FFFFFF;}
</style>
<path class="st0" d="M28.8,4.2c0.6,1.1-0.2,2-0.5,2.9c-0.4,1.3,0.6,1.4-0.2,2.6c-0.8,1-1.1,1.3-3.8,3.8c-2.7,2.4-8.9,6.1-10.4,5
	c-1.5-1,0.7-5,4.9-8.8C23.1,5.8,28.2,3.1,28.8,4.2"/>
<path class="st0" d="M5.2,0.5C4,1,4.1,2.2,3.7,3.1C3.1,4.3,2.4,3.8,2.2,5.2c0,1.3,0,1.7,0.5,5.3c0.5,3.6,3,10.3,4.8,10.5
	c1.8,0.2,2.6-4.3,1.8-9.9C8.5,5.4,6.3,0.1,5.2,0.5"/>
<path class="st0" d="M29.9,29.2c-0.6,1.1-1.8,0.8-2.7,1.1c-1.3,0.4-0.9,1.2-2.3,1.2c-1.3-0.2-1.7-0.2-5.2-1.3
	c-3.5-1-9.8-4.4-9.7-6.2c0.1-1.8,4.6-2,10.1-0.4C25.6,25.2,30.6,28.1,29.9,29.2"/>
</svg>
