<?xml version="1.0" encoding="utf-8"?>
<!-- Generator: Adobe Illustrator 25.4.1, SVG Export Plug-In . SVG Version: 6.00 Build 0)  -->
<svg version="1.1" id="Layer_1" xmlns="http://www.w3.org/2000/svg" xmlns:xlink="http://www.w3.org/1999/xlink" x="0px" y="0px"
	 viewBox="0 0 120 120" style="enable-background:new 0 0 120 120;" xml:space="preserve">
<style type="text/css">
	.st0{fill:#BCDB92;}
	.st1{fill:#FFFFFF;}
	.st2{fill:#937237;}
	.st3{fill:#F5F5F6;}
	.st4{fill:#EBA351;}
	.st5{fill:#231F20;}
	.st6{fill:#2B2925;}
	.st7{fill:#F09985;}
	.st8{fill:#D47F6C;}
</style>
<path class="st0" d="M4.5,63.5h49.3c0-26.5-3.8-32.2-24.6-32.2C8.3,31.3,4.5,37,4.5,63.5"/>
<path class="st1" d="M51.7,57.7c-0.2,1-0.4,2-0.7,2.5c-0.5,1-1.6,1.5-1.6,1.5s0.3-2,0.2-4.8c-1.1-16.4-2.1-11.9-20.5-11.9
	C10.8,45.2,9.8,40.7,8.7,57c-0.1,2.8,0.2,4.8,0.2,4.8s-1.1-0.6-1.6-1.5c-0.3-0.5-0.5-1.5-0.7-2.5c-1.7-0.4-4-0.1-4,4.8
	c0,3.1,1.1,5.6,5,5.9c1.3,9.6,6.9,14.6,16.3,18.8c2.6,1.2,7.9,1.2,10.4,0c9.4-4.2,15.1-9.2,16.3-18.8c3.8-0.3,5-2.8,5-5.9
	C55.7,57.7,53.4,57.3,51.7,57.7"/>
<path class="st2" d="M37.7,75.7c0,3.2-4.3,4.9-8.5,4.9s-8.5-1.6-8.5-4.9c0,0,0-0.8,0.9-0.8h15.3C37.7,74.9,37.7,75.7,37.7,75.7"/>
<path class="st3" d="M17.8,56.5c-4.7,0-6.6,1.7-6.6,3.4c0,1.7,0,4.2,6.3,4.2c6.1,0,7-0.7,7-3.3C24.4,59.1,22.5,56.5,17.8,56.5"/>
<path class="st4" d="M18.2,55.1c2.4,0,4.3,1.9,4.3,4.3c0,2.4-1.9,4.3-4.3,4.3c-2.4,0-4.3-1.9-4.3-4.3C14,57,15.9,55.1,18.2,55.1"/>
<path class="st5" d="M19.7,59.4c0,0.8-0.6,1.4-1.4,1.4c-0.8,0-1.4-0.6-1.4-1.4c0-0.8,0.6-1.4,1.4-1.4C19,58,19.7,58.6,19.7,59.4"/>
<path class="st4" d="M11.1,59.9c0-6.6,13.3-6.6,13.3,0.9C22.5,55.1,13,55.1,11.1,59.9"/>
<path class="st3" d="M40.5,56.5c4.7,0,6.6,1.7,6.6,3.4c0,1.7,0,4.2-6.3,4.2c-6.1,0-7-0.7-7-3.3C33.9,59.1,35.8,56.5,40.5,56.5"/>
<path class="st4" d="M40,55.1c2.4,0,4.3,1.9,4.3,4.3c0,2.4-1.9,4.3-4.3,4.3c-2.4,0-4.3-1.9-4.3-4.3C35.8,57,37.7,55.1,40,55.1"/>
<path class="st5" d="M38.6,59.4c0,0.8,0.6,1.4,1.4,1.4c0.8,0,1.4-0.6,1.4-1.4c0-0.8-0.6-1.4-1.4-1.4C39.3,58,38.6,58.6,38.6,59.4"/>
<path class="st4" d="M47.1,59.9c0-6.6-13.3-6.6-13.3,0.9C35.8,55.1,45.2,55.1,47.1,59.9"/>
<path class="st4" d="M29.1,72.1c-4,0-5.9-2.8-4-2.8h7.9C35.1,69.2,33.1,72.1,29.1,72.1"/>
<path class="st0" d="M89.8,31.3c-17.2,0-26.5,10.8-26.5,25.1v31.7h53V56.5c0-21.2-14.4-20.8-14.4-20.8S100.8,31.3,89.8,31.3"/>
<path class="st1" d="M69.3,68c0,0-4.1-1-4.1-7.1c0-4.8,3.1-5.6,3.1-5.6c11.2,0,31.9-14.4,31.9-14.4s4.3,12.7,11,14.4
	c0,0,3.2,0.6,3.2,5.6c0,6.1-4.3,7.1-4.3,7.1c-0.1,9.2-12.7,20.2-20.3,20.2C82.1,88.2,69.3,77.1,69.3,68"/>
<path class="st4" d="M89.8,74c-4,0-5.9-2.8-4-2.8h7.9C95.7,71.1,93.7,73.9,89.8,74"/>
<path class="st3" d="M95.7,65.6c-1.4,0-1.2-1.7-1.2-1.7c2.1-10.8,14.2-5.1,14.2-5.1c0.9,1.9-2.2,6.6-3.1,6.8
	C101.7,66.6,95.7,65.6,95.7,65.6"/>
<path class="st4" d="M105.4,61.2c0,2.4-1.9,4.3-4.3,4.3c-2.4,0-4.3-1.9-4.3-4.3c0-2.4,1.9-4.3,4.3-4.3
	C103.5,56.9,105.4,58.8,105.4,61.2"/>
<path class="st6" d="M101.1,59.7c0.8,0,1.4,0.6,1.4,1.4c0,0.8-0.6,1.4-1.4,1.4c-0.8,0-1.4-0.6-1.4-1.4
	C99.7,60.4,100.3,59.7,101.1,59.7"/>
<path class="st4" d="M94.5,63.9c2.1-13,12.8-4.3,17.1-6.2C107.3,61.7,98.8,53,94.5,63.9"/>
<path class="st3" d="M83.8,65.6c1.4,0,1.2-1.7,1.2-1.7c-2.1-10.8-14.2-5.1-14.2-5.1c-0.9,1.9,2.2,6.6,3.1,6.8
	C77.9,66.6,83.8,65.6,83.8,65.6"/>
<path class="st4" d="M74.1,61.2c0,2.4,1.9,4.3,4.3,4.3c2.4,0,4.3-1.9,4.3-4.3c0-2.4-1.9-4.3-4.3-4.3C76,56.9,74.1,58.8,74.1,61.2"/>
<path class="st4" d="M85,63.9c-2.1-13-12.8-4.3-17.1-6.2C72.2,61.7,80.8,53,85,63.9"/>
<path class="st7" d="M89.8,78.7l-9.5-1.4c5.7,8.1,13.3,8.1,18.9,0L89.8,78.7z"/>
<path class="st8" d="M93.5,76.9c-2.8-1.1-3.7,0.6-3.7,0.6s-0.9-1.7-3.7-0.6c-2.2,0.8-5.7,0.3-5.7,0.3c3.8,0.8,4.3,2.4,9.5,2.4
	c5.2,0,5.7-1.6,9.5-2.4C99.2,77.2,95.7,77.7,93.5,76.9"/>
<path class="st6" d="M78.4,59.7c0.8,0,1.4,0.6,1.4,1.4c0,0.8-0.6,1.4-1.4,1.4c-0.8,0-1.4-0.6-1.4-1.4C77,60.4,77.6,59.7,78.4,59.7"
	/>
</svg>
