<?xml version="1.0" encoding="utf-8"?>
<!-- Generator: Adobe Illustrator 25.4.1, SVG Export Plug-In . SVG Version: 6.00 Build 0)  -->
<svg version="1.1" id="Layer_1" xmlns="http://www.w3.org/2000/svg" xmlns:xlink="http://www.w3.org/1999/xlink" x="0px" y="0px"
	 viewBox="0 0 120 120" style="enable-background:new 0 0 120 120;" xml:space="preserve">
<style type="text/css">
	.st0{enable-background:new    ;}
	.st1{clip-path:url(#SVGID_00000152964812285003555310000016734542567837559202_);fill:#E2B787;}
	.st2{clip-path:url(#SVGID_00000152964812285003555310000016734542567837559202_);fill:#DBDDDD;}
	.st3{clip-path:url(#SVGID_00000152964812285003555310000016734542567837559202_);fill:#BE9A70;}
	.st4{clip-path:url(#SVGID_00000152964812285003555310000016734542567837559202_);fill:#C5AB8C;}
	.st5{clip-path:url(#SVGID_00000152964812285003555310000016734542567837559202_);fill:#21A38A;}
	.st6{clip-path:url(#SVGID_00000152964812285003555310000016734542567837559202_);fill:#FFFFFF;}
</style>
<g class="st0">
	<g>
		<defs>
			<rect id="SVGID_1_" x="2.1" y="1" width="116.3" height="117.1"/>
		</defs>
		<clipPath id="SVGID_00000152266665546324254940000014534958660970308278_">
			<use xlink:href="#SVGID_1_"  style="overflow:visible;"/>
		</clipPath>
		<polygon style="clip-path:url(#SVGID_00000152266665546324254940000014534958660970308278_);fill:#E2B787;" points="25.7,92.3 
			78.7,58 92,65.4 39,103.6 		"/>
		<polygon style="clip-path:url(#SVGID_00000152266665546324254940000014534958660970308278_);fill:#DBDDDD;" points="2.1,25.2 
			66,1 82,6.8 17.5,34.6 		"/>
		<polygon style="clip-path:url(#SVGID_00000152266665546324254940000014534958660970308278_);fill:#BE9A70;" points="17.5,34.6 
			82,6.8 78.7,58 25.7,92.3 		"/>
		<polygon style="clip-path:url(#SVGID_00000152266665546324254940000014534958660970308278_);fill:#C5AB8C;" points="33.5,44.4 
			98,12.7 92,65.4 39,103.6 		"/>
		<polygon style="clip-path:url(#SVGID_00000152266665546324254940000014534958660970308278_);fill:#21A38A;" points="17.5,34.6 
			82,6.8 98,12.7 33.5,44.4 		"/>
		<polygon style="clip-path:url(#SVGID_00000152266665546324254940000014534958660970308278_);fill:#21A38A;" points="33.5,44.4 
			39,103.6 25.7,92.3 17.5,34.6 		"/>
		<polygon style="clip-path:url(#SVGID_00000152266665546324254940000014534958660970308278_);fill:#FFFFFF;" points="54.5,57.3 
			118.4,20.1 108.5,74.6 55.9,118.1 		"/>
		<polygon style="clip-path:url(#SVGID_00000152266665546324254940000014534958660970308278_);fill:#FFFFFF;" points="54.5,57.3 
			55.9,118.1 12.6,81 2.1,25.2 17.5,34.6 25.7,92.3 39,103.6 33.5,44.4 		"/>
		<polygon style="clip-path:url(#SVGID_00000152266665546324254940000014534958660970308278_);fill:#DBDDDD;" points="33.5,44.4 
			98,12.7 118.4,20.1 54.5,57.3 		"/>
	</g>
</g>
</svg>
