<?xml version="1.0" encoding="utf-8"?>
<!-- Generator: Adobe Illustrator 25.4.1, SVG Export Plug-In . SVG Version: 6.00 Build 0)  -->
<svg version="1.1" id="Layer_1" xmlns="http://www.w3.org/2000/svg" xmlns:xlink="http://www.w3.org/1999/xlink" x="0px" y="0px"
	 viewBox="0 0 78.3 88" style="enable-background:new 0 0 78.3 88;" xml:space="preserve">
<style type="text/css">
	.st0{fill:#005C4F;}
	.st1{clip-path:url(#SVGID_00000121241208505668763810000016763888224771614611_);fill:#005C4F;}
	.st2{clip-path:url(#SVGID_00000129199211837991771780000014029368458543575212_);fill:#005C4F;}
	.st3{clip-path:url(#SVGID_00000144315257387310164100000018153938961738717577_);fill:#005C4F;}
	.st4{clip-path:url(#SVGID_00000111895400439561120750000010262760166845337245_);fill:#005C4F;}
	.st5{clip-path:url(#SVGID_00000010288282710366714930000013973465931185527685_);fill:#005C4F;}
	.st6{clip-path:url(#SVGID_00000032606583095259947060000011510272223403304576_);fill:#005C4F;}
	.st7{opacity:0.53;}
	.st8{clip-path:url(#SVGID_00000057866300679355940640000002403256632972975761_);fill:#005C4F;}
	.st9{opacity:0.47;}
	.st10{clip-path:url(#SVGID_00000030447277189028557240000011087346692262051741_);fill:#005C4F;}
	.st11{opacity:0.55;}
	.st12{clip-path:url(#SVGID_00000161633324513338354420000006642082813845107889_);fill:#005C4F;}
	.st13{clip-path:url(#SVGID_00000080914810188626498040000006142710727060441990_);fill:#005C4F;}
	.st14{clip-path:url(#SVGID_00000078724537494525709120000010398068997805603775_);fill:#005C4F;}
	.st15{clip-path:url(#SVGID_00000069360873520090563240000017478144264315145400_);fill:#005C4F;}
	.st16{clip-path:url(#SVGID_00000064347308003465817240000012880716290754717094_);fill:#005C4F;}
	.st17{clip-path:url(#SVGID_00000045599342052055532810000010654573128187586982_);fill:#005C4F;}
	.st18{clip-path:url(#SVGID_00000063630255423085353630000011264105897426377636_);fill:#005C4F;}
</style>
<path class="st0" d="M1.5,13.1c0-0.1,0-0.3,0-0.4c0.1-1,0.2-2,0.4-3C2.1,8.8,2.4,8,2.7,7.3c0,0,0-0.1,0.1-0.1
	c0.4-0.7,0.8-1.3,1.3-1.8c0.4-0.4,0.8-0.8,1.3-1.1c2.2-1,4.9,0.9,6.8,2.5c2.6,2,5,4.4,7.1,7c2.3,2.6,4.3,5.4,6.1,8.3
	c1,1.7,2,3.4,2.9,5.1c0.7,1.3,1.3,2.7,1.8,4.1c0.1,0.1,0.1,0.2,0.2,0.3c0.1,0.2,0.1,0.4,0.2,0.7c1.5,4.2,4.5,8,7.5,11.3
	c3.2,3.5,6.7,6.7,10.2,9.9c7,6.3,14.2,12.3,21.5,18.2c1.4,1.2,2.8,2.4,4,3.8c0,0,0,0,0-0.1c0,0,0,0,0,0c0.1,0.1,0.2,0.2,0.2,0.3
	c1.1,1.6,2.3,3.2,3,5.1c0.1,0.2,0.1,0.3,0.2,0.5c0.2,1,0.2,2.1-0.1,2.9c-0.4,1.3-1.5,1.6-2.8,1.3c-1.6-0.4-3.1-1.6-4.5-2.7
	c-1.6-1.3-3.2-2.6-4.8-4C58.4,72.8,53,65.8,47.3,59.1c-3.2-3.7-6.6-7.3-9.9-10.8c-3.1-3.2-6.1-6.5-9.9-8.9c-2-1.3-4-2-6.2-2.6
	c-1.9-0.6-3.9-1.1-5.8-2.1c-3.5-1.9-6.4-5-8.8-8.4C4.3,22.9,2.2,19.1,1.6,15c-0.1-0.5-0.1-1-0.1-1.5C1.5,13.3,1.5,13.2,1.5,13.1"/>
<path class="st0" d="M2.1,14.1c0.1,2.3,0.9,4.7,2,6.9c1.8,3.6,4.3,7.1,7.2,9.8c1.5,1.4,3.1,2.6,4.9,3.5c2,1,4,1.4,6,2.1
	c1.8,0.6,3.5,1.3,5.2,2.3c1.7,1,3.3,2.3,4.8,3.6c3.1,2.8,6,6,8.9,9.1c3.1,3.3,6.1,6.6,8.9,10.1c5.3,6.4,10.6,13,16.9,18.3
	c1.4,1.2,2.8,2.4,4.3,3.5c1.2,0.9,3.3,2.3,4.5,1.2c0.9-0.8,0.8-2.5,0.5-3.6c0-0.2-0.1-0.4-0.2-0.6c-0.9-2.4-2.4-4.4-4.3-6.2
	c-1.4-1.3-2.9-2.4-4.3-3.6c-1.7-1.4-3.4-2.8-5.2-4.3c-6.9-5.7-13.8-11.3-20.2-17.6c-3-2.9-5.9-6-8.4-9.5c-1.2-1.6-2.3-3.3-3.1-5.1
	c-0.6-1.2-0.9-2.4-1.3-3.6c-0.4-0.8-0.7-1.5-1.1-2.3c-0.7-1.5-1.5-2.9-2.4-4.4c-1.7-2.9-3.6-5.7-5.8-8.3c-2.1-2.5-4.4-4.9-6.8-7
	c-1.2-1-2.4-2-3.8-2.8c-1-0.6-2.1-1-3.1-0.9c0,0,0,0,0,0C6.1,4.7,5.8,4.8,5.5,5C4.4,5.7,3.7,7,3.1,8.2C2.7,9,2.3,9.9,2.2,10.9
	C2,11.9,2.1,12.9,2.1,14.1C2.1,14,2.1,14,2.1,14.1"/>
<path class="st0" d="M6.2,5.6C6.2,5.6,6.2,5.6,6.2,5.6C6.1,5.6,6.1,5.6,6.2,5.6C6.2,5.6,6.2,5.6,6.2,5.6"/>
<path class="st0" d="M6.6,6C6.5,6,6.5,6,6.6,6C6.5,6,6.5,6,6.6,6"/>
<g>
	<g>
		<defs>
			<rect id="SVGID_1_" x="63.6" y="69.1" width="10.2" height="9.5"/>
		</defs>
		<clipPath id="SVGID_00000146463510660107757540000003626902916897231790_">
			<use xlink:href="#SVGID_1_"  style="overflow:visible;"/>
		</clipPath>
		<path style="clip-path:url(#SVGID_00000146463510660107757540000003626902916897231790_);fill:#005C4F;" d="M73.9,78.4
			c0-0.3-0.2-0.7-0.4-1c-0.1-0.2-0.2-0.4-0.4-0.6c-0.7-1-1.7-1.8-2.5-2.6c-0.9-0.8-1.8-1.7-2.7-2.5c-0.8-0.7-1.7-1.5-2.6-2.1
			c-0.4-0.2-1.4-0.9-1.6-0.4c-0.2,0.7,0.6,1.8,1.1,2.4c0.8,1.1,1.8,2,2.8,2.9c1,0.9,2,1.7,3.1,2.5c0.9,0.6,1.8,1.3,2.8,1.5
			c0.2,0,0.3,0.1,0.5,0C73.9,78.6,73.9,78.5,73.9,78.4"/>
	</g>
</g>
<g>
	<g>
		<defs>
			<rect id="SVGID_00000029038919019041250730000006466847164624670122_" x="55.5" y="62.2" width="4.7" height="3.8"/>
		</defs>
		<clipPath id="SVGID_00000111154814786026739510000000497091820052719235_">
			<use xlink:href="#SVGID_00000029038919019041250730000006466847164624670122_"  style="overflow:visible;"/>
		</clipPath>
		<path style="clip-path:url(#SVGID_00000111154814786026739510000000497091820052719235_);fill:#005C4F;" d="M60.2,65.9
			c-0.2-0.2-0.4-0.5-0.7-0.7c-0.1,0-0.2-0.1-0.2-0.1c-0.1-0.1-0.2-0.2-0.2-0.3c-0.4-0.4-0.8-0.7-1.2-1c-0.7-0.6-1.6-1.2-2.5-1.6
			c0.2,0.4,0.5,0.8,0.7,1.1c0.7,1,1.6,1.9,2.7,2.5c0.3,0.1,0.6,0.2,0.8,0.2C59.9,66,60.1,66,60.2,65.9
			C60.2,65.9,60.2,65.9,60.2,65.9"/>
	</g>
</g>
<g>
	<g>
		<defs>
			<rect id="SVGID_00000161621140471904160180000014987017584542140830_" x="31" y="39.5" width="44.2" height="43.7"/>
		</defs>
		<clipPath id="SVGID_00000100350940908114482320000001120839771907331982_">
			<use xlink:href="#SVGID_00000161621140471904160180000014987017584542140830_"  style="overflow:visible;"/>
		</clipPath>
		<path style="clip-path:url(#SVGID_00000100350940908114482320000001120839771907331982_);fill:#005C4F;" d="M75.1,83.2
			c0.1,0,0-0.2-0.1-0.2c-3.3-0.4-5.8-3.5-8.3-5.9c-3-2.9-6-5.9-8.9-9C52,61.8,46.2,55.4,40.5,48.9c-1.5-1.7-2.9-3.5-4.5-5.1
			c-1.5-1.5-3.1-3-4.8-4.2c-0.2-0.1-0.3,0-0.1,0.2c1.3,1.6,3,2.8,4.5,4.3c1.4,1.5,2.7,3.1,4.1,4.7c3,3.4,6,6.7,9,10
			c3,3.3,6,6.6,9,9.8c2.9,3.1,5.9,6.1,9,9.1c1.4,1.4,2.8,2.9,4.4,4.1C72.2,82.7,73.7,83.5,75.1,83.2"/>
	</g>
</g>
<g>
	<g>
		<defs>
			<rect id="SVGID_00000022556590515779282660000003256371613800284862_" x="4.5" y="6.7" width="22.5" height="27.8"/>
		</defs>
		<clipPath id="SVGID_00000033357995135162142240000006941411544032715141_">
			<use xlink:href="#SVGID_00000022556590515779282660000003256371613800284862_"  style="overflow:visible;"/>
		</clipPath>
		<path style="clip-path:url(#SVGID_00000033357995135162142240000006941411544032715141_);fill:#005C4F;" d="M7.4,7.3
			C6.5,8,5.8,8.9,5.5,10.1c-0.6,2.5-0.3,5.7,0.7,8.3c1.2,3.1,3.2,6,5.5,8.4c2,2.2,4.4,4,6.9,5.4c1.3,0.8,2.7,1.3,4.1,1.6
			c1.5,0.3,2.8,0.5,4.2-0.2c0,0,0.1,0,0,0.1c-1.3,0.7-3,1.1-4.5,0.7c-1.6-0.4-3.3-1.1-4.8-2.1c-2.8-1.7-5.3-3.8-7.5-6.4
			c-2.3-2.8-4.4-6-5.2-9.5c-0.6-2.7-0.7-6,0.6-8.1c0.4-0.6,0.9-1.2,1.5-1.6C7.2,6.9,7.3,7.1,7.4,7.3"/>
	</g>
</g>
<g>
	<g>
		<defs>
			<rect id="SVGID_00000140701402915163176130000001224525278332035714_" x="2.5" y="10.1" width="1.9" height="5.5"/>
		</defs>
		<clipPath id="SVGID_00000183212950154012591040000002351692279553355194_">
			<use xlink:href="#SVGID_00000140701402915163176130000001224525278332035714_"  style="overflow:visible;"/>
		</clipPath>
		<path style="clip-path:url(#SVGID_00000183212950154012591040000002351692279553355194_);fill:#005C4F;" d="M4.3,15.1
			c0-0.1,0.1-0.2,0.1-0.2c-0.1,0-0.3-0.2-0.2-0.3c0.1-1,0.3-2,0.1-3c-0.1-0.4-0.6-1.8-1.1-1.3c-0.4,0.3-0.5,1-0.6,1.4
			c-0.1,0.5-0.1,1.1,0,1.6c0,0.6,0.1,1.1,0.3,1.7c0.2,0.4,0.4,0.7,0.8,0.7C4,15.6,4.2,15.4,4.3,15.1"/>
	</g>
</g>
<g>
	<g>
		<defs>
			<rect id="SVGID_00000123415236538011308310000007680680821134127796_" x="4.6" y="17.6" width="1.3" height="2.8"/>
		</defs>
		<clipPath id="SVGID_00000095300370468966446510000012667369438922048672_">
			<use xlink:href="#SVGID_00000123415236538011308310000007680680821134127796_"  style="overflow:visible;"/>
		</clipPath>
		<path style="clip-path:url(#SVGID_00000095300370468966446510000012667369438922048672_);fill:#005C4F;" d="M5.3,20.4
			C5.3,20.4,5.3,20.4,5.3,20.4C5.4,20.4,5.4,20.4,5.3,20.4C5.4,20.4,5.4,20.4,5.3,20.4C5.4,20.4,5.4,20.4,5.3,20.4
			c0.1,0,0.1,0,0.1,0c0,0,0,0,0.1-0.1c0,0,0,0,0,0c0,0,0.1-0.1,0.1-0.2c0,0,0,0,0,0c0,0,0,0,0,0c0,0,0,0,0,0c0,0,0-0.1,0-0.1
			c0-0.1,0.1-0.1,0.1-0.2c0-0.1,0-0.2,0.1-0.2c0,0,0,0,0,0c0,0,0,0,0,0c0,0,0-0.1,0-0.1c0-0.2,0-0.4,0-0.6c0,0,0-0.1,0-0.1
			c0,0,0,0,0,0c0,0,0-0.1,0-0.1c0-0.1,0-0.1,0-0.2c0,0,0,0,0,0c0,0,0,0,0,0c0-0.1-0.1-0.1-0.1-0.2c0,0-0.1-0.1-0.1-0.1c0,0,0,0,0,0
			c0,0,0,0,0,0c-0.1-0.1-0.1-0.1-0.2-0.1c0,0-0.1,0-0.1-0.1c0,0,0,0,0,0c-0.1,0-0.1-0.1-0.2-0.1c0,0,0,0,0,0c0,0-0.1,0-0.1,0
			c0,0,0,0,0,0c0,0,0,0,0,0c0,0,0,0,0,0c0,0,0,0,0,0c0,0,0,0,0,0c0,0,0,0,0,0c0,0,0,0,0,0c0,0,0,0,0,0c0,0,0,0,0,0c0,0,0,0,0,0
			c0,0,0,0,0,0.1c0,0,0,0,0,0c0,0,0,0,0,0c0,0,0,0.1,0,0.1c0,0,0,0,0,0c0,0,0,0,0,0c0,0.1,0,0.2,0,0.2c0,0.1,0,0.1,0,0.2
			c0,0,0,0,0,0.1c0,0,0,0,0,0c0,0.3,0.1,0.5,0.1,0.8c0,0.1,0,0.2,0.1,0.2c0,0,0,0.1,0,0.1c0,0,0,0,0,0c0,0,0,0,0,0
			C4.9,19.7,5,19.9,5,20c0,0.1,0,0.1,0.1,0.1c0,0,0,0.1,0,0.1C5.2,20.2,5.2,20.3,5.3,20.4C5.3,20.4,5.3,20.4,5.3,20.4
			C5.3,20.4,5.3,20.4,5.3,20.4C5.3,20.4,5.3,20.4,5.3,20.4"/>
	</g>
</g>
<g class="st7">
	<g>
		<defs>
			<rect id="SVGID_00000003794485869653484720000015608814504577751968_" x="2.1" y="4.7" width="74.4" height="80.1"/>
		</defs>
		<clipPath id="SVGID_00000076580475697618018140000014615536604624276913_">
			<use xlink:href="#SVGID_00000003794485869653484720000015608814504577751968_"  style="overflow:visible;"/>
		</clipPath>
		<path style="clip-path:url(#SVGID_00000076580475697618018140000014615536604624276913_);fill:#005C4F;" d="M5.5,5
			c0.3-0.2,0.6-0.3,0.9-0.3c0,0,0,0,0,0c1-0.1,2.1,0.3,3.1,0.9c0.6,0.3,1.1,0.7,1.7,1.1c-0.5-0.1-0.9-0.2-1.4-0.3
			C8.6,6.3,7.3,6.3,6.4,7.1C5.4,8,5.5,9.6,5.7,11c0.3,1.7,1,3.3,1.8,4.8c0.8,1.6,1.8,3.1,2.8,4.6c1.1,1.5,2.2,3,3.4,4.5
			c2.8,3.4,6.2,6.4,10,8.4c1.3,0.7,2.6,1.3,4,1.6c0.9,0.2,1.9,0.3,2.8,0c-0.2,0.3-0.4,0.7-0.6,0.9c-0.6,0.5-1.5,0.5-2.3,0.7
			c-0.2,0-0.3,0.3-0.1,0.4c0.4,0.4,0.8,0.8,1.2,1.2c1.9,1.7,4,2.8,5.9,4.4c2.2,1.8,4.2,3.9,6.1,6c2,2.1,3.9,4.3,5.8,6.5
			c2,2.2,4,4.4,6,6.5c2,2.1,4.1,4.2,6.1,6.3c1.5,1.6,2.9,3.3,4.4,5c1.5,1.7,3,3.4,4.7,5c1.5,1.4,3.2,2.7,5,3.4
			c0.8,0.3,1.7,0.5,2.4,0.2c0.5-0.2,0.9-0.6,1.1-1.2c0,0.2,0.1,0.3,0.1,0.5c0.2,1.2,0.3,2.9-0.5,3.6c-1.2,1-3.3-0.4-4.5-1.2
			c-1.5-1.1-2.9-2.3-4.3-3.5c-6.3-5.3-11.6-11.9-16.9-18.3c-2.9-3.5-5.8-6.8-8.9-10.1c-2.9-3.1-5.8-6.3-8.9-9.1
			c-1.5-1.4-3.1-2.6-4.8-3.6c-1.7-1-3.4-1.7-5.2-2.3c-2-0.6-4.1-1.1-6-2.1c-1.8-0.9-3.4-2.1-4.9-3.5c-2.9-2.8-5.4-6.2-7.2-9.8
			c-1.1-2.2-1.8-4.6-2-6.9c0,0,0-0.1,0-0.1c0-1-0.1-2.1,0.1-3c0.1-1,0.5-1.9,0.9-2.8C3.7,7,4.4,5.7,5.5,5"/>
	</g>
</g>
<path class="st0" d="M7.6,6.4c0.8,0.2,1.7,0.8,2.1,1.7C10.5,7.2,11.9,7.4,13,8c1.2,0.6,2.4,1.6,3.1,2.8c1-0.2,1.9-0.6,3-0.2
	c1,0.4,1.9,1.2,2.4,2.2c1.4-0.6,3,0.9,3.8,2.1c1.1,1.4,1.8,3.3,1.9,5c0.1,0.8,0,1.7-0.5,2.4c1.3,0.8,2.2,2.2,2.7,3.6
	c0.3,0.8,0.5,1.6,0.5,2.3c0,0.5,0,1.1-0.2,1.6c0.1,0.4,0.2,0.8,0.3,1.1c0.2,1.3-0.1,2.8-1.1,3.5c-0.6,0.4-1.4,0.5-2.1,0.1
	c-0.1,0.1-0.2,0.1-0.3,0.2c-1,0.5-2.1,0.3-3.2-0.1c-2.6-1-5.2-2.5-7.5-4.3c-0.7-0.6-1.3-1.1-1.9-1.8c-0.2-0.2-0.5-0.5-0.7-0.7
	c-0.5-0.2-0.9-0.6-1.3-0.9c-0.9-0.9-1.6-2.1-1.9-3.3c0-0.2-0.1-0.4-0.1-0.6c-0.2-0.1-0.3-0.2-0.5-0.3c-0.8-0.6-1.4-1.5-2-2.3
	c-1.1-1.7-2.1-3.7-2.3-5.7c-0.1-0.6,0-1.3,0.3-1.8c0.1-0.2,0.2-0.3,0.3-0.5c-0.1-0.6-0.2-1.2-0.3-1.8c-0.1-1.1,0-2.2,0.3-3.2
	C5.9,6.6,6.7,6.2,7.6,6.4"/>
<path class="st0" d="M5.9,8c-0.2,0.9-0.2,1.9-0.2,2.8c0,0.5,0.1,1,0.2,1.5c0.1-0.1,0.3-0.2,0.5-0.2c0,0-0.1,0.1-0.1,0.1
	C6.2,12.4,6,12.7,5.9,13c0,0.1-0.1,0.2-0.1,0.3c0,0.1-0.1,0.1-0.1,0.2c-0.2,0.4-0.3,0.9-0.2,1.4c0.1,1.1,0.5,2.2,0.9,3.3
	c0.3,0.6,0.6,1.2,1,1.8c0.5,0.8,1,1.6,1.7,2.2c0.2,0.2,0.5,0.4,0.8,0.6c0,0,0,0,0-0.1c0.2,0.2,0.5,0.3,0.8,0.4
	c-0.1,0.1-0.2,0.1-0.4,0.2c0,0-0.1,0-0.1,0c0.1,0.8,0.6,1.7,1,2.4c0.4,0.7,1,1.4,1.7,1.7c0.5,0.3,1,0.5,1.6,0.6c0,0,0,0,0,0
	c-0.2,0.1-0.4,0.2-0.7,0.1c0.4,0.5,0.9,0.9,1.3,1.3c1.1,0.9,2.2,1.8,3.4,2.5c1.1,0.7,2.3,1.3,3.5,1.9c1,0.5,2.2,1,3.2,0.9
	c0.5,0,1-0.2,1.4-0.4c0.1,0,0.1-0.1,0.2-0.1c0.3,0,0.5-0.1,0.7-0.3c-0.1,0.2-0.2,0.4-0.4,0.5c0.4,0,0.8,0,1.2-0.2
	c0.4-0.2,0.8-0.6,0.9-1.1c0.3-0.8,0.3-1.7,0.1-2.6c0,0.1-0.1,0.1-0.1,0.2c-0.1,0.1-0.2,0.2-0.3,0.3c0.2-0.3,0.3-0.7,0.4-1
	c0.1-0.3,0.1-0.6,0-1c0.1-0.7,0-1.4-0.2-2.1c-0.5-1.6-1.5-3.3-2.9-4.1c-0.2-0.1-0.2-0.4-0.1-0.5c1-1.1,0.5-3.2,0-4.6
	c-0.5-1.4-1.4-2.8-2.6-3.7c-0.7-0.5-1.5-0.9-2.2-0.5c-0.1,0-0.2-0.1-0.2-0.1c-0.5-1-1.4-1.8-2.4-2.2c-1-0.4-1.9,0.1-2.8,0.2
	c-0.1,0-0.1,0-0.2-0.1C15.4,10,14.2,9,13.1,8.5C12,7.9,10.5,7.6,9.8,8.6c-0.1,0.1-0.2,0-0.3-0.1C9.3,7.6,8.4,7,7.6,6.9
	C7.2,6.8,6.8,6.8,6.5,7C6.2,7.2,6,7.6,5.9,8"/>
<g class="st9">
	<g>
		<defs>
			<rect id="SVGID_00000064356390745926551540000010008861716092514948_" x="5.4" y="6.8" width="24.2" height="27.8"/>
		</defs>
		<clipPath id="SVGID_00000152969632615952555000000000065238343353718179_">
			<use xlink:href="#SVGID_00000064356390745926551540000010008861716092514948_"  style="overflow:visible;"/>
		</clipPath>
		<path style="clip-path:url(#SVGID_00000152969632615952555000000000065238343353718179_);fill:#005C4F;" d="M7.6,6.9
			C8.4,7,9.3,7.6,9.5,8.5c0,0.2,0.2,0.2,0.3,0.1c0.7-1,2.2-0.7,3.3-0.1c1.1,0.6,2.3,1.5,2.8,2.7c0,0.1,0.1,0.1,0.2,0.1
			c1-0.2,1.8-0.6,2.8-0.2c1,0.4,1.9,1.2,2.4,2.2c0,0.1,0.1,0.2,0.2,0.1c0.7-0.4,1.5-0.1,2.2,0.5c1.2,0.9,2.1,2.3,2.6,3.7
			c0.6,1.5,1,3.5,0,4.6c-0.1,0.1-0.1,0.4,0.1,0.5c1.5,0.8,2.5,2.5,2.9,4.1c0.2,0.7,0.3,1.4,0.2,2.1c0,0.3,0,0.7,0,1
			c-0.1,0.4-0.2,0.7-0.4,1.1c0.1-0.1,0.2-0.2,0.3-0.3c0-0.1,0.1-0.1,0.1-0.2c0.2,0.9,0.2,1.8-0.1,2.6c-0.2,0.5-0.5,0.9-0.9,1.1
			c-0.4,0.2-0.8,0.2-1.2,0.2c0.2-0.2,0.3-0.3,0.4-0.6c-0.2,0.1-0.4,0.2-0.7,0.3c-0.1,0.1-0.1,0.1-0.2,0.1c-0.4,0.2-0.9,0.4-1.4,0.4
			c-1.1,0-2.2-0.5-3.3-0.9c-1.2-0.5-2.4-1.2-3.5-1.8c-1.2-0.7-2.3-1.6-3.4-2.5c-0.5-0.4-0.9-0.8-1.3-1.3c0.2,0,0.5,0,0.7-0.1
			c-0.5,0-1.1-0.3-1.6-0.6c-0.7-0.4-1.3-1-1.7-1.7c-0.5-0.7-0.9-1.6-1-2.4c0,0,0.1,0,0.1,0c0.2,0,0.3-0.1,0.4-0.2
			c-0.3-0.1-0.6-0.2-0.8-0.4c0,0,0,0,0,0.1c-0.3-0.2-0.6-0.4-0.8-0.6c-0.7-0.7-1.2-1.5-1.7-2.2c-0.4-0.6-0.7-1.2-1-1.8
			c-0.5-1-0.9-2.2-0.9-3.3c0-0.5,0-1,0.2-1.4c0-0.1,0.1-0.1,0.1-0.2c0-0.1,0.1-0.2,0.1-0.3c0.1-0.3,0.3-0.5,0.5-0.7
			c0,0,0.1-0.1,0.1-0.1c-0.2,0-0.3,0.1-0.5,0.2c-0.1-0.5-0.2-1-0.2-1.5c-0.1-1,0-1.9,0.2-2.8C6,7.6,6.2,7.2,6.5,7
			C6.8,6.8,7.2,6.8,7.6,6.9 M8.2,10.8c-0.5,0.7-0.6,1.8-0.5,2.8c0.1,0.9,0.5,1.9,1.2,2.7c0.4,0.4,0.9,0.7,1.3,0.9
			c0,1.1,0.2,2.3,0.7,3.3c1,2.6,2.8,4.8,4.8,6.7c1.5,1.3,4.1,3.5,5.8,2.5c-0.2,0.3-0.4,0.5-0.6,0.7c-0.1,0.1-0.1,0.2,0,0.4
			c0.4,0.6,1,1,1.6,1.3c1,0.3,2-0.1,2.6-0.9c0.5-0.6,0.7-1.4,0.7-2.2c0.4,0.6,0.7,1.3,0.9,2c0.1,0.2,0.2,0.3,0.4,0.2
			c0.6-0.3,0.9-0.9,1-1.6c0.2-1.3-0.2-2.8-0.9-3.9c-0.5-0.8-1.3-1.3-2-1.4c0.1-0.5,0.1-1.1,0.1-1.6c0-0.6-0.2-1.3-0.6-1.8
			c-0.1-0.1-0.3-0.3-0.4-0.3c-0.1-0.7-0.3-1.4-0.6-2c-0.8-1.4-2.4-2.6-3.8-2.8c-0.6-0.1-1.2,0-1.6,0.4c-0.3,0.3-0.4,0.8-0.4,1.3
			c-0.6-0.5-1.2-0.8-1.9-0.9c0-0.6-0.1-1.3-0.2-1.9c-0.2-0.8-0.4-1.6-0.8-2.2c-0.5-0.8-1.4-1.5-2.2-1.7c-0.7-0.2-1.3-0.1-1.7,0.3
			c-0.1-0.6-0.5-1.1-1.1-1.2C9.2,9.8,8.6,10.3,8.2,10.8"/>
	</g>
</g>
<g class="st11">
	<g>
		<defs>
			<rect id="SVGID_00000042723822630896345780000003816946652009484449_" x="21.6" y="26.4" width="1.8" height="2.4"/>
		</defs>
		<clipPath id="SVGID_00000111183532950157027010000001295247424636277122_">
			<use xlink:href="#SVGID_00000042723822630896345780000003816946652009484449_"  style="overflow:visible;"/>
		</clipPath>
		<path style="clip-path:url(#SVGID_00000111183532950157027010000001295247424636277122_);fill:#005C4F;" d="M23.1,27.3
			C23.1,27.3,23.1,27.3,23.1,27.3"/>
		<path style="clip-path:url(#SVGID_00000111183532950157027010000001295247424636277122_);fill:#005C4F;" d="M22.4,26.5
			c0.2,0,0.4-0.1,0.7,0c0.5,0.3,0.5,0.9,0.4,1.3c0,0.2-0.1,0.4-0.3,0.5c0,0,0,0.1,0,0.1c0,0.1-0.1,0.3-0.2,0.3
			c-0.1,0.1-0.4,0.1-0.5,0c-0.1-0.1-0.2-0.2-0.3-0.3c-0.1,0-0.1-0.1-0.1-0.1c0,0,0-0.1-0.1-0.1c-0.2-0.2-0.3-0.5-0.3-0.8
			c0-0.3,0.1-0.6,0.3-0.8C22.1,26.5,22.2,26.5,22.4,26.5"/>
		<path style="clip-path:url(#SVGID_00000111183532950157027010000001295247424636277122_);fill:#005C4F;" d="M22.3,27.8
			C22.3,27.8,22.3,27.8,22.3,27.8C22.3,27.8,22.3,27.8,22.3,27.8z"/>
	</g>
</g>
<g class="st11">
	<g>
		<defs>
			<rect id="SVGID_00000048462657898590356390000005906655436070194618_" x="17.6" y="23.5" width="0.5" height="0.6"/>
		</defs>
		<clipPath id="SVGID_00000016048795898779368410000009806652171261295291_">
			<use xlink:href="#SVGID_00000048462657898590356390000005906655436070194618_"  style="overflow:visible;"/>
		</clipPath>
		<path style="clip-path:url(#SVGID_00000016048795898779368410000009806652171261295291_);fill:#005C4F;" d="M17.7,23.5L17.7,23.5
			C17.7,23.4,17.7,23.5,17.7,23.5"/>
		<path style="clip-path:url(#SVGID_00000016048795898779368410000009806652171261295291_);fill:#005C4F;" d="M17.7,23.6L17.7,23.6
			c0,0,0-0.1,0-0.1c0,0,0,0,0.1,0c0,0,0,0,0,0s0,0,0,0c0,0,0,0,0,0c0,0,0,0,0,0c0,0,0,0,0,0c0,0,0,0,0.1,0c0,0,0,0,0,0
			c0,0,0,0,0.1,0c0,0,0.1,0.1,0.1,0.1c0,0,0,0,0,0c0,0,0,0.1,0,0.1c0,0,0,0,0,0c0,0,0,0,0,0c0,0,0,0.1,0,0.1c0,0,0,0,0,0.1
			c0,0,0,0.1-0.1,0.1c0,0,0,0,0,0c0,0,0,0,0,0h0c0,0,0,0,0,0c0,0,0,0,0,0c0,0,0,0,0,0c0,0,0,0,0,0c0,0,0,0,0,0c0,0-0.1,0-0.1,0
			c0,0,0,0-0.1,0c0,0,0,0,0-0.1c0,0,0,0,0-0.1C17.6,23.8,17.6,23.7,17.7,23.6C17.6,23.7,17.6,23.7,17.7,23.6
			C17.6,23.6,17.6,23.6,17.7,23.6C17.6,23.6,17.6,23.6,17.7,23.6C17.7,23.5,17.7,23.5,17.7,23.6C17.7,23.6,17.7,23.6,17.7,23.6
			L17.7,23.6"/>
	</g>
</g>
<g class="st11">
	<g>
		<defs>
			<rect id="SVGID_00000096746685201337000110000011387095660151279235_" x="10.5" y="13.3" width="2.4" height="3.5"/>
		</defs>
		<clipPath id="SVGID_00000044161461259854649070000016952933993847469210_">
			<use xlink:href="#SVGID_00000096746685201337000110000011387095660151279235_"  style="overflow:visible;"/>
		</clipPath>
		<path style="clip-path:url(#SVGID_00000044161461259854649070000016952933993847469210_);fill:#005C4F;" d="M11,13.4
			c0.2-0.1,0.5,0,0.7,0.2c0.2,0.1,0.4,0.3,0.5,0.5c0.2,0.2,0.4,0.5,0.5,0.8c0.3,0.6,0.3,1.6-0.2,1.9c-0.2,0.1-0.5,0.2-0.8,0.1
			c-0.2-0.1-0.4-0.3-0.6-0.5c-0.4-0.5-0.5-1.1-0.6-1.7C10.5,14.2,10.5,13.5,11,13.4 M11.3,15.8C11.3,15.8,11.3,15.8,11.3,15.8
			C11.3,15.8,11.3,15.8,11.3,15.8c0,0.1,0.1,0.1,0.1,0.2c0,0,0,0,0,0.1c0,0,0,0,0,0c0,0,0,0,0,0c0,0,0.1,0.1,0.1,0.1c0,0,0,0,0.1,0
			c0,0,0,0,0,0c0,0,0.1,0,0.1,0.1c0,0,0,0,0.1,0c0,0,0,0,0,0c0,0,0,0,0,0c0,0,0,0,0,0c0,0,0.1,0,0.1,0c0,0,0,0,0.1,0c0,0,0,0,0,0
			c0,0,0,0,0,0c0.1,0,0.2-0.1,0.3-0.1c0,0,0,0,0,0c-0.2,0.1-0.4,0.1-0.6,0c-0.2-0.1-0.5-0.3-0.7-0.6C11.2,15.6,11.2,15.7,11.3,15.8
			C11.2,15.7,11.3,15.7,11.3,15.8"/>
	</g>
</g>
<g class="st11">
	<g>
		<defs>
			<rect id="SVGID_00000059311436384600174670000001507680611807092632_" x="19.4" y="13.7" width="0.6" height="1.1"/>
		</defs>
		<clipPath id="SVGID_00000038379927769248931730000009164974228285205403_">
			<use xlink:href="#SVGID_00000059311436384600174670000001507680611807092632_"  style="overflow:visible;"/>
		</clipPath>
		<path style="clip-path:url(#SVGID_00000038379927769248931730000009164974228285205403_);fill:#005C4F;" d="M19.6,13.6
			c0,0,0.1,0,0.1,0c0,0,0.1,0,0.1,0c0.1,0,0.2,0.2,0.2,0.3c0,0.1,0,0.2,0,0.3c0,0.1,0,0.1,0,0.2c0,0.1,0,0.1-0.1,0.2
			c0,0-0.1,0.1-0.1,0.1c0,0-0.1,0-0.1,0c-0.1,0-0.1-0.1-0.2-0.1c0,0-0.1-0.1-0.1-0.1c0,0,0,0,0,0c0,0,0,0,0,0c0,0,0-0.1,0-0.1
			c0,0,0,0,0,0c0-0.1,0-0.2,0-0.3c0,0,0-0.1,0-0.1C19.4,13.8,19.4,13.7,19.6,13.6C19.5,13.6,19.6,13.6,19.6,13.6"/>
	</g>
</g>
<g class="st11">
	<g>
		<defs>
			<rect id="SVGID_00000083792536584321722820000015119806900721920932_" x="18.9" y="18" width="1.5" height="2.3"/>
		</defs>
		<clipPath id="SVGID_00000056426352738305804210000007437058393561015219_">
			<use xlink:href="#SVGID_00000083792536584321722820000015119806900721920932_"  style="overflow:visible;"/>
		</clipPath>
		<path style="clip-path:url(#SVGID_00000056426352738305804210000007437058393561015219_);fill:#005C4F;" d="M19.2,18.1
			c0.3-0.1,0.5,0.1,0.7,0.4c0.1,0,0.1,0.1,0.2,0.2c0.1,0.2,0.2,0.4,0.3,0.6c0.1,0.2,0.1,0.5,0,0.7c0,0.2-0.2,0.4-0.4,0.4
			c-0.1,0-0.2,0-0.4,0c-0.1,0-0.2-0.1-0.3-0.2c-0.3-0.3-0.4-0.7-0.4-1.1C18.8,18.7,18.9,18.2,19.2,18.1"/>
		<path style="clip-path:url(#SVGID_00000056426352738305804210000007437058393561015219_);fill:#005C4F;" d="M20.1,19.6
			C20.1,19.6,20.1,19.6,20.1,19.6C20.1,19.6,20.1,19.6,20.1,19.6C20.1,19.6,20.1,19.6,20.1,19.6"/>
	</g>
</g>
<g class="st11">
	<g>
		<defs>
			<rect id="SVGID_00000126321483766754083430000005640261487404374205_" x="16.3" y="19.5" width="0.4" height="0.5"/>
		</defs>
		<clipPath id="SVGID_00000011727071268895230420000000393905143716884414_">
			<use xlink:href="#SVGID_00000126321483766754083430000005640261487404374205_"  style="overflow:visible;"/>
		</clipPath>
		<path style="clip-path:url(#SVGID_00000011727071268895230420000000393905143716884414_);fill:#005C4F;" d="M16.5,19.5
			C16.5,19.5,16.6,19.5,16.5,19.5c0.1,0,0.1,0.1,0.1,0.1c0,0,0,0,0,0.1c0,0,0,0,0,0.1c0,0,0,0.1,0,0.1c0,0,0,0,0,0.1c0,0,0,0,0,0
			c0,0,0,0,0,0L16.5,20c0,0,0,0-0.1,0c0,0,0,0-0.1,0c0,0,0,0-0.1,0c0,0,0,0,0-0.1c0,0,0,0,0-0.1c0,0,0-0.1,0-0.1c0,0,0,0,0-0.1
			c0,0,0-0.1,0-0.1L16.5,19.5C16.5,19.5,16.5,19.5,16.5,19.5"/>
	</g>
</g>
<g class="st11">
	<g>
		<defs>
			<rect id="SVGID_00000012468101609617021880000007166728142903676818_" x="13.1" y="21.1" width="2.4" height="3.7"/>
		</defs>
		<clipPath id="SVGID_00000027565071133739633450000017268515520525639557_">
			<use xlink:href="#SVGID_00000012468101609617021880000007166728142903676818_"  style="overflow:visible;"/>
		</clipPath>
		<path style="clip-path:url(#SVGID_00000027565071133739633450000017268515520525639557_);fill:#005C4F;" d="M13.6,21.2
			c0.2-0.1,0.4,0,0.6,0.1c0,0,0.1,0,0.2,0c0.3,0.1,0.5,0.4,0.6,0.7c0.2,0.3,0.3,0.7,0.4,1c0.1,0.4,0.1,0.8,0.1,1.1
			c0,0.3-0.1,0.6-0.4,0.7c-0.3,0.1-0.7-0.2-0.9-0.4c-0.5-0.4-0.8-1-0.9-1.6C13,22.2,13,21.4,13.6,21.2"/>
	</g>
</g>
</svg>
