<?xml version="1.0" encoding="utf-8"?>
<!-- Generator: Adobe Illustrator 25.4.1, SVG Export Plug-In . SVG Version: 6.00 Build 0)  -->
<svg version="1.1" id="Layer_1" xmlns="http://www.w3.org/2000/svg" xmlns:xlink="http://www.w3.org/1999/xlink" x="0px" y="0px"
	 viewBox="0 0 78.3 88" style="enable-background:new 0 0 78.3 88;" xml:space="preserve">
<style type="text/css">
	.st0{fill:#005C4F;}
</style>
<path class="st0" d="M42.2,13.8h13.6c1.7,0,3.2,0.7,4.2,1.8H38C39,14.5,40.6,13.8,42.2,13.8"/>
<path class="st0" d="M30.1,51.1l1.3-10L5.3,43v9.2c0.9-1,2-1.8,3.2-2.4L8.2,44l2-0.1l0.2,3c-0.5,0.1-1,0.3-1.4,0.5v2.4
	c0.5-0.2,1-0.5,1.6-0.6c0.5-0.2,1.1-0.3,1.6-0.4c0.6-0.1,1.3-0.2,2-0.2c0.1,0,0.2,0,0.2,0c0.5,0,0.9,0,1.4,0.1
	c0.7,0.1,1.4,0.2,2,0.4c0.6,0.2,1.1,0.4,1.7,0.6c0.7,0.3,1.4,0.7,2.1,1.2c0.6,0.4,1.2,0.9,1.7,1.4c0.9,0.8,1.6,1.8,2.2,2.9
	c0.3,0.5,0.6,1.1,0.8,1.7c0.4,1.1,0.7,2.3,0.8,3.6h2.3c-0.1-1.3-0.3-2.5-0.7-3.7l10-0.5c-0.2-0.3-0.3-0.5-0.4-0.9c0-0.1,0-0.3,0-0.4
	v0L29.3,55l0-1.3l8.9-0.3v-0.4V51c0-1.2,0.9-2.1,2.1-2.1c0.2,0,0.4,0,0.6,0.1l0.2,0.1c0.1-0.2,0.2-0.3,0.3-0.5
	c-0.5-0.7-0.5-1.5-0.1-2.3l1.4-2.4L43,43c0.4-0.6,1.1-1,1.8-1c0,0,0,0,0,0c0.6,0,1.1,0.2,1.5,0.6l0.2,0.2c0.2-0.1,0.3-0.2,0.5-0.3
	c-0.1-0.8,0.3-1.6,1-2l0.1-0.1l3.1-1.8c0.3-0.2,0.7-0.3,1.1-0.3c0.8,0,1.4,0.4,1.8,1.1c0.1,0.2,0.2,0.3,0.2,0.5l0.1,0.2
	c0.2,0,0.4,0,0.5,0c0.1-0.3,0.4-0.6,0.6-0.8c0.4-0.3,0.8-0.4,1.3-0.4h3.7c0.6,0,1.1,0.2,1.5,0.6c0.1,0.1,0.1,0.1,0.2,0.2
	c0.4,0.5,0.5,1.2,0.4,1.8l-0.1,0.2c0.2,0.1,0.3,0.2,0.5,0.3c0.3-0.2,0.7-0.4,1.2-0.4l-0.3-3.4c0,0,0,0,0,0c-4.6-0.7-11.2-1-17.2,0.8
	c0,0-6.1,1.7-11,12.1H30.1z M14,46.2c-0.7,0-1.3,0.1-2,0.2l-0.2-2.7l2-0.1L14,46.2z M17.6,46.5c-0.7-0.1-1.3-0.3-2-0.3l-0.2-2.7
	l2-0.1L17.6,46.5z M21.4,47.9c-0.7-0.3-1.4-0.6-2.1-0.9l-0.2-3.8l2-0.1L21.4,47.9z M25.2,50.8c-0.6-0.7-1.4-1.3-2.1-1.8l-0.4-6
	l2-0.1L25.2,50.8z"/>
<path class="st0" d="M1.7,43.3l3.2-0.2v9.6c-0.8,0.9-1.5,1.9-2,3.1l-1.4-9.3C1.4,45.6,1.5,44.4,1.7,43.3"/>
<path class="st0" d="M36.4,18.1h-0.8c0-1.1,0.7-2,1.6-2h0.3h23.1h1.2c0.9,0,1.6,0.9,1.6,2h-1.8H36.4z"/>
<path class="st0" d="M71.5,55.1l0.2-0.1c0.6-0.2,1.2-0.6,1.4-1.2c0.3-0.6,0.2-1.3-0.1-1.9l-0.1-0.2h3.9v4.4h-4.6
	c-0.2-0.2-0.4-0.4-0.7-0.5C71.5,55.4,71.5,55.2,71.5,55.1"/>
<path class="st0" d="M38.5,60l1.9,3.2c0.4,0.6,1.1,0.8,1.8,0.6c0.3,0.5,0.6,0.9,0.9,1.4l-0.6,0.6c-0.7,0.6-0.5,1.7,0.3,2.2l3.2,1.9
	c0.6,0.4,1.4,0.2,1.8-0.4c0.5,0.3,0.9,0.5,1.4,0.7L49,70.9c-0.2,0.9,0.4,1.8,1.3,1.8H54c0.7,0,1.3-0.5,1.4-1.2c0,0,0,0,0,0
	c0.5,0,1.1,0,1.6-0.1l0.2,0.8c0.2,0.9,1.2,1.3,2,0.9l3.2-1.9c0.6-0.4,0.8-1.1,0.6-1.8c0.5-0.3,0.9-0.6,1.4-0.9l0.6,0.6
	c0.6,0.7,1.7,0.5,2.2-0.3l1.9-3.2c0.4-0.6,0.2-1.4-0.4-1.8c0.3-0.5,0.5-0.9,0.7-1.4l0.8,0.2c0.9,0.2,1.8-0.4,1.8-1.3v-3.7
	c0-0.7-0.5-1.3-1.2-1.4c0,0,0,0,0,0c0-0.5,0-1.1-0.1-1.6l0.1,0l0.7-0.2c0.9-0.2,1.3-1.2,0.9-2L72,51.7L70.5,49
	c-0.4-0.6-1.1-0.8-1.8-0.6c-0.3-0.5-0.6-0.9-0.9-1.4l0.6-0.6c0.7-0.6,0.5-1.7-0.3-2.2l-3.2-1.9c-0.2-0.1-0.5-0.2-0.7-0.2
	c-0.4,0-0.8,0.2-1.1,0.6c-0.5-0.3-0.9-0.5-1.4-0.7l0.2-0.8c0.2-0.9-0.4-1.8-1.3-1.8h-3.7c-0.7,0-1.3,0.5-1.4,1.2c0,0,0,0,0,0
	c-0.5,0-1.1,0-1.6,0.1l-0.2-0.8c-0.1-0.2-0.2-0.4-0.4-0.6c-0.4-0.4-1.1-0.6-1.7-0.2l-1.1,0.7l-2.1,1.2c-0.6,0.4-0.8,1.1-0.6,1.8
	c-0.5,0.3-0.9,0.6-1.4,0.9l-0.6-0.6c-0.6-0.7-1.7-0.5-2.2,0.3l-1.9,3.2c-0.4,0.6-0.2,1.4,0.4,1.8c-0.3,0.5-0.5,0.9-0.7,1.4l-0.8-0.2
	c-0.9-0.2-1.8,0.4-1.8,1.3v2.9v0.8c0,0.1,0,0.2,0,0.3c0.1,0.4,0.4,0.7,0.7,0.9c0.1,0.1,0.3,0.1,0.5,0.2c0,0,0,0,0,0
	c0,0.5,0,1.1,0.1,1.6l-0.8,0.2C38.5,58.1,38.1,59.2,38.5,60 M42.9,56.1c0-0.1,0-0.2,0-0.4c0.2-6.7,5.7-12.1,12.5-12.1
	c3.7,0,7,1.6,9.2,4.1c2,2.2,3.3,5.2,3.3,8.4c0,6.9-5.6,12.5-12.5,12.5S42.9,63,42.9,56.1"/>
<path class="st0" d="M48.1,56.1c0,4,3.3,7.3,7.3,7.3c4,0,7.3-3.3,7.3-7.3c0-0.5-0.1-1-0.1-1.5c-0.7-3.3-3.6-5.8-7.2-5.8
	c-3.8,0-6.9,2.9-7.3,6.6C48.2,55.7,48.1,55.9,48.1,56.1 M50.2,56.1c0-0.3,0-0.5,0.1-0.8c0.4-2.6,2.6-4.5,5.2-4.5
	c2.5,0,4.5,1.7,5.1,3.9c0.1,0.4,0.2,0.9,0.2,1.3c0,2.9-2.4,5.3-5.3,5.3C52.5,61.4,50.2,59,50.2,56.1"/>
<path class="st0" d="M60.2,48.3c-0.8,0-1.4-0.6-1.4-1.4c0-0.8,0.6-1.4,1.4-1.4c0.8,0,1.4,0.6,1.4,1.4C61.5,47.7,60.9,48.3,60.2,48.3
	"/>
<path class="st0" d="M64.9,50.6c0.3,0,0.6,0.1,0.8,0.3c0.6,0.5,0.7,1.3,0.2,1.9c-0.2,0.2-0.5,0.4-0.8,0.5c-0.4,0.1-0.8,0-1.1-0.3
	c-0.6-0.5-0.7-1.3-0.2-1.9C64.1,50.8,64.5,50.6,64.9,50.6"/>
<path class="st0" d="M65.1,57.5c0.7-0.1,1.4,0.4,1.6,1.1c0.1,0.7-0.4,1.5-1.1,1.6c-0.7,0.1-1.5-0.4-1.6-1.1
	C63.8,58.4,64.3,57.7,65.1,57.5"/>
<path class="st0" d="M61.9,63.3c0.7,0.4,0.9,1.2,0.5,1.9c-0.4,0.7-1.2,0.9-1.9,0.5c-0.7-0.4-0.9-1.2-0.5-1.9
	C60.4,63.1,61.2,62.9,61.9,63.3"/>
<path class="st0" d="M54,64.8c0.7-0.3,1.5,0.1,1.7,0.8c0.3,0.7-0.1,1.5-0.8,1.7c-0.7,0.3-1.5-0.1-1.7-0.8C52.9,65.8,53.3,65,54,64.8
	"/>
<path class="st0" d="M48.8,61.7c0.7,0.3,1.1,1,0.8,1.7c-0.3,0.7-1,1.1-1.7,0.8c-0.7-0.3-1.1-1-0.8-1.7
	C47.3,61.8,48.1,61.4,48.8,61.7"/>
<path class="st0" d="M44.9,55.4c0.5-0.3,1.1-0.2,1.5,0.1c0.1,0.1,0.2,0.2,0.3,0.4c0.4,0.7,0.2,1.5-0.5,1.9c-0.7,0.4-1.5,0.2-1.9-0.5
	c-0.3-0.5-0.2-1.2,0.2-1.6C44.7,55.6,44.8,55.5,44.9,55.4"/>
<path class="st0" d="M47.3,51.3c-0.7-0.1-1.2-0.8-1.1-1.6c0.1-0.7,0.8-1.2,1.6-1.1c0.7,0.1,1.2,0.8,1.1,1.6
	C48.7,51,48,51.5,47.3,51.3"/>
<path class="st0" d="M52.3,47.1c-0.5-0.6-0.4-1.4,0.2-1.9c0.6-0.5,1.4-0.4,1.9,0.2c0.5,0.6,0.4,1.4-0.2,1.9
	C53.6,47.7,52.7,47.7,52.3,47.1"/>
<path class="st0" d="M55.4,53.4c1.1,0,2,0.6,2.5,1.6c0.2,0.4,0.3,0.8,0.3,1.2c0,1.5-1.2,2.8-2.8,2.8c-1.5,0-2.8-1.2-2.8-2.8
	c0-0.3,0.1-0.6,0.2-0.9C53.2,54.1,54.2,53.4,55.4,53.4"/>
<path class="st0" d="M67.2,38.4c-0.1,0-0.1,0-0.2,0c-0.9-0.2-1.9-0.4-3.1-0.5c0,0,0,0,0,0c-2.1-0.3-4.5-0.5-7.2-0.5
	c-3.5,0-6.7,0.4-9.6,1.2v-3.3V34c0.2,0,0.4,0,0.7,0l15.8,0.1h0.3c1.7,0,3.3,1,4.2,2.5l0.1,0.2c0.2,0.3,0.2,0.7,0,1.1
	C67.9,38.2,67.5,38.4,67.2,38.4"/>
<path class="st0" d="M35.4,50.7h-4.9l0.4-2.7l0.9-6.9l0-0.1l0.6-2.5l0-0.1l1.1-4.3L46.4,34v1.2v3.5C45.1,39.2,39.9,41.6,35.4,50.7"
	/>
<path class="st0" d="M2.8,58c-0.3,1-0.4,2.1-0.4,3.1c0,6.6,5.4,12,12,12c6.6,0,12-5.4,12-12c0-0.3,0-0.6,0-0.9
	c-0.1-1.3-0.4-2.5-0.8-3.6c-0.1-0.2-0.2-0.4-0.3-0.6c-0.5-1.1-1.1-2-1.9-2.9c-0.5-0.6-1.1-1.1-1.7-1.6c-0.6-0.5-1.3-0.9-2.1-1.3
	c-0.5-0.3-1.1-0.5-1.7-0.7c-0.7-0.2-1.3-0.3-2-0.4c-0.5-0.1-1-0.1-1.4-0.1c-0.1,0-0.1,0-0.2,0c-0.7,0-1.3,0.1-2,0.2
	c-0.6,0.1-1.1,0.2-1.6,0.4C10,50,9.5,50.2,8.9,50.5c-0.1,0.1-0.2,0.1-0.3,0.2c-1.2,0.7-2.4,1.6-3.3,2.7c-0.1,0.2-0.3,0.3-0.4,0.5
	c-0.8,1-1.4,2.1-1.8,3.3C2.9,57.4,2.9,57.7,2.8,58 M5.6,61.2c0-1.2,0.2-2.4,0.7-3.4c0.6-1.3,1.5-2.5,2.6-3.4c0,0,0.1,0,0.1-0.1
	c0.6-0.4,1.2-0.8,1.8-1.1c0.5-0.2,1-0.4,1.6-0.5c0.6-0.1,1.3-0.2,2-0.2h0c0.6,0,1.1,0.1,1.7,0.2c0.7,0.1,1.4,0.4,2.1,0.7
	c0.6,0.3,1.2,0.6,1.7,1.1c0.7,0.6,1.4,1.3,1.9,2c0.1,0.2,0.2,0.4,0.4,0.6c0.6,1,0.9,2.2,1.1,3.4c0,0.3,0,0.6,0,0.9
	c0,4.8-3.9,8.8-8.8,8.8C9.5,70,5.6,66,5.6,61.2"/>
<path class="st0" d="M14.4,58.2c1.3,0,2.5,0.9,2.8,2.1c0.1,0.3,0.2,0.6,0.2,0.9c0,1.7-1.3,3-3,3c-1.7,0-3-1.3-3-3
	c0-0.3,0.1-0.6,0.2-0.9C11.9,59.1,13,58.2,14.4,58.2"/>
<path class="st0" d="M18.2,55.5c-0.2,0.1-0.3,0.2-0.6,0.2c-0.5,0-1-0.4-1-1c0-0.5,0.4-1,1-1c0.2,0,0.3,0.1,0.4,0.1
	c0.3,0.2,0.5,0.5,0.5,0.8C18.6,55.1,18.5,55.4,18.2,55.5"/>
<path class="st0" d="M21.6,57.6c0.4,0.3,0.5,0.9,0.1,1.3c-0.3,0.4-0.9,0.5-1.3,0.1c-0.4-0.3-0.5-0.9-0.1-1.3
	C20.6,57.3,21.2,57.2,21.6,57.6"/>
<path class="st0" d="M21.1,62.2c0.5-0.1,1,0.3,1.1,0.8c0.1,0.5-0.3,1-0.8,1.1c-0.5,0.1-1-0.3-1.1-0.8C20.3,62.8,20.6,62.3,21.1,62.2
	"/>
<path class="st0" d="M18.9,66.2c0.5,0.3,0.6,0.9,0.3,1.3c-0.3,0.5-0.9,0.6-1.3,0.4c-0.5-0.3-0.6-0.8-0.4-1.3
	C17.8,66.1,18.4,65.9,18.9,66.2"/>
<path class="st0" d="M13.4,67.2c0.5-0.2,1,0.1,1.2,0.6c0.2,0.5-0.1,1-0.6,1.2c-0.5,0.2-1-0.1-1.2-0.6C12.6,68,12.9,67.4,13.4,67.2"
	/>
<path class="st0" d="M9.7,65.1c0.5,0.2,0.8,0.7,0.6,1.2c-0.2,0.5-0.7,0.8-1.2,0.6c-0.5-0.2-0.8-0.7-0.6-1.2
	C8.7,65.2,9.2,64.9,9.7,65.1"/>
<path class="st0" d="M7,60.7c0.5-0.3,1-0.1,1.3,0.4c0.3,0.5,0.1,1-0.4,1.3c-0.5,0.3-1,0.1-1.3-0.4C6.3,61.6,6.5,61,7,60.7"/>
<path class="st0" d="M9.8,57.1c0,0.2-0.1,0.4-0.3,0.5c-0.1,0.1-0.3,0.2-0.5,0.2c-0.1,0-0.2,0-0.3,0c-0.1,0-0.3-0.1-0.4-0.2
	c-0.3-0.2-0.4-0.6-0.4-0.9c0.1-0.5,0.6-0.8,1.1-0.8c0,0,0,0,0,0c0,0,0,0,0,0C9.5,56,9.9,56.5,9.8,57.1C9.8,57.1,9.8,57.1,9.8,57.1"
	/>
<path class="st0" d="M12.5,55.1c-0.2-0.1-0.3-0.1-0.4-0.3c-0.3-0.4-0.3-1,0.1-1.3c0.1,0,0.1-0.1,0.2-0.1c0.4-0.2,0.9-0.1,1.2,0.2
	c0.3,0.4,0.3,1-0.1,1.3C13.2,55.2,12.9,55.2,12.5,55.1"/>
<path class="st0" d="M1.9,42.8c0,0.1-0.1,0.3-0.1,0.4L5.3,43l26.1-1.9l0.7-2.6l1.2-4.7l2.1,0l0-0.1l2.4-13.4h13.3l-0.2,13.4l2.3,0
	V20.5h6.3l1.6,13.2l2.4,0l-1.7-14.6c0-0.1,0-0.3-0.1-0.4H36.3l-3.6,16.8l-9.4,0.9l-1.1,0.1v-1.8c0-0.7-0.2-1.2-0.6-1.7v-8.4h-2.2
	v8.2c-0.1,0.1-0.2,0.2-0.3,0.3c-0.3,0.4-0.5,1-0.5,1.6v2.1l-13,1.1c-0.1,0-0.2,0-0.2,0.1v2.4v0.4l-2.8,0.2C2.3,41.6,2,42.2,1.9,42.8
	 M2.3,42.8L2.3,42.8C2.5,42.2,2.7,41.6,3,41l28.6-2.1l-0.4,1.8L5.3,42.6L2.3,42.8z"/>
<path class="st0" d="M19.9,23h1.3c0.7,0,1.3,0.6,1.3,1.2h-3.9C18.6,23.5,19.2,23,19.9,23"/>
<path class="st0" d="M4.9,38.2v2.3l-2.2,0.2C3.3,39.5,4,38.6,4.9,38.2"/>
</svg>
