<?xml version="1.0" encoding="utf-8"?>
<!-- Generator: Adobe Illustrator 25.4.1, SVG Export Plug-In . SVG Version: 6.00 Build 0)  -->
<svg version="1.1" id="Layer_1" xmlns="http://www.w3.org/2000/svg" xmlns:xlink="http://www.w3.org/1999/xlink" x="0px" y="0px"
	 viewBox="0 0 78.3 88" style="enable-background:new 0 0 78.3 88;" xml:space="preserve">
<style type="text/css">
	.st0{fill:#015C50;}
	.st1{opacity:0.1;}
	.st2{clip-path:url(#SVGID_00000040567373811688792060000003614009305181402250_);fill:#010101;}
	.st3{opacity:0.2;}
	.st4{clip-path:url(#SVGID_00000114042909920139040490000011914155684967688860_);fill:#231F20;}
	.st5{clip-path:url(#SVGID_00000021828032581546276820000015288750891175565472_);fill:#231F20;}
	.st6{clip-path:url(#SVGID_00000128449157139622824560000011264505397790665866_);fill:#231F20;}
	.st7{clip-path:url(#SVGID_00000038370786332464025970000009765543899105151164_);fill:#231F20;}
	.st8{clip-path:url(#SVGID_00000025417380946325112280000000269898637645369228_);fill:#010101;}
	.st9{clip-path:url(#SVGID_00000072999487061429386160000003220345841369181854_);fill:#231F20;}
	.st10{clip-path:url(#SVGID_00000085956606186432646520000018296783117433284514_);fill:#231F20;}
	.st11{clip-path:url(#SVGID_00000147212216151327887500000011032611045919117484_);fill:#231F20;}
	.st12{clip-path:url(#SVGID_00000106148245894231704250000013478048867309815966_);fill:#231F20;}
	.st13{clip-path:url(#SVGID_00000038399937942588820430000011919743822606741377_);fill:#010101;}
	.st14{clip-path:url(#SVGID_00000075152253437633010110000015350697691592428942_);fill:#231F20;}
	.st15{clip-path:url(#SVGID_00000088103851160692500460000007416357682265740162_);fill:#231F20;}
	.st16{clip-path:url(#SVGID_00000036209788237869465380000003868569508159691445_);fill:#231F20;}
	.st17{clip-path:url(#SVGID_00000085209446100897491860000001090996501667180469_);fill:#231F20;}
</style>
<path class="st0" d="M40.2,74.4c0,1.2-1,2.2-2.3,2.2c-1.2,0-2.2-1-2.2-2.3l0.5-35.1c0-1.2,1-2.2,2.3-2.2s2.2,1,2.2,2.3L40.2,74.4z"
	/>
<path class="st0" d="M38.6,40.9c0,0,18.2-14.9,0.1-39C38.7,1.9,17.9,21.8,38.6,40.9"/>
<g class="st1">
	<g>
		<defs>
			<rect id="SVGID_1_" x="29.4" y="1.9" width="9.6" height="39"/>
		</defs>
		<clipPath id="SVGID_00000150805476107953041820000012278188140645122725_">
			<use xlink:href="#SVGID_1_"  style="overflow:visible;"/>
		</clipPath>
		<path style="clip-path:url(#SVGID_00000150805476107953041820000012278188140645122725_);fill:#010101;" d="M38.7,1.9
			c0.1,0.1,0.2,0.3,0.3,0.4l-0.4,38.6C17.9,21.8,38.7,1.9,38.7,1.9"/>
	</g>
</g>
<g class="st3">
	<g>
		<defs>
			<rect id="SVGID_00000066496326060377679060000000622883128912126115_" x="34.1" y="32.9" width="9.1" height="4.9"/>
		</defs>
		<clipPath id="SVGID_00000161597148884556645460000015995503561169158298_">
			<use xlink:href="#SVGID_00000066496326060377679060000000622883128912126115_"  style="overflow:visible;"/>
		</clipPath>
		<polygon style="clip-path:url(#SVGID_00000161597148884556645460000015995503561169158298_);fill:#231F20;" points="43.2,33.4 
			38.6,37.8 34.1,33.1 34.3,32.9 38.6,37.4 43,33.2 		"/>
	</g>
</g>
<g class="st3">
	<g>
		<defs>
			<rect id="SVGID_00000109725745988476444030000012326548066562518190_" x="34" y="26.6" width="9.1" height="4.9"/>
		</defs>
		<clipPath id="SVGID_00000008110338767752534540000010378933369030215044_">
			<use xlink:href="#SVGID_00000109725745988476444030000012326548066562518190_"  style="overflow:visible;"/>
		</clipPath>
		<polygon style="clip-path:url(#SVGID_00000008110338767752534540000010378933369030215044_);fill:#231F20;" points="43.1,27.1 
			38.5,31.5 34,26.8 34.2,26.6 38.5,31.1 42.9,26.9 		"/>
	</g>
</g>
<g class="st3">
	<g>
		<defs>
			<rect id="SVGID_00000072993862057080761410000017900403431147316387_" x="34.3" y="19.9" width="9.1" height="4.9"/>
		</defs>
		<clipPath id="SVGID_00000059309490512412511460000007497462840934909611_">
			<use xlink:href="#SVGID_00000072993862057080761410000017900403431147316387_"  style="overflow:visible;"/>
		</clipPath>
		<polygon style="clip-path:url(#SVGID_00000059309490512412511460000007497462840934909611_);fill:#231F20;" points="43.3,20.4 
			38.8,24.8 34.3,20.1 34.5,19.9 38.8,24.4 43.2,20.2 		"/>
	</g>
</g>
<g class="st3">
	<g>
		<defs>
			<rect id="SVGID_00000019669908093125477600000008688946344216160908_" x="34.3" y="13.8" width="9.1" height="4.9"/>
		</defs>
		<clipPath id="SVGID_00000125566846442910435220000017104292699808969401_">
			<use xlink:href="#SVGID_00000019669908093125477600000008688946344216160908_"  style="overflow:visible;"/>
		</clipPath>
		<polygon style="clip-path:url(#SVGID_00000125566846442910435220000017104292699808969401_);fill:#231F20;" points="43.3,14.3 
			38.8,18.7 34.3,14 34.5,13.8 38.8,18.3 43.2,14.1 		"/>
	</g>
</g>
<path class="st0" d="M37.1,54c0,0,2.3-23.4-27.5-27.7C9.6,26.4,9,55.1,37.1,54"/>
<g class="st1">
	<g>
		<defs>
			<rect id="SVGID_00000150075830243179803670000014456970469806743177_" x="9.6" y="26.4" width="27.5" height="27.7"/>
		</defs>
		<clipPath id="SVGID_00000021088829059063216010000012288161622370769817_">
			<use xlink:href="#SVGID_00000150075830243179803670000014456970469806743177_"  style="overflow:visible;"/>
		</clipPath>
		<path style="clip-path:url(#SVGID_00000021088829059063216010000012288161622370769817_);fill:#010101;" d="M9.6,26.4
			c0.2,0,0.4,0.1,0.5,0.1l27,27.6C9,55.1,9.6,26.4,9.6,26.4"/>
	</g>
</g>
<g class="st3">
	<g>
		<defs>
			<rect id="SVGID_00000048495293306725036270000001909322069703374216_" x="28.4" y="45.5" width="6.6" height="6.3"/>
		</defs>
		<clipPath id="SVGID_00000096766253495554245970000013032470021617019534_">
			<use xlink:href="#SVGID_00000048495293306725036270000001909322069703374216_"  style="overflow:visible;"/>
		</clipPath>
		<polygon style="clip-path:url(#SVGID_00000096766253495554245970000013032470021617019534_);fill:#231F20;" points="35.1,45.5 
			34.9,51.8 28.4,51.6 28.4,51.4 34.7,51.5 34.8,45.5 		"/>
	</g>
</g>
<g class="st3">
	<g>
		<defs>
			<rect id="SVGID_00000152958974415672903670000006089191269159586972_" x="23.9" y="41.1" width="6.6" height="6.3"/>
		</defs>
		<clipPath id="SVGID_00000025427043203854152190000003957303577321155999_">
			<use xlink:href="#SVGID_00000152958974415672903670000006089191269159586972_"  style="overflow:visible;"/>
		</clipPath>
		<polygon style="clip-path:url(#SVGID_00000025427043203854152190000003957303577321155999_);fill:#231F20;" points="30.5,41.1 
			30.4,47.4 23.9,47.3 23.9,47 30.1,47.1 30.3,41.1 		"/>
	</g>
</g>
<g class="st3">
	<g>
		<defs>
			<rect id="SVGID_00000078739342421210560020000002128427301364662965_" x="19.3" y="36.1" width="6.6" height="6.4"/>
		</defs>
		<clipPath id="SVGID_00000057123152609500920120000005021312117563854236_">
			<use xlink:href="#SVGID_00000078739342421210560020000002128427301364662965_"  style="overflow:visible;"/>
		</clipPath>
		<polygon style="clip-path:url(#SVGID_00000057123152609500920120000005021312117563854236_);fill:#231F20;" points="26,36.1 
			25.8,42.5 19.3,42.3 19.3,42 25.6,42.2 25.7,36.1 		"/>
	</g>
</g>
<g class="st3">
	<g>
		<defs>
			<rect id="SVGID_00000147190100731677427470000006818414836278406281_" x="15" y="31.8" width="6.6" height="6.3"/>
		</defs>
		<clipPath id="SVGID_00000072238412455413644590000011832722745900081085_">
			<use xlink:href="#SVGID_00000147190100731677427470000006818414836278406281_"  style="overflow:visible;"/>
		</clipPath>
		<polygon style="clip-path:url(#SVGID_00000072238412455413644590000011832722745900081085_);fill:#231F20;" points="21.7,31.8 
			21.5,38.2 15,38 15,37.8 21.3,37.9 21.4,31.8 		"/>
	</g>
</g>
<path class="st0" d="M38.7,54.9c0,0,14.9,3.7,20.4-15.2C59.1,39.7,40.6,36.6,38.7,54.9"/>
<g class="st1">
	<g>
		<defs>
			<rect id="SVGID_00000029758051053646726480000009386728523455510952_" x="38.7" y="39.5" width="20.4" height="15.4"/>
		</defs>
		<clipPath id="SVGID_00000049185528327845311740000011358405466316122016_">
			<use xlink:href="#SVGID_00000029758051053646726480000009386728523455510952_"  style="overflow:visible;"/>
		</clipPath>
		<path style="clip-path:url(#SVGID_00000049185528327845311740000011358405466316122016_);fill:#010101;" d="M59.1,39.7
			c0,0.1-0.1,0.2-0.1,0.3L38.7,54.9C40.6,36.6,59.1,39.7,59.1,39.7"/>
	</g>
</g>
<g class="st3">
	<g>
		<defs>
			<rect id="SVGID_00000053531881569777433680000014789354981921487235_" x="40.4" y="49.5" width="4.1" height="4.9"/>
		</defs>
		<clipPath id="SVGID_00000027603211271710664300000017467743513485111701_">
			<use xlink:href="#SVGID_00000053531881569777433680000014789354981921487235_"  style="overflow:visible;"/>
		</clipPath>
		<polygon style="clip-path:url(#SVGID_00000027603211271710664300000017467743513485111701_);fill:#231F20;" points="44.4,54.4 
			40.4,53.7 41.1,49.5 41.2,49.6 40.6,53.6 44.5,54.2 		"/>
	</g>
</g>
<g class="st3">
	<g>
		<defs>
			<rect id="SVGID_00000003795384670622614280000003778404328559407769_" x="43.6" y="47" width="4.1" height="4.9"/>
		</defs>
		<clipPath id="SVGID_00000065049289752599835480000016763727660241908391_">
			<use xlink:href="#SVGID_00000003795384670622614280000003778404328559407769_"  style="overflow:visible;"/>
		</clipPath>
		<polygon style="clip-path:url(#SVGID_00000065049289752599835480000016763727660241908391_);fill:#231F20;" points="47.7,51.9 
			43.6,51.2 44.3,47 44.5,47 43.8,51 47.7,51.7 		"/>
	</g>
</g>
<g class="st3">
	<g>
		<defs>
			<rect id="SVGID_00000087414770361574214930000013873999398671859871_" x="47.2" y="44.5" width="4.1" height="4.9"/>
		</defs>
		<clipPath id="SVGID_00000144335731751815262980000014358940834340962443_">
			<use xlink:href="#SVGID_00000087414770361574214930000013873999398671859871_"  style="overflow:visible;"/>
		</clipPath>
		<polygon style="clip-path:url(#SVGID_00000144335731751815262980000014358940834340962443_);fill:#231F20;" points="51.3,49.4 
			47.2,48.7 47.9,44.5 48.1,44.5 47.4,48.6 51.3,49.2 		"/>
	</g>
</g>
<g class="st3">
	<g>
		<defs>
			<rect id="SVGID_00000010310017644945847040000005049673503564372102_" x="50.4" y="42.1" width="4.1" height="4.9"/>
		</defs>
		<clipPath id="SVGID_00000120541904068038251140000008352238500371361460_">
			<use xlink:href="#SVGID_00000010310017644945847040000005049673503564372102_"  style="overflow:visible;"/>
		</clipPath>
		<polygon style="clip-path:url(#SVGID_00000120541904068038251140000008352238500371361460_);fill:#231F20;" points="54.5,47 
			50.4,46.3 51.1,42.1 51.3,42.2 50.6,46.2 54.5,46.8 		"/>
	</g>
</g>
<path class="st0" d="M22.2,85.8c0.2-0.7,1.6-6.1,4.6-5.6s6.4-0.5,7.5-3.6c1.1-3.1,5-5.5,8.9-4.1c3.9,1.3,4.6,7.2,8.1,7.1
	c3.5-0.1,11.3-0.8,14.5,3.3c3.2,4.1,1.7,2.9,1.7,2.9H22.2z"/>
<path class="st0" d="M12.9,85.8c0.2-0.7,1.6-6.1,4.6-5.6s6.4-0.5,7.5-3.6c1.1-3.1,5-5.5,8.9-4.1c3.9,1.3,4.6,7.2,8.1,7.1
	c3.5-0.1,11.3-0.8,14.5,3.3c3.2,4.1,1.7,2.9,1.7,2.9H12.9z"/>
</svg>
