<?xml version="1.0" encoding="utf-8"?>
<!-- Generator: Adobe Illustrator 25.4.1, SVG Export Plug-In . SVG Version: 6.00 Build 0)  -->
<svg version="1.1" id="Layer_1" xmlns="http://www.w3.org/2000/svg" xmlns:xlink="http://www.w3.org/1999/xlink" x="0px" y="0px"
	 viewBox="0 0 20.4 20.4" style="enable-background:new 0 0 20.4 20.4;" xml:space="preserve">
<style type="text/css">
	.st0{fill:#005D4F;}
</style>
<path class="st0" d="M3.7,19.4h10c1.8,0,3.3-1.5,3.3-3.3v-4.5c0-0.4-0.3-0.8-0.8-0.8c-0.4,0-0.8,0.3-0.8,0.8v4.5
	c0,0.9-0.8,1.7-1.7,1.7h-10c-0.9,0-1.7-0.8-1.7-1.7v-10c0-0.9,0.8-1.7,1.7-1.7H11c0.4,0,0.8-0.3,0.8-0.8c0-0.4-0.3-0.8-0.8-0.8H3.7
	c-1.8,0-3.3,1.5-3.3,3.3v10C0.5,17.9,1.9,19.4,3.7,19.4"/>
<path class="st0" d="M7.3,8.7C6.7,8,5.7,8,5.1,8.5c-0.7,0.6-0.7,1.6-0.2,2.2L8,14.3c0.3,0.3,0.7,0.5,1.2,0.5c0.5,0,0.9-0.2,1.2-0.5
	l9.3-10.8c0.6-0.7,0.5-1.6-0.2-2.2c-0.7-0.6-1.6-0.5-2.2,0.2l-8.1,9.4L7.3,8.7z"/>
</svg>
