<?xml version="1.0" encoding="utf-8"?>
<!-- Generator: Adobe Illustrator 25.4.1, SVG Export Plug-In . SVG Version: 6.00 Build 0)  -->
<svg version="1.1" id="Layer_1" xmlns="http://www.w3.org/2000/svg" xmlns:xlink="http://www.w3.org/1999/xlink" x="0px" y="0px"
	 viewBox="0 0 120 120" style="enable-background:new 0 0 120 120;" xml:space="preserve">
<style type="text/css">
	.st0{fill:#005D4F;}
</style>
<polygon class="st0" points="38.8,101 38.8,99.3 25.6,99.3 25.6,114.4 27.1,114.4 38.8,114.4 "/>
<polygon class="st0" points="57.5,91.2 57.5,89.5 44.4,89.5 44.4,114.4 45.9,114.4 57.5,114.4 "/>
<polygon class="st0" points="76.3,78.9 76.3,77.1 63.1,77.1 63.1,114.4 64.6,114.4 76.3,114.4 "/>
<polygon class="st0" points="95,70.1 95,68.4 81.9,68.4 81.9,114.4 83.4,114.4 95,114.4 "/>
<polygon class="st0" points="113.8,61.8 113.8,60.1 100.6,60.1 100.6,114.4 102.2,114.4 113.8,114.4 "/>
<path class="st0" d="M37.1,12.7c-4.4-0.1-3.9,4.9-3,7c1.5,2.1,3.2,3.1,5.2,3.1c0.3,0,0.7,0,1-0.1c0,0,0,0,0,0l0,0
	c3.3-0.5,4.9-2.8,5.3-7.4c0-0.1,0-2.5-0.2-3.5c0-0.1,0-0.2-0.1-0.3c-0.1,0.1-0.2,0.1-0.3,0.2C43.9,12.3,40.3,12.7,37.1,12.7"/>
<path class="st0" d="M32.3,9.6c-0.1,0.2-0.2,0.4-0.3,0.6C32.2,9.8,32.3,9.6,32.3,9.6"/>
<path class="st0" d="M30.9,14.8c0,3.4,4.8,6.6,3.8,5.6c-0.2-0.1-0.3-0.4-0.5-0.8c-0.9-2.1-1.5-7,3-7c3.2,0.1,6.8-0.4,8.1-1.1
	c0.1,0,0.2-0.1,0.3-0.2c0.8-0.6,1.7-2.2,1.7-2.2S45.5,9.4,45,8.6c-1.5-2.5-4.6-4.5-8.7-3.2c-3.4,1.1-4.1,4.2-4.1,4.2h0
	c0,0-0.1,0.2-0.3,0.6C31.6,11.1,30.9,13,30.9,14.8"/>
<path class="st0" d="M23.5,97.3c-0.6,2.3,2.1,0.9,4.4,1.6c0.4,0.1,9.2,0.5,9.6,0.5c0.9,0,1.1,0,1.1-0.2c0-1.1-0.8-2-1.7-2.5
	l-3.3-1.6c-0.1,0-0.1-0.1-0.2-0.1l-5.1-1.9c-1.6-0.6-3.3,0.2-3.9,1.8L23.5,97.3z"/>
<path class="st0" d="M45.4,83.5c-1.1,2.1,6.1,2.6,8.2,3.7c0.4,0.2,4.7,1.2,5.1,1.3c0.9,0.2,1.1,0.2,1.1,0c0.2-1.1-0.3-2.1-1.2-2.8
	c0,0-1.8-0.3-1.9-0.3L52.5,80c-1.4-0.9-4.9,0-5.8,1.4L45.4,83.5z"/>
<path class="st0" d="M33.5,95l5.9-20.7c0.1-0.3,0.1-0.6,0.2-1l0.6-13l5.9,3.7v17.7l8.6-0.2V61.8c0-1.5-0.8-2.8-2-3.6L44.4,53
	l-6.8,0.3l-5.6,0.2c0,0.2,0,0.4-0.1,0.5l-0.6,12.8l1,0.2c1.5,0.3,2.6,1.8,2.3,3.3l-0.9,4.8L32,84.4c-0.3,1.5-1.8,2.6-3.3,2.3
	L27,86.4L25.4,92L33.5,95z"/>
<path class="st0" d="M29.7,44.7l1.1-2.2l4.6-10.2l2.1,20.9l6.8-0.3c0.2-0.4,0.3-0.9,0.3-1.4l-0.4-4l7,3.8l2.9-6l-8-4.4l-3.4-9.5
	l-0.2-2.5c0,0-0.5-4.2-2.5-5.2l-5.5-1.2c-1,0.1-2.2,1.2-3.4,3.4c-0.2,0.3-8,16.5-8,16.5l-2.9,17l6.6,1.1L29.7,44.7z"/>
<path class="st0" d="M30.9,42.5l0.9,10.2c0,0.3,0.1,0.5,0.2,0.7l5.6-0.2l-2.1-20.9L30.9,42.5z"/>
<path class="st0" d="M52.8,52.2c1.6,0.9,3.6,0.3,4.5-1.3c0.9-1.6,0.3-3.6-1.3-4.5l-1.8-1l-2.9,6L52.8,52.2z"/>
<path class="st0" d="M8.4,71.3C8.4,71.3,8.4,71.3,8.4,71.3c0-0.1,0-0.1,0-0.2v0c0,0,0-0.1,0-0.1c0,0,0,0,0-0.1c0,0,0-0.1,0-0.1
	c0,0,0,0,0,0c0-0.1,0-0.1,0-0.2l-0.2,1.2l-1.5,8.1c-0.3,1.5,0.8,3,2.3,3.3l8.1,1.5l4.4,0.8L9.4,73.2C8.8,72.7,8.5,72,8.4,71.3"/>
<path class="st0" d="M32.2,83.5l0.9-5.1c0.1-0.7-0.6-1.3-1.3-1.1c-0.4,0.2-0.9,0.2-1.4,0.1l-6.9-1.2c0,0.1,0,0.1,0,0.2l-0.2,0.9
	c-0.1,0.5-0.5,0.8-0.9,0.8c-0.1,0-0.1,0-0.2,0l-4.1-0.7c-0.5-0.1-0.9-0.6-0.8-1.1l0.2-0.9c0-0.1,0-0.1,0.1-0.2l-6.9-1.2
	c-0.1,0-0.1,0-0.2,0c0,0,0,0,0,0c-0.1,0-0.1,0-0.2-0.1c0,0,0,0,0,0c-0.1,0-0.1,0-0.2-0.1c0,0,0,0,0,0c-0.3-0.1-0.6-0.3-0.8-0.5
	l12.1,12.1c0.1,0.1,0.3,0.2,0.5,0.3l5.1,0.9l0.7,0.1C29.8,86.9,31.8,85.6,32.2,83.5"/>
<path class="st0" d="M26.4,63.2c-0.2,0.3-0.4,0.6-0.6,0.9l-0.3,1.6l0.9,0.2l0.3-1.7C26.8,63.8,26.7,63.5,26.4,63.2"/>
<path class="st0" d="M19.7,63c0-0.1,0.1-0.2,0.2-0.2c0,0,0,0,0,0l0.4,0.1c-0.1-0.3-0.2-0.7-0.2-1h0c-0.1,0-0.1,0-0.2,0
	c-0.6,0-1,0.4-1.1,0.9l-0.3,1.7l0.9,0.2L19.7,63z"/>
<path class="st0" d="M18,76.3c0,0.2,0.1,0.4,0.3,0.4l4.1,0.7c0.2,0,0.4-0.1,0.4-0.3l0.2-0.9c0-0.1,0-0.2,0-0.2l-4.7-0.8
	c-0.1,0.1-0.1,0.1-0.1,0.2L18,76.3z"/>
<path class="st0" d="M23,76.3l-0.2,0.9c0,0.2-0.2,0.3-0.4,0.3l-4.1-0.7c-0.2,0-0.3-0.2-0.3-0.4l0.2-0.9c0-0.1,0.1-0.1,0.1-0.2
	l-0.6-0.1c0,0.1-0.1,0.1-0.1,0.2l-0.2,0.9c-0.1,0.5,0.3,1,0.8,1.1l4.1,0.7c0.1,0,0.1,0,0.2,0c0.5,0,0.9-0.3,0.9-0.8l0.2-0.9
	c0-0.1,0-0.1,0-0.2l-0.6-0.1C23,76.1,23,76.2,23,76.3"/>
<path class="st0" d="M8.5,70.8c0,0,0,0.1,0,0.1c0,0,0,0,0,0.1c0,0,0,0.1,0,0.1v0c0,0,0,0.1,0,0.1c0,0,0,0,0,0c0,0.7,0.4,1.4,0.9,1.9
	c0.2,0.2,0.5,0.4,0.8,0.5c0,0,0,0,0,0c0.1,0,0.1,0.1,0.2,0.1c0,0,0,0,0,0c0.1,0,0.1,0,0.2,0c0,0,0,0,0,0c0.1,0,0.1,0,0.2,0l6.9,1.2
	l0.6,0.1l4.7,0.8l0.6,0.1l6.9,1.2c1.5,0.3,3-0.8,3.3-2.3l0.7-3.9c0.4-2.1-1-4.1-3.1-4.4l0,0l-4.8-0.9l-0.9-0.2l-6.1-1.1l-0.9-0.2
	l-4.9-0.9c-2.1-0.4-4.1,1-4.4,3.1l-0.7,3.9C8.5,70.6,8.5,70.7,8.5,70.8C8.5,70.8,8.5,70.8,8.5,70.8"/>
<path class="st0" d="M22.9,65c0.2,0,0.4,0,0.6,0c0.9,0,1.7-0.4,2.4-1c0.3-0.3,0.5-0.6,0.6-0.9c0.1-0.3,0.2-0.6,0.3-0.9l0.3-1.6
	l-6.6-1.1l-0.3,1.6c0,0.2-0.1,0.4,0,0.7c0,0.3,0.1,0.7,0.2,1C20.7,64,21.7,64.8,22.9,65"/>
</svg>
