<?xml version="1.0" encoding="utf-8"?>
<!-- Generator: Adobe Illustrator 25.4.1, SVG Export Plug-In . SVG Version: 6.00 Build 0)  -->
<svg version="1.1" id="Layer_1" xmlns="http://www.w3.org/2000/svg" xmlns:xlink="http://www.w3.org/1999/xlink" x="0px" y="0px"
	 viewBox="0 0 120 120" style="enable-background:new 0 0 120 120;" xml:space="preserve">
<style type="text/css">
	.st0{fill:#005D4F;}
</style>
<path class="st0" d="M88.8,86.5C105.1,59,112.1,36.8,100,17.3c-5-8.1-12.5-11.9-20.8-13.4c6,12.6,6.1,27.6-0.4,40.7
	c4.8,2.6,8.1,7.7,8.1,13.6c0,8.5-6.9,15.4-15.4,15.4c-4.2,0-8-1.7-10.8-4.5L42.2,83.5c0.7,1.3,0.4,3-0.8,4l-3.9,3
	c-1.4,1.1-3.4,0.8-4.4-0.5L33,89.9c-1.1-1.4-0.8-3.4,0.5-4.4l3.9-3c1.2-1,3-0.9,4.1,0.2L60,68.2c-2.3-2.7-3.7-6.2-3.7-10.1
	c0-8.5,6.9-15.4,15.4-15.4c0.5,0,1,0,1.5,0.1c6.8-12.8,6.1-27.9-1-39.8c-9.7-0.5-19.8,1.2-27.7,2.2c-16.9,2.1-21-3-21-3
	c-3.7,11.2,5.8,16.6,5.8,16.6s1.7-0.8-2.4,4.2c-4,5-5.1,15.2-5.7,18c-0.6,2.8,1.5,2.6,2.2,5.7c0.7,3-9,16-10,19.2
	c-1,3.2,7.9,6.8,7.9,6.8L19.9,77c0.7,2.5,13.6,1.9,13.6,1.9c-2.8,4.2-10.2,3.6-10.2,3.6L21,84c0,0,1.2,1.7,2.4,2.6
	c1.1,1,1.1,6.1,1.1,6.1c-1.2,8.4,1,10.1,5.8,12.2c4.8,2.1,12.3-3,12.3-2.1c0,1,0.7,9.8,0.7,9.8c29,14.2,46.2-7.1,46.2-7.1
	C86.8,98.1,88.8,86.5,88.8,86.5"/>
</svg>
